G04 #@! TF.GenerationSoftware,KiCad,Pcbnew,5.1.2-f72e74a~84~ubuntu19.04.1*
G04 #@! TF.CreationDate,2019-10-23T18:47:17+02:00*
G04 #@! TF.ProjectId,upuaut,75707561-7574-42e6-9b69-6361645f7063,rev?*
G04 #@! TF.SameCoordinates,Original*
G04 #@! TF.FileFunction,Soldermask,Top*
G04 #@! TF.FilePolarity,Negative*
%FSLAX46Y46*%
G04 Gerber Fmt 4.6, Leading zero omitted, Abs format (unit mm)*
G04 Created by KiCad (PCBNEW 5.1.2-f72e74a~84~ubuntu19.04.1) date 2019-10-23 18:47:17*
%MOMM*%
%LPD*%
G04 APERTURE LIST*
%ADD10C,0.100000*%
G04 APERTURE END LIST*
D10*
G36*
X232375256Y-138391298D02*
G01*
X232481579Y-138412447D01*
X232782042Y-138536903D01*
X233052451Y-138717585D01*
X233282415Y-138947549D01*
X233463097Y-139217958D01*
X233587553Y-139518421D01*
X233651000Y-139837391D01*
X233651000Y-140162609D01*
X233587553Y-140481579D01*
X233463097Y-140782042D01*
X233282415Y-141052451D01*
X233052451Y-141282415D01*
X232782042Y-141463097D01*
X232481579Y-141587553D01*
X232375256Y-141608702D01*
X232162611Y-141651000D01*
X231837389Y-141651000D01*
X231624744Y-141608702D01*
X231518421Y-141587553D01*
X231217958Y-141463097D01*
X230947549Y-141282415D01*
X230717585Y-141052451D01*
X230536903Y-140782042D01*
X230412447Y-140481579D01*
X230349000Y-140162609D01*
X230349000Y-139837391D01*
X230412447Y-139518421D01*
X230536903Y-139217958D01*
X230717585Y-138947549D01*
X230947549Y-138717585D01*
X231217958Y-138536903D01*
X231518421Y-138412447D01*
X231624744Y-138391298D01*
X231837389Y-138349000D01*
X232162611Y-138349000D01*
X232375256Y-138391298D01*
X232375256Y-138391298D01*
G37*
G36*
X60375256Y-138391298D02*
G01*
X60481579Y-138412447D01*
X60782042Y-138536903D01*
X61052451Y-138717585D01*
X61282415Y-138947549D01*
X61463097Y-139217958D01*
X61587553Y-139518421D01*
X61651000Y-139837391D01*
X61651000Y-140162609D01*
X61587553Y-140481579D01*
X61463097Y-140782042D01*
X61282415Y-141052451D01*
X61052451Y-141282415D01*
X60782042Y-141463097D01*
X60481579Y-141587553D01*
X60375256Y-141608702D01*
X60162611Y-141651000D01*
X59837389Y-141651000D01*
X59624744Y-141608702D01*
X59518421Y-141587553D01*
X59217958Y-141463097D01*
X58947549Y-141282415D01*
X58717585Y-141052451D01*
X58536903Y-140782042D01*
X58412447Y-140481579D01*
X58349000Y-140162609D01*
X58349000Y-139837391D01*
X58412447Y-139518421D01*
X58536903Y-139217958D01*
X58717585Y-138947549D01*
X58947549Y-138717585D01*
X59217958Y-138536903D01*
X59518421Y-138412447D01*
X59624744Y-138391298D01*
X59837389Y-138349000D01*
X60162611Y-138349000D01*
X60375256Y-138391298D01*
X60375256Y-138391298D01*
G37*
G36*
X168748228Y-136381703D02*
G01*
X168903100Y-136445853D01*
X169042481Y-136538985D01*
X169161015Y-136657519D01*
X169254147Y-136796900D01*
X169318297Y-136951772D01*
X169351000Y-137116184D01*
X169351000Y-137283816D01*
X169318297Y-137448228D01*
X169254147Y-137603100D01*
X169161015Y-137742481D01*
X169042481Y-137861015D01*
X168903100Y-137954147D01*
X168748228Y-138018297D01*
X168583816Y-138051000D01*
X168416184Y-138051000D01*
X168251772Y-138018297D01*
X168096900Y-137954147D01*
X167957519Y-137861015D01*
X167838985Y-137742481D01*
X167745853Y-137603100D01*
X167681703Y-137448228D01*
X167649000Y-137283816D01*
X167649000Y-137116184D01*
X167681703Y-136951772D01*
X167745853Y-136796900D01*
X167838985Y-136657519D01*
X167957519Y-136538985D01*
X168096900Y-136445853D01*
X168251772Y-136381703D01*
X168416184Y-136349000D01*
X168583816Y-136349000D01*
X168748228Y-136381703D01*
X168748228Y-136381703D01*
G37*
G36*
X178648228Y-136281703D02*
G01*
X178803100Y-136345853D01*
X178942481Y-136438985D01*
X179061015Y-136557519D01*
X179154147Y-136696900D01*
X179218297Y-136851772D01*
X179251000Y-137016184D01*
X179251000Y-137183816D01*
X179218297Y-137348228D01*
X179154147Y-137503100D01*
X179061015Y-137642481D01*
X178942481Y-137761015D01*
X178803100Y-137854147D01*
X178648228Y-137918297D01*
X178483816Y-137951000D01*
X178316184Y-137951000D01*
X178151772Y-137918297D01*
X177996900Y-137854147D01*
X177857519Y-137761015D01*
X177738985Y-137642481D01*
X177645853Y-137503100D01*
X177581703Y-137348228D01*
X177549000Y-137183816D01*
X177549000Y-137016184D01*
X177581703Y-136851772D01*
X177645853Y-136696900D01*
X177738985Y-136557519D01*
X177857519Y-136438985D01*
X177996900Y-136345853D01*
X178151772Y-136281703D01*
X178316184Y-136249000D01*
X178483816Y-136249000D01*
X178648228Y-136281703D01*
X178648228Y-136281703D01*
G37*
G36*
X159991059Y-136371860D02*
G01*
X160017442Y-136382788D01*
X160127732Y-136428472D01*
X160250735Y-136510660D01*
X160355340Y-136615265D01*
X160419643Y-136711501D01*
X160437529Y-136738270D01*
X160494140Y-136874941D01*
X160523000Y-137020032D01*
X160523000Y-137167968D01*
X160494140Y-137313059D01*
X160479573Y-137348228D01*
X160437528Y-137449732D01*
X160355340Y-137572735D01*
X160250735Y-137677340D01*
X160127732Y-137759528D01*
X160127731Y-137759529D01*
X160127730Y-137759529D01*
X159991059Y-137816140D01*
X159845968Y-137845000D01*
X159698032Y-137845000D01*
X159552941Y-137816140D01*
X159416270Y-137759529D01*
X159416269Y-137759529D01*
X159416268Y-137759528D01*
X159293265Y-137677340D01*
X159188660Y-137572735D01*
X159106472Y-137449732D01*
X159064428Y-137348228D01*
X159049860Y-137313059D01*
X159021000Y-137167968D01*
X159021000Y-137020032D01*
X159049860Y-136874941D01*
X159106471Y-136738270D01*
X159124357Y-136711501D01*
X159188660Y-136615265D01*
X159293265Y-136510660D01*
X159416268Y-136428472D01*
X159526559Y-136382788D01*
X159552941Y-136371860D01*
X159698032Y-136343000D01*
X159845968Y-136343000D01*
X159991059Y-136371860D01*
X159991059Y-136371860D01*
G37*
G36*
X196177142Y-135298242D02*
G01*
X196325101Y-135359529D01*
X196458255Y-135448499D01*
X196571501Y-135561745D01*
X196660471Y-135694899D01*
X196721758Y-135842858D01*
X196753000Y-135999925D01*
X196753000Y-136160075D01*
X196721758Y-136317142D01*
X196660471Y-136465101D01*
X196571501Y-136598255D01*
X196458255Y-136711501D01*
X196325101Y-136800471D01*
X196177142Y-136861758D01*
X196020075Y-136893000D01*
X195859925Y-136893000D01*
X195702858Y-136861758D01*
X195554899Y-136800471D01*
X195421745Y-136711501D01*
X195308499Y-136598255D01*
X195219529Y-136465101D01*
X195158242Y-136317142D01*
X195127000Y-136160075D01*
X195127000Y-135999925D01*
X195158242Y-135842858D01*
X195219529Y-135694899D01*
X195308499Y-135561745D01*
X195421745Y-135448499D01*
X195554899Y-135359529D01*
X195702858Y-135298242D01*
X195859925Y-135267000D01*
X196020075Y-135267000D01*
X196177142Y-135298242D01*
X196177142Y-135298242D01*
G37*
G36*
X188557142Y-135298242D02*
G01*
X188705101Y-135359529D01*
X188838255Y-135448499D01*
X188951501Y-135561745D01*
X189040471Y-135694899D01*
X189101758Y-135842858D01*
X189133000Y-135999925D01*
X189133000Y-136160075D01*
X189101758Y-136317142D01*
X189040471Y-136465101D01*
X188951501Y-136598255D01*
X188838255Y-136711501D01*
X188705101Y-136800471D01*
X188557142Y-136861758D01*
X188400075Y-136893000D01*
X188239925Y-136893000D01*
X188082858Y-136861758D01*
X187934899Y-136800471D01*
X187801745Y-136711501D01*
X187688499Y-136598255D01*
X187599529Y-136465101D01*
X187538242Y-136317142D01*
X187507000Y-136160075D01*
X187507000Y-135999925D01*
X187538242Y-135842858D01*
X187599529Y-135694899D01*
X187688499Y-135561745D01*
X187801745Y-135448499D01*
X187934899Y-135359529D01*
X188082858Y-135298242D01*
X188239925Y-135267000D01*
X188400075Y-135267000D01*
X188557142Y-135298242D01*
X188557142Y-135298242D01*
G37*
G36*
X191097142Y-135298242D02*
G01*
X191245101Y-135359529D01*
X191378255Y-135448499D01*
X191491501Y-135561745D01*
X191580471Y-135694899D01*
X191641758Y-135842858D01*
X191673000Y-135999925D01*
X191673000Y-136160075D01*
X191641758Y-136317142D01*
X191580471Y-136465101D01*
X191491501Y-136598255D01*
X191378255Y-136711501D01*
X191245101Y-136800471D01*
X191097142Y-136861758D01*
X190940075Y-136893000D01*
X190779925Y-136893000D01*
X190622858Y-136861758D01*
X190474899Y-136800471D01*
X190341745Y-136711501D01*
X190228499Y-136598255D01*
X190139529Y-136465101D01*
X190078242Y-136317142D01*
X190047000Y-136160075D01*
X190047000Y-135999925D01*
X190078242Y-135842858D01*
X190139529Y-135694899D01*
X190228499Y-135561745D01*
X190341745Y-135448499D01*
X190474899Y-135359529D01*
X190622858Y-135298242D01*
X190779925Y-135267000D01*
X190940075Y-135267000D01*
X191097142Y-135298242D01*
X191097142Y-135298242D01*
G37*
G36*
X193637142Y-135298242D02*
G01*
X193785101Y-135359529D01*
X193918255Y-135448499D01*
X194031501Y-135561745D01*
X194120471Y-135694899D01*
X194181758Y-135842858D01*
X194213000Y-135999925D01*
X194213000Y-136160075D01*
X194181758Y-136317142D01*
X194120471Y-136465101D01*
X194031501Y-136598255D01*
X193918255Y-136711501D01*
X193785101Y-136800471D01*
X193637142Y-136861758D01*
X193480075Y-136893000D01*
X193319925Y-136893000D01*
X193162858Y-136861758D01*
X193014899Y-136800471D01*
X192881745Y-136711501D01*
X192768499Y-136598255D01*
X192679529Y-136465101D01*
X192618242Y-136317142D01*
X192587000Y-136160075D01*
X192587000Y-135999925D01*
X192618242Y-135842858D01*
X192679529Y-135694899D01*
X192768499Y-135561745D01*
X192881745Y-135448499D01*
X193014899Y-135359529D01*
X193162858Y-135298242D01*
X193319925Y-135267000D01*
X193480075Y-135267000D01*
X193637142Y-135298242D01*
X193637142Y-135298242D01*
G37*
G36*
X143661665Y-135346622D02*
G01*
X143735222Y-135353867D01*
X143876786Y-135396810D01*
X144007252Y-135466546D01*
X144037040Y-135490992D01*
X144121607Y-135560393D01*
X144191008Y-135644960D01*
X144215454Y-135674748D01*
X144285190Y-135805214D01*
X144328133Y-135946778D01*
X144342633Y-136094000D01*
X144328133Y-136241222D01*
X144285190Y-136382786D01*
X144215454Y-136513252D01*
X144194335Y-136538985D01*
X144121607Y-136627607D01*
X144061004Y-136677341D01*
X144007252Y-136721454D01*
X143876786Y-136791190D01*
X143735222Y-136834133D01*
X143661665Y-136841378D01*
X143624888Y-136845000D01*
X143551112Y-136845000D01*
X143514335Y-136841378D01*
X143440778Y-136834133D01*
X143299214Y-136791190D01*
X143168748Y-136721454D01*
X143114996Y-136677341D01*
X143054393Y-136627607D01*
X142981665Y-136538985D01*
X142960546Y-136513252D01*
X142890810Y-136382786D01*
X142847867Y-136241222D01*
X142833367Y-136094000D01*
X142847867Y-135946778D01*
X142890810Y-135805214D01*
X142960546Y-135674748D01*
X142984992Y-135644960D01*
X143054393Y-135560393D01*
X143138960Y-135490992D01*
X143168748Y-135466546D01*
X143299214Y-135396810D01*
X143440778Y-135353867D01*
X143514335Y-135346622D01*
X143551112Y-135343000D01*
X143624888Y-135343000D01*
X143661665Y-135346622D01*
X143661665Y-135346622D01*
G37*
G36*
X138219059Y-135371860D02*
G01*
X138279294Y-135396810D01*
X138355732Y-135428472D01*
X138478735Y-135510660D01*
X138583340Y-135615265D01*
X138636550Y-135694900D01*
X138665529Y-135738270D01*
X138722140Y-135874941D01*
X138747001Y-135999925D01*
X138751000Y-136020033D01*
X138751000Y-136167967D01*
X138722140Y-136313059D01*
X138665528Y-136449732D01*
X138583340Y-136572735D01*
X138478735Y-136677340D01*
X138355732Y-136759528D01*
X138355731Y-136759529D01*
X138355730Y-136759529D01*
X138219059Y-136816140D01*
X138073968Y-136845000D01*
X137926032Y-136845000D01*
X137780941Y-136816140D01*
X137644270Y-136759529D01*
X137644269Y-136759529D01*
X137644268Y-136759528D01*
X137521265Y-136677340D01*
X137416660Y-136572735D01*
X137334472Y-136449732D01*
X137277860Y-136313059D01*
X137249000Y-136167967D01*
X137249000Y-136020033D01*
X137253000Y-135999925D01*
X137277860Y-135874941D01*
X137334471Y-135738270D01*
X137363450Y-135694900D01*
X137416660Y-135615265D01*
X137521265Y-135510660D01*
X137644268Y-135428472D01*
X137720707Y-135396810D01*
X137780941Y-135371860D01*
X137926032Y-135343000D01*
X138073968Y-135343000D01*
X138219059Y-135371860D01*
X138219059Y-135371860D01*
G37*
G36*
X132885059Y-135371860D02*
G01*
X132945294Y-135396810D01*
X133021732Y-135428472D01*
X133144735Y-135510660D01*
X133249340Y-135615265D01*
X133302550Y-135694900D01*
X133331529Y-135738270D01*
X133388140Y-135874941D01*
X133413001Y-135999925D01*
X133417000Y-136020033D01*
X133417000Y-136167967D01*
X133388140Y-136313059D01*
X133331528Y-136449732D01*
X133249340Y-136572735D01*
X133144735Y-136677340D01*
X133021732Y-136759528D01*
X133021731Y-136759529D01*
X133021730Y-136759529D01*
X132885059Y-136816140D01*
X132739968Y-136845000D01*
X132592032Y-136845000D01*
X132446941Y-136816140D01*
X132310270Y-136759529D01*
X132310269Y-136759529D01*
X132310268Y-136759528D01*
X132187265Y-136677340D01*
X132082660Y-136572735D01*
X132000472Y-136449732D01*
X131943860Y-136313059D01*
X131915000Y-136167967D01*
X131915000Y-136020033D01*
X131919000Y-135999925D01*
X131943860Y-135874941D01*
X132000471Y-135738270D01*
X132029450Y-135694900D01*
X132082660Y-135615265D01*
X132187265Y-135510660D01*
X132310268Y-135428472D01*
X132386707Y-135396810D01*
X132446941Y-135371860D01*
X132592032Y-135343000D01*
X132739968Y-135343000D01*
X132885059Y-135371860D01*
X132885059Y-135371860D01*
G37*
G36*
X149903059Y-135371860D02*
G01*
X149963294Y-135396810D01*
X150039732Y-135428472D01*
X150162735Y-135510660D01*
X150267340Y-135615265D01*
X150320550Y-135694900D01*
X150349529Y-135738270D01*
X150406140Y-135874941D01*
X150431001Y-135999925D01*
X150435000Y-136020033D01*
X150435000Y-136167967D01*
X150406140Y-136313059D01*
X150349528Y-136449732D01*
X150267340Y-136572735D01*
X150162735Y-136677340D01*
X150039732Y-136759528D01*
X150039731Y-136759529D01*
X150039730Y-136759529D01*
X149903059Y-136816140D01*
X149757968Y-136845000D01*
X149610032Y-136845000D01*
X149464941Y-136816140D01*
X149328270Y-136759529D01*
X149328269Y-136759529D01*
X149328268Y-136759528D01*
X149205265Y-136677340D01*
X149100660Y-136572735D01*
X149018472Y-136449732D01*
X148961860Y-136313059D01*
X148933000Y-136167967D01*
X148933000Y-136020033D01*
X148937000Y-135999925D01*
X148961860Y-135874941D01*
X149018471Y-135738270D01*
X149047450Y-135694900D01*
X149100660Y-135615265D01*
X149205265Y-135510660D01*
X149328268Y-135428472D01*
X149404707Y-135396810D01*
X149464941Y-135371860D01*
X149610032Y-135343000D01*
X149757968Y-135343000D01*
X149903059Y-135371860D01*
X149903059Y-135371860D01*
G37*
G36*
X169351000Y-135551000D02*
G01*
X167649000Y-135551000D01*
X167649000Y-133849000D01*
X169351000Y-133849000D01*
X169351000Y-135551000D01*
X169351000Y-135551000D01*
G37*
G36*
X179251000Y-135451000D02*
G01*
X177549000Y-135451000D01*
X177549000Y-133749000D01*
X179251000Y-133749000D01*
X179251000Y-135451000D01*
X179251000Y-135451000D01*
G37*
G36*
X109519059Y-132877860D02*
G01*
X109655732Y-132934472D01*
X109778735Y-133016660D01*
X109883340Y-133121265D01*
X109965528Y-133244268D01*
X110022140Y-133380941D01*
X110051000Y-133526033D01*
X110051000Y-133673967D01*
X110022140Y-133819059D01*
X109965528Y-133955732D01*
X109883340Y-134078735D01*
X109778735Y-134183340D01*
X109655732Y-134265528D01*
X109655731Y-134265529D01*
X109655730Y-134265529D01*
X109519059Y-134322140D01*
X109373968Y-134351000D01*
X109226032Y-134351000D01*
X109080941Y-134322140D01*
X108944270Y-134265529D01*
X108944269Y-134265529D01*
X108944268Y-134265528D01*
X108821265Y-134183340D01*
X108716660Y-134078735D01*
X108634472Y-133955732D01*
X108577860Y-133819059D01*
X108549000Y-133673967D01*
X108549000Y-133526033D01*
X108577860Y-133380941D01*
X108634472Y-133244268D01*
X108716660Y-133121265D01*
X108821265Y-133016660D01*
X108944268Y-132934472D01*
X109080941Y-132877860D01*
X109226032Y-132849000D01*
X109373968Y-132849000D01*
X109519059Y-132877860D01*
X109519059Y-132877860D01*
G37*
G36*
X210586823Y-130801313D02*
G01*
X210747242Y-130849976D01*
X210879906Y-130920886D01*
X210895078Y-130928996D01*
X211024659Y-131035341D01*
X211131004Y-131164922D01*
X211131005Y-131164924D01*
X211210024Y-131312758D01*
X211258687Y-131473177D01*
X211275117Y-131640000D01*
X211258687Y-131806823D01*
X211210024Y-131967242D01*
X211192837Y-131999396D01*
X211131004Y-132115078D01*
X211024659Y-132244659D01*
X210895078Y-132351004D01*
X210895076Y-132351005D01*
X210747242Y-132430024D01*
X210586823Y-132478687D01*
X210461804Y-132491000D01*
X210378196Y-132491000D01*
X210253177Y-132478687D01*
X210092758Y-132430024D01*
X209944924Y-132351005D01*
X209944922Y-132351004D01*
X209815341Y-132244659D01*
X209708996Y-132115078D01*
X209647163Y-131999396D01*
X209629976Y-131967242D01*
X209581313Y-131806823D01*
X209564883Y-131640000D01*
X209581313Y-131473177D01*
X209629976Y-131312758D01*
X209708995Y-131164924D01*
X209708996Y-131164922D01*
X209815341Y-131035341D01*
X209944922Y-130928996D01*
X209960094Y-130920886D01*
X210092758Y-130849976D01*
X210253177Y-130801313D01*
X210378196Y-130789000D01*
X210461804Y-130789000D01*
X210586823Y-130801313D01*
X210586823Y-130801313D01*
G37*
G36*
X202966823Y-130801313D02*
G01*
X203127242Y-130849976D01*
X203259906Y-130920886D01*
X203275078Y-130928996D01*
X203404659Y-131035341D01*
X203511004Y-131164922D01*
X203511005Y-131164924D01*
X203590024Y-131312758D01*
X203638687Y-131473177D01*
X203655117Y-131640000D01*
X203638687Y-131806823D01*
X203590024Y-131967242D01*
X203572837Y-131999396D01*
X203511004Y-132115078D01*
X203404659Y-132244659D01*
X203275078Y-132351004D01*
X203275076Y-132351005D01*
X203127242Y-132430024D01*
X202966823Y-132478687D01*
X202841804Y-132491000D01*
X202758196Y-132491000D01*
X202633177Y-132478687D01*
X202472758Y-132430024D01*
X202324924Y-132351005D01*
X202324922Y-132351004D01*
X202195341Y-132244659D01*
X202088996Y-132115078D01*
X202027163Y-131999396D01*
X202009976Y-131967242D01*
X201961313Y-131806823D01*
X201944883Y-131640000D01*
X201961313Y-131473177D01*
X202009976Y-131312758D01*
X202088995Y-131164924D01*
X202088996Y-131164922D01*
X202195341Y-131035341D01*
X202324922Y-130928996D01*
X202340094Y-130920886D01*
X202472758Y-130849976D01*
X202633177Y-130801313D01*
X202758196Y-130789000D01*
X202841804Y-130789000D01*
X202966823Y-130801313D01*
X202966823Y-130801313D01*
G37*
G36*
X96399180Y-128983340D02*
G01*
X96566410Y-129016604D01*
X96848674Y-129133521D01*
X97102705Y-129303259D01*
X97318741Y-129519295D01*
X97488479Y-129773326D01*
X97605396Y-130055590D01*
X97665000Y-130355240D01*
X97665000Y-130660760D01*
X97605396Y-130960410D01*
X97488479Y-131242674D01*
X97318741Y-131496705D01*
X97102705Y-131712741D01*
X96848674Y-131882479D01*
X96566410Y-131999396D01*
X96416585Y-132029198D01*
X96266761Y-132059000D01*
X95961239Y-132059000D01*
X95811415Y-132029198D01*
X95661590Y-131999396D01*
X95379326Y-131882479D01*
X95125295Y-131712741D01*
X94909259Y-131496705D01*
X94739521Y-131242674D01*
X94622604Y-130960410D01*
X94563000Y-130660760D01*
X94563000Y-130355240D01*
X94622604Y-130055590D01*
X94739521Y-129773326D01*
X94909259Y-129519295D01*
X95125295Y-129303259D01*
X95379326Y-129133521D01*
X95661590Y-129016604D01*
X95828820Y-128983340D01*
X95961239Y-128957000D01*
X96266761Y-128957000D01*
X96399180Y-128983340D01*
X96399180Y-128983340D01*
G37*
G36*
X68967180Y-128983340D02*
G01*
X69134410Y-129016604D01*
X69416674Y-129133521D01*
X69670705Y-129303259D01*
X69886741Y-129519295D01*
X70056479Y-129773326D01*
X70173396Y-130055590D01*
X70233000Y-130355240D01*
X70233000Y-130660760D01*
X70173396Y-130960410D01*
X70056479Y-131242674D01*
X69886741Y-131496705D01*
X69670705Y-131712741D01*
X69416674Y-131882479D01*
X69134410Y-131999396D01*
X68984585Y-132029198D01*
X68834761Y-132059000D01*
X68529239Y-132059000D01*
X68379415Y-132029198D01*
X68229590Y-131999396D01*
X67947326Y-131882479D01*
X67693295Y-131712741D01*
X67477259Y-131496705D01*
X67307521Y-131242674D01*
X67190604Y-130960410D01*
X67131000Y-130660760D01*
X67131000Y-130355240D01*
X67190604Y-130055590D01*
X67307521Y-129773326D01*
X67477259Y-129519295D01*
X67693295Y-129303259D01*
X67947326Y-129133521D01*
X68229590Y-129016604D01*
X68396820Y-128983340D01*
X68529239Y-128957000D01*
X68834761Y-128957000D01*
X68967180Y-128983340D01*
X68967180Y-128983340D01*
G37*
G36*
X82683180Y-128983340D02*
G01*
X82850410Y-129016604D01*
X83132674Y-129133521D01*
X83386705Y-129303259D01*
X83602741Y-129519295D01*
X83772479Y-129773326D01*
X83889396Y-130055590D01*
X83949000Y-130355240D01*
X83949000Y-130660760D01*
X83889396Y-130960410D01*
X83772479Y-131242674D01*
X83602741Y-131496705D01*
X83386705Y-131712741D01*
X83132674Y-131882479D01*
X82850410Y-131999396D01*
X82700585Y-132029198D01*
X82550761Y-132059000D01*
X82245239Y-132059000D01*
X82095415Y-132029198D01*
X81945590Y-131999396D01*
X81663326Y-131882479D01*
X81409295Y-131712741D01*
X81193259Y-131496705D01*
X81023521Y-131242674D01*
X80906604Y-130960410D01*
X80847000Y-130660760D01*
X80847000Y-130355240D01*
X80906604Y-130055590D01*
X81023521Y-129773326D01*
X81193259Y-129519295D01*
X81409295Y-129303259D01*
X81663326Y-129133521D01*
X81945590Y-129016604D01*
X82112820Y-128983340D01*
X82245239Y-128957000D01*
X82550761Y-128957000D01*
X82683180Y-128983340D01*
X82683180Y-128983340D01*
G37*
G36*
X118985000Y-130541000D02*
G01*
X116883000Y-130541000D01*
X116883000Y-128439000D01*
X118985000Y-128439000D01*
X118985000Y-130541000D01*
X118985000Y-130541000D01*
G37*
G36*
X121740564Y-128479389D02*
G01*
X121931833Y-128558615D01*
X121931835Y-128558616D01*
X122103973Y-128673635D01*
X122250365Y-128820027D01*
X122339038Y-128952735D01*
X122365385Y-128992167D01*
X122444611Y-129183436D01*
X122485000Y-129386484D01*
X122485000Y-129593516D01*
X122444611Y-129796564D01*
X122365385Y-129987833D01*
X122365384Y-129987835D01*
X122250365Y-130159973D01*
X122103973Y-130306365D01*
X121931835Y-130421384D01*
X121931834Y-130421385D01*
X121931833Y-130421385D01*
X121740564Y-130500611D01*
X121537516Y-130541000D01*
X121330484Y-130541000D01*
X121127436Y-130500611D01*
X120936167Y-130421385D01*
X120936166Y-130421385D01*
X120936165Y-130421384D01*
X120764027Y-130306365D01*
X120617635Y-130159973D01*
X120502616Y-129987835D01*
X120502615Y-129987833D01*
X120423389Y-129796564D01*
X120383000Y-129593516D01*
X120383000Y-129386484D01*
X120423389Y-129183436D01*
X120502615Y-128992167D01*
X120528963Y-128952735D01*
X120617635Y-128820027D01*
X120764027Y-128673635D01*
X120936165Y-128558616D01*
X120936167Y-128558615D01*
X121127436Y-128479389D01*
X121330484Y-128439000D01*
X121537516Y-128439000D01*
X121740564Y-128479389D01*
X121740564Y-128479389D01*
G37*
G36*
X159845665Y-128726622D02*
G01*
X159919222Y-128733867D01*
X160060786Y-128776810D01*
X160060788Y-128776811D01*
X160078716Y-128786394D01*
X160191252Y-128846546D01*
X160221040Y-128870992D01*
X160305607Y-128940393D01*
X160368150Y-129016604D01*
X160399454Y-129054748D01*
X160469190Y-129185214D01*
X160512133Y-129326778D01*
X160526633Y-129474000D01*
X160512133Y-129621222D01*
X160469190Y-129762786D01*
X160399454Y-129893252D01*
X160375008Y-129923040D01*
X160305607Y-130007607D01*
X160241602Y-130060133D01*
X160191252Y-130101454D01*
X160060786Y-130171190D01*
X159919222Y-130214133D01*
X159845665Y-130221378D01*
X159808888Y-130225000D01*
X159735112Y-130225000D01*
X159698335Y-130221378D01*
X159624778Y-130214133D01*
X159483214Y-130171190D01*
X159352748Y-130101454D01*
X159302398Y-130060133D01*
X159238393Y-130007607D01*
X159168992Y-129923040D01*
X159144546Y-129893252D01*
X159074810Y-129762786D01*
X159031867Y-129621222D01*
X159017367Y-129474000D01*
X159031867Y-129326778D01*
X159074810Y-129185214D01*
X159144546Y-129054748D01*
X159175850Y-129016604D01*
X159238393Y-128940393D01*
X159322960Y-128870992D01*
X159352748Y-128846546D01*
X159465284Y-128786394D01*
X159483212Y-128776811D01*
X159483214Y-128776810D01*
X159624778Y-128733867D01*
X159698335Y-128726622D01*
X159735112Y-128723000D01*
X159808888Y-128723000D01*
X159845665Y-128726622D01*
X159845665Y-128726622D01*
G37*
G36*
X166473665Y-128572622D02*
G01*
X166547222Y-128579867D01*
X166688786Y-128622810D01*
X166819252Y-128692546D01*
X166849040Y-128716992D01*
X166933607Y-128786393D01*
X166982971Y-128846545D01*
X167027454Y-128900748D01*
X167097190Y-129031214D01*
X167140133Y-129172778D01*
X167154633Y-129320000D01*
X167140133Y-129467222D01*
X167097190Y-129608786D01*
X167027454Y-129739252D01*
X167008140Y-129762786D01*
X166933607Y-129853607D01*
X166849040Y-129923008D01*
X166819252Y-129947454D01*
X166819250Y-129947455D01*
X166706715Y-130007607D01*
X166688786Y-130017190D01*
X166547222Y-130060133D01*
X166473665Y-130067378D01*
X166436888Y-130071000D01*
X166363112Y-130071000D01*
X166326335Y-130067378D01*
X166252778Y-130060133D01*
X166111214Y-130017190D01*
X166093286Y-130007607D01*
X165980750Y-129947455D01*
X165980748Y-129947454D01*
X165950960Y-129923008D01*
X165866393Y-129853607D01*
X165791860Y-129762786D01*
X165772546Y-129739252D01*
X165702810Y-129608786D01*
X165659867Y-129467222D01*
X165645367Y-129320000D01*
X165659867Y-129172778D01*
X165702810Y-129031214D01*
X165772546Y-128900748D01*
X165817029Y-128846545D01*
X165866393Y-128786393D01*
X165950960Y-128716992D01*
X165980748Y-128692546D01*
X166111214Y-128622810D01*
X166252778Y-128579867D01*
X166326335Y-128572622D01*
X166363112Y-128569000D01*
X166436888Y-128569000D01*
X166473665Y-128572622D01*
X166473665Y-128572622D01*
G37*
G36*
X210586823Y-128261313D02*
G01*
X210747242Y-128309976D01*
X210879906Y-128380886D01*
X210895078Y-128388996D01*
X211024659Y-128495341D01*
X211131004Y-128624922D01*
X211131005Y-128624924D01*
X211210024Y-128772758D01*
X211210025Y-128772761D01*
X211219083Y-128802620D01*
X211258687Y-128933177D01*
X211275117Y-129100000D01*
X211258687Y-129266823D01*
X211210024Y-129427242D01*
X211160820Y-129519296D01*
X211131004Y-129575078D01*
X211024659Y-129704659D01*
X210895078Y-129811004D01*
X210895076Y-129811005D01*
X210747242Y-129890024D01*
X210747239Y-129890025D01*
X210736601Y-129893252D01*
X210586823Y-129938687D01*
X210461804Y-129951000D01*
X210378196Y-129951000D01*
X210253177Y-129938687D01*
X210103399Y-129893252D01*
X210092761Y-129890025D01*
X210092758Y-129890024D01*
X209944924Y-129811005D01*
X209944922Y-129811004D01*
X209815341Y-129704659D01*
X209708996Y-129575078D01*
X209679180Y-129519296D01*
X209629976Y-129427242D01*
X209581313Y-129266823D01*
X209564883Y-129100000D01*
X209581313Y-128933177D01*
X209620917Y-128802620D01*
X209629975Y-128772761D01*
X209629976Y-128772758D01*
X209708995Y-128624924D01*
X209708996Y-128624922D01*
X209815341Y-128495341D01*
X209944922Y-128388996D01*
X209960094Y-128380886D01*
X210092758Y-128309976D01*
X210253177Y-128261313D01*
X210378196Y-128249000D01*
X210461804Y-128249000D01*
X210586823Y-128261313D01*
X210586823Y-128261313D01*
G37*
G36*
X203651000Y-129951000D02*
G01*
X201949000Y-129951000D01*
X201949000Y-128249000D01*
X203651000Y-128249000D01*
X203651000Y-129951000D01*
X203651000Y-129951000D01*
G37*
G36*
X132739665Y-127726622D02*
G01*
X132813222Y-127733867D01*
X132954786Y-127776810D01*
X133085252Y-127846546D01*
X133109437Y-127866394D01*
X133199607Y-127940393D01*
X133269008Y-128024960D01*
X133293454Y-128054748D01*
X133363190Y-128185214D01*
X133406133Y-128326778D01*
X133420633Y-128474000D01*
X133406133Y-128621222D01*
X133363190Y-128762786D01*
X133293454Y-128893252D01*
X133269008Y-128923040D01*
X133199607Y-129007607D01*
X133139004Y-129057341D01*
X133085252Y-129101454D01*
X132954786Y-129171190D01*
X132813222Y-129214133D01*
X132739665Y-129221378D01*
X132702888Y-129225000D01*
X132629112Y-129225000D01*
X132592335Y-129221378D01*
X132518778Y-129214133D01*
X132377214Y-129171190D01*
X132246748Y-129101454D01*
X132192996Y-129057341D01*
X132132393Y-129007607D01*
X132062992Y-128923040D01*
X132038546Y-128893252D01*
X131968810Y-128762786D01*
X131925867Y-128621222D01*
X131911367Y-128474000D01*
X131925867Y-128326778D01*
X131968810Y-128185214D01*
X132038546Y-128054748D01*
X132062992Y-128024960D01*
X132132393Y-127940393D01*
X132222563Y-127866394D01*
X132246748Y-127846546D01*
X132377214Y-127776810D01*
X132518778Y-127733867D01*
X132592335Y-127726622D01*
X132629112Y-127723000D01*
X132702888Y-127723000D01*
X132739665Y-127726622D01*
X132739665Y-127726622D01*
G37*
G36*
X149757665Y-127726622D02*
G01*
X149831222Y-127733867D01*
X149972786Y-127776810D01*
X150103252Y-127846546D01*
X150127437Y-127866394D01*
X150217607Y-127940393D01*
X150287008Y-128024960D01*
X150311454Y-128054748D01*
X150381190Y-128185214D01*
X150424133Y-128326778D01*
X150438633Y-128474000D01*
X150424133Y-128621222D01*
X150381190Y-128762786D01*
X150311454Y-128893252D01*
X150287008Y-128923040D01*
X150217607Y-129007607D01*
X150157004Y-129057341D01*
X150103252Y-129101454D01*
X149972786Y-129171190D01*
X149831222Y-129214133D01*
X149757665Y-129221378D01*
X149720888Y-129225000D01*
X149647112Y-129225000D01*
X149610335Y-129221378D01*
X149536778Y-129214133D01*
X149395214Y-129171190D01*
X149264748Y-129101454D01*
X149210996Y-129057341D01*
X149150393Y-129007607D01*
X149080992Y-128923040D01*
X149056546Y-128893252D01*
X148986810Y-128762786D01*
X148943867Y-128621222D01*
X148929367Y-128474000D01*
X148943867Y-128326778D01*
X148986810Y-128185214D01*
X149056546Y-128054748D01*
X149080992Y-128024960D01*
X149150393Y-127940393D01*
X149240563Y-127866394D01*
X149264748Y-127846546D01*
X149395214Y-127776810D01*
X149536778Y-127733867D01*
X149610335Y-127726622D01*
X149647112Y-127723000D01*
X149720888Y-127723000D01*
X149757665Y-127726622D01*
X149757665Y-127726622D01*
G37*
G36*
X138073665Y-127726622D02*
G01*
X138147222Y-127733867D01*
X138288786Y-127776810D01*
X138419252Y-127846546D01*
X138443437Y-127866394D01*
X138533607Y-127940393D01*
X138603008Y-128024960D01*
X138627454Y-128054748D01*
X138697190Y-128185214D01*
X138740133Y-128326778D01*
X138754633Y-128474000D01*
X138740133Y-128621222D01*
X138697190Y-128762786D01*
X138627454Y-128893252D01*
X138603008Y-128923040D01*
X138533607Y-129007607D01*
X138473004Y-129057341D01*
X138419252Y-129101454D01*
X138288786Y-129171190D01*
X138147222Y-129214133D01*
X138073665Y-129221378D01*
X138036888Y-129225000D01*
X137963112Y-129225000D01*
X137926335Y-129221378D01*
X137852778Y-129214133D01*
X137711214Y-129171190D01*
X137580748Y-129101454D01*
X137526996Y-129057341D01*
X137466393Y-129007607D01*
X137396992Y-128923040D01*
X137372546Y-128893252D01*
X137302810Y-128762786D01*
X137259867Y-128621222D01*
X137245367Y-128474000D01*
X137259867Y-128326778D01*
X137302810Y-128185214D01*
X137372546Y-128054748D01*
X137396992Y-128024960D01*
X137466393Y-127940393D01*
X137556563Y-127866394D01*
X137580748Y-127846546D01*
X137711214Y-127776810D01*
X137852778Y-127733867D01*
X137926335Y-127726622D01*
X137963112Y-127723000D01*
X138036888Y-127723000D01*
X138073665Y-127726622D01*
X138073665Y-127726622D01*
G37*
G36*
X143807059Y-127751860D02*
G01*
X143867294Y-127776810D01*
X143943732Y-127808472D01*
X144066735Y-127890660D01*
X144171340Y-127995265D01*
X144253528Y-128118268D01*
X144253529Y-128118270D01*
X144310140Y-128254941D01*
X144339000Y-128400032D01*
X144339000Y-128547968D01*
X144310140Y-128693059D01*
X144277128Y-128772758D01*
X144253528Y-128829732D01*
X144171340Y-128952735D01*
X144066735Y-129057340D01*
X143943732Y-129139528D01*
X143943731Y-129139529D01*
X143943730Y-129139529D01*
X143807059Y-129196140D01*
X143661968Y-129225000D01*
X143514032Y-129225000D01*
X143368941Y-129196140D01*
X143232270Y-129139529D01*
X143232269Y-129139529D01*
X143232268Y-129139528D01*
X143109265Y-129057340D01*
X143004660Y-128952735D01*
X142922472Y-128829732D01*
X142898873Y-128772758D01*
X142865860Y-128693059D01*
X142837000Y-128547968D01*
X142837000Y-128400032D01*
X142865860Y-128254941D01*
X142922471Y-128118270D01*
X142922472Y-128118268D01*
X143004660Y-127995265D01*
X143109265Y-127890660D01*
X143232268Y-127808472D01*
X143308707Y-127776810D01*
X143368941Y-127751860D01*
X143514032Y-127723000D01*
X143661968Y-127723000D01*
X143807059Y-127751860D01*
X143807059Y-127751860D01*
G37*
G36*
X170119059Y-127677860D02*
G01*
X170254272Y-127733867D01*
X170255732Y-127734472D01*
X170378735Y-127816660D01*
X170483340Y-127921265D01*
X170565528Y-128044268D01*
X170565529Y-128044270D01*
X170622140Y-128180941D01*
X170651000Y-128326032D01*
X170651000Y-128473968D01*
X170646749Y-128495341D01*
X170622140Y-128619059D01*
X170565528Y-128755732D01*
X170483340Y-128878735D01*
X170378735Y-128983340D01*
X170255732Y-129065528D01*
X170255731Y-129065529D01*
X170255730Y-129065529D01*
X170119059Y-129122140D01*
X169973968Y-129151000D01*
X169826032Y-129151000D01*
X169680941Y-129122140D01*
X169544270Y-129065529D01*
X169544269Y-129065529D01*
X169544268Y-129065528D01*
X169421265Y-128983340D01*
X169316660Y-128878735D01*
X169234472Y-128755732D01*
X169177860Y-128619059D01*
X169153251Y-128495341D01*
X169149000Y-128473968D01*
X169149000Y-128326032D01*
X169177860Y-128180941D01*
X169234471Y-128044270D01*
X169234472Y-128044268D01*
X169316660Y-127921265D01*
X169421265Y-127816660D01*
X169544268Y-127734472D01*
X169545729Y-127733867D01*
X169680941Y-127677860D01*
X169826032Y-127649000D01*
X169973968Y-127649000D01*
X170119059Y-127677860D01*
X170119059Y-127677860D01*
G37*
G36*
X177593665Y-127652622D02*
G01*
X177667222Y-127659867D01*
X177808786Y-127702810D01*
X177939252Y-127772546D01*
X177969040Y-127796992D01*
X178053607Y-127866393D01*
X178123008Y-127950960D01*
X178147454Y-127980748D01*
X178217190Y-128111214D01*
X178260133Y-128252778D01*
X178274633Y-128400000D01*
X178260133Y-128547222D01*
X178217190Y-128688786D01*
X178147454Y-128819252D01*
X178138855Y-128829730D01*
X178053607Y-128933607D01*
X177969040Y-129003008D01*
X177939252Y-129027454D01*
X177808786Y-129097190D01*
X177667222Y-129140133D01*
X177593665Y-129147378D01*
X177556888Y-129151000D01*
X177483112Y-129151000D01*
X177446335Y-129147378D01*
X177372778Y-129140133D01*
X177231214Y-129097190D01*
X177100748Y-129027454D01*
X177070960Y-129003008D01*
X176986393Y-128933607D01*
X176901145Y-128829730D01*
X176892546Y-128819252D01*
X176822810Y-128688786D01*
X176779867Y-128547222D01*
X176765367Y-128400000D01*
X176779867Y-128252778D01*
X176822810Y-128111214D01*
X176892546Y-127980748D01*
X176916992Y-127950960D01*
X176986393Y-127866393D01*
X177070960Y-127796992D01*
X177100748Y-127772546D01*
X177231214Y-127702810D01*
X177372778Y-127659867D01*
X177446335Y-127652622D01*
X177483112Y-127649000D01*
X177556888Y-127649000D01*
X177593665Y-127652622D01*
X177593665Y-127652622D01*
G37*
G36*
X94771023Y-125138590D02*
G01*
X94836512Y-125158456D01*
X94922013Y-125184392D01*
X95061165Y-125258771D01*
X95183133Y-125358867D01*
X95283229Y-125480835D01*
X95357608Y-125619987D01*
X95357608Y-125619988D01*
X95403410Y-125770977D01*
X95403410Y-125770979D01*
X95415000Y-125888654D01*
X95415000Y-126487346D01*
X95411137Y-126526571D01*
X95403410Y-126605023D01*
X95402672Y-126607455D01*
X95357608Y-126756013D01*
X95351880Y-126766729D01*
X95283229Y-126895165D01*
X95183133Y-127017133D01*
X95080881Y-127101048D01*
X95061164Y-127117229D01*
X94922012Y-127191608D01*
X94871681Y-127206875D01*
X94771022Y-127237410D01*
X94614000Y-127252875D01*
X94456977Y-127237410D01*
X94356318Y-127206875D01*
X94305987Y-127191608D01*
X94166835Y-127117229D01*
X94096118Y-127059193D01*
X94044867Y-127017133D01*
X93944771Y-126895164D01*
X93870392Y-126756012D01*
X93846482Y-126677189D01*
X93824590Y-126605022D01*
X93815587Y-126513607D01*
X93813000Y-126487345D01*
X93813000Y-125888654D01*
X93824590Y-125770979D01*
X93824590Y-125770977D01*
X93870392Y-125619988D01*
X93870392Y-125619987D01*
X93915874Y-125534899D01*
X93944772Y-125480835D01*
X94044868Y-125358867D01*
X94166836Y-125258771D01*
X94222533Y-125229000D01*
X94305988Y-125184392D01*
X94391489Y-125158456D01*
X94456978Y-125138590D01*
X94614000Y-125123125D01*
X94771023Y-125138590D01*
X94771023Y-125138590D01*
G37*
G36*
X81055023Y-125138590D02*
G01*
X81120512Y-125158456D01*
X81206013Y-125184392D01*
X81345165Y-125258771D01*
X81467133Y-125358867D01*
X81567229Y-125480835D01*
X81641608Y-125619987D01*
X81641608Y-125619988D01*
X81687410Y-125770977D01*
X81687410Y-125770979D01*
X81699000Y-125888654D01*
X81699000Y-126487346D01*
X81695137Y-126526571D01*
X81687410Y-126605023D01*
X81686672Y-126607455D01*
X81641608Y-126756013D01*
X81635880Y-126766729D01*
X81567229Y-126895165D01*
X81467133Y-127017133D01*
X81364881Y-127101048D01*
X81345164Y-127117229D01*
X81206012Y-127191608D01*
X81155681Y-127206875D01*
X81055022Y-127237410D01*
X80898000Y-127252875D01*
X80740977Y-127237410D01*
X80640318Y-127206875D01*
X80589987Y-127191608D01*
X80450835Y-127117229D01*
X80380118Y-127059193D01*
X80328867Y-127017133D01*
X80228771Y-126895164D01*
X80154392Y-126756012D01*
X80130482Y-126677189D01*
X80108590Y-126605022D01*
X80099587Y-126513607D01*
X80097000Y-126487345D01*
X80097000Y-125888654D01*
X80108590Y-125770979D01*
X80108590Y-125770977D01*
X80154392Y-125619988D01*
X80154392Y-125619987D01*
X80199874Y-125534899D01*
X80228772Y-125480835D01*
X80328868Y-125358867D01*
X80450836Y-125258771D01*
X80506533Y-125229000D01*
X80589988Y-125184392D01*
X80675489Y-125158456D01*
X80740978Y-125138590D01*
X80898000Y-125123125D01*
X81055023Y-125138590D01*
X81055023Y-125138590D01*
G37*
G36*
X67339023Y-125138590D02*
G01*
X67404512Y-125158456D01*
X67490013Y-125184392D01*
X67629165Y-125258771D01*
X67751133Y-125358867D01*
X67851229Y-125480835D01*
X67925608Y-125619987D01*
X67925608Y-125619988D01*
X67971410Y-125770977D01*
X67971410Y-125770979D01*
X67983000Y-125888654D01*
X67983000Y-126487346D01*
X67979137Y-126526571D01*
X67971410Y-126605023D01*
X67970672Y-126607455D01*
X67925608Y-126756013D01*
X67919880Y-126766729D01*
X67851229Y-126895165D01*
X67751133Y-127017133D01*
X67648881Y-127101048D01*
X67629164Y-127117229D01*
X67490012Y-127191608D01*
X67439681Y-127206875D01*
X67339022Y-127237410D01*
X67182000Y-127252875D01*
X67024977Y-127237410D01*
X66924318Y-127206875D01*
X66873987Y-127191608D01*
X66734835Y-127117229D01*
X66664118Y-127059193D01*
X66612867Y-127017133D01*
X66512771Y-126895164D01*
X66438392Y-126756012D01*
X66414482Y-126677189D01*
X66392590Y-126605022D01*
X66383587Y-126513607D01*
X66381000Y-126487345D01*
X66381000Y-125888654D01*
X66392590Y-125770979D01*
X66392590Y-125770977D01*
X66438392Y-125619988D01*
X66438392Y-125619987D01*
X66483874Y-125534899D01*
X66512772Y-125480835D01*
X66612868Y-125358867D01*
X66734836Y-125258771D01*
X66790533Y-125229000D01*
X66873988Y-125184392D01*
X66959489Y-125158456D01*
X67024978Y-125138590D01*
X67182000Y-125123125D01*
X67339023Y-125138590D01*
X67339023Y-125138590D01*
G37*
G36*
X70835048Y-125131122D02*
G01*
X70869387Y-125141539D01*
X70901036Y-125158456D01*
X70928778Y-125181222D01*
X70951544Y-125208964D01*
X70968461Y-125240613D01*
X70978878Y-125274952D01*
X70983000Y-125316807D01*
X70983000Y-127059193D01*
X70978878Y-127101048D01*
X70968461Y-127135387D01*
X70951544Y-127167036D01*
X70928778Y-127194778D01*
X70901036Y-127217544D01*
X70869387Y-127234461D01*
X70835048Y-127244878D01*
X70793193Y-127249000D01*
X69570807Y-127249000D01*
X69528952Y-127244878D01*
X69494613Y-127234461D01*
X69462964Y-127217544D01*
X69435222Y-127194778D01*
X69412456Y-127167036D01*
X69395539Y-127135387D01*
X69385122Y-127101048D01*
X69381000Y-127059193D01*
X69381000Y-125316807D01*
X69385122Y-125274952D01*
X69395539Y-125240613D01*
X69412456Y-125208964D01*
X69435222Y-125181222D01*
X69462964Y-125158456D01*
X69494613Y-125141539D01*
X69528952Y-125131122D01*
X69570807Y-125127000D01*
X70793193Y-125127000D01*
X70835048Y-125131122D01*
X70835048Y-125131122D01*
G37*
G36*
X98267048Y-125131122D02*
G01*
X98301387Y-125141539D01*
X98333036Y-125158456D01*
X98360778Y-125181222D01*
X98383544Y-125208964D01*
X98400461Y-125240613D01*
X98410878Y-125274952D01*
X98415000Y-125316807D01*
X98415000Y-127059193D01*
X98410878Y-127101048D01*
X98400461Y-127135387D01*
X98383544Y-127167036D01*
X98360778Y-127194778D01*
X98333036Y-127217544D01*
X98301387Y-127234461D01*
X98267048Y-127244878D01*
X98225193Y-127249000D01*
X97002807Y-127249000D01*
X96960952Y-127244878D01*
X96926613Y-127234461D01*
X96894964Y-127217544D01*
X96867222Y-127194778D01*
X96844456Y-127167036D01*
X96827539Y-127135387D01*
X96817122Y-127101048D01*
X96813000Y-127059193D01*
X96813000Y-125316807D01*
X96817122Y-125274952D01*
X96827539Y-125240613D01*
X96844456Y-125208964D01*
X96867222Y-125181222D01*
X96894964Y-125158456D01*
X96926613Y-125141539D01*
X96960952Y-125131122D01*
X97002807Y-125127000D01*
X98225193Y-125127000D01*
X98267048Y-125131122D01*
X98267048Y-125131122D01*
G37*
G36*
X84551048Y-125131122D02*
G01*
X84585387Y-125141539D01*
X84617036Y-125158456D01*
X84644778Y-125181222D01*
X84667544Y-125208964D01*
X84684461Y-125240613D01*
X84694878Y-125274952D01*
X84699000Y-125316807D01*
X84699000Y-127059193D01*
X84694878Y-127101048D01*
X84684461Y-127135387D01*
X84667544Y-127167036D01*
X84644778Y-127194778D01*
X84617036Y-127217544D01*
X84585387Y-127234461D01*
X84551048Y-127244878D01*
X84509193Y-127249000D01*
X83286807Y-127249000D01*
X83244952Y-127244878D01*
X83210613Y-127234461D01*
X83178964Y-127217544D01*
X83151222Y-127194778D01*
X83128456Y-127167036D01*
X83111539Y-127135387D01*
X83101122Y-127101048D01*
X83097000Y-127059193D01*
X83097000Y-125316807D01*
X83101122Y-125274952D01*
X83111539Y-125240613D01*
X83128456Y-125208964D01*
X83151222Y-125181222D01*
X83178964Y-125158456D01*
X83210613Y-125141539D01*
X83244952Y-125131122D01*
X83286807Y-125127000D01*
X84509193Y-125127000D01*
X84551048Y-125131122D01*
X84551048Y-125131122D01*
G37*
G36*
X159883410Y-125132130D02*
G01*
X160006032Y-125144207D01*
X160204146Y-125204305D01*
X160204149Y-125204306D01*
X160272074Y-125240613D01*
X160386729Y-125301897D01*
X160546765Y-125433235D01*
X160678103Y-125593271D01*
X160692383Y-125619987D01*
X160775694Y-125775851D01*
X160775695Y-125775854D01*
X160835793Y-125973968D01*
X160856085Y-126180000D01*
X160835793Y-126386032D01*
X160805059Y-126487346D01*
X160775694Y-126584149D01*
X160745589Y-126640471D01*
X160678103Y-126766729D01*
X160546765Y-126926765D01*
X160386729Y-127058103D01*
X160306384Y-127101048D01*
X160204149Y-127155694D01*
X160204146Y-127155695D01*
X160006032Y-127215793D01*
X159903097Y-127225931D01*
X159851631Y-127231000D01*
X159748369Y-127231000D01*
X159696903Y-127225931D01*
X159593968Y-127215793D01*
X159395854Y-127155695D01*
X159395851Y-127155694D01*
X159293616Y-127101048D01*
X159213271Y-127058103D01*
X159053235Y-126926765D01*
X158921897Y-126766729D01*
X158854411Y-126640471D01*
X158824306Y-126584149D01*
X158794941Y-126487346D01*
X158764207Y-126386032D01*
X158743915Y-126180000D01*
X158764207Y-125973968D01*
X158824305Y-125775854D01*
X158824306Y-125775851D01*
X158907617Y-125619987D01*
X158921897Y-125593271D01*
X159053235Y-125433235D01*
X159213271Y-125301897D01*
X159327926Y-125240613D01*
X159395851Y-125204306D01*
X159395854Y-125204305D01*
X159593968Y-125144207D01*
X159716590Y-125132130D01*
X159748369Y-125129000D01*
X159851631Y-125129000D01*
X159883410Y-125132130D01*
X159883410Y-125132130D01*
G37*
G36*
X196177142Y-125138242D02*
G01*
X196325101Y-125199529D01*
X196458255Y-125288499D01*
X196571501Y-125401745D01*
X196660471Y-125534899D01*
X196721758Y-125682858D01*
X196753000Y-125839925D01*
X196753000Y-126000075D01*
X196721758Y-126157142D01*
X196660471Y-126305101D01*
X196571501Y-126438255D01*
X196458255Y-126551501D01*
X196325101Y-126640471D01*
X196177142Y-126701758D01*
X196020075Y-126733000D01*
X195859925Y-126733000D01*
X195702858Y-126701758D01*
X195554899Y-126640471D01*
X195421745Y-126551501D01*
X195308499Y-126438255D01*
X195219529Y-126305101D01*
X195158242Y-126157142D01*
X195127000Y-126000075D01*
X195127000Y-125839925D01*
X195158242Y-125682858D01*
X195219529Y-125534899D01*
X195308499Y-125401745D01*
X195421745Y-125288499D01*
X195554899Y-125199529D01*
X195702858Y-125138242D01*
X195859925Y-125107000D01*
X196020075Y-125107000D01*
X196177142Y-125138242D01*
X196177142Y-125138242D01*
G37*
G36*
X188557142Y-125138242D02*
G01*
X188705101Y-125199529D01*
X188838255Y-125288499D01*
X188951501Y-125401745D01*
X189040471Y-125534899D01*
X189101758Y-125682858D01*
X189133000Y-125839925D01*
X189133000Y-126000075D01*
X189101758Y-126157142D01*
X189040471Y-126305101D01*
X188951501Y-126438255D01*
X188838255Y-126551501D01*
X188705101Y-126640471D01*
X188557142Y-126701758D01*
X188400075Y-126733000D01*
X188239925Y-126733000D01*
X188082858Y-126701758D01*
X187934899Y-126640471D01*
X187801745Y-126551501D01*
X187688499Y-126438255D01*
X187599529Y-126305101D01*
X187538242Y-126157142D01*
X187507000Y-126000075D01*
X187507000Y-125839925D01*
X187538242Y-125682858D01*
X187599529Y-125534899D01*
X187688499Y-125401745D01*
X187801745Y-125288499D01*
X187934899Y-125199529D01*
X188082858Y-125138242D01*
X188239925Y-125107000D01*
X188400075Y-125107000D01*
X188557142Y-125138242D01*
X188557142Y-125138242D01*
G37*
G36*
X191097142Y-125138242D02*
G01*
X191245101Y-125199529D01*
X191378255Y-125288499D01*
X191491501Y-125401745D01*
X191580471Y-125534899D01*
X191641758Y-125682858D01*
X191673000Y-125839925D01*
X191673000Y-126000075D01*
X191641758Y-126157142D01*
X191580471Y-126305101D01*
X191491501Y-126438255D01*
X191378255Y-126551501D01*
X191245101Y-126640471D01*
X191097142Y-126701758D01*
X190940075Y-126733000D01*
X190779925Y-126733000D01*
X190622858Y-126701758D01*
X190474899Y-126640471D01*
X190341745Y-126551501D01*
X190228499Y-126438255D01*
X190139529Y-126305101D01*
X190078242Y-126157142D01*
X190047000Y-126000075D01*
X190047000Y-125839925D01*
X190078242Y-125682858D01*
X190139529Y-125534899D01*
X190228499Y-125401745D01*
X190341745Y-125288499D01*
X190474899Y-125199529D01*
X190622858Y-125138242D01*
X190779925Y-125107000D01*
X190940075Y-125107000D01*
X191097142Y-125138242D01*
X191097142Y-125138242D01*
G37*
G36*
X193637142Y-125138242D02*
G01*
X193785101Y-125199529D01*
X193918255Y-125288499D01*
X194031501Y-125401745D01*
X194120471Y-125534899D01*
X194181758Y-125682858D01*
X194213000Y-125839925D01*
X194213000Y-126000075D01*
X194181758Y-126157142D01*
X194120471Y-126305101D01*
X194031501Y-126438255D01*
X193918255Y-126551501D01*
X193785101Y-126640471D01*
X193637142Y-126701758D01*
X193480075Y-126733000D01*
X193319925Y-126733000D01*
X193162858Y-126701758D01*
X193014899Y-126640471D01*
X192881745Y-126551501D01*
X192768499Y-126438255D01*
X192679529Y-126305101D01*
X192618242Y-126157142D01*
X192587000Y-126000075D01*
X192587000Y-125839925D01*
X192618242Y-125682858D01*
X192679529Y-125534899D01*
X192768499Y-125401745D01*
X192881745Y-125288499D01*
X193014899Y-125199529D01*
X193162858Y-125138242D01*
X193319925Y-125107000D01*
X193480075Y-125107000D01*
X193637142Y-125138242D01*
X193637142Y-125138242D01*
G37*
G36*
X109373665Y-125232622D02*
G01*
X109447222Y-125239867D01*
X109588786Y-125282810D01*
X109719252Y-125352546D01*
X109726954Y-125358867D01*
X109833607Y-125446393D01*
X109903008Y-125530960D01*
X109927454Y-125560748D01*
X109997190Y-125691214D01*
X110040133Y-125832778D01*
X110054633Y-125980000D01*
X110040133Y-126127222D01*
X109997190Y-126268786D01*
X109927454Y-126399252D01*
X109903008Y-126429040D01*
X109833607Y-126513607D01*
X109749040Y-126583008D01*
X109719252Y-126607454D01*
X109588786Y-126677190D01*
X109447222Y-126720133D01*
X109373665Y-126727378D01*
X109336888Y-126731000D01*
X109263112Y-126731000D01*
X109226335Y-126727378D01*
X109152778Y-126720133D01*
X109011214Y-126677190D01*
X108880748Y-126607454D01*
X108850960Y-126583008D01*
X108766393Y-126513607D01*
X108696992Y-126429040D01*
X108672546Y-126399252D01*
X108602810Y-126268786D01*
X108559867Y-126127222D01*
X108545367Y-125980000D01*
X108559867Y-125832778D01*
X108602810Y-125691214D01*
X108672546Y-125560748D01*
X108696992Y-125530960D01*
X108766393Y-125446393D01*
X108873046Y-125358867D01*
X108880748Y-125352546D01*
X109011214Y-125282810D01*
X109152778Y-125239867D01*
X109226335Y-125232622D01*
X109263112Y-125229000D01*
X109336888Y-125229000D01*
X109373665Y-125232622D01*
X109373665Y-125232622D01*
G37*
G36*
X129329059Y-123433860D02*
G01*
X129422895Y-123472728D01*
X129465732Y-123490472D01*
X129588735Y-123572660D01*
X129693340Y-123677265D01*
X129775528Y-123800268D01*
X129832140Y-123936941D01*
X129861000Y-124082033D01*
X129861000Y-124229967D01*
X129832140Y-124375059D01*
X129775528Y-124511732D01*
X129693340Y-124634735D01*
X129588735Y-124739340D01*
X129465732Y-124821528D01*
X129465731Y-124821529D01*
X129465730Y-124821529D01*
X129329059Y-124878140D01*
X129183968Y-124907000D01*
X129036032Y-124907000D01*
X128890941Y-124878140D01*
X128754270Y-124821529D01*
X128754269Y-124821529D01*
X128754268Y-124821528D01*
X128631265Y-124739340D01*
X128526660Y-124634735D01*
X128444472Y-124511732D01*
X128387860Y-124375059D01*
X128359000Y-124229967D01*
X128359000Y-124082033D01*
X128387860Y-123936941D01*
X128444472Y-123800268D01*
X128526660Y-123677265D01*
X128631265Y-123572660D01*
X128754268Y-123490472D01*
X128797106Y-123472728D01*
X128890941Y-123433860D01*
X129036032Y-123405000D01*
X129183968Y-123405000D01*
X129329059Y-123433860D01*
X129329059Y-123433860D01*
G37*
G36*
X122609097Y-121840069D02*
G01*
X122712032Y-121850207D01*
X122910146Y-121910305D01*
X122910149Y-121910306D01*
X123006975Y-121962061D01*
X123092729Y-122007897D01*
X123252765Y-122139235D01*
X123384103Y-122299271D01*
X123405330Y-122338985D01*
X123481694Y-122481851D01*
X123481695Y-122481854D01*
X123541793Y-122679968D01*
X123562085Y-122886000D01*
X123541793Y-123092032D01*
X123481695Y-123290146D01*
X123481694Y-123290149D01*
X123429939Y-123386975D01*
X123384103Y-123472729D01*
X123252765Y-123632765D01*
X123092729Y-123764103D01*
X123025065Y-123800270D01*
X122910149Y-123861694D01*
X122910146Y-123861695D01*
X122712032Y-123921793D01*
X122609097Y-123931931D01*
X122557631Y-123937000D01*
X122454369Y-123937000D01*
X122402903Y-123931931D01*
X122299968Y-123921793D01*
X122101854Y-123861695D01*
X122101851Y-123861694D01*
X121986935Y-123800270D01*
X121919271Y-123764103D01*
X121759235Y-123632765D01*
X121627897Y-123472729D01*
X121582061Y-123386975D01*
X121530306Y-123290149D01*
X121530305Y-123290146D01*
X121470207Y-123092032D01*
X121449915Y-122886000D01*
X121470207Y-122679968D01*
X121530305Y-122481854D01*
X121530306Y-122481851D01*
X121606670Y-122338985D01*
X121627897Y-122299271D01*
X121759235Y-122139235D01*
X121919271Y-122007897D01*
X122005025Y-121962061D01*
X122101851Y-121910306D01*
X122101854Y-121910305D01*
X122299968Y-121850207D01*
X122402903Y-121840069D01*
X122454369Y-121835000D01*
X122557631Y-121835000D01*
X122609097Y-121840069D01*
X122609097Y-121840069D01*
G37*
G36*
X143548228Y-122181703D02*
G01*
X143703100Y-122245853D01*
X143842481Y-122338985D01*
X143961015Y-122457519D01*
X144054147Y-122596900D01*
X144118297Y-122751772D01*
X144151000Y-122916184D01*
X144151000Y-123083816D01*
X144118297Y-123248228D01*
X144054147Y-123403100D01*
X143961015Y-123542481D01*
X143842481Y-123661015D01*
X143703100Y-123754147D01*
X143548228Y-123818297D01*
X143383816Y-123851000D01*
X143216184Y-123851000D01*
X143051772Y-123818297D01*
X142896900Y-123754147D01*
X142757519Y-123661015D01*
X142638985Y-123542481D01*
X142545853Y-123403100D01*
X142481703Y-123248228D01*
X142449000Y-123083816D01*
X142449000Y-122916184D01*
X142481703Y-122751772D01*
X142545853Y-122596900D01*
X142638985Y-122457519D01*
X142757519Y-122338985D01*
X142896900Y-122245853D01*
X143051772Y-122181703D01*
X143216184Y-122149000D01*
X143383816Y-122149000D01*
X143548228Y-122181703D01*
X143548228Y-122181703D01*
G37*
G36*
X138548228Y-122181703D02*
G01*
X138703100Y-122245853D01*
X138842481Y-122338985D01*
X138961015Y-122457519D01*
X139054147Y-122596900D01*
X139118297Y-122751772D01*
X139151000Y-122916184D01*
X139151000Y-123083816D01*
X139118297Y-123248228D01*
X139054147Y-123403100D01*
X138961015Y-123542481D01*
X138842481Y-123661015D01*
X138703100Y-123754147D01*
X138548228Y-123818297D01*
X138383816Y-123851000D01*
X138216184Y-123851000D01*
X138051772Y-123818297D01*
X137896900Y-123754147D01*
X137757519Y-123661015D01*
X137638985Y-123542481D01*
X137545853Y-123403100D01*
X137481703Y-123248228D01*
X137449000Y-123083816D01*
X137449000Y-122916184D01*
X137481703Y-122751772D01*
X137545853Y-122596900D01*
X137638985Y-122457519D01*
X137757519Y-122338985D01*
X137896900Y-122245853D01*
X138051772Y-122181703D01*
X138216184Y-122149000D01*
X138383816Y-122149000D01*
X138548228Y-122181703D01*
X138548228Y-122181703D01*
G37*
G36*
X166602061Y-120974479D02*
G01*
X166619059Y-120977860D01*
X166755732Y-121034472D01*
X166878735Y-121116660D01*
X166983340Y-121221265D01*
X167065528Y-121344268D01*
X167122140Y-121480941D01*
X167151000Y-121626033D01*
X167151000Y-121773967D01*
X167122140Y-121919059D01*
X167065528Y-122055732D01*
X166983340Y-122178735D01*
X166878735Y-122283340D01*
X166755732Y-122365528D01*
X166755731Y-122365529D01*
X166755730Y-122365529D01*
X166619059Y-122422140D01*
X166473968Y-122451000D01*
X166326032Y-122451000D01*
X166180941Y-122422140D01*
X166044270Y-122365529D01*
X166044269Y-122365529D01*
X166044268Y-122365528D01*
X165921265Y-122283340D01*
X165816660Y-122178735D01*
X165734472Y-122055732D01*
X165677860Y-121919059D01*
X165649000Y-121773967D01*
X165649000Y-121626033D01*
X165677860Y-121480941D01*
X165734472Y-121344268D01*
X165816660Y-121221265D01*
X165921265Y-121116660D01*
X166044268Y-121034472D01*
X166180941Y-120977860D01*
X166197939Y-120974479D01*
X166326032Y-120949000D01*
X166473968Y-120949000D01*
X166602061Y-120974479D01*
X166602061Y-120974479D01*
G37*
G36*
X160851000Y-122151000D02*
G01*
X158749000Y-122151000D01*
X158749000Y-120049000D01*
X160851000Y-120049000D01*
X160851000Y-122151000D01*
X160851000Y-122151000D01*
G37*
G36*
X222438571Y-120302863D02*
G01*
X222517023Y-120310590D01*
X222596417Y-120334674D01*
X222668013Y-120356392D01*
X222807165Y-120430771D01*
X222929133Y-120530867D01*
X223029229Y-120652835D01*
X223103608Y-120791987D01*
X223107477Y-120804741D01*
X223149410Y-120942977D01*
X223164875Y-121100000D01*
X223149410Y-121257023D01*
X223122944Y-121344270D01*
X223103608Y-121408013D01*
X223029229Y-121547165D01*
X222929133Y-121669133D01*
X222807165Y-121769229D01*
X222668013Y-121843608D01*
X222617682Y-121858875D01*
X222517023Y-121889410D01*
X222438571Y-121897137D01*
X222399346Y-121901000D01*
X221800654Y-121901000D01*
X221761429Y-121897137D01*
X221682977Y-121889410D01*
X221582318Y-121858875D01*
X221531987Y-121843608D01*
X221392835Y-121769229D01*
X221270867Y-121669133D01*
X221170771Y-121547165D01*
X221096392Y-121408013D01*
X221077056Y-121344270D01*
X221050590Y-121257023D01*
X221035125Y-121100000D01*
X221050590Y-120942977D01*
X221092523Y-120804741D01*
X221096392Y-120791987D01*
X221170771Y-120652835D01*
X221270867Y-120530867D01*
X221392835Y-120430771D01*
X221531987Y-120356392D01*
X221603583Y-120334674D01*
X221682977Y-120310590D01*
X221761429Y-120302863D01*
X221800654Y-120299000D01*
X222399346Y-120299000D01*
X222438571Y-120302863D01*
X222438571Y-120302863D01*
G37*
G36*
X226722585Y-118078802D02*
G01*
X226872410Y-118108604D01*
X227154674Y-118225521D01*
X227408705Y-118395259D01*
X227624741Y-118611295D01*
X227794479Y-118865326D01*
X227911396Y-119147590D01*
X227971000Y-119447240D01*
X227971000Y-119752760D01*
X227911396Y-120052410D01*
X227794479Y-120334674D01*
X227624741Y-120588705D01*
X227408705Y-120804741D01*
X227154674Y-120974479D01*
X226872410Y-121091396D01*
X226745404Y-121116659D01*
X226572761Y-121151000D01*
X226267239Y-121151000D01*
X226094596Y-121116659D01*
X225967590Y-121091396D01*
X225685326Y-120974479D01*
X225431295Y-120804741D01*
X225215259Y-120588705D01*
X225045521Y-120334674D01*
X224928604Y-120052410D01*
X224869000Y-119752760D01*
X224869000Y-119447240D01*
X224928604Y-119147590D01*
X225045521Y-118865326D01*
X225215259Y-118611295D01*
X225431295Y-118395259D01*
X225685326Y-118225521D01*
X225967590Y-118108604D01*
X226117415Y-118078802D01*
X226267239Y-118049000D01*
X226572761Y-118049000D01*
X226722585Y-118078802D01*
X226722585Y-118078802D01*
G37*
G36*
X223013048Y-117303122D02*
G01*
X223047387Y-117313539D01*
X223079036Y-117330456D01*
X223106778Y-117353222D01*
X223129544Y-117380964D01*
X223146461Y-117412613D01*
X223156878Y-117446952D01*
X223161000Y-117488807D01*
X223161000Y-118711193D01*
X223156878Y-118753048D01*
X223146461Y-118787387D01*
X223129544Y-118819036D01*
X223106778Y-118846778D01*
X223079036Y-118869544D01*
X223047387Y-118886461D01*
X223013048Y-118896878D01*
X222971193Y-118901000D01*
X221228807Y-118901000D01*
X221186952Y-118896878D01*
X221152613Y-118886461D01*
X221120964Y-118869544D01*
X221093222Y-118846778D01*
X221070456Y-118819036D01*
X221053539Y-118787387D01*
X221043122Y-118753048D01*
X221039000Y-118711193D01*
X221039000Y-117488807D01*
X221043122Y-117446952D01*
X221053539Y-117412613D01*
X221070456Y-117380964D01*
X221093222Y-117353222D01*
X221120964Y-117330456D01*
X221152613Y-117313539D01*
X221186952Y-117303122D01*
X221228807Y-117299000D01*
X222971193Y-117299000D01*
X223013048Y-117303122D01*
X223013048Y-117303122D01*
G37*
G36*
X123557000Y-118857000D02*
G01*
X121455000Y-118857000D01*
X121455000Y-116755000D01*
X123557000Y-116755000D01*
X123557000Y-118857000D01*
X123557000Y-118857000D01*
G37*
G36*
X203987142Y-116718242D02*
G01*
X204135101Y-116779529D01*
X204268255Y-116868499D01*
X204381501Y-116981745D01*
X204470471Y-117114899D01*
X204531758Y-117262858D01*
X204563000Y-117419925D01*
X204563000Y-117580075D01*
X204531758Y-117737142D01*
X204470471Y-117885101D01*
X204381501Y-118018255D01*
X204268255Y-118131501D01*
X204135101Y-118220471D01*
X203987142Y-118281758D01*
X203830075Y-118313000D01*
X203669925Y-118313000D01*
X203512858Y-118281758D01*
X203364899Y-118220471D01*
X203231745Y-118131501D01*
X203118499Y-118018255D01*
X203029529Y-117885101D01*
X202968242Y-117737142D01*
X202937000Y-117580075D01*
X202937000Y-117419925D01*
X202968242Y-117262858D01*
X203029529Y-117114899D01*
X203118499Y-116981745D01*
X203231745Y-116868499D01*
X203364899Y-116779529D01*
X203512858Y-116718242D01*
X203669925Y-116687000D01*
X203830075Y-116687000D01*
X203987142Y-116718242D01*
X203987142Y-116718242D01*
G37*
G36*
X196487142Y-116718242D02*
G01*
X196635101Y-116779529D01*
X196768255Y-116868499D01*
X196881501Y-116981745D01*
X196970471Y-117114899D01*
X197031758Y-117262858D01*
X197063000Y-117419925D01*
X197063000Y-117580075D01*
X197031758Y-117737142D01*
X196970471Y-117885101D01*
X196881501Y-118018255D01*
X196768255Y-118131501D01*
X196635101Y-118220471D01*
X196487142Y-118281758D01*
X196330075Y-118313000D01*
X196169925Y-118313000D01*
X196012858Y-118281758D01*
X195864899Y-118220471D01*
X195731745Y-118131501D01*
X195618499Y-118018255D01*
X195529529Y-117885101D01*
X195468242Y-117737142D01*
X195437000Y-117580075D01*
X195437000Y-117419925D01*
X195468242Y-117262858D01*
X195529529Y-117114899D01*
X195618499Y-116981745D01*
X195731745Y-116868499D01*
X195864899Y-116779529D01*
X196012858Y-116718242D01*
X196169925Y-116687000D01*
X196330075Y-116687000D01*
X196487142Y-116718242D01*
X196487142Y-116718242D01*
G37*
G36*
X185948228Y-115781703D02*
G01*
X186103100Y-115845853D01*
X186242481Y-115938985D01*
X186361015Y-116057519D01*
X186454147Y-116196900D01*
X186518297Y-116351772D01*
X186551000Y-116516184D01*
X186551000Y-116683816D01*
X186518297Y-116848228D01*
X186454147Y-117003100D01*
X186361015Y-117142481D01*
X186242481Y-117261015D01*
X186103100Y-117354147D01*
X185948228Y-117418297D01*
X185783816Y-117451000D01*
X185616184Y-117451000D01*
X185451772Y-117418297D01*
X185296900Y-117354147D01*
X185157519Y-117261015D01*
X185038985Y-117142481D01*
X184945853Y-117003100D01*
X184881703Y-116848228D01*
X184849000Y-116683816D01*
X184849000Y-116516184D01*
X184881703Y-116351772D01*
X184945853Y-116196900D01*
X185038985Y-116057519D01*
X185157519Y-115938985D01*
X185296900Y-115845853D01*
X185451772Y-115781703D01*
X185616184Y-115749000D01*
X185783816Y-115749000D01*
X185948228Y-115781703D01*
X185948228Y-115781703D01*
G37*
G36*
X180948228Y-115781703D02*
G01*
X181103100Y-115845853D01*
X181242481Y-115938985D01*
X181361015Y-116057519D01*
X181454147Y-116196900D01*
X181518297Y-116351772D01*
X181551000Y-116516184D01*
X181551000Y-116683816D01*
X181518297Y-116848228D01*
X181454147Y-117003100D01*
X181361015Y-117142481D01*
X181242481Y-117261015D01*
X181103100Y-117354147D01*
X180948228Y-117418297D01*
X180783816Y-117451000D01*
X180616184Y-117451000D01*
X180451772Y-117418297D01*
X180296900Y-117354147D01*
X180157519Y-117261015D01*
X180038985Y-117142481D01*
X179945853Y-117003100D01*
X179881703Y-116848228D01*
X179849000Y-116683816D01*
X179849000Y-116516184D01*
X179881703Y-116351772D01*
X179945853Y-116196900D01*
X180038985Y-116057519D01*
X180157519Y-115938985D01*
X180296900Y-115845853D01*
X180451772Y-115781703D01*
X180616184Y-115749000D01*
X180783816Y-115749000D01*
X180948228Y-115781703D01*
X180948228Y-115781703D01*
G37*
G36*
X176819059Y-115877860D02*
G01*
X176893142Y-115908546D01*
X176955732Y-115934472D01*
X177078735Y-116016660D01*
X177183340Y-116121265D01*
X177265528Y-116244268D01*
X177265529Y-116244270D01*
X177266748Y-116247214D01*
X177322140Y-116380941D01*
X177351000Y-116526033D01*
X177351000Y-116673967D01*
X177322140Y-116819059D01*
X177265528Y-116955732D01*
X177183340Y-117078735D01*
X177078735Y-117183340D01*
X176955732Y-117265528D01*
X176955731Y-117265529D01*
X176955730Y-117265529D01*
X176819059Y-117322140D01*
X176673968Y-117351000D01*
X176526032Y-117351000D01*
X176380941Y-117322140D01*
X176244270Y-117265529D01*
X176244269Y-117265529D01*
X176244268Y-117265528D01*
X176121265Y-117183340D01*
X176016660Y-117078735D01*
X175934472Y-116955732D01*
X175877860Y-116819059D01*
X175849000Y-116673967D01*
X175849000Y-116526033D01*
X175877860Y-116380941D01*
X175933252Y-116247214D01*
X175934471Y-116244270D01*
X175934472Y-116244268D01*
X176016660Y-116121265D01*
X176121265Y-116016660D01*
X176244268Y-115934472D01*
X176306859Y-115908546D01*
X176380941Y-115877860D01*
X176526032Y-115849000D01*
X176673968Y-115849000D01*
X176819059Y-115877860D01*
X176819059Y-115877860D01*
G37*
G36*
X169053665Y-115852622D02*
G01*
X169127222Y-115859867D01*
X169268786Y-115902810D01*
X169399252Y-115972546D01*
X169429040Y-115996992D01*
X169513607Y-116066393D01*
X169583008Y-116150960D01*
X169607454Y-116180748D01*
X169677190Y-116311214D01*
X169720133Y-116452778D01*
X169734633Y-116600000D01*
X169720133Y-116747222D01*
X169677190Y-116888786D01*
X169607454Y-117019252D01*
X169583008Y-117049040D01*
X169513607Y-117133607D01*
X169453004Y-117183341D01*
X169399252Y-117227454D01*
X169268786Y-117297190D01*
X169127222Y-117340133D01*
X169053665Y-117347378D01*
X169016888Y-117351000D01*
X168943112Y-117351000D01*
X168906335Y-117347378D01*
X168832778Y-117340133D01*
X168691214Y-117297190D01*
X168560748Y-117227454D01*
X168506996Y-117183341D01*
X168446393Y-117133607D01*
X168376992Y-117049040D01*
X168352546Y-117019252D01*
X168282810Y-116888786D01*
X168239867Y-116747222D01*
X168225367Y-116600000D01*
X168239867Y-116452778D01*
X168282810Y-116311214D01*
X168352546Y-116180748D01*
X168376992Y-116150960D01*
X168446393Y-116066393D01*
X168530960Y-115996992D01*
X168560748Y-115972546D01*
X168691214Y-115902810D01*
X168832778Y-115859867D01*
X168906335Y-115852622D01*
X168943112Y-115849000D01*
X169016888Y-115849000D01*
X169053665Y-115852622D01*
X169053665Y-115852622D01*
G37*
G36*
X129183665Y-115788622D02*
G01*
X129257222Y-115795867D01*
X129398786Y-115838810D01*
X129398788Y-115838811D01*
X129417850Y-115849000D01*
X129529252Y-115908546D01*
X129559040Y-115932992D01*
X129643607Y-116002393D01*
X129713008Y-116086960D01*
X129737454Y-116116748D01*
X129807190Y-116247214D01*
X129850133Y-116388778D01*
X129864633Y-116536000D01*
X129850133Y-116683222D01*
X129807190Y-116824786D01*
X129737454Y-116955252D01*
X129715713Y-116981743D01*
X129643607Y-117069607D01*
X129565622Y-117133606D01*
X129529252Y-117163454D01*
X129398786Y-117233190D01*
X129257222Y-117276133D01*
X129183665Y-117283378D01*
X129146888Y-117287000D01*
X129073112Y-117287000D01*
X129036335Y-117283378D01*
X128962778Y-117276133D01*
X128821214Y-117233190D01*
X128690748Y-117163454D01*
X128654378Y-117133606D01*
X128576393Y-117069607D01*
X128504287Y-116981743D01*
X128482546Y-116955252D01*
X128412810Y-116824786D01*
X128369867Y-116683222D01*
X128355367Y-116536000D01*
X128369867Y-116388778D01*
X128412810Y-116247214D01*
X128482546Y-116116748D01*
X128506992Y-116086960D01*
X128576393Y-116002393D01*
X128660960Y-115932992D01*
X128690748Y-115908546D01*
X128802150Y-115849000D01*
X128821212Y-115838811D01*
X128821214Y-115838810D01*
X128962778Y-115795867D01*
X129036335Y-115788622D01*
X129073112Y-115785000D01*
X129146888Y-115785000D01*
X129183665Y-115788622D01*
X129183665Y-115788622D01*
G37*
G36*
X69279487Y-109648996D02*
G01*
X69516253Y-109747068D01*
X69516255Y-109747069D01*
X69729339Y-109889447D01*
X69910553Y-110070661D01*
X70052932Y-110283747D01*
X70151004Y-110520513D01*
X70201000Y-110771861D01*
X70201000Y-111028139D01*
X70151004Y-111279487D01*
X70052932Y-111516253D01*
X70052931Y-111516255D01*
X69910553Y-111729339D01*
X69729339Y-111910553D01*
X69516255Y-112052931D01*
X69516254Y-112052932D01*
X69516253Y-112052932D01*
X69279487Y-112151004D01*
X69028139Y-112201000D01*
X68771861Y-112201000D01*
X68520513Y-112151004D01*
X68283747Y-112052932D01*
X68283746Y-112052932D01*
X68283745Y-112052931D01*
X68070661Y-111910553D01*
X67889447Y-111729339D01*
X67747069Y-111516255D01*
X67747068Y-111516253D01*
X67648996Y-111279487D01*
X67599000Y-111028139D01*
X67599000Y-110771861D01*
X67648996Y-110520513D01*
X67747068Y-110283747D01*
X67889447Y-110070661D01*
X68070661Y-109889447D01*
X68283745Y-109747069D01*
X68283747Y-109747068D01*
X68520513Y-109648996D01*
X68771861Y-109599000D01*
X69028139Y-109599000D01*
X69279487Y-109648996D01*
X69279487Y-109648996D01*
G37*
G36*
X82029487Y-109648996D02*
G01*
X82266253Y-109747068D01*
X82266255Y-109747069D01*
X82479339Y-109889447D01*
X82660553Y-110070661D01*
X82802932Y-110283747D01*
X82901004Y-110520513D01*
X82951000Y-110771861D01*
X82951000Y-111028139D01*
X82901004Y-111279487D01*
X82802932Y-111516253D01*
X82802931Y-111516255D01*
X82660553Y-111729339D01*
X82479339Y-111910553D01*
X82266255Y-112052931D01*
X82266254Y-112052932D01*
X82266253Y-112052932D01*
X82029487Y-112151004D01*
X81778139Y-112201000D01*
X81521861Y-112201000D01*
X81270513Y-112151004D01*
X81033747Y-112052932D01*
X81033746Y-112052932D01*
X81033745Y-112052931D01*
X80820661Y-111910553D01*
X80639447Y-111729339D01*
X80497069Y-111516255D01*
X80497068Y-111516253D01*
X80398996Y-111279487D01*
X80349000Y-111028139D01*
X80349000Y-110771861D01*
X80398996Y-110520513D01*
X80497068Y-110283747D01*
X80639447Y-110070661D01*
X80820661Y-109889447D01*
X81033745Y-109747069D01*
X81033747Y-109747068D01*
X81270513Y-109648996D01*
X81521861Y-109599000D01*
X81778139Y-109599000D01*
X82029487Y-109648996D01*
X82029487Y-109648996D01*
G37*
G36*
X195951000Y-112051000D02*
G01*
X192849000Y-112051000D01*
X192849000Y-108949000D01*
X195951000Y-108949000D01*
X195951000Y-112051000D01*
X195951000Y-112051000D01*
G37*
G36*
X207151000Y-112051000D02*
G01*
X204049000Y-112051000D01*
X204049000Y-108949000D01*
X207151000Y-108949000D01*
X207151000Y-112051000D01*
X207151000Y-112051000D01*
G37*
G36*
X203987142Y-102232242D02*
G01*
X204135101Y-102293529D01*
X204268255Y-102382499D01*
X204381501Y-102495745D01*
X204470471Y-102628899D01*
X204531758Y-102776858D01*
X204563000Y-102933925D01*
X204563000Y-103094075D01*
X204531758Y-103251142D01*
X204470471Y-103399101D01*
X204381501Y-103532255D01*
X204268255Y-103645501D01*
X204135101Y-103734471D01*
X203987142Y-103795758D01*
X203830075Y-103827000D01*
X203669925Y-103827000D01*
X203512858Y-103795758D01*
X203364899Y-103734471D01*
X203231745Y-103645501D01*
X203118499Y-103532255D01*
X203029529Y-103399101D01*
X202968242Y-103251142D01*
X202937000Y-103094075D01*
X202937000Y-102933925D01*
X202968242Y-102776858D01*
X203029529Y-102628899D01*
X203118499Y-102495745D01*
X203231745Y-102382499D01*
X203364899Y-102293529D01*
X203512858Y-102232242D01*
X203669925Y-102201000D01*
X203830075Y-102201000D01*
X203987142Y-102232242D01*
X203987142Y-102232242D01*
G37*
G36*
X200237142Y-102218242D02*
G01*
X200385101Y-102279529D01*
X200518255Y-102368499D01*
X200631501Y-102481745D01*
X200720471Y-102614899D01*
X200781758Y-102762858D01*
X200813000Y-102919925D01*
X200813000Y-103080075D01*
X200781758Y-103237142D01*
X200720471Y-103385101D01*
X200631501Y-103518255D01*
X200518255Y-103631501D01*
X200385101Y-103720471D01*
X200237142Y-103781758D01*
X200080075Y-103813000D01*
X199919925Y-103813000D01*
X199762858Y-103781758D01*
X199614899Y-103720471D01*
X199481745Y-103631501D01*
X199368499Y-103518255D01*
X199279529Y-103385101D01*
X199218242Y-103237142D01*
X199187000Y-103080075D01*
X199187000Y-102919925D01*
X199218242Y-102762858D01*
X199279529Y-102614899D01*
X199368499Y-102481745D01*
X199481745Y-102368499D01*
X199614899Y-102279529D01*
X199762858Y-102218242D01*
X199919925Y-102187000D01*
X200080075Y-102187000D01*
X200237142Y-102218242D01*
X200237142Y-102218242D01*
G37*
G36*
X196487142Y-102218242D02*
G01*
X196635101Y-102279529D01*
X196768255Y-102368499D01*
X196881501Y-102481745D01*
X196970471Y-102614899D01*
X197031758Y-102762858D01*
X197063000Y-102919925D01*
X197063000Y-103080075D01*
X197031758Y-103237142D01*
X196970471Y-103385101D01*
X196881501Y-103518255D01*
X196768255Y-103631501D01*
X196635101Y-103720471D01*
X196487142Y-103781758D01*
X196330075Y-103813000D01*
X196169925Y-103813000D01*
X196012858Y-103781758D01*
X195864899Y-103720471D01*
X195731745Y-103631501D01*
X195618499Y-103518255D01*
X195529529Y-103385101D01*
X195468242Y-103237142D01*
X195437000Y-103080075D01*
X195437000Y-102919925D01*
X195468242Y-102762858D01*
X195529529Y-102614899D01*
X195618499Y-102481745D01*
X195731745Y-102368499D01*
X195864899Y-102279529D01*
X196012858Y-102218242D01*
X196169925Y-102187000D01*
X196330075Y-102187000D01*
X196487142Y-102218242D01*
X196487142Y-102218242D01*
G37*
G36*
X152048228Y-101081703D02*
G01*
X152203100Y-101145853D01*
X152342481Y-101238985D01*
X152461015Y-101357519D01*
X152554147Y-101496900D01*
X152618297Y-101651772D01*
X152651000Y-101816184D01*
X152651000Y-101983816D01*
X152618297Y-102148228D01*
X152554147Y-102303100D01*
X152461015Y-102442481D01*
X152342481Y-102561015D01*
X152203100Y-102654147D01*
X152048228Y-102718297D01*
X151883816Y-102751000D01*
X151716184Y-102751000D01*
X151551772Y-102718297D01*
X151396900Y-102654147D01*
X151257519Y-102561015D01*
X151138985Y-102442481D01*
X151045853Y-102303100D01*
X150981703Y-102148228D01*
X150949000Y-101983816D01*
X150949000Y-101816184D01*
X150981703Y-101651772D01*
X151045853Y-101496900D01*
X151138985Y-101357519D01*
X151257519Y-101238985D01*
X151396900Y-101145853D01*
X151551772Y-101081703D01*
X151716184Y-101049000D01*
X151883816Y-101049000D01*
X152048228Y-101081703D01*
X152048228Y-101081703D01*
G37*
G36*
X157248228Y-101081703D02*
G01*
X157403100Y-101145853D01*
X157542481Y-101238985D01*
X157661015Y-101357519D01*
X157754147Y-101496900D01*
X157818297Y-101651772D01*
X157851000Y-101816184D01*
X157851000Y-101983816D01*
X157818297Y-102148228D01*
X157754147Y-102303100D01*
X157661015Y-102442481D01*
X157542481Y-102561015D01*
X157403100Y-102654147D01*
X157248228Y-102718297D01*
X157083816Y-102751000D01*
X156916184Y-102751000D01*
X156751772Y-102718297D01*
X156596900Y-102654147D01*
X156457519Y-102561015D01*
X156338985Y-102442481D01*
X156245853Y-102303100D01*
X156181703Y-102148228D01*
X156149000Y-101983816D01*
X156149000Y-101816184D01*
X156181703Y-101651772D01*
X156245853Y-101496900D01*
X156338985Y-101357519D01*
X156457519Y-101238985D01*
X156596900Y-101145853D01*
X156751772Y-101081703D01*
X156916184Y-101049000D01*
X157083816Y-101049000D01*
X157248228Y-101081703D01*
X157248228Y-101081703D01*
G37*
G36*
X152048228Y-98581703D02*
G01*
X152203100Y-98645853D01*
X152342481Y-98738985D01*
X152461015Y-98857519D01*
X152554147Y-98996900D01*
X152618297Y-99151772D01*
X152651000Y-99316184D01*
X152651000Y-99483816D01*
X152618297Y-99648228D01*
X152554147Y-99803100D01*
X152461015Y-99942481D01*
X152342481Y-100061015D01*
X152203100Y-100154147D01*
X152048228Y-100218297D01*
X151883816Y-100251000D01*
X151716184Y-100251000D01*
X151551772Y-100218297D01*
X151396900Y-100154147D01*
X151257519Y-100061015D01*
X151138985Y-99942481D01*
X151045853Y-99803100D01*
X150981703Y-99648228D01*
X150949000Y-99483816D01*
X150949000Y-99316184D01*
X150981703Y-99151772D01*
X151045853Y-98996900D01*
X151138985Y-98857519D01*
X151257519Y-98738985D01*
X151396900Y-98645853D01*
X151551772Y-98581703D01*
X151716184Y-98549000D01*
X151883816Y-98549000D01*
X152048228Y-98581703D01*
X152048228Y-98581703D01*
G37*
G36*
X157248228Y-98581703D02*
G01*
X157403100Y-98645853D01*
X157542481Y-98738985D01*
X157661015Y-98857519D01*
X157754147Y-98996900D01*
X157818297Y-99151772D01*
X157851000Y-99316184D01*
X157851000Y-99483816D01*
X157818297Y-99648228D01*
X157754147Y-99803100D01*
X157661015Y-99942481D01*
X157542481Y-100061015D01*
X157403100Y-100154147D01*
X157248228Y-100218297D01*
X157083816Y-100251000D01*
X156916184Y-100251000D01*
X156751772Y-100218297D01*
X156596900Y-100154147D01*
X156457519Y-100061015D01*
X156338985Y-99942481D01*
X156245853Y-99803100D01*
X156181703Y-99648228D01*
X156149000Y-99483816D01*
X156149000Y-99316184D01*
X156181703Y-99151772D01*
X156245853Y-98996900D01*
X156338985Y-98857519D01*
X156457519Y-98738985D01*
X156596900Y-98645853D01*
X156751772Y-98581703D01*
X156916184Y-98549000D01*
X157083816Y-98549000D01*
X157248228Y-98581703D01*
X157248228Y-98581703D01*
G37*
G36*
X222338571Y-97102863D02*
G01*
X222417023Y-97110590D01*
X222517682Y-97141125D01*
X222568013Y-97156392D01*
X222707165Y-97230771D01*
X222829133Y-97330867D01*
X222929229Y-97452835D01*
X223003608Y-97591987D01*
X223018875Y-97642318D01*
X223049410Y-97742977D01*
X223064875Y-97900000D01*
X223049410Y-98057023D01*
X223045170Y-98071000D01*
X223003608Y-98208013D01*
X222929229Y-98347165D01*
X222829133Y-98469133D01*
X222707165Y-98569229D01*
X222568013Y-98643608D01*
X222517682Y-98658875D01*
X222417023Y-98689410D01*
X222338571Y-98697137D01*
X222299346Y-98701000D01*
X221700654Y-98701000D01*
X221661429Y-98697137D01*
X221582977Y-98689410D01*
X221482318Y-98658875D01*
X221431987Y-98643608D01*
X221292835Y-98569229D01*
X221170867Y-98469133D01*
X221070771Y-98347165D01*
X220996392Y-98208013D01*
X220954830Y-98071000D01*
X220950590Y-98057023D01*
X220935125Y-97900000D01*
X220950590Y-97742977D01*
X220981125Y-97642318D01*
X220996392Y-97591987D01*
X221070771Y-97452835D01*
X221170867Y-97330867D01*
X221292835Y-97230771D01*
X221431987Y-97156392D01*
X221482318Y-97141125D01*
X221582977Y-97110590D01*
X221661429Y-97102863D01*
X221700654Y-97099000D01*
X222299346Y-97099000D01*
X222338571Y-97102863D01*
X222338571Y-97102863D01*
G37*
G36*
X177545589Y-96538876D02*
G01*
X177644893Y-96558629D01*
X177785206Y-96616748D01*
X177911484Y-96701125D01*
X178018875Y-96808516D01*
X178103252Y-96934794D01*
X178161371Y-97075107D01*
X178191000Y-97224063D01*
X178191000Y-97375937D01*
X178161371Y-97524893D01*
X178103252Y-97665206D01*
X178018875Y-97791484D01*
X177911484Y-97898875D01*
X177785206Y-97983252D01*
X177644893Y-98041371D01*
X177545589Y-98061124D01*
X177495938Y-98071000D01*
X177344062Y-98071000D01*
X177294411Y-98061124D01*
X177195107Y-98041371D01*
X177054794Y-97983252D01*
X176928516Y-97898875D01*
X176821125Y-97791484D01*
X176736748Y-97665206D01*
X176678629Y-97524893D01*
X176649000Y-97375937D01*
X176649000Y-97224063D01*
X176678629Y-97075107D01*
X176736748Y-96934794D01*
X176821125Y-96808516D01*
X176928516Y-96701125D01*
X177054794Y-96616748D01*
X177195107Y-96558629D01*
X177294411Y-96538876D01*
X177344062Y-96529000D01*
X177495938Y-96529000D01*
X177545589Y-96538876D01*
X177545589Y-96538876D01*
G37*
G36*
X182625589Y-96538876D02*
G01*
X182724893Y-96558629D01*
X182865206Y-96616748D01*
X182991484Y-96701125D01*
X183098875Y-96808516D01*
X183183252Y-96934794D01*
X183241371Y-97075107D01*
X183271000Y-97224063D01*
X183271000Y-97375937D01*
X183241371Y-97524893D01*
X183183252Y-97665206D01*
X183098875Y-97791484D01*
X182991484Y-97898875D01*
X182865206Y-97983252D01*
X182724893Y-98041371D01*
X182625589Y-98061124D01*
X182575938Y-98071000D01*
X182424062Y-98071000D01*
X182374411Y-98061124D01*
X182275107Y-98041371D01*
X182134794Y-97983252D01*
X182008516Y-97898875D01*
X181901125Y-97791484D01*
X181816748Y-97665206D01*
X181758629Y-97524893D01*
X181729000Y-97375937D01*
X181729000Y-97224063D01*
X181758629Y-97075107D01*
X181816748Y-96934794D01*
X181901125Y-96808516D01*
X182008516Y-96701125D01*
X182134794Y-96616748D01*
X182275107Y-96558629D01*
X182374411Y-96538876D01*
X182424062Y-96529000D01*
X182575938Y-96529000D01*
X182625589Y-96538876D01*
X182625589Y-96538876D01*
G37*
G36*
X180085589Y-96538876D02*
G01*
X180184893Y-96558629D01*
X180325206Y-96616748D01*
X180451484Y-96701125D01*
X180558875Y-96808516D01*
X180643252Y-96934794D01*
X180701371Y-97075107D01*
X180731000Y-97224063D01*
X180731000Y-97375937D01*
X180701371Y-97524893D01*
X180643252Y-97665206D01*
X180558875Y-97791484D01*
X180451484Y-97898875D01*
X180325206Y-97983252D01*
X180184893Y-98041371D01*
X180085589Y-98061124D01*
X180035938Y-98071000D01*
X179884062Y-98071000D01*
X179834411Y-98061124D01*
X179735107Y-98041371D01*
X179594794Y-97983252D01*
X179468516Y-97898875D01*
X179361125Y-97791484D01*
X179276748Y-97665206D01*
X179218629Y-97524893D01*
X179189000Y-97375937D01*
X179189000Y-97224063D01*
X179218629Y-97075107D01*
X179276748Y-96934794D01*
X179361125Y-96808516D01*
X179468516Y-96701125D01*
X179594794Y-96616748D01*
X179735107Y-96558629D01*
X179834411Y-96538876D01*
X179884062Y-96529000D01*
X180035938Y-96529000D01*
X180085589Y-96538876D01*
X180085589Y-96538876D01*
G37*
G36*
X140951000Y-97951000D02*
G01*
X139049000Y-97951000D01*
X139049000Y-96049000D01*
X140951000Y-96049000D01*
X140951000Y-97951000D01*
X140951000Y-97951000D01*
G37*
G36*
X142817395Y-96085546D02*
G01*
X142990466Y-96157234D01*
X142990467Y-96157235D01*
X143146227Y-96261310D01*
X143278690Y-96393773D01*
X143278691Y-96393775D01*
X143382766Y-96549534D01*
X143454454Y-96722605D01*
X143491000Y-96906333D01*
X143491000Y-97093667D01*
X143454454Y-97277395D01*
X143382766Y-97450466D01*
X143382765Y-97450467D01*
X143278690Y-97606227D01*
X143146227Y-97738690D01*
X143139811Y-97742977D01*
X142990466Y-97842766D01*
X142817395Y-97914454D01*
X142633667Y-97951000D01*
X142446333Y-97951000D01*
X142262605Y-97914454D01*
X142089534Y-97842766D01*
X141940189Y-97742977D01*
X141933773Y-97738690D01*
X141801310Y-97606227D01*
X141697235Y-97450467D01*
X141697234Y-97450466D01*
X141625546Y-97277395D01*
X141589000Y-97093667D01*
X141589000Y-96906333D01*
X141625546Y-96722605D01*
X141697234Y-96549534D01*
X141801309Y-96393775D01*
X141801310Y-96393773D01*
X141933773Y-96261310D01*
X142089533Y-96157235D01*
X142089534Y-96157234D01*
X142262605Y-96085546D01*
X142446333Y-96049000D01*
X142633667Y-96049000D01*
X142817395Y-96085546D01*
X142817395Y-96085546D01*
G37*
G36*
X128357395Y-96085546D02*
G01*
X128530466Y-96157234D01*
X128530467Y-96157235D01*
X128686227Y-96261310D01*
X128818690Y-96393773D01*
X128818691Y-96393775D01*
X128922766Y-96549534D01*
X128994454Y-96722605D01*
X129031000Y-96906333D01*
X129031000Y-97093667D01*
X128994454Y-97277395D01*
X128922766Y-97450466D01*
X128922765Y-97450467D01*
X128818690Y-97606227D01*
X128686227Y-97738690D01*
X128679811Y-97742977D01*
X128530466Y-97842766D01*
X128357395Y-97914454D01*
X128173667Y-97951000D01*
X127986333Y-97951000D01*
X127802605Y-97914454D01*
X127629534Y-97842766D01*
X127480189Y-97742977D01*
X127473773Y-97738690D01*
X127341310Y-97606227D01*
X127237235Y-97450467D01*
X127237234Y-97450466D01*
X127165546Y-97277395D01*
X127129000Y-97093667D01*
X127129000Y-96906333D01*
X127165546Y-96722605D01*
X127237234Y-96549534D01*
X127341309Y-96393775D01*
X127341310Y-96393773D01*
X127473773Y-96261310D01*
X127629533Y-96157235D01*
X127629534Y-96157234D01*
X127802605Y-96085546D01*
X127986333Y-96049000D01*
X128173667Y-96049000D01*
X128357395Y-96085546D01*
X128357395Y-96085546D01*
G37*
G36*
X125817395Y-96085546D02*
G01*
X125990466Y-96157234D01*
X125990467Y-96157235D01*
X126146227Y-96261310D01*
X126278690Y-96393773D01*
X126278691Y-96393775D01*
X126382766Y-96549534D01*
X126454454Y-96722605D01*
X126491000Y-96906333D01*
X126491000Y-97093667D01*
X126454454Y-97277395D01*
X126382766Y-97450466D01*
X126382765Y-97450467D01*
X126278690Y-97606227D01*
X126146227Y-97738690D01*
X126139811Y-97742977D01*
X125990466Y-97842766D01*
X125817395Y-97914454D01*
X125633667Y-97951000D01*
X125446333Y-97951000D01*
X125262605Y-97914454D01*
X125089534Y-97842766D01*
X124940189Y-97742977D01*
X124933773Y-97738690D01*
X124801310Y-97606227D01*
X124697235Y-97450467D01*
X124697234Y-97450466D01*
X124625546Y-97277395D01*
X124589000Y-97093667D01*
X124589000Y-96906333D01*
X124625546Y-96722605D01*
X124697234Y-96549534D01*
X124801309Y-96393775D01*
X124801310Y-96393773D01*
X124933773Y-96261310D01*
X125089533Y-96157235D01*
X125089534Y-96157234D01*
X125262605Y-96085546D01*
X125446333Y-96049000D01*
X125633667Y-96049000D01*
X125817395Y-96085546D01*
X125817395Y-96085546D01*
G37*
G36*
X123951000Y-97951000D02*
G01*
X122049000Y-97951000D01*
X122049000Y-96049000D01*
X123951000Y-96049000D01*
X123951000Y-97951000D01*
X123951000Y-97951000D01*
G37*
G36*
X145357395Y-96085546D02*
G01*
X145530466Y-96157234D01*
X145530467Y-96157235D01*
X145686227Y-96261310D01*
X145818690Y-96393773D01*
X145818691Y-96393775D01*
X145922766Y-96549534D01*
X145994454Y-96722605D01*
X146031000Y-96906333D01*
X146031000Y-97093667D01*
X145994454Y-97277395D01*
X145922766Y-97450466D01*
X145922765Y-97450467D01*
X145818690Y-97606227D01*
X145686227Y-97738690D01*
X145679811Y-97742977D01*
X145530466Y-97842766D01*
X145357395Y-97914454D01*
X145173667Y-97951000D01*
X144986333Y-97951000D01*
X144802605Y-97914454D01*
X144629534Y-97842766D01*
X144480189Y-97742977D01*
X144473773Y-97738690D01*
X144341310Y-97606227D01*
X144237235Y-97450467D01*
X144237234Y-97450466D01*
X144165546Y-97277395D01*
X144129000Y-97093667D01*
X144129000Y-96906333D01*
X144165546Y-96722605D01*
X144237234Y-96549534D01*
X144341309Y-96393775D01*
X144341310Y-96393773D01*
X144473773Y-96261310D01*
X144629533Y-96157235D01*
X144629534Y-96157234D01*
X144802605Y-96085546D01*
X144986333Y-96049000D01*
X145173667Y-96049000D01*
X145357395Y-96085546D01*
X145357395Y-96085546D01*
G37*
G36*
X226622585Y-93378802D02*
G01*
X226772410Y-93408604D01*
X227054674Y-93525521D01*
X227308705Y-93695259D01*
X227524741Y-93911295D01*
X227694479Y-94165326D01*
X227811396Y-94447590D01*
X227841198Y-94597415D01*
X227871000Y-94747239D01*
X227871000Y-95052761D01*
X227870152Y-95057023D01*
X227811396Y-95352410D01*
X227694479Y-95634674D01*
X227524741Y-95888705D01*
X227308705Y-96104741D01*
X227054674Y-96274479D01*
X226772410Y-96391396D01*
X226622585Y-96421198D01*
X226472761Y-96451000D01*
X226167239Y-96451000D01*
X226017415Y-96421198D01*
X225867590Y-96391396D01*
X225585326Y-96274479D01*
X225331295Y-96104741D01*
X225115259Y-95888705D01*
X224945521Y-95634674D01*
X224828604Y-95352410D01*
X224769848Y-95057023D01*
X224769000Y-95052761D01*
X224769000Y-94747239D01*
X224798802Y-94597415D01*
X224828604Y-94447590D01*
X224945521Y-94165326D01*
X225115259Y-93911295D01*
X225331295Y-93695259D01*
X225585326Y-93525521D01*
X225867590Y-93408604D01*
X226017415Y-93378802D01*
X226167239Y-93349000D01*
X226472761Y-93349000D01*
X226622585Y-93378802D01*
X226622585Y-93378802D01*
G37*
G36*
X222338571Y-94102863D02*
G01*
X222417023Y-94110590D01*
X222517682Y-94141125D01*
X222568013Y-94156392D01*
X222707165Y-94230771D01*
X222829133Y-94330867D01*
X222929229Y-94452835D01*
X223003608Y-94591987D01*
X223003608Y-94591988D01*
X223049410Y-94742977D01*
X223064875Y-94900000D01*
X223049410Y-95057023D01*
X223018875Y-95157682D01*
X223003608Y-95208013D01*
X222929229Y-95347165D01*
X222829133Y-95469133D01*
X222707165Y-95569229D01*
X222568013Y-95643608D01*
X222517682Y-95658875D01*
X222417023Y-95689410D01*
X222338571Y-95697137D01*
X222299346Y-95701000D01*
X221700654Y-95701000D01*
X221661429Y-95697137D01*
X221582977Y-95689410D01*
X221482318Y-95658875D01*
X221431987Y-95643608D01*
X221292835Y-95569229D01*
X221170867Y-95469133D01*
X221070771Y-95347165D01*
X220996392Y-95208013D01*
X220981125Y-95157682D01*
X220950590Y-95057023D01*
X220935125Y-94900000D01*
X220950590Y-94742977D01*
X220996392Y-94591988D01*
X220996392Y-94591987D01*
X221070771Y-94452835D01*
X221170867Y-94330867D01*
X221292835Y-94230771D01*
X221431987Y-94156392D01*
X221482318Y-94141125D01*
X221582977Y-94110590D01*
X221661429Y-94102863D01*
X221700654Y-94099000D01*
X222299346Y-94099000D01*
X222338571Y-94102863D01*
X222338571Y-94102863D01*
G37*
G36*
X222913048Y-91103122D02*
G01*
X222947387Y-91113539D01*
X222979036Y-91130456D01*
X223006778Y-91153222D01*
X223029544Y-91180964D01*
X223046461Y-91212613D01*
X223056878Y-91246952D01*
X223061000Y-91288807D01*
X223061000Y-92511193D01*
X223056878Y-92553048D01*
X223046461Y-92587387D01*
X223029544Y-92619036D01*
X223006778Y-92646778D01*
X222979036Y-92669544D01*
X222947387Y-92686461D01*
X222913048Y-92696878D01*
X222871193Y-92701000D01*
X221128807Y-92701000D01*
X221086952Y-92696878D01*
X221052613Y-92686461D01*
X221020964Y-92669544D01*
X220993222Y-92646778D01*
X220970456Y-92619036D01*
X220953539Y-92587387D01*
X220943122Y-92553048D01*
X220939000Y-92511193D01*
X220939000Y-91288807D01*
X220943122Y-91246952D01*
X220953539Y-91212613D01*
X220970456Y-91180964D01*
X220993222Y-91153222D01*
X221020964Y-91130456D01*
X221052613Y-91113539D01*
X221086952Y-91103122D01*
X221128807Y-91099000D01*
X222871193Y-91099000D01*
X222913048Y-91103122D01*
X222913048Y-91103122D01*
G37*
G36*
X167264687Y-89171507D02*
G01*
X167264690Y-89171508D01*
X167264689Y-89171508D01*
X167442309Y-89245080D01*
X167442310Y-89245081D01*
X167602161Y-89351889D01*
X167738111Y-89487839D01*
X167827158Y-89621109D01*
X167844920Y-89647691D01*
X167849084Y-89657745D01*
X167918493Y-89825313D01*
X167956000Y-90013871D01*
X167956000Y-90206129D01*
X167918493Y-90394687D01*
X167918492Y-90394689D01*
X167844920Y-90572309D01*
X167844919Y-90572310D01*
X167738111Y-90732161D01*
X167602161Y-90868111D01*
X167468891Y-90957158D01*
X167442309Y-90974920D01*
X167304927Y-91031825D01*
X167264687Y-91048493D01*
X167076129Y-91086000D01*
X166883871Y-91086000D01*
X166695313Y-91048493D01*
X166655073Y-91031825D01*
X166517691Y-90974920D01*
X166491109Y-90957158D01*
X166357839Y-90868111D01*
X166221889Y-90732161D01*
X166115081Y-90572310D01*
X166115080Y-90572309D01*
X166041508Y-90394689D01*
X166041507Y-90394687D01*
X166004000Y-90206129D01*
X166004000Y-90013871D01*
X166041507Y-89825313D01*
X166110916Y-89657745D01*
X166115080Y-89647691D01*
X166132842Y-89621109D01*
X166221889Y-89487839D01*
X166357839Y-89351889D01*
X166517690Y-89245081D01*
X166517691Y-89245080D01*
X166695311Y-89171508D01*
X166695310Y-89171508D01*
X166695313Y-89171507D01*
X166883871Y-89134000D01*
X167076129Y-89134000D01*
X167264687Y-89171507D01*
X167264687Y-89171507D01*
G37*
G36*
X182504687Y-89171507D02*
G01*
X182504690Y-89171508D01*
X182504689Y-89171508D01*
X182682309Y-89245080D01*
X182682310Y-89245081D01*
X182842161Y-89351889D01*
X182978111Y-89487839D01*
X183067158Y-89621109D01*
X183084920Y-89647691D01*
X183089084Y-89657745D01*
X183158493Y-89825313D01*
X183196000Y-90013871D01*
X183196000Y-90206129D01*
X183158493Y-90394687D01*
X183158492Y-90394689D01*
X183084920Y-90572309D01*
X183084919Y-90572310D01*
X182978111Y-90732161D01*
X182842161Y-90868111D01*
X182708891Y-90957158D01*
X182682309Y-90974920D01*
X182544927Y-91031825D01*
X182504687Y-91048493D01*
X182316129Y-91086000D01*
X182123871Y-91086000D01*
X181935313Y-91048493D01*
X181895073Y-91031825D01*
X181757691Y-90974920D01*
X181731109Y-90957158D01*
X181597839Y-90868111D01*
X181461889Y-90732161D01*
X181355081Y-90572310D01*
X181355080Y-90572309D01*
X181281508Y-90394689D01*
X181281507Y-90394687D01*
X181244000Y-90206129D01*
X181244000Y-90013871D01*
X181281507Y-89825313D01*
X181350916Y-89657745D01*
X181355080Y-89647691D01*
X181372842Y-89621109D01*
X181461889Y-89487839D01*
X181597839Y-89351889D01*
X181757690Y-89245081D01*
X181757691Y-89245080D01*
X181935311Y-89171508D01*
X181935310Y-89171508D01*
X181935313Y-89171507D01*
X182123871Y-89134000D01*
X182316129Y-89134000D01*
X182504687Y-89171507D01*
X182504687Y-89171507D01*
G37*
G36*
X157271142Y-89394242D02*
G01*
X157419101Y-89455529D01*
X157552255Y-89544499D01*
X157665501Y-89657745D01*
X157754471Y-89790899D01*
X157815758Y-89938858D01*
X157847000Y-90095925D01*
X157847000Y-90256075D01*
X157815758Y-90413142D01*
X157754471Y-90561101D01*
X157665501Y-90694255D01*
X157552255Y-90807501D01*
X157419101Y-90896471D01*
X157271142Y-90957758D01*
X157114075Y-90989000D01*
X156953925Y-90989000D01*
X156796858Y-90957758D01*
X156648899Y-90896471D01*
X156515745Y-90807501D01*
X156402499Y-90694255D01*
X156313529Y-90561101D01*
X156252242Y-90413142D01*
X156221000Y-90256075D01*
X156221000Y-90095925D01*
X156252242Y-89938858D01*
X156313529Y-89790899D01*
X156402499Y-89657745D01*
X156515745Y-89544499D01*
X156648899Y-89455529D01*
X156796858Y-89394242D01*
X156953925Y-89363000D01*
X157114075Y-89363000D01*
X157271142Y-89394242D01*
X157271142Y-89394242D01*
G37*
G36*
X121203142Y-89394242D02*
G01*
X121351101Y-89455529D01*
X121484255Y-89544499D01*
X121597501Y-89657745D01*
X121686471Y-89790899D01*
X121747758Y-89938858D01*
X121779000Y-90095925D01*
X121779000Y-90256075D01*
X121747758Y-90413142D01*
X121686471Y-90561101D01*
X121597501Y-90694255D01*
X121484255Y-90807501D01*
X121351101Y-90896471D01*
X121203142Y-90957758D01*
X121046075Y-90989000D01*
X120885925Y-90989000D01*
X120728858Y-90957758D01*
X120580899Y-90896471D01*
X120447745Y-90807501D01*
X120334499Y-90694255D01*
X120245529Y-90561101D01*
X120184242Y-90413142D01*
X120153000Y-90256075D01*
X120153000Y-90095925D01*
X120184242Y-89938858D01*
X120245529Y-89790899D01*
X120334499Y-89657745D01*
X120447745Y-89544499D01*
X120580899Y-89455529D01*
X120728858Y-89394242D01*
X120885925Y-89363000D01*
X121046075Y-89363000D01*
X121203142Y-89394242D01*
X121203142Y-89394242D01*
G37*
G36*
X183134600Y-88484600D02*
G01*
X181305400Y-88484600D01*
X181305400Y-86655400D01*
X183134600Y-86655400D01*
X183134600Y-88484600D01*
X183134600Y-88484600D01*
G37*
G36*
X167246778Y-86690547D02*
G01*
X167413224Y-86759491D01*
X167563022Y-86859583D01*
X167690417Y-86986978D01*
X167790509Y-87136776D01*
X167859453Y-87303222D01*
X167894600Y-87479918D01*
X167894600Y-87660082D01*
X167859453Y-87836778D01*
X167790509Y-88003224D01*
X167690417Y-88153022D01*
X167563022Y-88280417D01*
X167413224Y-88380509D01*
X167246778Y-88449453D01*
X167070082Y-88484600D01*
X166889918Y-88484600D01*
X166713222Y-88449453D01*
X166546776Y-88380509D01*
X166396978Y-88280417D01*
X166269583Y-88153022D01*
X166169491Y-88003224D01*
X166100547Y-87836778D01*
X166065400Y-87660082D01*
X166065400Y-87479918D01*
X166100547Y-87303222D01*
X166169491Y-87136776D01*
X166269583Y-86986978D01*
X166396978Y-86859583D01*
X166546776Y-86759491D01*
X166713222Y-86690547D01*
X166889918Y-86655400D01*
X167070082Y-86655400D01*
X167246778Y-86690547D01*
X167246778Y-86690547D01*
G37*
G36*
X121203142Y-86854242D02*
G01*
X121351101Y-86915529D01*
X121484255Y-87004499D01*
X121597501Y-87117745D01*
X121686471Y-87250899D01*
X121747758Y-87398858D01*
X121779000Y-87555925D01*
X121779000Y-87716075D01*
X121747758Y-87873142D01*
X121686471Y-88021101D01*
X121597501Y-88154255D01*
X121484255Y-88267501D01*
X121351101Y-88356471D01*
X121203142Y-88417758D01*
X121046075Y-88449000D01*
X120885925Y-88449000D01*
X120728858Y-88417758D01*
X120580899Y-88356471D01*
X120447745Y-88267501D01*
X120334499Y-88154255D01*
X120245529Y-88021101D01*
X120184242Y-87873142D01*
X120153000Y-87716075D01*
X120153000Y-87555925D01*
X120184242Y-87398858D01*
X120245529Y-87250899D01*
X120334499Y-87117745D01*
X120447745Y-87004499D01*
X120580899Y-86915529D01*
X120728858Y-86854242D01*
X120885925Y-86823000D01*
X121046075Y-86823000D01*
X121203142Y-86854242D01*
X121203142Y-86854242D01*
G37*
G36*
X157271142Y-86854242D02*
G01*
X157419101Y-86915529D01*
X157552255Y-87004499D01*
X157665501Y-87117745D01*
X157754471Y-87250899D01*
X157815758Y-87398858D01*
X157847000Y-87555925D01*
X157847000Y-87716075D01*
X157815758Y-87873142D01*
X157754471Y-88021101D01*
X157665501Y-88154255D01*
X157552255Y-88267501D01*
X157419101Y-88356471D01*
X157271142Y-88417758D01*
X157114075Y-88449000D01*
X156953925Y-88449000D01*
X156796858Y-88417758D01*
X156648899Y-88356471D01*
X156515745Y-88267501D01*
X156402499Y-88154255D01*
X156313529Y-88021101D01*
X156252242Y-87873142D01*
X156221000Y-87716075D01*
X156221000Y-87555925D01*
X156252242Y-87398858D01*
X156313529Y-87250899D01*
X156402499Y-87117745D01*
X156515745Y-87004499D01*
X156648899Y-86915529D01*
X156796858Y-86854242D01*
X156953925Y-86823000D01*
X157114075Y-86823000D01*
X157271142Y-86854242D01*
X157271142Y-86854242D01*
G37*
G36*
X145973114Y-85829176D02*
G01*
X146067168Y-85838439D01*
X146268299Y-85899451D01*
X146352766Y-85944600D01*
X146453661Y-85998529D01*
X146616133Y-86131867D01*
X146749471Y-86294339D01*
X146802682Y-86393890D01*
X146848549Y-86479701D01*
X146909561Y-86680832D01*
X146930162Y-86890000D01*
X146909561Y-87099168D01*
X146848549Y-87300299D01*
X146802682Y-87386110D01*
X146749471Y-87485661D01*
X146616133Y-87648133D01*
X146453661Y-87781471D01*
X146354110Y-87834682D01*
X146268299Y-87880549D01*
X146067168Y-87941561D01*
X145973114Y-87950824D01*
X145910413Y-87957000D01*
X144789587Y-87957000D01*
X144726886Y-87950824D01*
X144632832Y-87941561D01*
X144431701Y-87880549D01*
X144345890Y-87834682D01*
X144246339Y-87781471D01*
X144083867Y-87648133D01*
X143950529Y-87485661D01*
X143897318Y-87386110D01*
X143851451Y-87300299D01*
X143790439Y-87099168D01*
X143769838Y-86890000D01*
X143790439Y-86680832D01*
X143851451Y-86479701D01*
X143897318Y-86393890D01*
X143950529Y-86294339D01*
X144083867Y-86131867D01*
X144246339Y-85998529D01*
X144347234Y-85944600D01*
X144431701Y-85899451D01*
X144632832Y-85838439D01*
X144726886Y-85829176D01*
X144789587Y-85823000D01*
X145910413Y-85823000D01*
X145973114Y-85829176D01*
X145973114Y-85829176D01*
G37*
G36*
X133273114Y-85829176D02*
G01*
X133367168Y-85838439D01*
X133568299Y-85899451D01*
X133652766Y-85944600D01*
X133753661Y-85998529D01*
X133916133Y-86131867D01*
X134049471Y-86294339D01*
X134102682Y-86393890D01*
X134148549Y-86479701D01*
X134209561Y-86680832D01*
X134230162Y-86890000D01*
X134209561Y-87099168D01*
X134148549Y-87300299D01*
X134102682Y-87386110D01*
X134049471Y-87485661D01*
X133916133Y-87648133D01*
X133753661Y-87781471D01*
X133654110Y-87834682D01*
X133568299Y-87880549D01*
X133367168Y-87941561D01*
X133273114Y-87950824D01*
X133210413Y-87957000D01*
X132089587Y-87957000D01*
X132026886Y-87950824D01*
X131932832Y-87941561D01*
X131731701Y-87880549D01*
X131645890Y-87834682D01*
X131546339Y-87781471D01*
X131383867Y-87648133D01*
X131250529Y-87485661D01*
X131197318Y-87386110D01*
X131151451Y-87300299D01*
X131090439Y-87099168D01*
X131069838Y-86890000D01*
X131090439Y-86680832D01*
X131151451Y-86479701D01*
X131197318Y-86393890D01*
X131250529Y-86294339D01*
X131383867Y-86131867D01*
X131546339Y-85998529D01*
X131647234Y-85944600D01*
X131731701Y-85899451D01*
X131932832Y-85838439D01*
X132026886Y-85829176D01*
X132089587Y-85823000D01*
X133210413Y-85823000D01*
X133273114Y-85829176D01*
X133273114Y-85829176D01*
G37*
G36*
X182486778Y-84150547D02*
G01*
X182653224Y-84219491D01*
X182803022Y-84319583D01*
X182930417Y-84446978D01*
X183030509Y-84596776D01*
X183099453Y-84763222D01*
X183134600Y-84939918D01*
X183134600Y-85120082D01*
X183099453Y-85296778D01*
X183030509Y-85463224D01*
X182930417Y-85613022D01*
X182803022Y-85740417D01*
X182653224Y-85840509D01*
X182486778Y-85909453D01*
X182310082Y-85944600D01*
X182129918Y-85944600D01*
X181953222Y-85909453D01*
X181786776Y-85840509D01*
X181636978Y-85740417D01*
X181509583Y-85613022D01*
X181409491Y-85463224D01*
X181340547Y-85296778D01*
X181305400Y-85120082D01*
X181305400Y-84939918D01*
X181340547Y-84763222D01*
X181409491Y-84596776D01*
X181509583Y-84446978D01*
X181636978Y-84319583D01*
X181786776Y-84219491D01*
X181953222Y-84150547D01*
X182129918Y-84115400D01*
X182310082Y-84115400D01*
X182486778Y-84150547D01*
X182486778Y-84150547D01*
G37*
G36*
X167246778Y-84150547D02*
G01*
X167413224Y-84219491D01*
X167563022Y-84319583D01*
X167690417Y-84446978D01*
X167790509Y-84596776D01*
X167859453Y-84763222D01*
X167894600Y-84939918D01*
X167894600Y-85120082D01*
X167859453Y-85296778D01*
X167790509Y-85463224D01*
X167690417Y-85613022D01*
X167563022Y-85740417D01*
X167413224Y-85840509D01*
X167246778Y-85909453D01*
X167070082Y-85944600D01*
X166889918Y-85944600D01*
X166713222Y-85909453D01*
X166546776Y-85840509D01*
X166396978Y-85740417D01*
X166269583Y-85613022D01*
X166169491Y-85463224D01*
X166100547Y-85296778D01*
X166065400Y-85120082D01*
X166065400Y-84939918D01*
X166100547Y-84763222D01*
X166169491Y-84596776D01*
X166269583Y-84446978D01*
X166396978Y-84319583D01*
X166546776Y-84219491D01*
X166713222Y-84150547D01*
X166889918Y-84115400D01*
X167070082Y-84115400D01*
X167246778Y-84150547D01*
X167246778Y-84150547D01*
G37*
G36*
X121203142Y-84314242D02*
G01*
X121351101Y-84375529D01*
X121484255Y-84464499D01*
X121597501Y-84577745D01*
X121686471Y-84710899D01*
X121747758Y-84858858D01*
X121779000Y-85015925D01*
X121779000Y-85176075D01*
X121747758Y-85333142D01*
X121686471Y-85481101D01*
X121597501Y-85614255D01*
X121484255Y-85727501D01*
X121351101Y-85816471D01*
X121203142Y-85877758D01*
X121046075Y-85909000D01*
X120885925Y-85909000D01*
X120728858Y-85877758D01*
X120580899Y-85816471D01*
X120447745Y-85727501D01*
X120334499Y-85614255D01*
X120245529Y-85481101D01*
X120184242Y-85333142D01*
X120153000Y-85176075D01*
X120153000Y-85015925D01*
X120184242Y-84858858D01*
X120245529Y-84710899D01*
X120334499Y-84577745D01*
X120447745Y-84464499D01*
X120580899Y-84375529D01*
X120728858Y-84314242D01*
X120885925Y-84283000D01*
X121046075Y-84283000D01*
X121203142Y-84314242D01*
X121203142Y-84314242D01*
G37*
G36*
X157271142Y-84314242D02*
G01*
X157419101Y-84375529D01*
X157552255Y-84464499D01*
X157665501Y-84577745D01*
X157754471Y-84710899D01*
X157815758Y-84858858D01*
X157847000Y-85015925D01*
X157847000Y-85176075D01*
X157815758Y-85333142D01*
X157754471Y-85481101D01*
X157665501Y-85614255D01*
X157552255Y-85727501D01*
X157419101Y-85816471D01*
X157271142Y-85877758D01*
X157114075Y-85909000D01*
X156953925Y-85909000D01*
X156796858Y-85877758D01*
X156648899Y-85816471D01*
X156515745Y-85727501D01*
X156402499Y-85614255D01*
X156313529Y-85481101D01*
X156252242Y-85333142D01*
X156221000Y-85176075D01*
X156221000Y-85015925D01*
X156252242Y-84858858D01*
X156313529Y-84710899D01*
X156402499Y-84577745D01*
X156515745Y-84464499D01*
X156648899Y-84375529D01*
X156796858Y-84314242D01*
X156953925Y-84283000D01*
X157114075Y-84283000D01*
X157271142Y-84314242D01*
X157271142Y-84314242D01*
G37*
G36*
X133273114Y-83289176D02*
G01*
X133367168Y-83298439D01*
X133568299Y-83359451D01*
X133616284Y-83385100D01*
X133753661Y-83458529D01*
X133916133Y-83591867D01*
X134049471Y-83754339D01*
X134102682Y-83853890D01*
X134148549Y-83939701D01*
X134209561Y-84140832D01*
X134230162Y-84350000D01*
X134209561Y-84559168D01*
X134148549Y-84760299D01*
X134102682Y-84846110D01*
X134049471Y-84945661D01*
X133916133Y-85108133D01*
X133753661Y-85241471D01*
X133654110Y-85294682D01*
X133568299Y-85340549D01*
X133367168Y-85401561D01*
X133273114Y-85410824D01*
X133210413Y-85417000D01*
X132089587Y-85417000D01*
X132026886Y-85410824D01*
X131932832Y-85401561D01*
X131731701Y-85340549D01*
X131645890Y-85294682D01*
X131546339Y-85241471D01*
X131383867Y-85108133D01*
X131250529Y-84945661D01*
X131197318Y-84846110D01*
X131151451Y-84760299D01*
X131090439Y-84559168D01*
X131069838Y-84350000D01*
X131090439Y-84140832D01*
X131151451Y-83939701D01*
X131197318Y-83853890D01*
X131250529Y-83754339D01*
X131383867Y-83591867D01*
X131546339Y-83458529D01*
X131683716Y-83385100D01*
X131731701Y-83359451D01*
X131932832Y-83298439D01*
X132026886Y-83289176D01*
X132089587Y-83283000D01*
X133210413Y-83283000D01*
X133273114Y-83289176D01*
X133273114Y-83289176D01*
G37*
G36*
X145973114Y-83289176D02*
G01*
X146067168Y-83298439D01*
X146268299Y-83359451D01*
X146316284Y-83385100D01*
X146453661Y-83458529D01*
X146616133Y-83591867D01*
X146749471Y-83754339D01*
X146802682Y-83853890D01*
X146848549Y-83939701D01*
X146909561Y-84140832D01*
X146930162Y-84350000D01*
X146909561Y-84559168D01*
X146848549Y-84760299D01*
X146802682Y-84846110D01*
X146749471Y-84945661D01*
X146616133Y-85108133D01*
X146453661Y-85241471D01*
X146354110Y-85294682D01*
X146268299Y-85340549D01*
X146067168Y-85401561D01*
X145973114Y-85410824D01*
X145910413Y-85417000D01*
X144789587Y-85417000D01*
X144726886Y-85410824D01*
X144632832Y-85401561D01*
X144431701Y-85340549D01*
X144345890Y-85294682D01*
X144246339Y-85241471D01*
X144083867Y-85108133D01*
X143950529Y-84945661D01*
X143897318Y-84846110D01*
X143851451Y-84760299D01*
X143790439Y-84559168D01*
X143769838Y-84350000D01*
X143790439Y-84140832D01*
X143851451Y-83939701D01*
X143897318Y-83853890D01*
X143950529Y-83754339D01*
X144083867Y-83591867D01*
X144246339Y-83458529D01*
X144383716Y-83385100D01*
X144431701Y-83359451D01*
X144632832Y-83298439D01*
X144726886Y-83289176D01*
X144789587Y-83283000D01*
X145910413Y-83283000D01*
X145973114Y-83289176D01*
X145973114Y-83289176D01*
G37*
G36*
X202777142Y-82218242D02*
G01*
X202925101Y-82279529D01*
X203058255Y-82368499D01*
X203171501Y-82481745D01*
X203260471Y-82614899D01*
X203321758Y-82762858D01*
X203353000Y-82919925D01*
X203353000Y-83080075D01*
X203321758Y-83237142D01*
X203260471Y-83385101D01*
X203171501Y-83518255D01*
X203058255Y-83631501D01*
X202925101Y-83720471D01*
X202777142Y-83781758D01*
X202620075Y-83813000D01*
X202459925Y-83813000D01*
X202302858Y-83781758D01*
X202154899Y-83720471D01*
X202021745Y-83631501D01*
X201908499Y-83518255D01*
X201819529Y-83385101D01*
X201758242Y-83237142D01*
X201727000Y-83080075D01*
X201727000Y-82919925D01*
X201758242Y-82762858D01*
X201819529Y-82614899D01*
X201908499Y-82481745D01*
X202021745Y-82368499D01*
X202154899Y-82279529D01*
X202302858Y-82218242D01*
X202459925Y-82187000D01*
X202620075Y-82187000D01*
X202777142Y-82218242D01*
X202777142Y-82218242D01*
G37*
G36*
X197697142Y-82218242D02*
G01*
X197845101Y-82279529D01*
X197978255Y-82368499D01*
X198091501Y-82481745D01*
X198180471Y-82614899D01*
X198241758Y-82762858D01*
X198273000Y-82919925D01*
X198273000Y-83080075D01*
X198241758Y-83237142D01*
X198180471Y-83385101D01*
X198091501Y-83518255D01*
X197978255Y-83631501D01*
X197845101Y-83720471D01*
X197697142Y-83781758D01*
X197540075Y-83813000D01*
X197379925Y-83813000D01*
X197222858Y-83781758D01*
X197074899Y-83720471D01*
X196941745Y-83631501D01*
X196828499Y-83518255D01*
X196739529Y-83385101D01*
X196678242Y-83237142D01*
X196647000Y-83080075D01*
X196647000Y-82919925D01*
X196678242Y-82762858D01*
X196739529Y-82614899D01*
X196828499Y-82481745D01*
X196941745Y-82368499D01*
X197074899Y-82279529D01*
X197222858Y-82218242D01*
X197379925Y-82187000D01*
X197540075Y-82187000D01*
X197697142Y-82218242D01*
X197697142Y-82218242D01*
G37*
G36*
X200237142Y-82218242D02*
G01*
X200385101Y-82279529D01*
X200518255Y-82368499D01*
X200631501Y-82481745D01*
X200720471Y-82614899D01*
X200781758Y-82762858D01*
X200813000Y-82919925D01*
X200813000Y-83080075D01*
X200781758Y-83237142D01*
X200720471Y-83385101D01*
X200631501Y-83518255D01*
X200518255Y-83631501D01*
X200385101Y-83720471D01*
X200237142Y-83781758D01*
X200080075Y-83813000D01*
X199919925Y-83813000D01*
X199762858Y-83781758D01*
X199614899Y-83720471D01*
X199481745Y-83631501D01*
X199368499Y-83518255D01*
X199279529Y-83385101D01*
X199218242Y-83237142D01*
X199187000Y-83080075D01*
X199187000Y-82919925D01*
X199218242Y-82762858D01*
X199279529Y-82614899D01*
X199368499Y-82481745D01*
X199481745Y-82368499D01*
X199614899Y-82279529D01*
X199762858Y-82218242D01*
X199919925Y-82187000D01*
X200080075Y-82187000D01*
X200237142Y-82218242D01*
X200237142Y-82218242D01*
G37*
G36*
X167246778Y-81610547D02*
G01*
X167413224Y-81679491D01*
X167563022Y-81779583D01*
X167690417Y-81906978D01*
X167790509Y-82056776D01*
X167859453Y-82223222D01*
X167894600Y-82399918D01*
X167894600Y-82580082D01*
X167859453Y-82756778D01*
X167790509Y-82923224D01*
X167690417Y-83073022D01*
X167563022Y-83200417D01*
X167413224Y-83300509D01*
X167246778Y-83369453D01*
X167070082Y-83404600D01*
X166889918Y-83404600D01*
X166713222Y-83369453D01*
X166546776Y-83300509D01*
X166396978Y-83200417D01*
X166269583Y-83073022D01*
X166169491Y-82923224D01*
X166100547Y-82756778D01*
X166065400Y-82580082D01*
X166065400Y-82399918D01*
X166100547Y-82223222D01*
X166169491Y-82056776D01*
X166269583Y-81906978D01*
X166396978Y-81779583D01*
X166546776Y-81679491D01*
X166713222Y-81610547D01*
X166889918Y-81575400D01*
X167070082Y-81575400D01*
X167246778Y-81610547D01*
X167246778Y-81610547D01*
G37*
G36*
X182486778Y-81610547D02*
G01*
X182653224Y-81679491D01*
X182803022Y-81779583D01*
X182930417Y-81906978D01*
X183030509Y-82056776D01*
X183099453Y-82223222D01*
X183134600Y-82399918D01*
X183134600Y-82580082D01*
X183099453Y-82756778D01*
X183030509Y-82923224D01*
X182930417Y-83073022D01*
X182803022Y-83200417D01*
X182653224Y-83300509D01*
X182486778Y-83369453D01*
X182310082Y-83404600D01*
X182129918Y-83404600D01*
X181953222Y-83369453D01*
X181786776Y-83300509D01*
X181636978Y-83200417D01*
X181509583Y-83073022D01*
X181409491Y-82923224D01*
X181340547Y-82756778D01*
X181305400Y-82580082D01*
X181305400Y-82399918D01*
X181340547Y-82223222D01*
X181409491Y-82056776D01*
X181509583Y-81906978D01*
X181636978Y-81779583D01*
X181786776Y-81679491D01*
X181953222Y-81610547D01*
X182129918Y-81575400D01*
X182310082Y-81575400D01*
X182486778Y-81610547D01*
X182486778Y-81610547D01*
G37*
G36*
X157271142Y-81774242D02*
G01*
X157419101Y-81835529D01*
X157552255Y-81924499D01*
X157665501Y-82037745D01*
X157754471Y-82170899D01*
X157815758Y-82318858D01*
X157847000Y-82475925D01*
X157847000Y-82636075D01*
X157815758Y-82793142D01*
X157754471Y-82941101D01*
X157665501Y-83074255D01*
X157552255Y-83187501D01*
X157419101Y-83276471D01*
X157271142Y-83337758D01*
X157114075Y-83369000D01*
X156953925Y-83369000D01*
X156796858Y-83337758D01*
X156648899Y-83276471D01*
X156515745Y-83187501D01*
X156402499Y-83074255D01*
X156313529Y-82941101D01*
X156252242Y-82793142D01*
X156221000Y-82636075D01*
X156221000Y-82475925D01*
X156252242Y-82318858D01*
X156313529Y-82170899D01*
X156402499Y-82037745D01*
X156515745Y-81924499D01*
X156648899Y-81835529D01*
X156796858Y-81774242D01*
X156953925Y-81743000D01*
X157114075Y-81743000D01*
X157271142Y-81774242D01*
X157271142Y-81774242D01*
G37*
G36*
X121203142Y-81774242D02*
G01*
X121351101Y-81835529D01*
X121484255Y-81924499D01*
X121597501Y-82037745D01*
X121686471Y-82170899D01*
X121747758Y-82318858D01*
X121779000Y-82475925D01*
X121779000Y-82636075D01*
X121747758Y-82793142D01*
X121686471Y-82941101D01*
X121597501Y-83074255D01*
X121484255Y-83187501D01*
X121351101Y-83276471D01*
X121203142Y-83337758D01*
X121046075Y-83369000D01*
X120885925Y-83369000D01*
X120728858Y-83337758D01*
X120580899Y-83276471D01*
X120447745Y-83187501D01*
X120334499Y-83074255D01*
X120245529Y-82941101D01*
X120184242Y-82793142D01*
X120153000Y-82636075D01*
X120153000Y-82475925D01*
X120184242Y-82318858D01*
X120245529Y-82170899D01*
X120334499Y-82037745D01*
X120447745Y-81924499D01*
X120580899Y-81835529D01*
X120728858Y-81774242D01*
X120885925Y-81743000D01*
X121046075Y-81743000D01*
X121203142Y-81774242D01*
X121203142Y-81774242D01*
G37*
G36*
X145973114Y-80749176D02*
G01*
X146067168Y-80758439D01*
X146268299Y-80819451D01*
X146352766Y-80864600D01*
X146453661Y-80918529D01*
X146616133Y-81051867D01*
X146749471Y-81214339D01*
X146802682Y-81313890D01*
X146848549Y-81399701D01*
X146909561Y-81600832D01*
X146930162Y-81810000D01*
X146909561Y-82019168D01*
X146848549Y-82220299D01*
X146802682Y-82306110D01*
X146749471Y-82405661D01*
X146616133Y-82568133D01*
X146453661Y-82701471D01*
X146354110Y-82754682D01*
X146268299Y-82800549D01*
X146067168Y-82861561D01*
X145973114Y-82870824D01*
X145910413Y-82877000D01*
X144789587Y-82877000D01*
X144726886Y-82870824D01*
X144632832Y-82861561D01*
X144431701Y-82800549D01*
X144345890Y-82754682D01*
X144246339Y-82701471D01*
X144083867Y-82568133D01*
X143950529Y-82405661D01*
X143897318Y-82306110D01*
X143851451Y-82220299D01*
X143790439Y-82019168D01*
X143769838Y-81810000D01*
X143790439Y-81600832D01*
X143851451Y-81399701D01*
X143897318Y-81313890D01*
X143950529Y-81214339D01*
X144083867Y-81051867D01*
X144246339Y-80918529D01*
X144347234Y-80864600D01*
X144431701Y-80819451D01*
X144632832Y-80758439D01*
X144726886Y-80749176D01*
X144789587Y-80743000D01*
X145910413Y-80743000D01*
X145973114Y-80749176D01*
X145973114Y-80749176D01*
G37*
G36*
X133273114Y-80749176D02*
G01*
X133367168Y-80758439D01*
X133568299Y-80819451D01*
X133652766Y-80864600D01*
X133753661Y-80918529D01*
X133916133Y-81051867D01*
X134049471Y-81214339D01*
X134102682Y-81313890D01*
X134148549Y-81399701D01*
X134209561Y-81600832D01*
X134230162Y-81810000D01*
X134209561Y-82019168D01*
X134148549Y-82220299D01*
X134102682Y-82306110D01*
X134049471Y-82405661D01*
X133916133Y-82568133D01*
X133753661Y-82701471D01*
X133654110Y-82754682D01*
X133568299Y-82800549D01*
X133367168Y-82861561D01*
X133273114Y-82870824D01*
X133210413Y-82877000D01*
X132089587Y-82877000D01*
X132026886Y-82870824D01*
X131932832Y-82861561D01*
X131731701Y-82800549D01*
X131645890Y-82754682D01*
X131546339Y-82701471D01*
X131383867Y-82568133D01*
X131250529Y-82405661D01*
X131197318Y-82306110D01*
X131151451Y-82220299D01*
X131090439Y-82019168D01*
X131069838Y-81810000D01*
X131090439Y-81600832D01*
X131151451Y-81399701D01*
X131197318Y-81313890D01*
X131250529Y-81214339D01*
X131383867Y-81051867D01*
X131546339Y-80918529D01*
X131647234Y-80864600D01*
X131731701Y-80819451D01*
X131932832Y-80758439D01*
X132026886Y-80749176D01*
X132089587Y-80743000D01*
X133210413Y-80743000D01*
X133273114Y-80749176D01*
X133273114Y-80749176D01*
G37*
G36*
X162419059Y-79677860D02*
G01*
X162555732Y-79734472D01*
X162678735Y-79816660D01*
X162783340Y-79921265D01*
X162862731Y-80040082D01*
X162865529Y-80044270D01*
X162922140Y-80180941D01*
X162951000Y-80326032D01*
X162951000Y-80473968D01*
X162939253Y-80533023D01*
X162922140Y-80619059D01*
X162865528Y-80755732D01*
X162783340Y-80878735D01*
X162678735Y-80983340D01*
X162555732Y-81065528D01*
X162555731Y-81065529D01*
X162555730Y-81065529D01*
X162419059Y-81122140D01*
X162273968Y-81151000D01*
X162126032Y-81151000D01*
X161980941Y-81122140D01*
X161844270Y-81065529D01*
X161844269Y-81065529D01*
X161844268Y-81065528D01*
X161721265Y-80983340D01*
X161616660Y-80878735D01*
X161534472Y-80755732D01*
X161477860Y-80619059D01*
X161460747Y-80533023D01*
X161449000Y-80473968D01*
X161449000Y-80326032D01*
X161477860Y-80180941D01*
X161534471Y-80044270D01*
X161537269Y-80040082D01*
X161616660Y-79921265D01*
X161721265Y-79816660D01*
X161844268Y-79734472D01*
X161980941Y-79677860D01*
X162126032Y-79649000D01*
X162273968Y-79649000D01*
X162419059Y-79677860D01*
X162419059Y-79677860D01*
G37*
G36*
X182486778Y-79070547D02*
G01*
X182653224Y-79139491D01*
X182803022Y-79239583D01*
X182930417Y-79366978D01*
X183030509Y-79516776D01*
X183099453Y-79683222D01*
X183134600Y-79859918D01*
X183134600Y-80040082D01*
X183099453Y-80216778D01*
X183030509Y-80383224D01*
X182930417Y-80533022D01*
X182803022Y-80660417D01*
X182653224Y-80760509D01*
X182486778Y-80829453D01*
X182310082Y-80864600D01*
X182129918Y-80864600D01*
X181953222Y-80829453D01*
X181786776Y-80760509D01*
X181636978Y-80660417D01*
X181509583Y-80533022D01*
X181409491Y-80383224D01*
X181340547Y-80216778D01*
X181305400Y-80040082D01*
X181305400Y-79859918D01*
X181340547Y-79683222D01*
X181409491Y-79516776D01*
X181509583Y-79366978D01*
X181636978Y-79239583D01*
X181786776Y-79139491D01*
X181953222Y-79070547D01*
X182129918Y-79035400D01*
X182310082Y-79035400D01*
X182486778Y-79070547D01*
X182486778Y-79070547D01*
G37*
G36*
X167246778Y-79070547D02*
G01*
X167413224Y-79139491D01*
X167563022Y-79239583D01*
X167690417Y-79366978D01*
X167790509Y-79516776D01*
X167859453Y-79683222D01*
X167894600Y-79859918D01*
X167894600Y-80040082D01*
X167859453Y-80216778D01*
X167790509Y-80383224D01*
X167690417Y-80533022D01*
X167563022Y-80660417D01*
X167413224Y-80760509D01*
X167246778Y-80829453D01*
X167070082Y-80864600D01*
X166889918Y-80864600D01*
X166713222Y-80829453D01*
X166546776Y-80760509D01*
X166396978Y-80660417D01*
X166269583Y-80533022D01*
X166169491Y-80383224D01*
X166100547Y-80216778D01*
X166065400Y-80040082D01*
X166065400Y-79859918D01*
X166100547Y-79683222D01*
X166169491Y-79516776D01*
X166269583Y-79366978D01*
X166396978Y-79239583D01*
X166546776Y-79139491D01*
X166713222Y-79070547D01*
X166889918Y-79035400D01*
X167070082Y-79035400D01*
X167246778Y-79070547D01*
X167246778Y-79070547D01*
G37*
G36*
X157271142Y-79234242D02*
G01*
X157419101Y-79295529D01*
X157552255Y-79384499D01*
X157665501Y-79497745D01*
X157754471Y-79630899D01*
X157815758Y-79778858D01*
X157847000Y-79935925D01*
X157847000Y-80096075D01*
X157815758Y-80253142D01*
X157754471Y-80401101D01*
X157665501Y-80534255D01*
X157552255Y-80647501D01*
X157419101Y-80736471D01*
X157271142Y-80797758D01*
X157114075Y-80829000D01*
X156953925Y-80829000D01*
X156796858Y-80797758D01*
X156648899Y-80736471D01*
X156515745Y-80647501D01*
X156402499Y-80534255D01*
X156313529Y-80401101D01*
X156252242Y-80253142D01*
X156221000Y-80096075D01*
X156221000Y-79935925D01*
X156252242Y-79778858D01*
X156313529Y-79630899D01*
X156402499Y-79497745D01*
X156515745Y-79384499D01*
X156648899Y-79295529D01*
X156796858Y-79234242D01*
X156953925Y-79203000D01*
X157114075Y-79203000D01*
X157271142Y-79234242D01*
X157271142Y-79234242D01*
G37*
G36*
X121203142Y-79234242D02*
G01*
X121351101Y-79295529D01*
X121484255Y-79384499D01*
X121597501Y-79497745D01*
X121686471Y-79630899D01*
X121747758Y-79778858D01*
X121779000Y-79935925D01*
X121779000Y-80096075D01*
X121747758Y-80253142D01*
X121686471Y-80401101D01*
X121597501Y-80534255D01*
X121484255Y-80647501D01*
X121351101Y-80736471D01*
X121203142Y-80797758D01*
X121046075Y-80829000D01*
X120885925Y-80829000D01*
X120728858Y-80797758D01*
X120580899Y-80736471D01*
X120447745Y-80647501D01*
X120334499Y-80534255D01*
X120245529Y-80401101D01*
X120184242Y-80253142D01*
X120153000Y-80096075D01*
X120153000Y-79935925D01*
X120184242Y-79778858D01*
X120245529Y-79630899D01*
X120334499Y-79497745D01*
X120447745Y-79384499D01*
X120580899Y-79295529D01*
X120728858Y-79234242D01*
X120885925Y-79203000D01*
X121046075Y-79203000D01*
X121203142Y-79234242D01*
X121203142Y-79234242D01*
G37*
G36*
X145973114Y-78209176D02*
G01*
X146067168Y-78218439D01*
X146268299Y-78279451D01*
X146352766Y-78324600D01*
X146453661Y-78378529D01*
X146616133Y-78511867D01*
X146749471Y-78674339D01*
X146795800Y-78761015D01*
X146848549Y-78859701D01*
X146909561Y-79060832D01*
X146930162Y-79270000D01*
X146909561Y-79479168D01*
X146848549Y-79680299D01*
X146802682Y-79766110D01*
X146749471Y-79865661D01*
X146616133Y-80028133D01*
X146453661Y-80161471D01*
X146354110Y-80214682D01*
X146268299Y-80260549D01*
X146067168Y-80321561D01*
X145973114Y-80330824D01*
X145910413Y-80337000D01*
X144789587Y-80337000D01*
X144726886Y-80330824D01*
X144632832Y-80321561D01*
X144431701Y-80260549D01*
X144345890Y-80214682D01*
X144246339Y-80161471D01*
X144083867Y-80028133D01*
X143950529Y-79865661D01*
X143897318Y-79766110D01*
X143851451Y-79680299D01*
X143790439Y-79479168D01*
X143769838Y-79270000D01*
X143790439Y-79060832D01*
X143851451Y-78859701D01*
X143904200Y-78761015D01*
X143950529Y-78674339D01*
X144083867Y-78511867D01*
X144246339Y-78378529D01*
X144347234Y-78324600D01*
X144431701Y-78279451D01*
X144632832Y-78218439D01*
X144726886Y-78209176D01*
X144789587Y-78203000D01*
X145910413Y-78203000D01*
X145973114Y-78209176D01*
X145973114Y-78209176D01*
G37*
G36*
X133273114Y-78209176D02*
G01*
X133367168Y-78218439D01*
X133568299Y-78279451D01*
X133652766Y-78324600D01*
X133753661Y-78378529D01*
X133916133Y-78511867D01*
X134049471Y-78674339D01*
X134095800Y-78761015D01*
X134148549Y-78859701D01*
X134209561Y-79060832D01*
X134230162Y-79270000D01*
X134209561Y-79479168D01*
X134148549Y-79680299D01*
X134102682Y-79766110D01*
X134049471Y-79865661D01*
X133916133Y-80028133D01*
X133753661Y-80161471D01*
X133654110Y-80214682D01*
X133568299Y-80260549D01*
X133367168Y-80321561D01*
X133273114Y-80330824D01*
X133210413Y-80337000D01*
X132089587Y-80337000D01*
X132026886Y-80330824D01*
X131932832Y-80321561D01*
X131731701Y-80260549D01*
X131645890Y-80214682D01*
X131546339Y-80161471D01*
X131383867Y-80028133D01*
X131250529Y-79865661D01*
X131197318Y-79766110D01*
X131151451Y-79680299D01*
X131090439Y-79479168D01*
X131069838Y-79270000D01*
X131090439Y-79060832D01*
X131151451Y-78859701D01*
X131204200Y-78761015D01*
X131250529Y-78674339D01*
X131383867Y-78511867D01*
X131546339Y-78378529D01*
X131647234Y-78324600D01*
X131731701Y-78279451D01*
X131932832Y-78218439D01*
X132026886Y-78209176D01*
X132089587Y-78203000D01*
X133210413Y-78203000D01*
X133273114Y-78209176D01*
X133273114Y-78209176D01*
G37*
G36*
X218551000Y-78951000D02*
G01*
X216849000Y-78951000D01*
X216849000Y-77249000D01*
X218551000Y-77249000D01*
X218551000Y-78951000D01*
X218551000Y-78951000D01*
G37*
G36*
X221448228Y-77281703D02*
G01*
X221603100Y-77345853D01*
X221742481Y-77438985D01*
X221861015Y-77557519D01*
X221954147Y-77696900D01*
X222018297Y-77851772D01*
X222051000Y-78016184D01*
X222051000Y-78183816D01*
X222018297Y-78348228D01*
X221954147Y-78503100D01*
X221861015Y-78642481D01*
X221742481Y-78761015D01*
X221603100Y-78854147D01*
X221448228Y-78918297D01*
X221283816Y-78951000D01*
X221116184Y-78951000D01*
X220951772Y-78918297D01*
X220796900Y-78854147D01*
X220657519Y-78761015D01*
X220538985Y-78642481D01*
X220445853Y-78503100D01*
X220381703Y-78348228D01*
X220349000Y-78183816D01*
X220349000Y-78016184D01*
X220381703Y-77851772D01*
X220445853Y-77696900D01*
X220538985Y-77557519D01*
X220657519Y-77438985D01*
X220796900Y-77345853D01*
X220951772Y-77281703D01*
X221116184Y-77249000D01*
X221283816Y-77249000D01*
X221448228Y-77281703D01*
X221448228Y-77281703D01*
G37*
G36*
X167246778Y-76530547D02*
G01*
X167413224Y-76599491D01*
X167563022Y-76699583D01*
X167690417Y-76826978D01*
X167790509Y-76976776D01*
X167859453Y-77143222D01*
X167894600Y-77319918D01*
X167894600Y-77500082D01*
X167859453Y-77676778D01*
X167790509Y-77843224D01*
X167690417Y-77993022D01*
X167563022Y-78120417D01*
X167413224Y-78220509D01*
X167246778Y-78289453D01*
X167070082Y-78324600D01*
X166889918Y-78324600D01*
X166713222Y-78289453D01*
X166546776Y-78220509D01*
X166396978Y-78120417D01*
X166269583Y-77993022D01*
X166169491Y-77843224D01*
X166100547Y-77676778D01*
X166065400Y-77500082D01*
X166065400Y-77319918D01*
X166100547Y-77143222D01*
X166169491Y-76976776D01*
X166269583Y-76826978D01*
X166396978Y-76699583D01*
X166546776Y-76599491D01*
X166713222Y-76530547D01*
X166889918Y-76495400D01*
X167070082Y-76495400D01*
X167246778Y-76530547D01*
X167246778Y-76530547D01*
G37*
G36*
X182486778Y-76530547D02*
G01*
X182653224Y-76599491D01*
X182803022Y-76699583D01*
X182930417Y-76826978D01*
X183030509Y-76976776D01*
X183099453Y-77143222D01*
X183134600Y-77319918D01*
X183134600Y-77500082D01*
X183099453Y-77676778D01*
X183030509Y-77843224D01*
X182930417Y-77993022D01*
X182803022Y-78120417D01*
X182653224Y-78220509D01*
X182486778Y-78289453D01*
X182310082Y-78324600D01*
X182129918Y-78324600D01*
X181953222Y-78289453D01*
X181786776Y-78220509D01*
X181636978Y-78120417D01*
X181509583Y-77993022D01*
X181409491Y-77843224D01*
X181340547Y-77676778D01*
X181305400Y-77500082D01*
X181305400Y-77319918D01*
X181340547Y-77143222D01*
X181409491Y-76976776D01*
X181509583Y-76826978D01*
X181636978Y-76699583D01*
X181786776Y-76599491D01*
X181953222Y-76530547D01*
X182129918Y-76495400D01*
X182310082Y-76495400D01*
X182486778Y-76530547D01*
X182486778Y-76530547D01*
G37*
G36*
X157271142Y-76694242D02*
G01*
X157419101Y-76755529D01*
X157552255Y-76844499D01*
X157665501Y-76957745D01*
X157754471Y-77090899D01*
X157815758Y-77238858D01*
X157847000Y-77395925D01*
X157847000Y-77556075D01*
X157815758Y-77713142D01*
X157754471Y-77861101D01*
X157665501Y-77994255D01*
X157552255Y-78107501D01*
X157419101Y-78196471D01*
X157271142Y-78257758D01*
X157114075Y-78289000D01*
X156953925Y-78289000D01*
X156796858Y-78257758D01*
X156648899Y-78196471D01*
X156515745Y-78107501D01*
X156402499Y-77994255D01*
X156313529Y-77861101D01*
X156252242Y-77713142D01*
X156221000Y-77556075D01*
X156221000Y-77395925D01*
X156252242Y-77238858D01*
X156313529Y-77090899D01*
X156402499Y-76957745D01*
X156515745Y-76844499D01*
X156648899Y-76755529D01*
X156796858Y-76694242D01*
X156953925Y-76663000D01*
X157114075Y-76663000D01*
X157271142Y-76694242D01*
X157271142Y-76694242D01*
G37*
G36*
X121203142Y-76694242D02*
G01*
X121351101Y-76755529D01*
X121484255Y-76844499D01*
X121597501Y-76957745D01*
X121686471Y-77090899D01*
X121747758Y-77238858D01*
X121779000Y-77395925D01*
X121779000Y-77556075D01*
X121747758Y-77713142D01*
X121686471Y-77861101D01*
X121597501Y-77994255D01*
X121484255Y-78107501D01*
X121351101Y-78196471D01*
X121203142Y-78257758D01*
X121046075Y-78289000D01*
X120885925Y-78289000D01*
X120728858Y-78257758D01*
X120580899Y-78196471D01*
X120447745Y-78107501D01*
X120334499Y-77994255D01*
X120245529Y-77861101D01*
X120184242Y-77713142D01*
X120153000Y-77556075D01*
X120153000Y-77395925D01*
X120184242Y-77238858D01*
X120245529Y-77090899D01*
X120334499Y-76957745D01*
X120447745Y-76844499D01*
X120580899Y-76755529D01*
X120728858Y-76694242D01*
X120885925Y-76663000D01*
X121046075Y-76663000D01*
X121203142Y-76694242D01*
X121203142Y-76694242D01*
G37*
G36*
X145973114Y-75669176D02*
G01*
X146067168Y-75678439D01*
X146268299Y-75739451D01*
X146352766Y-75784600D01*
X146453661Y-75838529D01*
X146616133Y-75971867D01*
X146749471Y-76134339D01*
X146802682Y-76233890D01*
X146848549Y-76319701D01*
X146909561Y-76520832D01*
X146930162Y-76730000D01*
X146909561Y-76939168D01*
X146848549Y-77140299D01*
X146802682Y-77226110D01*
X146749471Y-77325661D01*
X146616133Y-77488133D01*
X146453661Y-77621471D01*
X146354110Y-77674682D01*
X146268299Y-77720549D01*
X146067168Y-77781561D01*
X145973114Y-77790824D01*
X145910413Y-77797000D01*
X144789587Y-77797000D01*
X144726886Y-77790824D01*
X144632832Y-77781561D01*
X144431701Y-77720549D01*
X144345890Y-77674682D01*
X144246339Y-77621471D01*
X144083867Y-77488133D01*
X143950529Y-77325661D01*
X143897318Y-77226110D01*
X143851451Y-77140299D01*
X143790439Y-76939168D01*
X143769838Y-76730000D01*
X143790439Y-76520832D01*
X143851451Y-76319701D01*
X143897318Y-76233890D01*
X143950529Y-76134339D01*
X144083867Y-75971867D01*
X144246339Y-75838529D01*
X144347234Y-75784600D01*
X144431701Y-75739451D01*
X144632832Y-75678439D01*
X144726886Y-75669176D01*
X144789587Y-75663000D01*
X145910413Y-75663000D01*
X145973114Y-75669176D01*
X145973114Y-75669176D01*
G37*
G36*
X133273114Y-75669176D02*
G01*
X133367168Y-75678439D01*
X133568299Y-75739451D01*
X133652766Y-75784600D01*
X133753661Y-75838529D01*
X133916133Y-75971867D01*
X134049471Y-76134339D01*
X134102682Y-76233890D01*
X134148549Y-76319701D01*
X134209561Y-76520832D01*
X134230162Y-76730000D01*
X134209561Y-76939168D01*
X134148549Y-77140299D01*
X134102682Y-77226110D01*
X134049471Y-77325661D01*
X133916133Y-77488133D01*
X133753661Y-77621471D01*
X133654110Y-77674682D01*
X133568299Y-77720549D01*
X133367168Y-77781561D01*
X133273114Y-77790824D01*
X133210413Y-77797000D01*
X132089587Y-77797000D01*
X132026886Y-77790824D01*
X131932832Y-77781561D01*
X131731701Y-77720549D01*
X131645890Y-77674682D01*
X131546339Y-77621471D01*
X131383867Y-77488133D01*
X131250529Y-77325661D01*
X131197318Y-77226110D01*
X131151451Y-77140299D01*
X131090439Y-76939168D01*
X131069838Y-76730000D01*
X131090439Y-76520832D01*
X131151451Y-76319701D01*
X131197318Y-76233890D01*
X131250529Y-76134339D01*
X131383867Y-75971867D01*
X131546339Y-75838529D01*
X131647234Y-75784600D01*
X131731701Y-75739451D01*
X131932832Y-75678439D01*
X132026886Y-75669176D01*
X132089587Y-75663000D01*
X133210413Y-75663000D01*
X133273114Y-75669176D01*
X133273114Y-75669176D01*
G37*
G36*
X182486778Y-73990547D02*
G01*
X182653224Y-74059491D01*
X182803022Y-74159583D01*
X182930417Y-74286978D01*
X183030509Y-74436776D01*
X183099453Y-74603222D01*
X183134600Y-74779918D01*
X183134600Y-74960082D01*
X183099453Y-75136778D01*
X183030509Y-75303224D01*
X182930417Y-75453022D01*
X182803022Y-75580417D01*
X182653224Y-75680509D01*
X182486778Y-75749453D01*
X182310082Y-75784600D01*
X182129918Y-75784600D01*
X181953222Y-75749453D01*
X181786776Y-75680509D01*
X181636978Y-75580417D01*
X181509583Y-75453022D01*
X181409491Y-75303224D01*
X181340547Y-75136778D01*
X181305400Y-74960082D01*
X181305400Y-74779918D01*
X181340547Y-74603222D01*
X181409491Y-74436776D01*
X181509583Y-74286978D01*
X181636978Y-74159583D01*
X181786776Y-74059491D01*
X181953222Y-73990547D01*
X182129918Y-73955400D01*
X182310082Y-73955400D01*
X182486778Y-73990547D01*
X182486778Y-73990547D01*
G37*
G36*
X167246778Y-73990547D02*
G01*
X167413224Y-74059491D01*
X167563022Y-74159583D01*
X167690417Y-74286978D01*
X167790509Y-74436776D01*
X167859453Y-74603222D01*
X167894600Y-74779918D01*
X167894600Y-74960082D01*
X167859453Y-75136778D01*
X167790509Y-75303224D01*
X167690417Y-75453022D01*
X167563022Y-75580417D01*
X167413224Y-75680509D01*
X167246778Y-75749453D01*
X167070082Y-75784600D01*
X166889918Y-75784600D01*
X166713222Y-75749453D01*
X166546776Y-75680509D01*
X166396978Y-75580417D01*
X166269583Y-75453022D01*
X166169491Y-75303224D01*
X166100547Y-75136778D01*
X166065400Y-74960082D01*
X166065400Y-74779918D01*
X166100547Y-74603222D01*
X166169491Y-74436776D01*
X166269583Y-74286978D01*
X166396978Y-74159583D01*
X166546776Y-74059491D01*
X166713222Y-73990547D01*
X166889918Y-73955400D01*
X167070082Y-73955400D01*
X167246778Y-73990547D01*
X167246778Y-73990547D01*
G37*
G36*
X121203142Y-74154242D02*
G01*
X121351101Y-74215529D01*
X121484255Y-74304499D01*
X121597501Y-74417745D01*
X121686471Y-74550899D01*
X121747758Y-74698858D01*
X121779000Y-74855925D01*
X121779000Y-75016075D01*
X121747758Y-75173142D01*
X121686471Y-75321101D01*
X121597501Y-75454255D01*
X121484255Y-75567501D01*
X121351101Y-75656471D01*
X121203142Y-75717758D01*
X121046075Y-75749000D01*
X120885925Y-75749000D01*
X120728858Y-75717758D01*
X120580899Y-75656471D01*
X120447745Y-75567501D01*
X120334499Y-75454255D01*
X120245529Y-75321101D01*
X120184242Y-75173142D01*
X120153000Y-75016075D01*
X120153000Y-74855925D01*
X120184242Y-74698858D01*
X120245529Y-74550899D01*
X120334499Y-74417745D01*
X120447745Y-74304499D01*
X120580899Y-74215529D01*
X120728858Y-74154242D01*
X120885925Y-74123000D01*
X121046075Y-74123000D01*
X121203142Y-74154242D01*
X121203142Y-74154242D01*
G37*
G36*
X157271142Y-74154242D02*
G01*
X157419101Y-74215529D01*
X157552255Y-74304499D01*
X157665501Y-74417745D01*
X157754471Y-74550899D01*
X157815758Y-74698858D01*
X157847000Y-74855925D01*
X157847000Y-75016075D01*
X157815758Y-75173142D01*
X157754471Y-75321101D01*
X157665501Y-75454255D01*
X157552255Y-75567501D01*
X157419101Y-75656471D01*
X157271142Y-75717758D01*
X157114075Y-75749000D01*
X156953925Y-75749000D01*
X156796858Y-75717758D01*
X156648899Y-75656471D01*
X156515745Y-75567501D01*
X156402499Y-75454255D01*
X156313529Y-75321101D01*
X156252242Y-75173142D01*
X156221000Y-75016075D01*
X156221000Y-74855925D01*
X156252242Y-74698858D01*
X156313529Y-74550899D01*
X156402499Y-74417745D01*
X156515745Y-74304499D01*
X156648899Y-74215529D01*
X156796858Y-74154242D01*
X156953925Y-74123000D01*
X157114075Y-74123000D01*
X157271142Y-74154242D01*
X157271142Y-74154242D01*
G37*
G36*
X145973114Y-73129176D02*
G01*
X146067168Y-73138439D01*
X146268299Y-73199451D01*
X146352766Y-73244600D01*
X146453661Y-73298529D01*
X146616133Y-73431867D01*
X146749471Y-73594339D01*
X146802682Y-73693890D01*
X146848549Y-73779701D01*
X146909561Y-73980832D01*
X146930162Y-74190000D01*
X146909561Y-74399168D01*
X146848549Y-74600299D01*
X146802682Y-74686110D01*
X146749471Y-74785661D01*
X146616133Y-74948133D01*
X146453661Y-75081471D01*
X146354110Y-75134682D01*
X146268299Y-75180549D01*
X146067168Y-75241561D01*
X145973114Y-75250824D01*
X145910413Y-75257000D01*
X144789587Y-75257000D01*
X144726886Y-75250824D01*
X144632832Y-75241561D01*
X144431701Y-75180549D01*
X144345890Y-75134682D01*
X144246339Y-75081471D01*
X144083867Y-74948133D01*
X143950529Y-74785661D01*
X143897318Y-74686110D01*
X143851451Y-74600299D01*
X143790439Y-74399168D01*
X143769838Y-74190000D01*
X143790439Y-73980832D01*
X143851451Y-73779701D01*
X143897318Y-73693890D01*
X143950529Y-73594339D01*
X144083867Y-73431867D01*
X144246339Y-73298529D01*
X144347234Y-73244600D01*
X144431701Y-73199451D01*
X144632832Y-73138439D01*
X144726886Y-73129176D01*
X144789587Y-73123000D01*
X145910413Y-73123000D01*
X145973114Y-73129176D01*
X145973114Y-73129176D01*
G37*
G36*
X133273114Y-73129176D02*
G01*
X133367168Y-73138439D01*
X133568299Y-73199451D01*
X133652766Y-73244600D01*
X133753661Y-73298529D01*
X133916133Y-73431867D01*
X134049471Y-73594339D01*
X134102682Y-73693890D01*
X134148549Y-73779701D01*
X134209561Y-73980832D01*
X134230162Y-74190000D01*
X134209561Y-74399168D01*
X134148549Y-74600299D01*
X134102682Y-74686110D01*
X134049471Y-74785661D01*
X133916133Y-74948133D01*
X133753661Y-75081471D01*
X133654110Y-75134682D01*
X133568299Y-75180549D01*
X133367168Y-75241561D01*
X133273114Y-75250824D01*
X133210413Y-75257000D01*
X132089587Y-75257000D01*
X132026886Y-75250824D01*
X131932832Y-75241561D01*
X131731701Y-75180549D01*
X131645890Y-75134682D01*
X131546339Y-75081471D01*
X131383867Y-74948133D01*
X131250529Y-74785661D01*
X131197318Y-74686110D01*
X131151451Y-74600299D01*
X131090439Y-74399168D01*
X131069838Y-74190000D01*
X131090439Y-73980832D01*
X131151451Y-73779701D01*
X131197318Y-73693890D01*
X131250529Y-73594339D01*
X131383867Y-73431867D01*
X131546339Y-73298529D01*
X131647234Y-73244600D01*
X131731701Y-73199451D01*
X131932832Y-73138439D01*
X132026886Y-73129176D01*
X132089587Y-73123000D01*
X133210413Y-73123000D01*
X133273114Y-73129176D01*
X133273114Y-73129176D01*
G37*
G36*
X195501000Y-74801000D02*
G01*
X191899000Y-74801000D01*
X191899000Y-71199000D01*
X195501000Y-71199000D01*
X195501000Y-74801000D01*
X195501000Y-74801000D01*
G37*
G36*
X208101000Y-74801000D02*
G01*
X204499000Y-74801000D01*
X204499000Y-71199000D01*
X208101000Y-71199000D01*
X208101000Y-74801000D01*
X208101000Y-74801000D01*
G37*
G36*
X162273665Y-72032622D02*
G01*
X162347222Y-72039867D01*
X162488786Y-72082810D01*
X162619252Y-72152546D01*
X162626943Y-72158858D01*
X162733607Y-72246393D01*
X162803008Y-72330960D01*
X162827454Y-72360748D01*
X162897190Y-72491214D01*
X162940133Y-72632778D01*
X162954633Y-72780000D01*
X162940133Y-72927222D01*
X162897190Y-73068786D01*
X162827454Y-73199252D01*
X162827288Y-73199454D01*
X162733607Y-73313607D01*
X162649040Y-73383008D01*
X162619252Y-73407454D01*
X162488786Y-73477190D01*
X162347222Y-73520133D01*
X162273665Y-73527378D01*
X162236888Y-73531000D01*
X162163112Y-73531000D01*
X162126335Y-73527378D01*
X162052778Y-73520133D01*
X161911214Y-73477190D01*
X161780748Y-73407454D01*
X161750960Y-73383008D01*
X161666393Y-73313607D01*
X161572712Y-73199454D01*
X161572546Y-73199252D01*
X161502810Y-73068786D01*
X161459867Y-72927222D01*
X161445367Y-72780000D01*
X161459867Y-72632778D01*
X161502810Y-72491214D01*
X161572546Y-72360748D01*
X161596992Y-72330960D01*
X161666393Y-72246393D01*
X161773057Y-72158858D01*
X161780748Y-72152546D01*
X161911214Y-72082810D01*
X162052778Y-72039867D01*
X162126335Y-72032622D01*
X162163112Y-72029000D01*
X162236888Y-72029000D01*
X162273665Y-72032622D01*
X162273665Y-72032622D01*
G37*
G36*
X182486778Y-71450547D02*
G01*
X182653224Y-71519491D01*
X182803022Y-71619583D01*
X182930417Y-71746978D01*
X183030509Y-71896776D01*
X183099453Y-72063222D01*
X183134600Y-72239918D01*
X183134600Y-72420082D01*
X183099453Y-72596778D01*
X183030509Y-72763224D01*
X182930417Y-72913022D01*
X182803022Y-73040417D01*
X182653224Y-73140509D01*
X182486778Y-73209453D01*
X182310082Y-73244600D01*
X182129918Y-73244600D01*
X181953222Y-73209453D01*
X181786776Y-73140509D01*
X181636978Y-73040417D01*
X181509583Y-72913022D01*
X181409491Y-72763224D01*
X181340547Y-72596778D01*
X181305400Y-72420082D01*
X181305400Y-72239918D01*
X181340547Y-72063222D01*
X181409491Y-71896776D01*
X181509583Y-71746978D01*
X181636978Y-71619583D01*
X181786776Y-71519491D01*
X181953222Y-71450547D01*
X182129918Y-71415400D01*
X182310082Y-71415400D01*
X182486778Y-71450547D01*
X182486778Y-71450547D01*
G37*
G36*
X167246778Y-71450547D02*
G01*
X167413224Y-71519491D01*
X167563022Y-71619583D01*
X167690417Y-71746978D01*
X167790509Y-71896776D01*
X167859453Y-72063222D01*
X167894600Y-72239918D01*
X167894600Y-72420082D01*
X167859453Y-72596778D01*
X167790509Y-72763224D01*
X167690417Y-72913022D01*
X167563022Y-73040417D01*
X167413224Y-73140509D01*
X167246778Y-73209453D01*
X167070082Y-73244600D01*
X166889918Y-73244600D01*
X166713222Y-73209453D01*
X166546776Y-73140509D01*
X166396978Y-73040417D01*
X166269583Y-72913022D01*
X166169491Y-72763224D01*
X166100547Y-72596778D01*
X166065400Y-72420082D01*
X166065400Y-72239918D01*
X166100547Y-72063222D01*
X166169491Y-71896776D01*
X166269583Y-71746978D01*
X166396978Y-71619583D01*
X166546776Y-71519491D01*
X166713222Y-71450547D01*
X166889918Y-71415400D01*
X167070082Y-71415400D01*
X167246778Y-71450547D01*
X167246778Y-71450547D01*
G37*
G36*
X121203142Y-71614242D02*
G01*
X121351101Y-71675529D01*
X121484255Y-71764499D01*
X121597501Y-71877745D01*
X121686471Y-72010899D01*
X121747758Y-72158858D01*
X121779000Y-72315925D01*
X121779000Y-72476075D01*
X121747758Y-72633142D01*
X121686471Y-72781101D01*
X121597501Y-72914255D01*
X121484255Y-73027501D01*
X121351101Y-73116471D01*
X121203142Y-73177758D01*
X121046075Y-73209000D01*
X120885925Y-73209000D01*
X120728858Y-73177758D01*
X120580899Y-73116471D01*
X120447745Y-73027501D01*
X120334499Y-72914255D01*
X120245529Y-72781101D01*
X120184242Y-72633142D01*
X120153000Y-72476075D01*
X120153000Y-72315925D01*
X120184242Y-72158858D01*
X120245529Y-72010899D01*
X120334499Y-71877745D01*
X120447745Y-71764499D01*
X120580899Y-71675529D01*
X120728858Y-71614242D01*
X120885925Y-71583000D01*
X121046075Y-71583000D01*
X121203142Y-71614242D01*
X121203142Y-71614242D01*
G37*
G36*
X157271142Y-71614242D02*
G01*
X157419101Y-71675529D01*
X157552255Y-71764499D01*
X157665501Y-71877745D01*
X157754471Y-72010899D01*
X157815758Y-72158858D01*
X157847000Y-72315925D01*
X157847000Y-72476075D01*
X157815758Y-72633142D01*
X157754471Y-72781101D01*
X157665501Y-72914255D01*
X157552255Y-73027501D01*
X157419101Y-73116471D01*
X157271142Y-73177758D01*
X157114075Y-73209000D01*
X156953925Y-73209000D01*
X156796858Y-73177758D01*
X156648899Y-73116471D01*
X156515745Y-73027501D01*
X156402499Y-72914255D01*
X156313529Y-72781101D01*
X156252242Y-72633142D01*
X156221000Y-72476075D01*
X156221000Y-72315925D01*
X156252242Y-72158858D01*
X156313529Y-72010899D01*
X156402499Y-71877745D01*
X156515745Y-71764499D01*
X156648899Y-71675529D01*
X156796858Y-71614242D01*
X156953925Y-71583000D01*
X157114075Y-71583000D01*
X157271142Y-71614242D01*
X157271142Y-71614242D01*
G37*
G36*
X145973114Y-70589176D02*
G01*
X146067168Y-70598439D01*
X146268299Y-70659451D01*
X146352766Y-70704600D01*
X146453661Y-70758529D01*
X146616133Y-70891867D01*
X146749471Y-71054339D01*
X146802682Y-71153890D01*
X146848549Y-71239701D01*
X146909561Y-71440832D01*
X146930162Y-71650000D01*
X146909561Y-71859168D01*
X146848549Y-72060299D01*
X146802682Y-72146110D01*
X146749471Y-72245661D01*
X146616133Y-72408133D01*
X146453661Y-72541471D01*
X146354110Y-72594682D01*
X146268299Y-72640549D01*
X146067168Y-72701561D01*
X145973114Y-72710824D01*
X145910413Y-72717000D01*
X144789587Y-72717000D01*
X144726886Y-72710824D01*
X144632832Y-72701561D01*
X144431701Y-72640549D01*
X144345890Y-72594682D01*
X144246339Y-72541471D01*
X144083867Y-72408133D01*
X143950529Y-72245661D01*
X143897318Y-72146110D01*
X143851451Y-72060299D01*
X143790439Y-71859168D01*
X143769838Y-71650000D01*
X143790439Y-71440832D01*
X143851451Y-71239701D01*
X143897318Y-71153890D01*
X143950529Y-71054339D01*
X144083867Y-70891867D01*
X144246339Y-70758529D01*
X144347234Y-70704600D01*
X144431701Y-70659451D01*
X144632832Y-70598439D01*
X144726886Y-70589176D01*
X144789587Y-70583000D01*
X145910413Y-70583000D01*
X145973114Y-70589176D01*
X145973114Y-70589176D01*
G37*
G36*
X133273114Y-70589176D02*
G01*
X133367168Y-70598439D01*
X133568299Y-70659451D01*
X133652766Y-70704600D01*
X133753661Y-70758529D01*
X133916133Y-70891867D01*
X134049471Y-71054339D01*
X134102682Y-71153890D01*
X134148549Y-71239701D01*
X134209561Y-71440832D01*
X134230162Y-71650000D01*
X134209561Y-71859168D01*
X134148549Y-72060299D01*
X134102682Y-72146110D01*
X134049471Y-72245661D01*
X133916133Y-72408133D01*
X133753661Y-72541471D01*
X133654110Y-72594682D01*
X133568299Y-72640549D01*
X133367168Y-72701561D01*
X133273114Y-72710824D01*
X133210413Y-72717000D01*
X132089587Y-72717000D01*
X132026886Y-72710824D01*
X131932832Y-72701561D01*
X131731701Y-72640549D01*
X131645890Y-72594682D01*
X131546339Y-72541471D01*
X131383867Y-72408133D01*
X131250529Y-72245661D01*
X131197318Y-72146110D01*
X131151451Y-72060299D01*
X131090439Y-71859168D01*
X131069838Y-71650000D01*
X131090439Y-71440832D01*
X131151451Y-71239701D01*
X131197318Y-71153890D01*
X131250529Y-71054339D01*
X131383867Y-70891867D01*
X131546339Y-70758529D01*
X131647234Y-70704600D01*
X131731701Y-70659451D01*
X131932832Y-70598439D01*
X132026886Y-70589176D01*
X132089587Y-70583000D01*
X133210413Y-70583000D01*
X133273114Y-70589176D01*
X133273114Y-70589176D01*
G37*
G36*
X163151000Y-70751000D02*
G01*
X161249000Y-70751000D01*
X161249000Y-68849000D01*
X163151000Y-68849000D01*
X163151000Y-70751000D01*
X163151000Y-70751000D01*
G37*
G36*
X167246778Y-68910547D02*
G01*
X167413224Y-68979491D01*
X167563022Y-69079583D01*
X167690417Y-69206978D01*
X167790509Y-69356776D01*
X167859453Y-69523222D01*
X167894600Y-69699918D01*
X167894600Y-69880082D01*
X167859453Y-70056778D01*
X167790509Y-70223224D01*
X167690417Y-70373022D01*
X167563022Y-70500417D01*
X167413224Y-70600509D01*
X167246778Y-70669453D01*
X167070082Y-70704600D01*
X166889918Y-70704600D01*
X166713222Y-70669453D01*
X166546776Y-70600509D01*
X166396978Y-70500417D01*
X166269583Y-70373022D01*
X166169491Y-70223224D01*
X166100547Y-70056778D01*
X166065400Y-69880082D01*
X166065400Y-69699918D01*
X166100547Y-69523222D01*
X166169491Y-69356776D01*
X166269583Y-69206978D01*
X166396978Y-69079583D01*
X166546776Y-68979491D01*
X166713222Y-68910547D01*
X166889918Y-68875400D01*
X167070082Y-68875400D01*
X167246778Y-68910547D01*
X167246778Y-68910547D01*
G37*
G36*
X182486778Y-68910547D02*
G01*
X182653224Y-68979491D01*
X182803022Y-69079583D01*
X182930417Y-69206978D01*
X183030509Y-69356776D01*
X183099453Y-69523222D01*
X183134600Y-69699918D01*
X183134600Y-69880082D01*
X183099453Y-70056778D01*
X183030509Y-70223224D01*
X182930417Y-70373022D01*
X182803022Y-70500417D01*
X182653224Y-70600509D01*
X182486778Y-70669453D01*
X182310082Y-70704600D01*
X182129918Y-70704600D01*
X181953222Y-70669453D01*
X181786776Y-70600509D01*
X181636978Y-70500417D01*
X181509583Y-70373022D01*
X181409491Y-70223224D01*
X181340547Y-70056778D01*
X181305400Y-69880082D01*
X181305400Y-69699918D01*
X181340547Y-69523222D01*
X181409491Y-69356776D01*
X181509583Y-69206978D01*
X181636978Y-69079583D01*
X181786776Y-68979491D01*
X181953222Y-68910547D01*
X182129918Y-68875400D01*
X182310082Y-68875400D01*
X182486778Y-68910547D01*
X182486778Y-68910547D01*
G37*
G36*
X157271142Y-69074242D02*
G01*
X157419101Y-69135529D01*
X157552255Y-69224499D01*
X157665501Y-69337745D01*
X157754471Y-69470899D01*
X157815758Y-69618858D01*
X157847000Y-69775925D01*
X157847000Y-69936075D01*
X157815758Y-70093142D01*
X157754471Y-70241101D01*
X157665501Y-70374255D01*
X157552255Y-70487501D01*
X157419101Y-70576471D01*
X157271142Y-70637758D01*
X157114075Y-70669000D01*
X156953925Y-70669000D01*
X156796858Y-70637758D01*
X156648899Y-70576471D01*
X156515745Y-70487501D01*
X156402499Y-70374255D01*
X156313529Y-70241101D01*
X156252242Y-70093142D01*
X156221000Y-69936075D01*
X156221000Y-69775925D01*
X156252242Y-69618858D01*
X156313529Y-69470899D01*
X156402499Y-69337745D01*
X156515745Y-69224499D01*
X156648899Y-69135529D01*
X156796858Y-69074242D01*
X156953925Y-69043000D01*
X157114075Y-69043000D01*
X157271142Y-69074242D01*
X157271142Y-69074242D01*
G37*
G36*
X121203142Y-69074242D02*
G01*
X121351101Y-69135529D01*
X121484255Y-69224499D01*
X121597501Y-69337745D01*
X121686471Y-69470899D01*
X121747758Y-69618858D01*
X121779000Y-69775925D01*
X121779000Y-69936075D01*
X121747758Y-70093142D01*
X121686471Y-70241101D01*
X121597501Y-70374255D01*
X121484255Y-70487501D01*
X121351101Y-70576471D01*
X121203142Y-70637758D01*
X121046075Y-70669000D01*
X120885925Y-70669000D01*
X120728858Y-70637758D01*
X120580899Y-70576471D01*
X120447745Y-70487501D01*
X120334499Y-70374255D01*
X120245529Y-70241101D01*
X120184242Y-70093142D01*
X120153000Y-69936075D01*
X120153000Y-69775925D01*
X120184242Y-69618858D01*
X120245529Y-69470899D01*
X120334499Y-69337745D01*
X120447745Y-69224499D01*
X120580899Y-69135529D01*
X120728858Y-69074242D01*
X120885925Y-69043000D01*
X121046075Y-69043000D01*
X121203142Y-69074242D01*
X121203142Y-69074242D01*
G37*
G36*
X145973114Y-68049176D02*
G01*
X146067168Y-68058439D01*
X146268299Y-68119451D01*
X146352766Y-68164600D01*
X146453661Y-68218529D01*
X146616133Y-68351867D01*
X146749471Y-68514339D01*
X146802682Y-68613890D01*
X146848549Y-68699701D01*
X146909561Y-68900832D01*
X146930162Y-69110000D01*
X146909561Y-69319168D01*
X146848549Y-69520299D01*
X146802682Y-69606110D01*
X146749471Y-69705661D01*
X146616133Y-69868133D01*
X146453661Y-70001471D01*
X146354110Y-70054682D01*
X146268299Y-70100549D01*
X146067168Y-70161561D01*
X145973114Y-70170824D01*
X145910413Y-70177000D01*
X144789587Y-70177000D01*
X144726886Y-70170824D01*
X144632832Y-70161561D01*
X144431701Y-70100549D01*
X144345890Y-70054682D01*
X144246339Y-70001471D01*
X144083867Y-69868133D01*
X143950529Y-69705661D01*
X143897318Y-69606110D01*
X143851451Y-69520299D01*
X143790439Y-69319168D01*
X143769838Y-69110000D01*
X143790439Y-68900832D01*
X143851451Y-68699701D01*
X143897318Y-68613890D01*
X143950529Y-68514339D01*
X144083867Y-68351867D01*
X144246339Y-68218529D01*
X144347234Y-68164600D01*
X144431701Y-68119451D01*
X144632832Y-68058439D01*
X144726886Y-68049176D01*
X144789587Y-68043000D01*
X145910413Y-68043000D01*
X145973114Y-68049176D01*
X145973114Y-68049176D01*
G37*
G36*
X133273114Y-68049176D02*
G01*
X133367168Y-68058439D01*
X133568299Y-68119451D01*
X133652766Y-68164600D01*
X133753661Y-68218529D01*
X133916133Y-68351867D01*
X134049471Y-68514339D01*
X134102682Y-68613890D01*
X134148549Y-68699701D01*
X134209561Y-68900832D01*
X134230162Y-69110000D01*
X134209561Y-69319168D01*
X134148549Y-69520299D01*
X134102682Y-69606110D01*
X134049471Y-69705661D01*
X133916133Y-69868133D01*
X133753661Y-70001471D01*
X133654110Y-70054682D01*
X133568299Y-70100549D01*
X133367168Y-70161561D01*
X133273114Y-70170824D01*
X133210413Y-70177000D01*
X132089587Y-70177000D01*
X132026886Y-70170824D01*
X131932832Y-70161561D01*
X131731701Y-70100549D01*
X131645890Y-70054682D01*
X131546339Y-70001471D01*
X131383867Y-69868133D01*
X131250529Y-69705661D01*
X131197318Y-69606110D01*
X131151451Y-69520299D01*
X131090439Y-69319168D01*
X131069838Y-69110000D01*
X131090439Y-68900832D01*
X131151451Y-68699701D01*
X131197318Y-68613890D01*
X131250529Y-68514339D01*
X131383867Y-68351867D01*
X131546339Y-68218529D01*
X131647234Y-68164600D01*
X131731701Y-68119451D01*
X131932832Y-68058439D01*
X132026886Y-68049176D01*
X132089587Y-68043000D01*
X133210413Y-68043000D01*
X133273114Y-68049176D01*
X133273114Y-68049176D01*
G37*
G36*
X162477395Y-66345546D02*
G01*
X162650466Y-66417234D01*
X162650467Y-66417235D01*
X162806227Y-66521310D01*
X162938690Y-66653773D01*
X162991081Y-66732182D01*
X163042766Y-66809534D01*
X163114454Y-66982605D01*
X163151000Y-67166333D01*
X163151000Y-67353667D01*
X163114454Y-67537395D01*
X163042766Y-67710466D01*
X163042765Y-67710467D01*
X162938690Y-67866227D01*
X162806227Y-67998690D01*
X162749683Y-68036471D01*
X162650466Y-68102766D01*
X162477395Y-68174454D01*
X162293667Y-68211000D01*
X162106333Y-68211000D01*
X161922605Y-68174454D01*
X161749534Y-68102766D01*
X161650317Y-68036471D01*
X161593773Y-67998690D01*
X161461310Y-67866227D01*
X161357235Y-67710467D01*
X161357234Y-67710466D01*
X161285546Y-67537395D01*
X161249000Y-67353667D01*
X161249000Y-67166333D01*
X161285546Y-66982605D01*
X161357234Y-66809534D01*
X161408919Y-66732182D01*
X161461310Y-66653773D01*
X161593773Y-66521310D01*
X161749533Y-66417235D01*
X161749534Y-66417234D01*
X161922605Y-66345546D01*
X162106333Y-66309000D01*
X162293667Y-66309000D01*
X162477395Y-66345546D01*
X162477395Y-66345546D01*
G37*
G36*
X182486778Y-66370547D02*
G01*
X182653224Y-66439491D01*
X182803022Y-66539583D01*
X182930417Y-66666978D01*
X183030509Y-66816776D01*
X183099453Y-66983222D01*
X183134600Y-67159918D01*
X183134600Y-67340082D01*
X183099453Y-67516778D01*
X183030509Y-67683224D01*
X182930417Y-67833022D01*
X182803022Y-67960417D01*
X182653224Y-68060509D01*
X182486778Y-68129453D01*
X182310082Y-68164600D01*
X182129918Y-68164600D01*
X181953222Y-68129453D01*
X181786776Y-68060509D01*
X181636978Y-67960417D01*
X181509583Y-67833022D01*
X181409491Y-67683224D01*
X181340547Y-67516778D01*
X181305400Y-67340082D01*
X181305400Y-67159918D01*
X181340547Y-66983222D01*
X181409491Y-66816776D01*
X181509583Y-66666978D01*
X181636978Y-66539583D01*
X181786776Y-66439491D01*
X181953222Y-66370547D01*
X182129918Y-66335400D01*
X182310082Y-66335400D01*
X182486778Y-66370547D01*
X182486778Y-66370547D01*
G37*
G36*
X167246778Y-66370547D02*
G01*
X167413224Y-66439491D01*
X167563022Y-66539583D01*
X167690417Y-66666978D01*
X167790509Y-66816776D01*
X167859453Y-66983222D01*
X167894600Y-67159918D01*
X167894600Y-67340082D01*
X167859453Y-67516778D01*
X167790509Y-67683224D01*
X167690417Y-67833022D01*
X167563022Y-67960417D01*
X167413224Y-68060509D01*
X167246778Y-68129453D01*
X167070082Y-68164600D01*
X166889918Y-68164600D01*
X166713222Y-68129453D01*
X166546776Y-68060509D01*
X166396978Y-67960417D01*
X166269583Y-67833022D01*
X166169491Y-67683224D01*
X166100547Y-67516778D01*
X166065400Y-67340082D01*
X166065400Y-67159918D01*
X166100547Y-66983222D01*
X166169491Y-66816776D01*
X166269583Y-66666978D01*
X166396978Y-66539583D01*
X166546776Y-66439491D01*
X166713222Y-66370547D01*
X166889918Y-66335400D01*
X167070082Y-66335400D01*
X167246778Y-66370547D01*
X167246778Y-66370547D01*
G37*
G36*
X121203142Y-66534242D02*
G01*
X121351101Y-66595529D01*
X121484255Y-66684499D01*
X121597501Y-66797745D01*
X121686471Y-66930899D01*
X121747758Y-67078858D01*
X121779000Y-67235925D01*
X121779000Y-67396075D01*
X121747758Y-67553142D01*
X121686471Y-67701101D01*
X121597501Y-67834255D01*
X121484255Y-67947501D01*
X121351101Y-68036471D01*
X121203142Y-68097758D01*
X121046075Y-68129000D01*
X120885925Y-68129000D01*
X120728858Y-68097758D01*
X120580899Y-68036471D01*
X120447745Y-67947501D01*
X120334499Y-67834255D01*
X120245529Y-67701101D01*
X120184242Y-67553142D01*
X120153000Y-67396075D01*
X120153000Y-67235925D01*
X120184242Y-67078858D01*
X120245529Y-66930899D01*
X120334499Y-66797745D01*
X120447745Y-66684499D01*
X120580899Y-66595529D01*
X120728858Y-66534242D01*
X120885925Y-66503000D01*
X121046075Y-66503000D01*
X121203142Y-66534242D01*
X121203142Y-66534242D01*
G37*
G36*
X157271142Y-66534242D02*
G01*
X157419101Y-66595529D01*
X157552255Y-66684499D01*
X157665501Y-66797745D01*
X157754471Y-66930899D01*
X157815758Y-67078858D01*
X157847000Y-67235925D01*
X157847000Y-67396075D01*
X157815758Y-67553142D01*
X157754471Y-67701101D01*
X157665501Y-67834255D01*
X157552255Y-67947501D01*
X157419101Y-68036471D01*
X157271142Y-68097758D01*
X157114075Y-68129000D01*
X156953925Y-68129000D01*
X156796858Y-68097758D01*
X156648899Y-68036471D01*
X156515745Y-67947501D01*
X156402499Y-67834255D01*
X156313529Y-67701101D01*
X156252242Y-67553142D01*
X156221000Y-67396075D01*
X156221000Y-67235925D01*
X156252242Y-67078858D01*
X156313529Y-66930899D01*
X156402499Y-66797745D01*
X156515745Y-66684499D01*
X156648899Y-66595529D01*
X156796858Y-66534242D01*
X156953925Y-66503000D01*
X157114075Y-66503000D01*
X157271142Y-66534242D01*
X157271142Y-66534242D01*
G37*
G36*
X167246778Y-63830547D02*
G01*
X167413224Y-63899491D01*
X167563022Y-63999583D01*
X167690417Y-64126978D01*
X167790509Y-64276776D01*
X167859453Y-64443222D01*
X167894600Y-64619918D01*
X167894600Y-64800082D01*
X167859453Y-64976778D01*
X167790509Y-65143224D01*
X167690417Y-65293022D01*
X167563022Y-65420417D01*
X167413224Y-65520509D01*
X167246778Y-65589453D01*
X167070082Y-65624600D01*
X166889918Y-65624600D01*
X166713222Y-65589453D01*
X166546776Y-65520509D01*
X166396978Y-65420417D01*
X166269583Y-65293022D01*
X166169491Y-65143224D01*
X166100547Y-64976778D01*
X166065400Y-64800082D01*
X166065400Y-64619918D01*
X166100547Y-64443222D01*
X166169491Y-64276776D01*
X166269583Y-64126978D01*
X166396978Y-63999583D01*
X166546776Y-63899491D01*
X166713222Y-63830547D01*
X166889918Y-63795400D01*
X167070082Y-63795400D01*
X167246778Y-63830547D01*
X167246778Y-63830547D01*
G37*
G36*
X182486778Y-63830547D02*
G01*
X182653224Y-63899491D01*
X182803022Y-63999583D01*
X182930417Y-64126978D01*
X183030509Y-64276776D01*
X183099453Y-64443222D01*
X183134600Y-64619918D01*
X183134600Y-64800082D01*
X183099453Y-64976778D01*
X183030509Y-65143224D01*
X182930417Y-65293022D01*
X182803022Y-65420417D01*
X182653224Y-65520509D01*
X182486778Y-65589453D01*
X182310082Y-65624600D01*
X182129918Y-65624600D01*
X181953222Y-65589453D01*
X181786776Y-65520509D01*
X181636978Y-65420417D01*
X181509583Y-65293022D01*
X181409491Y-65143224D01*
X181340547Y-64976778D01*
X181305400Y-64800082D01*
X181305400Y-64619918D01*
X181340547Y-64443222D01*
X181409491Y-64276776D01*
X181509583Y-64126978D01*
X181636978Y-63999583D01*
X181786776Y-63899491D01*
X181953222Y-63830547D01*
X182129918Y-63795400D01*
X182310082Y-63795400D01*
X182486778Y-63830547D01*
X182486778Y-63830547D01*
G37*
G36*
X222338571Y-61802863D02*
G01*
X222417023Y-61810590D01*
X222517682Y-61841125D01*
X222568013Y-61856392D01*
X222707165Y-61930771D01*
X222829133Y-62030867D01*
X222929229Y-62152835D01*
X223003608Y-62291987D01*
X223003608Y-62291988D01*
X223049410Y-62442977D01*
X223064875Y-62600000D01*
X223049410Y-62757023D01*
X223018875Y-62857682D01*
X223003608Y-62908013D01*
X222929229Y-63047165D01*
X222829133Y-63169133D01*
X222707165Y-63269229D01*
X222568013Y-63343608D01*
X222517682Y-63358875D01*
X222417023Y-63389410D01*
X222338571Y-63397137D01*
X222299346Y-63401000D01*
X221700654Y-63401000D01*
X221661429Y-63397137D01*
X221582977Y-63389410D01*
X221482318Y-63358875D01*
X221431987Y-63343608D01*
X221292835Y-63269229D01*
X221170867Y-63169133D01*
X221070771Y-63047165D01*
X220996392Y-62908013D01*
X220981125Y-62857682D01*
X220950590Y-62757023D01*
X220935125Y-62600000D01*
X220950590Y-62442977D01*
X220996392Y-62291988D01*
X220996392Y-62291987D01*
X221070771Y-62152835D01*
X221170867Y-62030867D01*
X221292835Y-61930771D01*
X221431987Y-61856392D01*
X221482318Y-61841125D01*
X221582977Y-61810590D01*
X221661429Y-61802863D01*
X221700654Y-61799000D01*
X222299346Y-61799000D01*
X222338571Y-61802863D01*
X222338571Y-61802863D01*
G37*
G36*
X182486778Y-61290547D02*
G01*
X182653224Y-61359491D01*
X182803022Y-61459583D01*
X182930417Y-61586978D01*
X183030509Y-61736776D01*
X183099453Y-61903222D01*
X183134600Y-62079918D01*
X183134600Y-62260082D01*
X183099453Y-62436778D01*
X183030509Y-62603224D01*
X182930417Y-62753022D01*
X182803022Y-62880417D01*
X182653224Y-62980509D01*
X182486778Y-63049453D01*
X182310082Y-63084600D01*
X182129918Y-63084600D01*
X181953222Y-63049453D01*
X181786776Y-62980509D01*
X181636978Y-62880417D01*
X181509583Y-62753022D01*
X181409491Y-62603224D01*
X181340547Y-62436778D01*
X181305400Y-62260082D01*
X181305400Y-62079918D01*
X181340547Y-61903222D01*
X181409491Y-61736776D01*
X181509583Y-61586978D01*
X181636978Y-61459583D01*
X181786776Y-61359491D01*
X181953222Y-61290547D01*
X182129918Y-61255400D01*
X182310082Y-61255400D01*
X182486778Y-61290547D01*
X182486778Y-61290547D01*
G37*
G36*
X167246778Y-61290547D02*
G01*
X167413224Y-61359491D01*
X167563022Y-61459583D01*
X167690417Y-61586978D01*
X167790509Y-61736776D01*
X167859453Y-61903222D01*
X167894600Y-62079918D01*
X167894600Y-62260082D01*
X167859453Y-62436778D01*
X167790509Y-62603224D01*
X167690417Y-62753022D01*
X167563022Y-62880417D01*
X167413224Y-62980509D01*
X167246778Y-63049453D01*
X167070082Y-63084600D01*
X166889918Y-63084600D01*
X166713222Y-63049453D01*
X166546776Y-62980509D01*
X166396978Y-62880417D01*
X166269583Y-62753022D01*
X166169491Y-62603224D01*
X166100547Y-62436778D01*
X166065400Y-62260082D01*
X166065400Y-62079918D01*
X166100547Y-61903222D01*
X166169491Y-61736776D01*
X166269583Y-61586978D01*
X166396978Y-61459583D01*
X166546776Y-61359491D01*
X166713222Y-61290547D01*
X166889918Y-61255400D01*
X167070082Y-61255400D01*
X167246778Y-61290547D01*
X167246778Y-61290547D01*
G37*
G36*
X226622585Y-58078802D02*
G01*
X226772410Y-58108604D01*
X227054674Y-58225521D01*
X227308705Y-58395259D01*
X227524741Y-58611295D01*
X227694479Y-58865326D01*
X227811396Y-59147590D01*
X227841198Y-59297415D01*
X227871000Y-59447239D01*
X227871000Y-59752761D01*
X227870152Y-59757023D01*
X227811396Y-60052410D01*
X227694479Y-60334674D01*
X227524741Y-60588705D01*
X227308705Y-60804741D01*
X227054674Y-60974479D01*
X226772410Y-61091396D01*
X226622585Y-61121198D01*
X226472761Y-61151000D01*
X226167239Y-61151000D01*
X226017415Y-61121198D01*
X225867590Y-61091396D01*
X225585326Y-60974479D01*
X225331295Y-60804741D01*
X225115259Y-60588705D01*
X224945521Y-60334674D01*
X224828604Y-60052410D01*
X224769848Y-59757023D01*
X224769000Y-59752761D01*
X224769000Y-59447239D01*
X224798802Y-59297415D01*
X224828604Y-59147590D01*
X224945521Y-58865326D01*
X225115259Y-58611295D01*
X225331295Y-58395259D01*
X225585326Y-58225521D01*
X225867590Y-58108604D01*
X226017415Y-58078802D01*
X226167239Y-58049000D01*
X226472761Y-58049000D01*
X226622585Y-58078802D01*
X226622585Y-58078802D01*
G37*
G36*
X167246778Y-58750547D02*
G01*
X167413224Y-58819491D01*
X167563022Y-58919583D01*
X167690417Y-59046978D01*
X167790509Y-59196776D01*
X167859453Y-59363222D01*
X167894600Y-59539918D01*
X167894600Y-59720082D01*
X167859453Y-59896778D01*
X167790509Y-60063224D01*
X167690417Y-60213022D01*
X167563022Y-60340417D01*
X167413224Y-60440509D01*
X167246778Y-60509453D01*
X167070082Y-60544600D01*
X166889918Y-60544600D01*
X166713222Y-60509453D01*
X166546776Y-60440509D01*
X166396978Y-60340417D01*
X166269583Y-60213022D01*
X166169491Y-60063224D01*
X166100547Y-59896778D01*
X166065400Y-59720082D01*
X166065400Y-59539918D01*
X166100547Y-59363222D01*
X166169491Y-59196776D01*
X166269583Y-59046978D01*
X166396978Y-58919583D01*
X166546776Y-58819491D01*
X166713222Y-58750547D01*
X166889918Y-58715400D01*
X167070082Y-58715400D01*
X167246778Y-58750547D01*
X167246778Y-58750547D01*
G37*
G36*
X182486778Y-58750547D02*
G01*
X182653224Y-58819491D01*
X182803022Y-58919583D01*
X182930417Y-59046978D01*
X183030509Y-59196776D01*
X183099453Y-59363222D01*
X183134600Y-59539918D01*
X183134600Y-59720082D01*
X183099453Y-59896778D01*
X183030509Y-60063224D01*
X182930417Y-60213022D01*
X182803022Y-60340417D01*
X182653224Y-60440509D01*
X182486778Y-60509453D01*
X182310082Y-60544600D01*
X182129918Y-60544600D01*
X181953222Y-60509453D01*
X181786776Y-60440509D01*
X181636978Y-60340417D01*
X181509583Y-60213022D01*
X181409491Y-60063224D01*
X181340547Y-59896778D01*
X181305400Y-59720082D01*
X181305400Y-59539918D01*
X181340547Y-59363222D01*
X181409491Y-59196776D01*
X181509583Y-59046978D01*
X181636978Y-58919583D01*
X181786776Y-58819491D01*
X181953222Y-58750547D01*
X182129918Y-58715400D01*
X182310082Y-58715400D01*
X182486778Y-58750547D01*
X182486778Y-58750547D01*
G37*
G36*
X222338571Y-58802863D02*
G01*
X222417023Y-58810590D01*
X222517682Y-58841125D01*
X222568013Y-58856392D01*
X222707165Y-58930771D01*
X222829133Y-59030867D01*
X222929229Y-59152835D01*
X223003608Y-59291987D01*
X223003608Y-59291988D01*
X223049410Y-59442977D01*
X223064875Y-59600000D01*
X223049410Y-59757023D01*
X223018875Y-59857682D01*
X223003608Y-59908013D01*
X222929229Y-60047165D01*
X222829133Y-60169133D01*
X222707165Y-60269229D01*
X222568013Y-60343608D01*
X222517682Y-60358875D01*
X222417023Y-60389410D01*
X222338571Y-60397137D01*
X222299346Y-60401000D01*
X221700654Y-60401000D01*
X221661429Y-60397137D01*
X221582977Y-60389410D01*
X221482318Y-60358875D01*
X221431987Y-60343608D01*
X221292835Y-60269229D01*
X221170867Y-60169133D01*
X221070771Y-60047165D01*
X220996392Y-59908013D01*
X220981125Y-59857682D01*
X220950590Y-59757023D01*
X220935125Y-59600000D01*
X220950590Y-59442977D01*
X220996392Y-59291988D01*
X220996392Y-59291987D01*
X221070771Y-59152835D01*
X221170867Y-59030867D01*
X221292835Y-58930771D01*
X221431987Y-58856392D01*
X221482318Y-58841125D01*
X221582977Y-58810590D01*
X221661429Y-58802863D01*
X221700654Y-58799000D01*
X222299346Y-58799000D01*
X222338571Y-58802863D01*
X222338571Y-58802863D01*
G37*
G36*
X131777142Y-58218242D02*
G01*
X131925101Y-58279529D01*
X132058255Y-58368499D01*
X132171501Y-58481745D01*
X132260471Y-58614899D01*
X132321758Y-58762858D01*
X132353000Y-58919925D01*
X132353000Y-59080075D01*
X132321758Y-59237142D01*
X132260471Y-59385101D01*
X132171501Y-59518255D01*
X132058255Y-59631501D01*
X131925101Y-59720471D01*
X131777142Y-59781758D01*
X131620075Y-59813000D01*
X131459925Y-59813000D01*
X131302858Y-59781758D01*
X131154899Y-59720471D01*
X131021745Y-59631501D01*
X130908499Y-59518255D01*
X130819529Y-59385101D01*
X130758242Y-59237142D01*
X130727000Y-59080075D01*
X130727000Y-58919925D01*
X130758242Y-58762858D01*
X130819529Y-58614899D01*
X130908499Y-58481745D01*
X131021745Y-58368499D01*
X131154899Y-58279529D01*
X131302858Y-58218242D01*
X131459925Y-58187000D01*
X131620075Y-58187000D01*
X131777142Y-58218242D01*
X131777142Y-58218242D01*
G37*
G36*
X126697142Y-58218242D02*
G01*
X126845101Y-58279529D01*
X126978255Y-58368499D01*
X127091501Y-58481745D01*
X127180471Y-58614899D01*
X127241758Y-58762858D01*
X127273000Y-58919925D01*
X127273000Y-59080075D01*
X127241758Y-59237142D01*
X127180471Y-59385101D01*
X127091501Y-59518255D01*
X126978255Y-59631501D01*
X126845101Y-59720471D01*
X126697142Y-59781758D01*
X126540075Y-59813000D01*
X126379925Y-59813000D01*
X126222858Y-59781758D01*
X126074899Y-59720471D01*
X125941745Y-59631501D01*
X125828499Y-59518255D01*
X125739529Y-59385101D01*
X125678242Y-59237142D01*
X125647000Y-59080075D01*
X125647000Y-58919925D01*
X125678242Y-58762858D01*
X125739529Y-58614899D01*
X125828499Y-58481745D01*
X125941745Y-58368499D01*
X126074899Y-58279529D01*
X126222858Y-58218242D01*
X126379925Y-58187000D01*
X126540075Y-58187000D01*
X126697142Y-58218242D01*
X126697142Y-58218242D01*
G37*
G36*
X129237142Y-58218242D02*
G01*
X129385101Y-58279529D01*
X129518255Y-58368499D01*
X129631501Y-58481745D01*
X129720471Y-58614899D01*
X129781758Y-58762858D01*
X129813000Y-58919925D01*
X129813000Y-59080075D01*
X129781758Y-59237142D01*
X129720471Y-59385101D01*
X129631501Y-59518255D01*
X129518255Y-59631501D01*
X129385101Y-59720471D01*
X129237142Y-59781758D01*
X129080075Y-59813000D01*
X128919925Y-59813000D01*
X128762858Y-59781758D01*
X128614899Y-59720471D01*
X128481745Y-59631501D01*
X128368499Y-59518255D01*
X128279529Y-59385101D01*
X128218242Y-59237142D01*
X128187000Y-59080075D01*
X128187000Y-58919925D01*
X128218242Y-58762858D01*
X128279529Y-58614899D01*
X128368499Y-58481745D01*
X128481745Y-58368499D01*
X128614899Y-58279529D01*
X128762858Y-58218242D01*
X128919925Y-58187000D01*
X129080075Y-58187000D01*
X129237142Y-58218242D01*
X129237142Y-58218242D01*
G37*
G36*
X182486778Y-56210547D02*
G01*
X182653224Y-56279491D01*
X182803022Y-56379583D01*
X182930417Y-56506978D01*
X183030509Y-56656776D01*
X183099453Y-56823222D01*
X183134600Y-56999918D01*
X183134600Y-57180082D01*
X183099453Y-57356778D01*
X183030509Y-57523224D01*
X182930417Y-57673022D01*
X182803022Y-57800417D01*
X182653224Y-57900509D01*
X182486778Y-57969453D01*
X182310082Y-58004600D01*
X182129918Y-58004600D01*
X181953222Y-57969453D01*
X181786776Y-57900509D01*
X181636978Y-57800417D01*
X181509583Y-57673022D01*
X181409491Y-57523224D01*
X181340547Y-57356778D01*
X181305400Y-57180082D01*
X181305400Y-56999918D01*
X181340547Y-56823222D01*
X181409491Y-56656776D01*
X181509583Y-56506978D01*
X181636978Y-56379583D01*
X181786776Y-56279491D01*
X181953222Y-56210547D01*
X182129918Y-56175400D01*
X182310082Y-56175400D01*
X182486778Y-56210547D01*
X182486778Y-56210547D01*
G37*
G36*
X167246778Y-56210547D02*
G01*
X167413224Y-56279491D01*
X167563022Y-56379583D01*
X167690417Y-56506978D01*
X167790509Y-56656776D01*
X167859453Y-56823222D01*
X167894600Y-56999918D01*
X167894600Y-57180082D01*
X167859453Y-57356778D01*
X167790509Y-57523224D01*
X167690417Y-57673022D01*
X167563022Y-57800417D01*
X167413224Y-57900509D01*
X167246778Y-57969453D01*
X167070082Y-58004600D01*
X166889918Y-58004600D01*
X166713222Y-57969453D01*
X166546776Y-57900509D01*
X166396978Y-57800417D01*
X166269583Y-57673022D01*
X166169491Y-57523224D01*
X166100547Y-57356778D01*
X166065400Y-57180082D01*
X166065400Y-56999918D01*
X166100547Y-56823222D01*
X166169491Y-56656776D01*
X166269583Y-56506978D01*
X166396978Y-56379583D01*
X166546776Y-56279491D01*
X166713222Y-56210547D01*
X166889918Y-56175400D01*
X167070082Y-56175400D01*
X167246778Y-56210547D01*
X167246778Y-56210547D01*
G37*
G36*
X136073665Y-56372622D02*
G01*
X136147222Y-56379867D01*
X136288786Y-56422810D01*
X136419252Y-56492546D01*
X136436836Y-56506977D01*
X136533607Y-56586393D01*
X136591367Y-56656776D01*
X136627454Y-56700748D01*
X136697190Y-56831214D01*
X136740133Y-56972778D01*
X136754633Y-57120000D01*
X136740133Y-57267222D01*
X136697190Y-57408786D01*
X136627454Y-57539252D01*
X136603008Y-57569040D01*
X136533607Y-57653607D01*
X136449040Y-57723008D01*
X136419252Y-57747454D01*
X136288786Y-57817190D01*
X136147222Y-57860133D01*
X136073665Y-57867378D01*
X136036888Y-57871000D01*
X135963112Y-57871000D01*
X135926335Y-57867378D01*
X135852778Y-57860133D01*
X135711214Y-57817190D01*
X135580748Y-57747454D01*
X135550960Y-57723008D01*
X135466393Y-57653607D01*
X135396992Y-57569040D01*
X135372546Y-57539252D01*
X135302810Y-57408786D01*
X135259867Y-57267222D01*
X135245367Y-57120000D01*
X135259867Y-56972778D01*
X135302810Y-56831214D01*
X135372546Y-56700748D01*
X135408633Y-56656776D01*
X135466393Y-56586393D01*
X135563164Y-56506977D01*
X135580748Y-56492546D01*
X135711214Y-56422810D01*
X135852778Y-56379867D01*
X135926335Y-56372622D01*
X135963112Y-56369000D01*
X136036888Y-56369000D01*
X136073665Y-56372622D01*
X136073665Y-56372622D01*
G37*
G36*
X222913048Y-55803122D02*
G01*
X222947387Y-55813539D01*
X222979036Y-55830456D01*
X223006778Y-55853222D01*
X223029544Y-55880964D01*
X223046461Y-55912613D01*
X223056878Y-55946952D01*
X223061000Y-55988807D01*
X223061000Y-57211193D01*
X223056878Y-57253048D01*
X223046461Y-57287387D01*
X223029544Y-57319036D01*
X223006778Y-57346778D01*
X222979036Y-57369544D01*
X222947387Y-57386461D01*
X222913048Y-57396878D01*
X222871193Y-57401000D01*
X221128807Y-57401000D01*
X221086952Y-57396878D01*
X221052613Y-57386461D01*
X221020964Y-57369544D01*
X220993222Y-57346778D01*
X220970456Y-57319036D01*
X220953539Y-57287387D01*
X220943122Y-57253048D01*
X220939000Y-57211193D01*
X220939000Y-55988807D01*
X220943122Y-55946952D01*
X220953539Y-55912613D01*
X220970456Y-55880964D01*
X220993222Y-55853222D01*
X221020964Y-55830456D01*
X221052613Y-55813539D01*
X221086952Y-55803122D01*
X221128807Y-55799000D01*
X222871193Y-55799000D01*
X222913048Y-55803122D01*
X222913048Y-55803122D01*
G37*
G36*
X118851000Y-56051000D02*
G01*
X116749000Y-56051000D01*
X116749000Y-53949000D01*
X118851000Y-53949000D01*
X118851000Y-56051000D01*
X118851000Y-56051000D01*
G37*
G36*
X182486778Y-53670547D02*
G01*
X182653224Y-53739491D01*
X182803022Y-53839583D01*
X182930417Y-53966978D01*
X183030509Y-54116776D01*
X183099453Y-54283222D01*
X183134600Y-54459918D01*
X183134600Y-54640082D01*
X183099453Y-54816778D01*
X183030509Y-54983224D01*
X182930417Y-55133022D01*
X182803022Y-55260417D01*
X182653224Y-55360509D01*
X182486778Y-55429453D01*
X182310082Y-55464600D01*
X182129918Y-55464600D01*
X181953222Y-55429453D01*
X181786776Y-55360509D01*
X181636978Y-55260417D01*
X181509583Y-55133022D01*
X181409491Y-54983224D01*
X181340547Y-54816778D01*
X181305400Y-54640082D01*
X181305400Y-54459918D01*
X181340547Y-54283222D01*
X181409491Y-54116776D01*
X181509583Y-53966978D01*
X181636978Y-53839583D01*
X181786776Y-53739491D01*
X181953222Y-53670547D01*
X182129918Y-53635400D01*
X182310082Y-53635400D01*
X182486778Y-53670547D01*
X182486778Y-53670547D01*
G37*
G36*
X167246778Y-53670547D02*
G01*
X167413224Y-53739491D01*
X167563022Y-53839583D01*
X167690417Y-53966978D01*
X167790509Y-54116776D01*
X167859453Y-54283222D01*
X167894600Y-54459918D01*
X167894600Y-54640082D01*
X167859453Y-54816778D01*
X167790509Y-54983224D01*
X167690417Y-55133022D01*
X167563022Y-55260417D01*
X167413224Y-55360509D01*
X167246778Y-55429453D01*
X167070082Y-55464600D01*
X166889918Y-55464600D01*
X166713222Y-55429453D01*
X166546776Y-55360509D01*
X166396978Y-55260417D01*
X166269583Y-55133022D01*
X166169491Y-54983224D01*
X166100547Y-54816778D01*
X166065400Y-54640082D01*
X166065400Y-54459918D01*
X166100547Y-54283222D01*
X166169491Y-54116776D01*
X166269583Y-53966978D01*
X166396978Y-53839583D01*
X166546776Y-53739491D01*
X166713222Y-53670547D01*
X166889918Y-53635400D01*
X167070082Y-53635400D01*
X167246778Y-53670547D01*
X167246778Y-53670547D01*
G37*
G36*
X200237142Y-52218242D02*
G01*
X200385101Y-52279529D01*
X200518255Y-52368499D01*
X200631501Y-52481745D01*
X200720471Y-52614899D01*
X200781758Y-52762858D01*
X200813000Y-52919925D01*
X200813000Y-53080075D01*
X200781758Y-53237142D01*
X200720471Y-53385101D01*
X200631501Y-53518255D01*
X200518255Y-53631501D01*
X200385101Y-53720471D01*
X200237142Y-53781758D01*
X200080075Y-53813000D01*
X199919925Y-53813000D01*
X199762858Y-53781758D01*
X199614899Y-53720471D01*
X199481745Y-53631501D01*
X199368499Y-53518255D01*
X199279529Y-53385101D01*
X199218242Y-53237142D01*
X199187000Y-53080075D01*
X199187000Y-52919925D01*
X199218242Y-52762858D01*
X199279529Y-52614899D01*
X199368499Y-52481745D01*
X199481745Y-52368499D01*
X199614899Y-52279529D01*
X199762858Y-52218242D01*
X199919925Y-52187000D01*
X200080075Y-52187000D01*
X200237142Y-52218242D01*
X200237142Y-52218242D01*
G37*
G36*
X197697142Y-52218242D02*
G01*
X197845101Y-52279529D01*
X197978255Y-52368499D01*
X198091501Y-52481745D01*
X198180471Y-52614899D01*
X198241758Y-52762858D01*
X198273000Y-52919925D01*
X198273000Y-53080075D01*
X198241758Y-53237142D01*
X198180471Y-53385101D01*
X198091501Y-53518255D01*
X197978255Y-53631501D01*
X197845101Y-53720471D01*
X197697142Y-53781758D01*
X197540075Y-53813000D01*
X197379925Y-53813000D01*
X197222858Y-53781758D01*
X197074899Y-53720471D01*
X196941745Y-53631501D01*
X196828499Y-53518255D01*
X196739529Y-53385101D01*
X196678242Y-53237142D01*
X196647000Y-53080075D01*
X196647000Y-52919925D01*
X196678242Y-52762858D01*
X196739529Y-52614899D01*
X196828499Y-52481745D01*
X196941745Y-52368499D01*
X197074899Y-52279529D01*
X197222858Y-52218242D01*
X197379925Y-52187000D01*
X197540075Y-52187000D01*
X197697142Y-52218242D01*
X197697142Y-52218242D01*
G37*
G36*
X202777142Y-52218242D02*
G01*
X202925101Y-52279529D01*
X203058255Y-52368499D01*
X203171501Y-52481745D01*
X203260471Y-52614899D01*
X203321758Y-52762858D01*
X203353000Y-52919925D01*
X203353000Y-53080075D01*
X203321758Y-53237142D01*
X203260471Y-53385101D01*
X203171501Y-53518255D01*
X203058255Y-53631501D01*
X202925101Y-53720471D01*
X202777142Y-53781758D01*
X202620075Y-53813000D01*
X202459925Y-53813000D01*
X202302858Y-53781758D01*
X202154899Y-53720471D01*
X202021745Y-53631501D01*
X201908499Y-53518255D01*
X201819529Y-53385101D01*
X201758242Y-53237142D01*
X201727000Y-53080075D01*
X201727000Y-52919925D01*
X201758242Y-52762858D01*
X201819529Y-52614899D01*
X201908499Y-52481745D01*
X202021745Y-52368499D01*
X202154899Y-52279529D01*
X202302858Y-52218242D01*
X202459925Y-52187000D01*
X202620075Y-52187000D01*
X202777142Y-52218242D01*
X202777142Y-52218242D01*
G37*
G36*
X167246778Y-51130547D02*
G01*
X167413224Y-51199491D01*
X167563022Y-51299583D01*
X167690417Y-51426978D01*
X167790509Y-51576776D01*
X167859453Y-51743222D01*
X167894600Y-51919918D01*
X167894600Y-52100082D01*
X167859453Y-52276778D01*
X167790509Y-52443224D01*
X167690417Y-52593022D01*
X167563022Y-52720417D01*
X167413224Y-52820509D01*
X167246778Y-52889453D01*
X167070082Y-52924600D01*
X166889918Y-52924600D01*
X166713222Y-52889453D01*
X166546776Y-52820509D01*
X166396978Y-52720417D01*
X166269583Y-52593022D01*
X166169491Y-52443224D01*
X166100547Y-52276778D01*
X166065400Y-52100082D01*
X166065400Y-51919918D01*
X166100547Y-51743222D01*
X166169491Y-51576776D01*
X166269583Y-51426978D01*
X166396978Y-51299583D01*
X166546776Y-51199491D01*
X166713222Y-51130547D01*
X166889918Y-51095400D01*
X167070082Y-51095400D01*
X167246778Y-51130547D01*
X167246778Y-51130547D01*
G37*
G36*
X182486778Y-51130547D02*
G01*
X182653224Y-51199491D01*
X182803022Y-51299583D01*
X182930417Y-51426978D01*
X183030509Y-51576776D01*
X183099453Y-51743222D01*
X183134600Y-51919918D01*
X183134600Y-52100082D01*
X183099453Y-52276778D01*
X183030509Y-52443224D01*
X182930417Y-52593022D01*
X182803022Y-52720417D01*
X182653224Y-52820509D01*
X182486778Y-52889453D01*
X182310082Y-52924600D01*
X182129918Y-52924600D01*
X181953222Y-52889453D01*
X181786776Y-52820509D01*
X181636978Y-52720417D01*
X181509583Y-52593022D01*
X181409491Y-52443224D01*
X181340547Y-52276778D01*
X181305400Y-52100082D01*
X181305400Y-51919918D01*
X181340547Y-51743222D01*
X181409491Y-51576776D01*
X181509583Y-51426978D01*
X181636978Y-51299583D01*
X181786776Y-51199491D01*
X181953222Y-51130547D01*
X182129918Y-51095400D01*
X182310082Y-51095400D01*
X182486778Y-51130547D01*
X182486778Y-51130547D01*
G37*
G36*
X107729487Y-49448996D02*
G01*
X107966253Y-49547068D01*
X107966255Y-49547069D01*
X108179339Y-49689447D01*
X108360553Y-49870661D01*
X108432766Y-49978735D01*
X108502932Y-50083747D01*
X108601004Y-50320513D01*
X108651000Y-50571861D01*
X108651000Y-50828139D01*
X108601004Y-51079487D01*
X108502932Y-51316253D01*
X108502931Y-51316255D01*
X108360553Y-51529339D01*
X108179339Y-51710553D01*
X107966255Y-51852931D01*
X107966254Y-51852932D01*
X107966253Y-51852932D01*
X107729487Y-51951004D01*
X107478139Y-52001000D01*
X107221861Y-52001000D01*
X106970513Y-51951004D01*
X106733747Y-51852932D01*
X106733746Y-51852932D01*
X106733745Y-51852931D01*
X106520661Y-51710553D01*
X106339447Y-51529339D01*
X106197069Y-51316255D01*
X106197068Y-51316253D01*
X106098996Y-51079487D01*
X106049000Y-50828139D01*
X106049000Y-50571861D01*
X106098996Y-50320513D01*
X106197068Y-50083747D01*
X106267235Y-49978735D01*
X106339447Y-49870661D01*
X106520661Y-49689447D01*
X106733745Y-49547069D01*
X106733747Y-49547068D01*
X106970513Y-49448996D01*
X107221861Y-49399000D01*
X107478139Y-49399000D01*
X107729487Y-49448996D01*
X107729487Y-49448996D01*
G37*
G36*
X87979487Y-49448996D02*
G01*
X88216253Y-49547068D01*
X88216255Y-49547069D01*
X88429339Y-49689447D01*
X88610553Y-49870661D01*
X88682766Y-49978735D01*
X88752932Y-50083747D01*
X88851004Y-50320513D01*
X88901000Y-50571861D01*
X88901000Y-50828139D01*
X88851004Y-51079487D01*
X88752932Y-51316253D01*
X88752931Y-51316255D01*
X88610553Y-51529339D01*
X88429339Y-51710553D01*
X88216255Y-51852931D01*
X88216254Y-51852932D01*
X88216253Y-51852932D01*
X87979487Y-51951004D01*
X87728139Y-52001000D01*
X87471861Y-52001000D01*
X87220513Y-51951004D01*
X86983747Y-51852932D01*
X86983746Y-51852932D01*
X86983745Y-51852931D01*
X86770661Y-51710553D01*
X86589447Y-51529339D01*
X86447069Y-51316255D01*
X86447068Y-51316253D01*
X86348996Y-51079487D01*
X86299000Y-50828139D01*
X86299000Y-50571861D01*
X86348996Y-50320513D01*
X86447068Y-50083747D01*
X86517235Y-49978735D01*
X86589447Y-49870661D01*
X86770661Y-49689447D01*
X86983745Y-49547069D01*
X86983747Y-49547068D01*
X87220513Y-49448996D01*
X87471861Y-49399000D01*
X87728139Y-49399000D01*
X87979487Y-49448996D01*
X87979487Y-49448996D01*
G37*
G36*
X81929487Y-49448996D02*
G01*
X82166253Y-49547068D01*
X82166255Y-49547069D01*
X82379339Y-49689447D01*
X82560553Y-49870661D01*
X82632766Y-49978735D01*
X82702932Y-50083747D01*
X82801004Y-50320513D01*
X82851000Y-50571861D01*
X82851000Y-50828139D01*
X82801004Y-51079487D01*
X82702932Y-51316253D01*
X82702931Y-51316255D01*
X82560553Y-51529339D01*
X82379339Y-51710553D01*
X82166255Y-51852931D01*
X82166254Y-51852932D01*
X82166253Y-51852932D01*
X81929487Y-51951004D01*
X81678139Y-52001000D01*
X81421861Y-52001000D01*
X81170513Y-51951004D01*
X80933747Y-51852932D01*
X80933746Y-51852932D01*
X80933745Y-51852931D01*
X80720661Y-51710553D01*
X80539447Y-51529339D01*
X80397069Y-51316255D01*
X80397068Y-51316253D01*
X80298996Y-51079487D01*
X80249000Y-50828139D01*
X80249000Y-50571861D01*
X80298996Y-50320513D01*
X80397068Y-50083747D01*
X80467235Y-49978735D01*
X80539447Y-49870661D01*
X80720661Y-49689447D01*
X80933745Y-49547069D01*
X80933747Y-49547068D01*
X81170513Y-49448996D01*
X81421861Y-49399000D01*
X81678139Y-49399000D01*
X81929487Y-49448996D01*
X81929487Y-49448996D01*
G37*
G36*
X75929487Y-49448996D02*
G01*
X76166253Y-49547068D01*
X76166255Y-49547069D01*
X76379339Y-49689447D01*
X76560553Y-49870661D01*
X76632766Y-49978735D01*
X76702932Y-50083747D01*
X76801004Y-50320513D01*
X76851000Y-50571861D01*
X76851000Y-50828139D01*
X76801004Y-51079487D01*
X76702932Y-51316253D01*
X76702931Y-51316255D01*
X76560553Y-51529339D01*
X76379339Y-51710553D01*
X76166255Y-51852931D01*
X76166254Y-51852932D01*
X76166253Y-51852932D01*
X75929487Y-51951004D01*
X75678139Y-52001000D01*
X75421861Y-52001000D01*
X75170513Y-51951004D01*
X74933747Y-51852932D01*
X74933746Y-51852932D01*
X74933745Y-51852931D01*
X74720661Y-51710553D01*
X74539447Y-51529339D01*
X74397069Y-51316255D01*
X74397068Y-51316253D01*
X74298996Y-51079487D01*
X74249000Y-50828139D01*
X74249000Y-50571861D01*
X74298996Y-50320513D01*
X74397068Y-50083747D01*
X74467235Y-49978735D01*
X74539447Y-49870661D01*
X74720661Y-49689447D01*
X74933745Y-49547069D01*
X74933747Y-49547068D01*
X75170513Y-49448996D01*
X75421861Y-49399000D01*
X75678139Y-49399000D01*
X75929487Y-49448996D01*
X75929487Y-49448996D01*
G37*
G36*
X69929487Y-49448996D02*
G01*
X70166253Y-49547068D01*
X70166255Y-49547069D01*
X70379339Y-49689447D01*
X70560553Y-49870661D01*
X70632766Y-49978735D01*
X70702932Y-50083747D01*
X70801004Y-50320513D01*
X70851000Y-50571861D01*
X70851000Y-50828139D01*
X70801004Y-51079487D01*
X70702932Y-51316253D01*
X70702931Y-51316255D01*
X70560553Y-51529339D01*
X70379339Y-51710553D01*
X70166255Y-51852931D01*
X70166254Y-51852932D01*
X70166253Y-51852932D01*
X69929487Y-51951004D01*
X69678139Y-52001000D01*
X69421861Y-52001000D01*
X69170513Y-51951004D01*
X68933747Y-51852932D01*
X68933746Y-51852932D01*
X68933745Y-51852931D01*
X68720661Y-51710553D01*
X68539447Y-51529339D01*
X68397069Y-51316255D01*
X68397068Y-51316253D01*
X68298996Y-51079487D01*
X68249000Y-50828139D01*
X68249000Y-50571861D01*
X68298996Y-50320513D01*
X68397068Y-50083747D01*
X68467235Y-49978735D01*
X68539447Y-49870661D01*
X68720661Y-49689447D01*
X68933745Y-49547069D01*
X68933747Y-49547068D01*
X69170513Y-49448996D01*
X69421861Y-49399000D01*
X69678139Y-49399000D01*
X69929487Y-49448996D01*
X69929487Y-49448996D01*
G37*
G36*
X117903097Y-48874069D02*
G01*
X118006032Y-48884207D01*
X118204146Y-48944305D01*
X118204149Y-48944306D01*
X118300975Y-48996061D01*
X118386729Y-49041897D01*
X118546765Y-49173235D01*
X118678103Y-49333271D01*
X118713236Y-49399000D01*
X118775694Y-49515851D01*
X118775695Y-49515854D01*
X118835793Y-49713968D01*
X118856085Y-49920000D01*
X118835793Y-50126032D01*
X118798421Y-50249229D01*
X118775694Y-50324149D01*
X118730611Y-50408493D01*
X118678103Y-50506729D01*
X118546765Y-50666765D01*
X118386729Y-50798103D01*
X118330539Y-50828137D01*
X118204149Y-50895694D01*
X118204146Y-50895695D01*
X118006032Y-50955793D01*
X117903097Y-50965931D01*
X117851631Y-50971000D01*
X117748369Y-50971000D01*
X117696903Y-50965931D01*
X117593968Y-50955793D01*
X117395854Y-50895695D01*
X117395851Y-50895694D01*
X117269461Y-50828137D01*
X117213271Y-50798103D01*
X117053235Y-50666765D01*
X116921897Y-50506729D01*
X116869389Y-50408493D01*
X116824306Y-50324149D01*
X116801579Y-50249229D01*
X116764207Y-50126032D01*
X116743915Y-49920000D01*
X116764207Y-49713968D01*
X116824305Y-49515854D01*
X116824306Y-49515851D01*
X116886764Y-49399000D01*
X116921897Y-49333271D01*
X117053235Y-49173235D01*
X117213271Y-49041897D01*
X117299025Y-48996061D01*
X117395851Y-48944306D01*
X117395854Y-48944305D01*
X117593968Y-48884207D01*
X117696903Y-48874069D01*
X117748369Y-48869000D01*
X117851631Y-48869000D01*
X117903097Y-48874069D01*
X117903097Y-48874069D01*
G37*
G36*
X167264687Y-48531507D02*
G01*
X167264690Y-48531508D01*
X167264689Y-48531508D01*
X167442309Y-48605080D01*
X167468891Y-48622842D01*
X167602161Y-48711889D01*
X167738111Y-48847839D01*
X167827158Y-48981109D01*
X167844920Y-49007691D01*
X167850290Y-49020656D01*
X167918493Y-49185313D01*
X167956000Y-49373871D01*
X167956000Y-49566129D01*
X167918493Y-49754687D01*
X167918492Y-49754689D01*
X167844920Y-49932309D01*
X167844919Y-49932310D01*
X167738111Y-50092161D01*
X167602161Y-50228111D01*
X167496013Y-50299036D01*
X167442309Y-50334920D01*
X167331061Y-50381000D01*
X167264687Y-50408493D01*
X167076129Y-50446000D01*
X166883871Y-50446000D01*
X166695313Y-50408493D01*
X166628939Y-50381000D01*
X166517691Y-50334920D01*
X166463987Y-50299036D01*
X166357839Y-50228111D01*
X166221889Y-50092161D01*
X166115081Y-49932310D01*
X166115080Y-49932309D01*
X166041508Y-49754689D01*
X166041507Y-49754687D01*
X166004000Y-49566129D01*
X166004000Y-49373871D01*
X166041507Y-49185313D01*
X166109710Y-49020656D01*
X166115080Y-49007691D01*
X166132842Y-48981109D01*
X166221889Y-48847839D01*
X166357839Y-48711889D01*
X166491109Y-48622842D01*
X166517691Y-48605080D01*
X166695311Y-48531508D01*
X166695310Y-48531508D01*
X166695313Y-48531507D01*
X166883871Y-48494000D01*
X167076129Y-48494000D01*
X167264687Y-48531507D01*
X167264687Y-48531507D01*
G37*
G36*
X182504687Y-48531507D02*
G01*
X182504690Y-48531508D01*
X182504689Y-48531508D01*
X182682309Y-48605080D01*
X182708891Y-48622842D01*
X182842161Y-48711889D01*
X182978111Y-48847839D01*
X183067158Y-48981109D01*
X183084920Y-49007691D01*
X183090290Y-49020656D01*
X183158493Y-49185313D01*
X183196000Y-49373871D01*
X183196000Y-49566129D01*
X183158493Y-49754687D01*
X183158492Y-49754689D01*
X183084920Y-49932309D01*
X183084919Y-49932310D01*
X182978111Y-50092161D01*
X182842161Y-50228111D01*
X182736013Y-50299036D01*
X182682309Y-50334920D01*
X182571061Y-50381000D01*
X182504687Y-50408493D01*
X182316129Y-50446000D01*
X182123871Y-50446000D01*
X181935313Y-50408493D01*
X181868939Y-50381000D01*
X181757691Y-50334920D01*
X181703987Y-50299036D01*
X181597839Y-50228111D01*
X181461889Y-50092161D01*
X181355081Y-49932310D01*
X181355080Y-49932309D01*
X181281508Y-49754689D01*
X181281507Y-49754687D01*
X181244000Y-49566129D01*
X181244000Y-49373871D01*
X181281507Y-49185313D01*
X181349710Y-49020656D01*
X181355080Y-49007691D01*
X181372842Y-48981109D01*
X181461889Y-48847839D01*
X181597839Y-48711889D01*
X181731109Y-48622842D01*
X181757691Y-48605080D01*
X181935311Y-48531508D01*
X181935310Y-48531508D01*
X181935313Y-48531507D01*
X182123871Y-48494000D01*
X182316129Y-48494000D01*
X182504687Y-48531507D01*
X182504687Y-48531507D01*
G37*
G36*
X148007022Y-48270590D02*
G01*
X148072511Y-48290456D01*
X148158012Y-48316392D01*
X148263193Y-48372613D01*
X148297164Y-48390771D01*
X148419133Y-48490867D01*
X148512865Y-48605080D01*
X148519229Y-48612835D01*
X148593608Y-48751987D01*
X148601456Y-48777860D01*
X148639410Y-48902977D01*
X148651000Y-49020655D01*
X148651000Y-49619345D01*
X148639410Y-49737023D01*
X148634051Y-49754689D01*
X148593608Y-49888013D01*
X148519229Y-50027165D01*
X148419133Y-50149133D01*
X148297165Y-50249229D01*
X148158013Y-50323608D01*
X148107682Y-50338875D01*
X148007023Y-50369410D01*
X147850000Y-50384875D01*
X147692978Y-50369410D01*
X147592319Y-50338875D01*
X147541988Y-50323608D01*
X147402836Y-50249229D01*
X147280868Y-50149133D01*
X147252035Y-50114000D01*
X147180772Y-50027165D01*
X147130070Y-49932310D01*
X147106392Y-49888013D01*
X147065949Y-49754689D01*
X147060590Y-49737023D01*
X147049000Y-49619345D01*
X147049000Y-49020656D01*
X147060590Y-48902978D01*
X147106392Y-48751989D01*
X147106392Y-48751988D01*
X147180771Y-48612836D01*
X147187136Y-48605080D01*
X147280867Y-48490867D01*
X147402835Y-48390771D01*
X147436806Y-48372613D01*
X147541987Y-48316392D01*
X147627488Y-48290456D01*
X147692977Y-48270590D01*
X147850000Y-48255125D01*
X148007022Y-48270590D01*
X148007022Y-48270590D01*
G37*
G36*
X154007022Y-48270590D02*
G01*
X154072511Y-48290456D01*
X154158012Y-48316392D01*
X154263193Y-48372613D01*
X154297164Y-48390771D01*
X154419133Y-48490867D01*
X154512865Y-48605080D01*
X154519229Y-48612835D01*
X154593608Y-48751987D01*
X154601456Y-48777860D01*
X154639410Y-48902977D01*
X154651000Y-49020655D01*
X154651000Y-49619345D01*
X154639410Y-49737023D01*
X154634051Y-49754689D01*
X154593608Y-49888013D01*
X154519229Y-50027165D01*
X154419133Y-50149133D01*
X154297165Y-50249229D01*
X154158013Y-50323608D01*
X154107682Y-50338875D01*
X154007023Y-50369410D01*
X153850000Y-50384875D01*
X153692978Y-50369410D01*
X153592319Y-50338875D01*
X153541988Y-50323608D01*
X153402836Y-50249229D01*
X153280868Y-50149133D01*
X153252035Y-50114000D01*
X153180772Y-50027165D01*
X153130070Y-49932310D01*
X153106392Y-49888013D01*
X153065949Y-49754689D01*
X153060590Y-49737023D01*
X153049000Y-49619345D01*
X153049000Y-49020656D01*
X153060590Y-48902978D01*
X153106392Y-48751989D01*
X153106392Y-48751988D01*
X153180771Y-48612836D01*
X153187136Y-48605080D01*
X153280867Y-48490867D01*
X153402835Y-48390771D01*
X153436806Y-48372613D01*
X153541987Y-48316392D01*
X153627488Y-48290456D01*
X153692977Y-48270590D01*
X153850000Y-48255125D01*
X154007022Y-48270590D01*
X154007022Y-48270590D01*
G37*
G36*
X151007022Y-48270590D02*
G01*
X151072511Y-48290456D01*
X151158012Y-48316392D01*
X151263193Y-48372613D01*
X151297164Y-48390771D01*
X151419133Y-48490867D01*
X151512865Y-48605080D01*
X151519229Y-48612835D01*
X151593608Y-48751987D01*
X151601456Y-48777860D01*
X151639410Y-48902977D01*
X151651000Y-49020655D01*
X151651000Y-49619345D01*
X151639410Y-49737023D01*
X151634051Y-49754689D01*
X151593608Y-49888013D01*
X151519229Y-50027165D01*
X151419133Y-50149133D01*
X151297165Y-50249229D01*
X151158013Y-50323608D01*
X151107682Y-50338875D01*
X151007023Y-50369410D01*
X150850000Y-50384875D01*
X150692978Y-50369410D01*
X150592319Y-50338875D01*
X150541988Y-50323608D01*
X150402836Y-50249229D01*
X150280868Y-50149133D01*
X150252035Y-50114000D01*
X150180772Y-50027165D01*
X150130070Y-49932310D01*
X150106392Y-49888013D01*
X150065949Y-49754689D01*
X150060590Y-49737023D01*
X150049000Y-49619345D01*
X150049000Y-49020656D01*
X150060590Y-48902978D01*
X150106392Y-48751989D01*
X150106392Y-48751988D01*
X150180771Y-48612836D01*
X150187136Y-48605080D01*
X150280867Y-48490867D01*
X150402835Y-48390771D01*
X150436806Y-48372613D01*
X150541987Y-48316392D01*
X150627488Y-48290456D01*
X150692977Y-48270590D01*
X150850000Y-48255125D01*
X151007022Y-48270590D01*
X151007022Y-48270590D01*
G37*
G36*
X130157022Y-48270590D02*
G01*
X130222511Y-48290456D01*
X130308012Y-48316392D01*
X130413193Y-48372613D01*
X130447164Y-48390771D01*
X130569133Y-48490867D01*
X130662865Y-48605080D01*
X130669229Y-48612835D01*
X130743608Y-48751987D01*
X130751456Y-48777860D01*
X130789410Y-48902977D01*
X130801000Y-49020655D01*
X130801000Y-49619345D01*
X130789410Y-49737023D01*
X130784051Y-49754689D01*
X130743608Y-49888013D01*
X130669229Y-50027165D01*
X130569133Y-50149133D01*
X130447165Y-50249229D01*
X130308013Y-50323608D01*
X130257682Y-50338875D01*
X130157023Y-50369410D01*
X130000000Y-50384875D01*
X129842978Y-50369410D01*
X129742319Y-50338875D01*
X129691988Y-50323608D01*
X129552836Y-50249229D01*
X129430868Y-50149133D01*
X129402035Y-50114000D01*
X129330772Y-50027165D01*
X129280070Y-49932310D01*
X129256392Y-49888013D01*
X129215949Y-49754689D01*
X129210590Y-49737023D01*
X129199000Y-49619345D01*
X129199000Y-49020656D01*
X129210590Y-48902978D01*
X129256392Y-48751989D01*
X129256392Y-48751988D01*
X129330771Y-48612836D01*
X129337136Y-48605080D01*
X129430867Y-48490867D01*
X129552835Y-48390771D01*
X129586806Y-48372613D01*
X129691987Y-48316392D01*
X129777488Y-48290456D01*
X129842977Y-48270590D01*
X130000000Y-48255125D01*
X130157022Y-48270590D01*
X130157022Y-48270590D01*
G37*
G36*
X127653048Y-48263122D02*
G01*
X127687387Y-48273539D01*
X127719036Y-48290456D01*
X127746778Y-48313222D01*
X127769544Y-48340964D01*
X127786461Y-48372613D01*
X127796878Y-48406952D01*
X127801000Y-48448807D01*
X127801000Y-50191193D01*
X127796878Y-50233048D01*
X127786461Y-50267387D01*
X127769544Y-50299036D01*
X127746778Y-50326778D01*
X127719036Y-50349544D01*
X127687387Y-50366461D01*
X127653048Y-50376878D01*
X127611193Y-50381000D01*
X126388807Y-50381000D01*
X126346952Y-50376878D01*
X126312613Y-50366461D01*
X126280964Y-50349544D01*
X126253222Y-50326778D01*
X126230456Y-50299036D01*
X126213539Y-50267387D01*
X126203122Y-50233048D01*
X126199000Y-50191193D01*
X126199000Y-48448807D01*
X126203122Y-48406952D01*
X126213539Y-48372613D01*
X126230456Y-48340964D01*
X126253222Y-48313222D01*
X126280964Y-48290456D01*
X126312613Y-48273539D01*
X126346952Y-48263122D01*
X126388807Y-48259000D01*
X127611193Y-48259000D01*
X127653048Y-48263122D01*
X127653048Y-48263122D01*
G37*
G36*
X145503048Y-48263122D02*
G01*
X145537387Y-48273539D01*
X145569036Y-48290456D01*
X145596778Y-48313222D01*
X145619544Y-48340964D01*
X145636461Y-48372613D01*
X145646878Y-48406952D01*
X145651000Y-48448807D01*
X145651000Y-50191193D01*
X145646878Y-50233048D01*
X145636461Y-50267387D01*
X145619544Y-50299036D01*
X145596778Y-50326778D01*
X145569036Y-50349544D01*
X145537387Y-50366461D01*
X145503048Y-50376878D01*
X145461193Y-50381000D01*
X144238807Y-50381000D01*
X144196952Y-50376878D01*
X144162613Y-50366461D01*
X144130964Y-50349544D01*
X144103222Y-50326778D01*
X144080456Y-50299036D01*
X144063539Y-50267387D01*
X144053122Y-50233048D01*
X144049000Y-50191193D01*
X144049000Y-48448807D01*
X144053122Y-48406952D01*
X144063539Y-48372613D01*
X144080456Y-48340964D01*
X144103222Y-48313222D01*
X144130964Y-48290456D01*
X144162613Y-48273539D01*
X144196952Y-48263122D01*
X144238807Y-48259000D01*
X145461193Y-48259000D01*
X145503048Y-48263122D01*
X145503048Y-48263122D01*
G37*
G36*
X136219059Y-48777860D02*
G01*
X136355732Y-48834472D01*
X136478735Y-48916660D01*
X136583340Y-49021265D01*
X136583341Y-49021267D01*
X136665529Y-49144270D01*
X136722140Y-49280941D01*
X136751000Y-49426033D01*
X136751000Y-49573967D01*
X136722140Y-49719059D01*
X136665528Y-49855732D01*
X136583340Y-49978735D01*
X136478735Y-50083340D01*
X136355732Y-50165528D01*
X136355731Y-50165529D01*
X136355730Y-50165529D01*
X136219059Y-50222140D01*
X136073968Y-50251000D01*
X135926032Y-50251000D01*
X135780941Y-50222140D01*
X135644270Y-50165529D01*
X135644269Y-50165529D01*
X135644268Y-50165528D01*
X135521265Y-50083340D01*
X135416660Y-49978735D01*
X135334472Y-49855732D01*
X135277860Y-49719059D01*
X135249000Y-49573967D01*
X135249000Y-49426033D01*
X135277860Y-49280941D01*
X135334471Y-49144270D01*
X135416659Y-49021267D01*
X135416660Y-49021265D01*
X135521265Y-48916660D01*
X135644268Y-48834472D01*
X135780941Y-48777860D01*
X135926032Y-48749000D01*
X136073968Y-48749000D01*
X136219059Y-48777860D01*
X136219059Y-48777860D01*
G37*
G36*
X152002585Y-43478802D02*
G01*
X152152410Y-43508604D01*
X152434674Y-43625521D01*
X152688705Y-43795259D01*
X152904741Y-44011295D01*
X153074479Y-44265326D01*
X153191396Y-44547590D01*
X153251000Y-44847240D01*
X153251000Y-45152760D01*
X153191396Y-45452410D01*
X153074479Y-45734674D01*
X152904741Y-45988705D01*
X152688705Y-46204741D01*
X152434674Y-46374479D01*
X152152410Y-46491396D01*
X152002585Y-46521198D01*
X151852761Y-46551000D01*
X151547239Y-46551000D01*
X151397415Y-46521198D01*
X151247590Y-46491396D01*
X150965326Y-46374479D01*
X150711295Y-46204741D01*
X150495259Y-45988705D01*
X150325521Y-45734674D01*
X150208604Y-45452410D01*
X150149000Y-45152760D01*
X150149000Y-44847240D01*
X150208604Y-44547590D01*
X150325521Y-44265326D01*
X150495259Y-44011295D01*
X150711295Y-43795259D01*
X150965326Y-43625521D01*
X151247590Y-43508604D01*
X151397415Y-43478802D01*
X151547239Y-43449000D01*
X151852761Y-43449000D01*
X152002585Y-43478802D01*
X152002585Y-43478802D01*
G37*
G36*
X147302585Y-43478802D02*
G01*
X147452410Y-43508604D01*
X147734674Y-43625521D01*
X147988705Y-43795259D01*
X148204741Y-44011295D01*
X148374479Y-44265326D01*
X148491396Y-44547590D01*
X148551000Y-44847240D01*
X148551000Y-45152760D01*
X148491396Y-45452410D01*
X148374479Y-45734674D01*
X148204741Y-45988705D01*
X147988705Y-46204741D01*
X147734674Y-46374479D01*
X147452410Y-46491396D01*
X147302585Y-46521198D01*
X147152761Y-46551000D01*
X146847239Y-46551000D01*
X146697415Y-46521198D01*
X146547590Y-46491396D01*
X146265326Y-46374479D01*
X146011295Y-46204741D01*
X145795259Y-45988705D01*
X145625521Y-45734674D01*
X145508604Y-45452410D01*
X145449000Y-45152760D01*
X145449000Y-44847240D01*
X145508604Y-44547590D01*
X145625521Y-44265326D01*
X145795259Y-44011295D01*
X146011295Y-43795259D01*
X146265326Y-43625521D01*
X146547590Y-43508604D01*
X146697415Y-43478802D01*
X146847239Y-43449000D01*
X147152761Y-43449000D01*
X147302585Y-43478802D01*
X147302585Y-43478802D01*
G37*
G36*
X128802585Y-43478802D02*
G01*
X128952410Y-43508604D01*
X129234674Y-43625521D01*
X129488705Y-43795259D01*
X129704741Y-44011295D01*
X129874479Y-44265326D01*
X129991396Y-44547590D01*
X130051000Y-44847240D01*
X130051000Y-45152760D01*
X129991396Y-45452410D01*
X129874479Y-45734674D01*
X129704741Y-45988705D01*
X129488705Y-46204741D01*
X129234674Y-46374479D01*
X128952410Y-46491396D01*
X128802585Y-46521198D01*
X128652761Y-46551000D01*
X128347239Y-46551000D01*
X128197415Y-46521198D01*
X128047590Y-46491396D01*
X127765326Y-46374479D01*
X127511295Y-46204741D01*
X127295259Y-45988705D01*
X127125521Y-45734674D01*
X127008604Y-45452410D01*
X126949000Y-45152760D01*
X126949000Y-44847240D01*
X127008604Y-44547590D01*
X127125521Y-44265326D01*
X127295259Y-44011295D01*
X127511295Y-43795259D01*
X127765326Y-43625521D01*
X128047590Y-43508604D01*
X128197415Y-43478802D01*
X128347239Y-43449000D01*
X128652761Y-43449000D01*
X128802585Y-43478802D01*
X128802585Y-43478802D01*
G37*
G36*
X195501000Y-44801000D02*
G01*
X191899000Y-44801000D01*
X191899000Y-41199000D01*
X195501000Y-41199000D01*
X195501000Y-44801000D01*
X195501000Y-44801000D01*
G37*
G36*
X208101000Y-44801000D02*
G01*
X204499000Y-44801000D01*
X204499000Y-41199000D01*
X208101000Y-41199000D01*
X208101000Y-44801000D01*
X208101000Y-44801000D01*
G37*
G36*
X60375256Y-38391298D02*
G01*
X60481579Y-38412447D01*
X60782042Y-38536903D01*
X61052451Y-38717585D01*
X61282415Y-38947549D01*
X61463097Y-39217958D01*
X61587553Y-39518421D01*
X61651000Y-39837391D01*
X61651000Y-40162609D01*
X61587553Y-40481579D01*
X61463097Y-40782042D01*
X61282415Y-41052451D01*
X61052451Y-41282415D01*
X60782042Y-41463097D01*
X60481579Y-41587553D01*
X60375256Y-41608702D01*
X60162611Y-41651000D01*
X59837389Y-41651000D01*
X59624744Y-41608702D01*
X59518421Y-41587553D01*
X59217958Y-41463097D01*
X58947549Y-41282415D01*
X58717585Y-41052451D01*
X58536903Y-40782042D01*
X58412447Y-40481579D01*
X58349000Y-40162609D01*
X58349000Y-39837391D01*
X58412447Y-39518421D01*
X58536903Y-39217958D01*
X58717585Y-38947549D01*
X58947549Y-38717585D01*
X59217958Y-38536903D01*
X59518421Y-38412447D01*
X59624744Y-38391298D01*
X59837389Y-38349000D01*
X60162611Y-38349000D01*
X60375256Y-38391298D01*
X60375256Y-38391298D01*
G37*
G36*
X232375256Y-38391298D02*
G01*
X232481579Y-38412447D01*
X232782042Y-38536903D01*
X233052451Y-38717585D01*
X233282415Y-38947549D01*
X233463097Y-39217958D01*
X233587553Y-39518421D01*
X233651000Y-39837391D01*
X233651000Y-40162609D01*
X233587553Y-40481579D01*
X233463097Y-40782042D01*
X233282415Y-41052451D01*
X233052451Y-41282415D01*
X232782042Y-41463097D01*
X232481579Y-41587553D01*
X232375256Y-41608702D01*
X232162611Y-41651000D01*
X231837389Y-41651000D01*
X231624744Y-41608702D01*
X231518421Y-41587553D01*
X231217958Y-41463097D01*
X230947549Y-41282415D01*
X230717585Y-41052451D01*
X230536903Y-40782042D01*
X230412447Y-40481579D01*
X230349000Y-40162609D01*
X230349000Y-39837391D01*
X230412447Y-39518421D01*
X230536903Y-39217958D01*
X230717585Y-38947549D01*
X230947549Y-38717585D01*
X231217958Y-38536903D01*
X231518421Y-38412447D01*
X231624744Y-38391298D01*
X231837389Y-38349000D01*
X232162611Y-38349000D01*
X232375256Y-38391298D01*
X232375256Y-38391298D01*
G37*
M02*
