G04 #@! TF.GenerationSoftware,KiCad,Pcbnew,5.1.2-f72e74a~84~ubuntu19.04.1*
G04 #@! TF.CreationDate,2019-10-23T18:47:17+02:00*
G04 #@! TF.ProjectId,upuaut,75707561-7574-42e6-9b69-6361645f7063,rev?*
G04 #@! TF.SameCoordinates,Original*
G04 #@! TF.FileFunction,Copper,L1,Top*
G04 #@! TF.FilePolarity,Positive*
%FSLAX46Y46*%
G04 Gerber Fmt 4.6, Leading zero omitted, Abs format (unit mm)*
G04 Created by KiCad (PCBNEW 5.1.2-f72e74a~84~ubuntu19.04.1) date 2019-10-23 18:47:17*
%MOMM*%
%LPD*%
G04 APERTURE LIST*
%ADD10C,2.500000*%
%ADD11C,1.524000*%
%ADD12C,1.440000*%
%ADD13R,2.000000X2.000000*%
%ADD14C,2.000000*%
%ADD15C,1.600000*%
%ADD16R,1.600000X1.600000*%
%ADD17O,2.000000X2.000000*%
%ADD18R,1.800000X1.800000*%
%ADD19C,1.800000*%
%ADD20C,1.400000*%
%ADD21O,1.400000X1.400000*%
%ADD22C,0.100000*%
%ADD23C,1.500000*%
%ADD24O,2.020000X1.500000*%
%ADD25O,1.500000X2.020000*%
%ADD26R,3.500000X3.500000*%
%ADD27R,3.000000X3.000000*%
%ADD28O,3.048000X2.032000*%
%ADD29C,1.727200*%
%ADD30R,1.727200X1.727200*%
%ADD31O,1.600000X1.600000*%
%ADD32C,0.800000*%
%ADD33C,0.250000*%
%ADD34C,0.500000*%
%ADD35C,1.000000*%
G04 APERTURE END LIST*
D10*
X81650000Y-110900000D03*
X68900000Y-110900000D03*
X107350000Y-50700000D03*
X87600000Y-50700000D03*
X81550000Y-50700000D03*
X75550000Y-50700000D03*
X69550000Y-50700000D03*
D11*
X120966000Y-90176000D03*
X120966000Y-87636000D03*
X120966000Y-85096000D03*
X120966000Y-82556000D03*
X120966000Y-80016000D03*
X120966000Y-74936000D03*
X120966000Y-77476000D03*
X120966000Y-72396000D03*
X120966000Y-69856000D03*
X120966000Y-67316000D03*
X157034000Y-90176000D03*
X157034000Y-87636000D03*
X157034000Y-85096000D03*
X157034000Y-82556000D03*
X157034000Y-80016000D03*
X157034000Y-77476000D03*
X157034000Y-74936000D03*
X157034000Y-72396000D03*
X157034000Y-69856000D03*
X157034000Y-67316000D03*
D12*
X177420000Y-97300000D03*
X179960000Y-97300000D03*
X182500000Y-97300000D03*
D13*
X117934000Y-129490000D03*
D14*
X121434000Y-129490000D03*
D15*
X138300000Y-123000000D03*
X143300000Y-123000000D03*
X168500000Y-137200000D03*
D16*
X168500000Y-134700000D03*
D15*
X185700000Y-116600000D03*
X180700000Y-116600000D03*
D16*
X217700000Y-78100000D03*
D15*
X221200000Y-78100000D03*
D16*
X178400000Y-134600000D03*
D15*
X178400000Y-137100000D03*
D13*
X122506000Y-117806000D03*
D17*
X122506000Y-122886000D03*
D18*
X162200000Y-69800000D03*
D19*
X162200000Y-67260000D03*
D17*
X159800000Y-126180000D03*
D13*
X159800000Y-121100000D03*
D15*
X151800000Y-99400000D03*
X151800000Y-101900000D03*
X157000000Y-101900000D03*
X157000000Y-99400000D03*
D11*
X131540000Y-59000000D03*
X129000000Y-59000000D03*
X126460000Y-59000000D03*
D20*
X132666000Y-136094000D03*
D21*
X132666000Y-128474000D03*
D20*
X129110000Y-124156000D03*
D21*
X129110000Y-116536000D03*
D20*
X149684000Y-136094000D03*
D21*
X149684000Y-128474000D03*
D20*
X109300000Y-133600000D03*
D21*
X109300000Y-125980000D03*
X143588000Y-136094000D03*
D20*
X143588000Y-128474000D03*
X162200000Y-80400000D03*
D21*
X162200000Y-72780000D03*
X168980000Y-116600000D03*
D20*
X176600000Y-116600000D03*
D21*
X166400000Y-129320000D03*
D20*
X166400000Y-121700000D03*
D21*
X138000000Y-128474000D03*
D20*
X138000000Y-136094000D03*
D21*
X159772000Y-129474000D03*
D20*
X159772000Y-137094000D03*
D22*
G36*
X222784504Y-91151204D02*
G01*
X222808773Y-91154804D01*
X222832571Y-91160765D01*
X222855671Y-91169030D01*
X222877849Y-91179520D01*
X222898893Y-91192133D01*
X222918598Y-91206747D01*
X222936777Y-91223223D01*
X222953253Y-91241402D01*
X222967867Y-91261107D01*
X222980480Y-91282151D01*
X222990970Y-91304329D01*
X222999235Y-91327429D01*
X223005196Y-91351227D01*
X223008796Y-91375496D01*
X223010000Y-91400000D01*
X223010000Y-92400000D01*
X223008796Y-92424504D01*
X223005196Y-92448773D01*
X222999235Y-92472571D01*
X222990970Y-92495671D01*
X222980480Y-92517849D01*
X222967867Y-92538893D01*
X222953253Y-92558598D01*
X222936777Y-92576777D01*
X222918598Y-92593253D01*
X222898893Y-92607867D01*
X222877849Y-92620480D01*
X222855671Y-92630970D01*
X222832571Y-92639235D01*
X222808773Y-92645196D01*
X222784504Y-92648796D01*
X222760000Y-92650000D01*
X221240000Y-92650000D01*
X221215496Y-92648796D01*
X221191227Y-92645196D01*
X221167429Y-92639235D01*
X221144329Y-92630970D01*
X221122151Y-92620480D01*
X221101107Y-92607867D01*
X221081402Y-92593253D01*
X221063223Y-92576777D01*
X221046747Y-92558598D01*
X221032133Y-92538893D01*
X221019520Y-92517849D01*
X221009030Y-92495671D01*
X221000765Y-92472571D01*
X220994804Y-92448773D01*
X220991204Y-92424504D01*
X220990000Y-92400000D01*
X220990000Y-91400000D01*
X220991204Y-91375496D01*
X220994804Y-91351227D01*
X221000765Y-91327429D01*
X221009030Y-91304329D01*
X221019520Y-91282151D01*
X221032133Y-91261107D01*
X221046747Y-91241402D01*
X221063223Y-91223223D01*
X221081402Y-91206747D01*
X221101107Y-91192133D01*
X221122151Y-91179520D01*
X221144329Y-91169030D01*
X221167429Y-91160765D01*
X221191227Y-91154804D01*
X221215496Y-91151204D01*
X221240000Y-91150000D01*
X222760000Y-91150000D01*
X222784504Y-91151204D01*
X222784504Y-91151204D01*
G37*
D23*
X222000000Y-91900000D03*
D24*
X222000000Y-94900000D03*
X222000000Y-97900000D03*
D22*
G36*
X70706504Y-125179204D02*
G01*
X70730773Y-125182804D01*
X70754571Y-125188765D01*
X70777671Y-125197030D01*
X70799849Y-125207520D01*
X70820893Y-125220133D01*
X70840598Y-125234747D01*
X70858777Y-125251223D01*
X70875253Y-125269402D01*
X70889867Y-125289107D01*
X70902480Y-125310151D01*
X70912970Y-125332329D01*
X70921235Y-125355429D01*
X70927196Y-125379227D01*
X70930796Y-125403496D01*
X70932000Y-125428000D01*
X70932000Y-126948000D01*
X70930796Y-126972504D01*
X70927196Y-126996773D01*
X70921235Y-127020571D01*
X70912970Y-127043671D01*
X70902480Y-127065849D01*
X70889867Y-127086893D01*
X70875253Y-127106598D01*
X70858777Y-127124777D01*
X70840598Y-127141253D01*
X70820893Y-127155867D01*
X70799849Y-127168480D01*
X70777671Y-127178970D01*
X70754571Y-127187235D01*
X70730773Y-127193196D01*
X70706504Y-127196796D01*
X70682000Y-127198000D01*
X69682000Y-127198000D01*
X69657496Y-127196796D01*
X69633227Y-127193196D01*
X69609429Y-127187235D01*
X69586329Y-127178970D01*
X69564151Y-127168480D01*
X69543107Y-127155867D01*
X69523402Y-127141253D01*
X69505223Y-127124777D01*
X69488747Y-127106598D01*
X69474133Y-127086893D01*
X69461520Y-127065849D01*
X69451030Y-127043671D01*
X69442765Y-127020571D01*
X69436804Y-126996773D01*
X69433204Y-126972504D01*
X69432000Y-126948000D01*
X69432000Y-125428000D01*
X69433204Y-125403496D01*
X69436804Y-125379227D01*
X69442765Y-125355429D01*
X69451030Y-125332329D01*
X69461520Y-125310151D01*
X69474133Y-125289107D01*
X69488747Y-125269402D01*
X69505223Y-125251223D01*
X69523402Y-125234747D01*
X69543107Y-125220133D01*
X69564151Y-125207520D01*
X69586329Y-125197030D01*
X69609429Y-125188765D01*
X69633227Y-125182804D01*
X69657496Y-125179204D01*
X69682000Y-125178000D01*
X70682000Y-125178000D01*
X70706504Y-125179204D01*
X70706504Y-125179204D01*
G37*
D23*
X70182000Y-126188000D03*
D25*
X67182000Y-126188000D03*
D11*
X202540000Y-53000000D03*
X200000000Y-53000000D03*
X197460000Y-53000000D03*
D26*
X193700000Y-43000000D03*
X206300000Y-43000000D03*
D22*
G36*
X145374504Y-48311204D02*
G01*
X145398773Y-48314804D01*
X145422571Y-48320765D01*
X145445671Y-48329030D01*
X145467849Y-48339520D01*
X145488893Y-48352133D01*
X145508598Y-48366747D01*
X145526777Y-48383223D01*
X145543253Y-48401402D01*
X145557867Y-48421107D01*
X145570480Y-48442151D01*
X145580970Y-48464329D01*
X145589235Y-48487429D01*
X145595196Y-48511227D01*
X145598796Y-48535496D01*
X145600000Y-48560000D01*
X145600000Y-50080000D01*
X145598796Y-50104504D01*
X145595196Y-50128773D01*
X145589235Y-50152571D01*
X145580970Y-50175671D01*
X145570480Y-50197849D01*
X145557867Y-50218893D01*
X145543253Y-50238598D01*
X145526777Y-50256777D01*
X145508598Y-50273253D01*
X145488893Y-50287867D01*
X145467849Y-50300480D01*
X145445671Y-50310970D01*
X145422571Y-50319235D01*
X145398773Y-50325196D01*
X145374504Y-50328796D01*
X145350000Y-50330000D01*
X144350000Y-50330000D01*
X144325496Y-50328796D01*
X144301227Y-50325196D01*
X144277429Y-50319235D01*
X144254329Y-50310970D01*
X144232151Y-50300480D01*
X144211107Y-50287867D01*
X144191402Y-50273253D01*
X144173223Y-50256777D01*
X144156747Y-50238598D01*
X144142133Y-50218893D01*
X144129520Y-50197849D01*
X144119030Y-50175671D01*
X144110765Y-50152571D01*
X144104804Y-50128773D01*
X144101204Y-50104504D01*
X144100000Y-50080000D01*
X144100000Y-48560000D01*
X144101204Y-48535496D01*
X144104804Y-48511227D01*
X144110765Y-48487429D01*
X144119030Y-48464329D01*
X144129520Y-48442151D01*
X144142133Y-48421107D01*
X144156747Y-48401402D01*
X144173223Y-48383223D01*
X144191402Y-48366747D01*
X144211107Y-48352133D01*
X144232151Y-48339520D01*
X144254329Y-48329030D01*
X144277429Y-48320765D01*
X144301227Y-48314804D01*
X144325496Y-48311204D01*
X144350000Y-48310000D01*
X145350000Y-48310000D01*
X145374504Y-48311204D01*
X145374504Y-48311204D01*
G37*
D23*
X144850000Y-49320000D03*
D25*
X147850000Y-49320000D03*
X150850000Y-49320000D03*
X153850000Y-49320000D03*
D18*
X140000000Y-97000000D03*
D19*
X142540000Y-97000000D03*
X145080000Y-97000000D03*
X128080000Y-97000000D03*
X125540000Y-97000000D03*
D18*
X123000000Y-97000000D03*
D26*
X206300000Y-73000000D03*
X193700000Y-73000000D03*
D11*
X197460000Y-83000000D03*
X200000000Y-83000000D03*
X202540000Y-83000000D03*
X203750000Y-103014000D03*
X196250000Y-103000000D03*
X200000000Y-103000000D03*
D27*
X205600000Y-110500000D03*
X194400000Y-110500000D03*
D11*
X196250000Y-117500000D03*
X203750000Y-117500000D03*
X188320000Y-136080000D03*
X190860000Y-136080000D03*
X193400000Y-136080000D03*
X195940000Y-136080000D03*
X195940000Y-125920000D03*
X193400000Y-125920000D03*
X190860000Y-125920000D03*
X188320000Y-125920000D03*
D28*
X145350000Y-86890000D03*
X145350000Y-84350000D03*
X145350000Y-81810000D03*
X145350000Y-79270000D03*
X145350000Y-76730000D03*
X145350000Y-74190000D03*
X145350000Y-71650000D03*
X145350000Y-69110000D03*
X132650000Y-69110000D03*
X132650000Y-71650000D03*
X132650000Y-74190000D03*
X132650000Y-76730000D03*
X132650000Y-79270000D03*
X132650000Y-81810000D03*
X132650000Y-84350000D03*
X132650000Y-86890000D03*
D24*
X222000000Y-62600000D03*
X222000000Y-59600000D03*
D22*
G36*
X222784504Y-55851204D02*
G01*
X222808773Y-55854804D01*
X222832571Y-55860765D01*
X222855671Y-55869030D01*
X222877849Y-55879520D01*
X222898893Y-55892133D01*
X222918598Y-55906747D01*
X222936777Y-55923223D01*
X222953253Y-55941402D01*
X222967867Y-55961107D01*
X222980480Y-55982151D01*
X222990970Y-56004329D01*
X222999235Y-56027429D01*
X223005196Y-56051227D01*
X223008796Y-56075496D01*
X223010000Y-56100000D01*
X223010000Y-57100000D01*
X223008796Y-57124504D01*
X223005196Y-57148773D01*
X222999235Y-57172571D01*
X222990970Y-57195671D01*
X222980480Y-57217849D01*
X222967867Y-57238893D01*
X222953253Y-57258598D01*
X222936777Y-57276777D01*
X222918598Y-57293253D01*
X222898893Y-57307867D01*
X222877849Y-57320480D01*
X222855671Y-57330970D01*
X222832571Y-57339235D01*
X222808773Y-57345196D01*
X222784504Y-57348796D01*
X222760000Y-57350000D01*
X221240000Y-57350000D01*
X221215496Y-57348796D01*
X221191227Y-57345196D01*
X221167429Y-57339235D01*
X221144329Y-57330970D01*
X221122151Y-57320480D01*
X221101107Y-57307867D01*
X221081402Y-57293253D01*
X221063223Y-57276777D01*
X221046747Y-57258598D01*
X221032133Y-57238893D01*
X221019520Y-57217849D01*
X221009030Y-57195671D01*
X221000765Y-57172571D01*
X220994804Y-57148773D01*
X220991204Y-57124504D01*
X220990000Y-57100000D01*
X220990000Y-56100000D01*
X220991204Y-56075496D01*
X220994804Y-56051227D01*
X221000765Y-56027429D01*
X221009030Y-56004329D01*
X221019520Y-55982151D01*
X221032133Y-55961107D01*
X221046747Y-55941402D01*
X221063223Y-55923223D01*
X221081402Y-55906747D01*
X221101107Y-55892133D01*
X221122151Y-55879520D01*
X221144329Y-55869030D01*
X221167429Y-55860765D01*
X221191227Y-55854804D01*
X221215496Y-55851204D01*
X221240000Y-55850000D01*
X222760000Y-55850000D01*
X222784504Y-55851204D01*
X222784504Y-55851204D01*
G37*
D23*
X222000000Y-56600000D03*
D24*
X222100000Y-121100000D03*
D22*
G36*
X222884504Y-117351204D02*
G01*
X222908773Y-117354804D01*
X222932571Y-117360765D01*
X222955671Y-117369030D01*
X222977849Y-117379520D01*
X222998893Y-117392133D01*
X223018598Y-117406747D01*
X223036777Y-117423223D01*
X223053253Y-117441402D01*
X223067867Y-117461107D01*
X223080480Y-117482151D01*
X223090970Y-117504329D01*
X223099235Y-117527429D01*
X223105196Y-117551227D01*
X223108796Y-117575496D01*
X223110000Y-117600000D01*
X223110000Y-118600000D01*
X223108796Y-118624504D01*
X223105196Y-118648773D01*
X223099235Y-118672571D01*
X223090970Y-118695671D01*
X223080480Y-118717849D01*
X223067867Y-118738893D01*
X223053253Y-118758598D01*
X223036777Y-118776777D01*
X223018598Y-118793253D01*
X222998893Y-118807867D01*
X222977849Y-118820480D01*
X222955671Y-118830970D01*
X222932571Y-118839235D01*
X222908773Y-118845196D01*
X222884504Y-118848796D01*
X222860000Y-118850000D01*
X221340000Y-118850000D01*
X221315496Y-118848796D01*
X221291227Y-118845196D01*
X221267429Y-118839235D01*
X221244329Y-118830970D01*
X221222151Y-118820480D01*
X221201107Y-118807867D01*
X221181402Y-118793253D01*
X221163223Y-118776777D01*
X221146747Y-118758598D01*
X221132133Y-118738893D01*
X221119520Y-118717849D01*
X221109030Y-118695671D01*
X221100765Y-118672571D01*
X221094804Y-118648773D01*
X221091204Y-118624504D01*
X221090000Y-118600000D01*
X221090000Y-117600000D01*
X221091204Y-117575496D01*
X221094804Y-117551227D01*
X221100765Y-117527429D01*
X221109030Y-117504329D01*
X221119520Y-117482151D01*
X221132133Y-117461107D01*
X221146747Y-117441402D01*
X221163223Y-117423223D01*
X221181402Y-117406747D01*
X221201107Y-117392133D01*
X221222151Y-117379520D01*
X221244329Y-117369030D01*
X221267429Y-117360765D01*
X221291227Y-117354804D01*
X221315496Y-117351204D01*
X221340000Y-117350000D01*
X222860000Y-117350000D01*
X222884504Y-117351204D01*
X222884504Y-117351204D01*
G37*
D23*
X222100000Y-118100000D03*
D22*
G36*
X127524504Y-48311204D02*
G01*
X127548773Y-48314804D01*
X127572571Y-48320765D01*
X127595671Y-48329030D01*
X127617849Y-48339520D01*
X127638893Y-48352133D01*
X127658598Y-48366747D01*
X127676777Y-48383223D01*
X127693253Y-48401402D01*
X127707867Y-48421107D01*
X127720480Y-48442151D01*
X127730970Y-48464329D01*
X127739235Y-48487429D01*
X127745196Y-48511227D01*
X127748796Y-48535496D01*
X127750000Y-48560000D01*
X127750000Y-50080000D01*
X127748796Y-50104504D01*
X127745196Y-50128773D01*
X127739235Y-50152571D01*
X127730970Y-50175671D01*
X127720480Y-50197849D01*
X127707867Y-50218893D01*
X127693253Y-50238598D01*
X127676777Y-50256777D01*
X127658598Y-50273253D01*
X127638893Y-50287867D01*
X127617849Y-50300480D01*
X127595671Y-50310970D01*
X127572571Y-50319235D01*
X127548773Y-50325196D01*
X127524504Y-50328796D01*
X127500000Y-50330000D01*
X126500000Y-50330000D01*
X126475496Y-50328796D01*
X126451227Y-50325196D01*
X126427429Y-50319235D01*
X126404329Y-50310970D01*
X126382151Y-50300480D01*
X126361107Y-50287867D01*
X126341402Y-50273253D01*
X126323223Y-50256777D01*
X126306747Y-50238598D01*
X126292133Y-50218893D01*
X126279520Y-50197849D01*
X126269030Y-50175671D01*
X126260765Y-50152571D01*
X126254804Y-50128773D01*
X126251204Y-50104504D01*
X126250000Y-50080000D01*
X126250000Y-48560000D01*
X126251204Y-48535496D01*
X126254804Y-48511227D01*
X126260765Y-48487429D01*
X126269030Y-48464329D01*
X126279520Y-48442151D01*
X126292133Y-48421107D01*
X126306747Y-48401402D01*
X126323223Y-48383223D01*
X126341402Y-48366747D01*
X126361107Y-48352133D01*
X126382151Y-48339520D01*
X126404329Y-48329030D01*
X126427429Y-48320765D01*
X126451227Y-48314804D01*
X126475496Y-48311204D01*
X126500000Y-48310000D01*
X127500000Y-48310000D01*
X127524504Y-48311204D01*
X127524504Y-48311204D01*
G37*
D23*
X127000000Y-49320000D03*
D25*
X130000000Y-49320000D03*
D22*
G36*
X84422504Y-125179204D02*
G01*
X84446773Y-125182804D01*
X84470571Y-125188765D01*
X84493671Y-125197030D01*
X84515849Y-125207520D01*
X84536893Y-125220133D01*
X84556598Y-125234747D01*
X84574777Y-125251223D01*
X84591253Y-125269402D01*
X84605867Y-125289107D01*
X84618480Y-125310151D01*
X84628970Y-125332329D01*
X84637235Y-125355429D01*
X84643196Y-125379227D01*
X84646796Y-125403496D01*
X84648000Y-125428000D01*
X84648000Y-126948000D01*
X84646796Y-126972504D01*
X84643196Y-126996773D01*
X84637235Y-127020571D01*
X84628970Y-127043671D01*
X84618480Y-127065849D01*
X84605867Y-127086893D01*
X84591253Y-127106598D01*
X84574777Y-127124777D01*
X84556598Y-127141253D01*
X84536893Y-127155867D01*
X84515849Y-127168480D01*
X84493671Y-127178970D01*
X84470571Y-127187235D01*
X84446773Y-127193196D01*
X84422504Y-127196796D01*
X84398000Y-127198000D01*
X83398000Y-127198000D01*
X83373496Y-127196796D01*
X83349227Y-127193196D01*
X83325429Y-127187235D01*
X83302329Y-127178970D01*
X83280151Y-127168480D01*
X83259107Y-127155867D01*
X83239402Y-127141253D01*
X83221223Y-127124777D01*
X83204747Y-127106598D01*
X83190133Y-127086893D01*
X83177520Y-127065849D01*
X83167030Y-127043671D01*
X83158765Y-127020571D01*
X83152804Y-126996773D01*
X83149204Y-126972504D01*
X83148000Y-126948000D01*
X83148000Y-125428000D01*
X83149204Y-125403496D01*
X83152804Y-125379227D01*
X83158765Y-125355429D01*
X83167030Y-125332329D01*
X83177520Y-125310151D01*
X83190133Y-125289107D01*
X83204747Y-125269402D01*
X83221223Y-125251223D01*
X83239402Y-125234747D01*
X83259107Y-125220133D01*
X83280151Y-125207520D01*
X83302329Y-125197030D01*
X83325429Y-125188765D01*
X83349227Y-125182804D01*
X83373496Y-125179204D01*
X83398000Y-125178000D01*
X84398000Y-125178000D01*
X84422504Y-125179204D01*
X84422504Y-125179204D01*
G37*
D23*
X83898000Y-126188000D03*
D25*
X80898000Y-126188000D03*
X94614000Y-126188000D03*
D22*
G36*
X98138504Y-125179204D02*
G01*
X98162773Y-125182804D01*
X98186571Y-125188765D01*
X98209671Y-125197030D01*
X98231849Y-125207520D01*
X98252893Y-125220133D01*
X98272598Y-125234747D01*
X98290777Y-125251223D01*
X98307253Y-125269402D01*
X98321867Y-125289107D01*
X98334480Y-125310151D01*
X98344970Y-125332329D01*
X98353235Y-125355429D01*
X98359196Y-125379227D01*
X98362796Y-125403496D01*
X98364000Y-125428000D01*
X98364000Y-126948000D01*
X98362796Y-126972504D01*
X98359196Y-126996773D01*
X98353235Y-127020571D01*
X98344970Y-127043671D01*
X98334480Y-127065849D01*
X98321867Y-127086893D01*
X98307253Y-127106598D01*
X98290777Y-127124777D01*
X98272598Y-127141253D01*
X98252893Y-127155867D01*
X98231849Y-127168480D01*
X98209671Y-127178970D01*
X98186571Y-127187235D01*
X98162773Y-127193196D01*
X98138504Y-127196796D01*
X98114000Y-127198000D01*
X97114000Y-127198000D01*
X97089496Y-127196796D01*
X97065227Y-127193196D01*
X97041429Y-127187235D01*
X97018329Y-127178970D01*
X96996151Y-127168480D01*
X96975107Y-127155867D01*
X96955402Y-127141253D01*
X96937223Y-127124777D01*
X96920747Y-127106598D01*
X96906133Y-127086893D01*
X96893520Y-127065849D01*
X96883030Y-127043671D01*
X96874765Y-127020571D01*
X96868804Y-126996773D01*
X96865204Y-126972504D01*
X96864000Y-126948000D01*
X96864000Y-125428000D01*
X96865204Y-125403496D01*
X96868804Y-125379227D01*
X96874765Y-125355429D01*
X96883030Y-125332329D01*
X96893520Y-125310151D01*
X96906133Y-125289107D01*
X96920747Y-125269402D01*
X96937223Y-125251223D01*
X96955402Y-125234747D01*
X96975107Y-125220133D01*
X96996151Y-125207520D01*
X97018329Y-125197030D01*
X97041429Y-125188765D01*
X97065227Y-125182804D01*
X97089496Y-125179204D01*
X97114000Y-125178000D01*
X98114000Y-125178000D01*
X98138504Y-125179204D01*
X98138504Y-125179204D01*
G37*
D23*
X97614000Y-126188000D03*
D29*
X166980000Y-87570000D03*
X166980000Y-85030000D03*
X166980000Y-82490000D03*
X166980000Y-79950000D03*
X166980000Y-77410000D03*
X166980000Y-74870000D03*
X166980000Y-72330000D03*
X166980000Y-69790000D03*
X166980000Y-67250000D03*
X166980000Y-64710000D03*
X166980000Y-62170000D03*
X166980000Y-59630000D03*
X166980000Y-57090000D03*
X166980000Y-54550000D03*
X166980000Y-52010000D03*
X182220000Y-52010000D03*
X182220000Y-54550000D03*
X182220000Y-57090000D03*
X182220000Y-59630000D03*
X182220000Y-62170000D03*
X182220000Y-64710000D03*
X182220000Y-67250000D03*
X182220000Y-69790000D03*
X182220000Y-72330000D03*
X182220000Y-74870000D03*
X182220000Y-77410000D03*
X182220000Y-79950000D03*
X182220000Y-82490000D03*
X182220000Y-85030000D03*
D30*
X182220000Y-87570000D03*
D13*
X117800000Y-55000000D03*
D17*
X117800000Y-49920000D03*
D21*
X177520000Y-128400000D03*
D20*
X169900000Y-128400000D03*
X136000000Y-49500000D03*
D21*
X136000000Y-57120000D03*
D16*
X202800000Y-129100000D03*
D31*
X210420000Y-131640000D03*
X202800000Y-131640000D03*
X210420000Y-129100000D03*
D32*
X178500000Y-57600000D03*
X170100000Y-107800000D03*
X170300000Y-90500000D03*
X172200000Y-85700000D03*
X178000000Y-87600000D03*
X182800000Y-93000000D03*
X188700000Y-93600000D03*
X214800000Y-95100000D03*
X149649990Y-54119990D03*
X152000000Y-78000000D03*
X192300000Y-97700000D03*
X189600000Y-104900000D03*
X148890000Y-69110000D03*
X143500000Y-64600000D03*
X114325000Y-57675000D03*
X136600000Y-90100000D03*
X130000000Y-99700000D03*
X212900000Y-93000000D03*
X216975000Y-96600000D03*
X124815000Y-115800000D03*
X138200000Y-52900000D03*
X139700000Y-71400000D03*
X127200000Y-78300000D03*
X112825000Y-71900000D03*
X111300000Y-62500000D03*
X125000000Y-75000000D03*
X163700000Y-84100000D03*
X145000000Y-90300000D03*
X164700000Y-81400000D03*
X132966001Y-126700000D03*
X188600000Y-80800000D03*
X174800000Y-83500000D03*
X178189999Y-83500000D03*
D33*
X122053001Y-84008999D02*
X121727999Y-84334001D01*
X122053001Y-79198999D02*
X122053001Y-84008999D01*
X132142000Y-69110000D02*
X122053001Y-79198999D01*
X121727999Y-84334001D02*
X120966000Y-85096000D01*
X132650000Y-69110000D02*
X132142000Y-69110000D01*
X178500000Y-60990000D02*
X182220000Y-64710000D01*
X178500000Y-57600000D02*
X178500000Y-60990000D01*
D34*
X127840000Y-117806000D02*
X129110000Y-116536000D01*
X122506000Y-117806000D02*
X127840000Y-117806000D01*
X148984001Y-135394001D02*
X149684000Y-136094000D01*
X148533999Y-134943999D02*
X148984001Y-135394001D01*
X124741997Y-134943999D02*
X148533999Y-134943999D01*
X119983999Y-130186001D02*
X124741997Y-134943999D01*
X119983999Y-128793999D02*
X119983999Y-130186001D01*
X129110000Y-119667998D02*
X119983999Y-128793999D01*
X129110000Y-116536000D02*
X129110000Y-119667998D01*
X150684000Y-137094000D02*
X159772000Y-137094000D01*
X149684000Y-136094000D02*
X150684000Y-137094000D01*
X161206000Y-137094000D02*
X169900000Y-128400000D01*
X159772000Y-137094000D02*
X161206000Y-137094000D01*
X170100000Y-107800000D02*
X170100000Y-90700000D01*
X170100000Y-90700000D02*
X170300000Y-90500000D01*
X157550000Y-97000000D02*
X166980000Y-87570000D01*
X145080000Y-97000000D02*
X157550000Y-97000000D01*
X166980000Y-87570000D02*
X170030000Y-87570000D01*
X170030000Y-87570000D02*
X171900000Y-85700000D01*
X171900000Y-85700000D02*
X172200000Y-85700000D01*
X180844999Y-89449999D02*
X180844999Y-90844999D01*
X178000000Y-87600000D02*
X178995000Y-87600000D01*
X178995000Y-87600000D02*
X180844999Y-89449999D01*
X180844999Y-90844999D02*
X180844999Y-91044999D01*
X180844999Y-91044999D02*
X182800000Y-93000000D01*
X188700000Y-93600000D02*
X190200000Y-95100000D01*
X190200000Y-95100000D02*
X202500000Y-95100000D01*
X202500000Y-95100000D02*
X214800000Y-95100000D01*
D35*
X81916000Y-114454000D02*
X70182000Y-126188000D01*
X81916000Y-111584000D02*
X81916000Y-114454000D01*
X67182000Y-125928000D02*
X67182000Y-126188000D01*
X69166000Y-124204000D02*
X67182000Y-126188000D01*
X69166000Y-111584000D02*
X69166000Y-124204000D01*
X144850000Y-49320000D02*
X149649990Y-54119990D01*
X149649990Y-54119990D02*
X149649990Y-54119990D01*
X156000000Y-74744930D02*
X156191070Y-74936000D01*
X152300010Y-69825772D02*
X156000000Y-73525762D01*
X147850000Y-49060000D02*
X149600000Y-47310000D01*
X156000000Y-73525762D02*
X156000000Y-74744930D01*
X147850000Y-49320000D02*
X147850000Y-49060000D01*
X149600000Y-47310000D02*
X151150623Y-47310000D01*
X151150623Y-47310000D02*
X152300010Y-48459387D01*
X156191070Y-74936000D02*
X157034000Y-74936000D01*
X152300010Y-48459387D02*
X152300010Y-69825772D01*
X150850000Y-71292000D02*
X157034000Y-77476000D01*
X150850000Y-49320000D02*
X150850000Y-71292000D01*
X150730000Y-76730000D02*
X145350000Y-76730000D01*
X152000000Y-78000000D02*
X150730000Y-76730000D01*
X151208000Y-74190000D02*
X145350000Y-74190000D01*
X157034000Y-80016000D02*
X151208000Y-74190000D01*
X157795999Y-79254001D02*
X157034000Y-80016000D01*
X158496001Y-78553999D02*
X157795999Y-79254001D01*
X158496001Y-55976001D02*
X158496001Y-78553999D01*
X153850000Y-49320000D02*
X153850000Y-51330000D01*
X153850000Y-51330000D02*
X158496001Y-55976001D01*
X127000000Y-58460000D02*
X126460000Y-59000000D01*
X127000000Y-49320000D02*
X127000000Y-58460000D01*
D33*
X131650000Y-129490000D02*
X132666000Y-128474000D01*
X121434000Y-129490000D02*
X131650000Y-129490000D01*
X202988001Y-103775999D02*
X203750000Y-103014000D01*
X139625001Y-115574999D02*
X166525001Y-115574999D01*
X202676999Y-104087001D02*
X202988001Y-103775999D01*
X132666000Y-128474000D02*
X133714999Y-127425001D01*
X133714999Y-127425001D02*
X132618000Y-127425001D01*
X132618000Y-127425001D02*
X132241000Y-127048001D01*
X166525001Y-115574999D02*
X178012999Y-104087001D01*
X132241000Y-127048001D02*
X132241000Y-122959000D01*
X132241000Y-122959000D02*
X139625001Y-115574999D01*
X192287001Y-104087001D02*
X192287001Y-97712999D01*
X192287001Y-97712999D02*
X192300000Y-97700000D01*
X192287001Y-104087001D02*
X202676999Y-104087001D01*
X178012999Y-104087001D02*
X192287001Y-104087001D01*
X139099999Y-122200001D02*
X138300000Y-123000000D01*
X141525001Y-119774999D02*
X139099999Y-122200001D01*
X162961411Y-119774999D02*
X141525001Y-119774999D01*
X167261411Y-115474999D02*
X162961411Y-119774999D01*
X202672370Y-117500000D02*
X200647369Y-115474999D01*
X203750000Y-117500000D02*
X202672370Y-117500000D01*
X179025001Y-115474999D02*
X189600000Y-104900000D01*
X176374999Y-115474999D02*
X179025001Y-115474999D01*
X176374999Y-115474999D02*
X167261411Y-115474999D01*
X200647369Y-115474999D02*
X176374999Y-115474999D01*
X195940000Y-125920000D02*
X209780000Y-125920000D01*
X217700000Y-118000000D02*
X217700000Y-78100000D01*
X209780000Y-125920000D02*
X217700000Y-118000000D01*
X186831370Y-116600000D02*
X185700000Y-116600000D01*
X187697630Y-116600000D02*
X186831370Y-116600000D01*
X195940000Y-124842370D02*
X187697630Y-116600000D01*
X195940000Y-125920000D02*
X195940000Y-124842370D01*
X162200000Y-72780000D02*
X162200000Y-69800000D01*
X166970000Y-67260000D02*
X166980000Y-67250000D01*
X162200000Y-67260000D02*
X166970000Y-67260000D01*
D35*
X125758239Y-60462001D02*
X127537999Y-60462001D01*
X128238001Y-59761999D02*
X129000000Y-59000000D01*
X127537999Y-60462001D02*
X128238001Y-59761999D01*
X117112001Y-60462001D02*
X127537999Y-60462001D01*
X145350000Y-69110000D02*
X148890000Y-69110000D01*
X143500000Y-64600000D02*
X134600000Y-64600000D01*
X134600000Y-64600000D02*
X129000000Y-59000000D01*
X121100000Y-97000000D02*
X109300000Y-85200000D01*
X123000000Y-97000000D02*
X121100000Y-97000000D01*
X109300000Y-62700000D02*
X114325000Y-57675000D01*
X107350000Y-50700000D02*
X114325000Y-57675000D01*
X109300000Y-85200000D02*
X109300000Y-62700000D01*
X114325000Y-57675000D02*
X117112001Y-60462001D01*
X138100000Y-97000000D02*
X134300000Y-100800000D01*
X140000000Y-97000000D02*
X138100000Y-97000000D01*
X134300000Y-100800000D02*
X119100000Y-100800000D01*
X121100000Y-98800000D02*
X121100000Y-97000000D01*
X119100000Y-100800000D02*
X121100000Y-98800000D01*
D34*
X122043630Y-67316000D02*
X120966000Y-67316000D01*
X140076010Y-73954759D02*
X133437251Y-67316000D01*
X140076010Y-83276010D02*
X140076010Y-73954759D01*
X144276010Y-83276010D02*
X140076010Y-83276010D01*
X133437251Y-67316000D02*
X122043630Y-67316000D01*
X145350000Y-84350000D02*
X144276010Y-83276010D01*
X129700000Y-97000000D02*
X128080000Y-97000000D01*
X136600000Y-90100000D02*
X129700000Y-97000000D01*
X137010051Y-136094000D02*
X132666000Y-136094000D01*
X138000000Y-136094000D02*
X137010051Y-136094000D01*
X107520000Y-136094000D02*
X97614000Y-126188000D01*
X132666000Y-136094000D02*
X107520000Y-136094000D01*
X84718710Y-125367290D02*
X83898000Y-126188000D01*
X85358010Y-124727990D02*
X84718710Y-125367290D01*
X96153990Y-124727990D02*
X85358010Y-124727990D01*
X97614000Y-126188000D02*
X96153990Y-124727990D01*
X129700000Y-97000000D02*
X129700000Y-99400000D01*
X129700000Y-99400000D02*
X130000000Y-99700000D01*
X202900000Y-83000000D02*
X202540000Y-83000000D01*
X212900000Y-93000000D02*
X202900000Y-83000000D01*
D33*
X184863590Y-96600000D02*
X216975000Y-96600000D01*
X166338601Y-115124989D02*
X184863590Y-96600000D01*
X129110000Y-124156000D02*
X138141011Y-115124989D01*
X138141011Y-115124989D02*
X166338601Y-115124989D01*
X85326000Y-121500000D02*
X80898000Y-125928000D01*
X104820000Y-121500000D02*
X85326000Y-121500000D01*
X80898000Y-125928000D02*
X80898000Y-126188000D01*
X109300000Y-125980000D02*
X104820000Y-121500000D01*
X161355001Y-98274999D02*
X182220000Y-77410000D01*
X124815000Y-115800000D02*
X142340001Y-98274999D01*
X142340001Y-98274999D02*
X161355001Y-98274999D01*
X94614000Y-126448000D02*
X94614000Y-126188000D01*
X95614000Y-127448000D02*
X94614000Y-126448000D01*
X95874000Y-127448000D02*
X95614000Y-127448000D01*
X105545001Y-137119001D02*
X95874000Y-127448000D01*
X142562999Y-137119001D02*
X105545001Y-137119001D01*
X143588000Y-136094000D02*
X142562999Y-137119001D01*
X167389949Y-121700000D02*
X166400000Y-121700000D01*
X183682998Y-136080000D02*
X169302998Y-121700000D01*
X169302998Y-121700000D02*
X167389949Y-121700000D01*
X188320000Y-136080000D02*
X183682998Y-136080000D01*
D34*
X186600000Y-93200000D02*
X182500000Y-97300000D01*
X182220000Y-59630000D02*
X186600000Y-64010000D01*
X186600000Y-64010000D02*
X186600000Y-93200000D01*
D33*
X199238001Y-52238001D02*
X200000000Y-53000000D01*
X189789997Y-43174999D02*
X198852999Y-52238001D01*
X83075001Y-43174999D02*
X189789997Y-43174999D01*
X198852999Y-52238001D02*
X199238001Y-52238001D01*
X75550000Y-50700000D02*
X83075001Y-43174999D01*
X122043630Y-87636000D02*
X125500000Y-84179630D01*
X120966000Y-87636000D02*
X122043630Y-87636000D01*
X130876000Y-74190000D02*
X132650000Y-74190000D01*
X130236998Y-74190000D02*
X130876000Y-74190000D01*
X125500000Y-78926998D02*
X130236998Y-74190000D01*
X125500000Y-84179630D02*
X125500000Y-78926998D01*
X144325010Y-64258270D02*
X144325010Y-66774990D01*
X138200000Y-52900000D02*
X138200000Y-58133260D01*
X138200000Y-58133260D02*
X144325010Y-64258270D01*
X144325010Y-66774990D02*
X139700000Y-71400000D01*
X128770000Y-76730000D02*
X132650000Y-76730000D01*
X127200000Y-78300000D02*
X128770000Y-76730000D01*
X112825000Y-71900000D02*
X112825000Y-64025000D01*
X112825000Y-64025000D02*
X111300000Y-62500000D01*
X120966000Y-72396000D02*
X122396000Y-72396000D01*
X122396000Y-72396000D02*
X125000000Y-75000000D01*
X166428397Y-78598601D02*
X176901399Y-78598601D01*
X163700000Y-84100000D02*
X163700000Y-81326998D01*
X163700000Y-81326998D02*
X166428397Y-78598601D01*
X176901399Y-77648601D02*
X182220000Y-72330000D01*
X176901399Y-78598601D02*
X176901399Y-77648601D01*
X132650000Y-84350000D02*
X139050000Y-84350000D01*
X139050000Y-84350000D02*
X145000000Y-90300000D01*
X181356401Y-75733599D02*
X182220000Y-74870000D01*
X166572269Y-81138601D02*
X175951399Y-81138601D01*
X166310870Y-81400000D02*
X166572269Y-81138601D01*
X175951399Y-81138601D02*
X181356401Y-75733599D01*
X164700000Y-81400000D02*
X166310870Y-81400000D01*
D34*
X222260000Y-62600000D02*
X222000000Y-62600000D01*
X222000000Y-62600000D02*
X222000000Y-59600000D01*
X221200000Y-63400000D02*
X222000000Y-62600000D01*
X221200000Y-78100000D02*
X221200000Y-63400000D01*
D33*
X180720000Y-129100000D02*
X202800000Y-129100000D01*
X177520000Y-128400000D02*
X180020000Y-128400000D01*
X180020000Y-128400000D02*
X180720000Y-129100000D01*
X211300000Y-131640000D02*
X210420000Y-131640000D01*
X221840000Y-121100000D02*
X211300000Y-131640000D01*
X222100000Y-121100000D02*
X221840000Y-121100000D01*
X211100000Y-129100000D02*
X210420000Y-129100000D01*
X222100000Y-118100000D02*
X211100000Y-129100000D01*
D35*
X130000000Y-49060000D02*
X128250000Y-47310000D01*
X90315010Y-47984990D02*
X87600000Y-50700000D01*
X128250000Y-47310000D02*
X126406480Y-47310000D01*
X126406480Y-47310000D02*
X125731490Y-47984990D01*
X125731490Y-47984990D02*
X90315010Y-47984990D01*
D33*
X127765001Y-46825001D02*
X130000000Y-49060000D01*
X130000000Y-49060000D02*
X130000000Y-49320000D01*
X85424999Y-46825001D02*
X127765001Y-46825001D01*
X81550000Y-50700000D02*
X85424999Y-46825001D01*
X159308000Y-84830000D02*
X157034000Y-82556000D01*
X159308000Y-87902000D02*
X157034000Y-90176000D01*
X159308000Y-84830000D02*
X159308000Y-87902000D01*
X145350000Y-88156000D02*
X145350000Y-86890000D01*
X147370000Y-90176000D02*
X145350000Y-88156000D01*
X157034000Y-90176000D02*
X147370000Y-90176000D01*
X120204001Y-81794001D02*
X120966000Y-82556000D01*
X116900000Y-78490000D02*
X120204001Y-81794001D01*
X116900000Y-73922000D02*
X116900000Y-78490000D01*
X120966000Y-69856000D02*
X116900000Y-73922000D01*
X120204001Y-89414001D02*
X120966000Y-90176000D01*
X117800000Y-85722000D02*
X117800000Y-87010000D01*
X117800000Y-87010000D02*
X120204001Y-89414001D01*
X120966000Y-82556000D02*
X117800000Y-85722000D01*
X120966000Y-92426000D02*
X125540000Y-97000000D01*
X120966000Y-90176000D02*
X120966000Y-92426000D01*
X142540000Y-97000000D02*
X147370000Y-90176000D01*
X159308000Y-84830000D02*
X159508000Y-85030000D01*
X162200000Y-85000000D02*
X162170000Y-85030000D01*
X162200000Y-80400000D02*
X162200000Y-85000000D01*
X159508000Y-85030000D02*
X162170000Y-85030000D01*
X162170000Y-85030000D02*
X166980000Y-85030000D01*
X117934000Y-127458000D02*
X122506000Y-122886000D01*
X117934000Y-129490000D02*
X117934000Y-127458000D01*
X110289949Y-133600000D02*
X109300000Y-133600000D01*
X115074000Y-133600000D02*
X110289949Y-133600000D01*
X117934000Y-130740000D02*
X115074000Y-133600000D01*
X117934000Y-129490000D02*
X117934000Y-130740000D01*
X197460000Y-54077630D02*
X199982370Y-56600000D01*
X220890000Y-56600000D02*
X222000000Y-56600000D01*
X199982370Y-56600000D02*
X220890000Y-56600000D01*
X197460000Y-53000000D02*
X197460000Y-54077630D01*
X197460000Y-59122370D02*
X199982370Y-56600000D01*
X197460000Y-83000000D02*
X197460000Y-59122370D01*
X200380000Y-131640000D02*
X195940000Y-136080000D01*
X202800000Y-131640000D02*
X200380000Y-131640000D01*
X151800000Y-99400000D02*
X157000000Y-99400000D01*
X141814000Y-126700000D02*
X143588000Y-128474000D01*
X132966001Y-126700000D02*
X141814000Y-126700000D01*
X141814000Y-124486000D02*
X143300000Y-123000000D01*
X141814000Y-126700000D02*
X141814000Y-124486000D01*
X168280001Y-117299999D02*
X168980000Y-116600000D01*
X165374999Y-120205001D02*
X168280001Y-117299999D01*
X177274999Y-134092001D02*
X165374999Y-122192001D01*
X177274999Y-135974999D02*
X177274999Y-134092001D01*
X178400000Y-137100000D02*
X177274999Y-135974999D01*
X160167001Y-127774001D02*
X165374999Y-122566003D01*
X150383999Y-127774001D02*
X160167001Y-127774001D01*
X165374999Y-121925001D02*
X165374999Y-120205001D01*
X165374999Y-122566003D02*
X165374999Y-121925001D01*
X149684000Y-128474000D02*
X150383999Y-127774001D01*
X165374999Y-122192001D02*
X165374999Y-121925001D01*
X143588000Y-128474000D02*
X149684000Y-128474000D01*
X190800000Y-83000000D02*
X197460000Y-83000000D01*
X188600000Y-80800000D02*
X190800000Y-83000000D01*
X166980000Y-85030000D02*
X168510000Y-83500000D01*
X168510000Y-83500000D02*
X174800000Y-83500000D01*
X181739999Y-79950000D02*
X182220000Y-79950000D01*
X178189999Y-83500000D02*
X181739999Y-79950000D01*
M02*
