M48
; DRILL file {KiCad 5.1.2-f72e74a~84~ubuntu19.04.1} date Mi 23 Okt 2019 18:47:14 CEST
; FORMAT={-:-/ absolute / inch / decimal}
; #@! TF.CreationDate,2019-10-23T18:47:14+02:00
; #@! TF.GenerationSoftware,Kicad,Pcbnew,5.1.2-f72e74a~84~ubuntu19.04.1
; #@! TF.FileFunction,Plated,1,2,PTH
FMAT,2
INCH
T1C0.0157
T2C0.0276
T3C0.0300
T4C0.0315
T5C0.0354
T6C0.0394
T7C0.0400
T8C0.0402
T9C0.0591
T10C0.0610
T11C0.0906
T12C0.0984
%
G90
G05
T1
X4.3819Y-2.4606
X4.4419Y-2.8307
X4.501Y-2.2707
X4.914Y-4.5591
X4.9213Y-2.9528
X5.0079Y-3.0827
X5.1181Y-3.9252
X5.2349Y-4.9882
X5.378Y-3.5472
X5.4409Y-2.0827
X5.5Y-2.811
X5.6496Y-2.5433
X5.7087Y-3.5551
X5.8618Y-2.7209
X5.8917Y-2.1307
X5.9843Y-3.0709
X6.4449Y-3.311
X6.4843Y-3.2047
X6.6969Y-4.2441
X6.7047Y-3.563
X6.7795Y-3.374
X6.8819Y-3.2874
X7.0079Y-3.4488
X7.0154Y-3.2874
X7.0276Y-2.2677
X7.1969Y-3.6614
X7.4252Y-3.1811
X7.4291Y-3.685
X7.4646Y-4.1299
X7.5709Y-3.8465
X8.3819Y-3.6614
X8.4567Y-3.7441
X8.5423Y-3.8031
T2
X5.2231Y-5.058
X5.2231Y-5.358
X6.689Y-5.0551
X6.989Y-5.0551
X6.5512Y-4.7913
X6.5512Y-5.0913
X5.4331Y-5.058
X5.4331Y-5.358
X5.8931Y-5.058
X5.8931Y-5.358
X5.0831Y-4.588
X5.0831Y-4.888
X6.2902Y-5.0974
X6.2902Y-5.3974
X6.6528Y-4.5906
X6.9528Y-4.5906
X5.6531Y-5.058
X5.6531Y-5.358
X5.3543Y-1.9488
X5.3543Y-2.2488
X4.3031Y-4.9598
X4.3031Y-5.2598
X6.3858Y-2.8654
X6.3858Y-3.1654
T3
X7.4142Y-4.9575
X7.4142Y-5.3575
X7.5142Y-4.9575
X7.5142Y-5.3575
X7.6142Y-4.9575
X7.6142Y-5.3575
X7.7142Y-4.9575
X7.7142Y-5.3575
X7.774Y-3.2677
X7.874Y-3.2677
X7.974Y-3.2677
X4.9787Y-2.3228
X5.0787Y-2.3228
X5.1787Y-2.3228
X4.7624Y-2.6502
X4.7624Y-2.7502
X4.7624Y-2.8502
X4.7624Y-2.9502
X4.7624Y-3.0502
X4.7624Y-3.1502
X4.7624Y-3.2502
X4.7624Y-3.3502
X4.7624Y-3.4502
X4.7624Y-3.5502
X6.1824Y-2.6502
X6.1824Y-2.7502
X6.1824Y-2.8502
X6.1824Y-2.9502
X6.1824Y-3.0502
X6.1824Y-3.1502
X6.1824Y-3.2502
X6.1824Y-3.3502
X6.1824Y-3.4502
X6.1824Y-3.5502
X7.7264Y-4.0551
X7.7264Y-4.626
X7.874Y-4.0551
X8.0217Y-4.0557
X8.0217Y-4.626
X7.774Y-2.0866
X7.874Y-2.0866
X7.974Y-2.0866
T4
X6.1811Y-3.9134
X6.1811Y-4.0118
X5.9764Y-3.9134
X5.9764Y-4.0118
X5.4449Y-4.8425
X5.6417Y-4.8425
X8.5709Y-3.0748
X8.7087Y-3.0748
X6.6339Y-5.3031
X6.6339Y-5.4016
X7.0236Y-5.2992
X7.0236Y-5.3976
X7.9843Y-5.0827
X7.9843Y-5.1827
X8.2843Y-5.0827
X8.2843Y-5.1827
X6.985Y-3.8307
X7.085Y-3.8307
X7.185Y-3.8307
X7.1142Y-4.5906
X7.311Y-4.5906
T5
X6.3858Y-2.648
X6.3858Y-2.748
T6
X6.2913Y-4.7677
X6.2913Y-4.9677
X4.8425Y-3.8189
X4.9425Y-3.8189
X5.0425Y-3.8189
X4.6431Y-5.098
X4.7809Y-5.098
X4.6378Y-1.9654
X4.6378Y-2.1654
X4.8231Y-4.638
X4.8231Y-4.838
X5.5118Y-3.8189
X5.6118Y-3.8189
X5.7118Y-3.8189
T7
X6.574Y-2.0476
X6.574Y-2.1476
X6.574Y-2.2476
X6.574Y-2.3476
X6.574Y-2.4476
X6.574Y-2.5476
X6.574Y-2.6476
X6.574Y-2.7476
X6.574Y-2.8476
X6.574Y-2.9476
X6.574Y-3.0476
X6.574Y-3.1476
X6.574Y-3.2476
X6.574Y-3.3476
X6.574Y-3.4476
X7.174Y-2.0476
X7.174Y-2.1476
X7.174Y-2.2476
X7.174Y-2.3476
X7.174Y-2.4476
X7.174Y-2.5476
X7.174Y-2.6476
X7.174Y-2.7476
X7.174Y-2.8476
X7.174Y-2.9476
X7.174Y-3.0476
X7.174Y-3.1476
X7.174Y-3.2476
X7.174Y-3.3476
X7.174Y-3.4476
T8
X5.0Y-1.9417
X5.1181Y-1.9417
X3.185Y-4.968
X3.3031Y-4.968
X3.725Y-4.968
X3.8431Y-4.968
X2.645Y-4.968
X2.7631Y-4.968
X8.7402Y-2.2283
X8.7402Y-2.3465
X8.7402Y-2.4646
X8.7402Y-3.6181
X8.7402Y-3.7362
X8.7402Y-3.8543
X5.7028Y-1.9417
X5.8209Y-1.9417
X5.939Y-1.9417
X6.0571Y-1.9417
X8.7441Y-4.6496
X8.7441Y-4.7677
T9
X2.7126Y-4.3661
X2.7382Y-1.9961
X2.9744Y-1.9961
X3.2106Y-1.9961
X3.2146Y-4.3661
X3.4488Y-1.9961
X4.2264Y-1.9961
T10
X5.2224Y-2.7209
X5.2224Y-2.8209
X5.2224Y-2.9209
X5.2224Y-3.0209
X5.2224Y-3.1209
X5.2224Y-3.2209
X5.2224Y-3.3209
X5.2224Y-3.4209
X5.7224Y-2.7209
X5.7224Y-2.8209
X5.7224Y-2.9209
X5.7224Y-3.0209
X5.7224Y-3.1209
X5.7224Y-3.2209
X5.7224Y-3.3209
X5.7224Y-3.4209
T11
G00X7.6535Y-4.3524
M15
G01X7.6535Y-4.3484
M16
G05
G00X8.0945Y-4.3524
M15
G01X8.0945Y-4.3484
M16
G05
T12
G00X7.6299Y-1.6929
M15
G01X7.622Y-1.6929
M16
G05
G00X8.126Y-1.6929
M15
G01X8.1181Y-1.6929
M16
G05
G00X7.6299Y-2.874
M15
G01X7.622Y-2.874
M16
G05
G00X8.126Y-2.874
M15
G01X8.1181Y-2.874
M16
G05
T0
M30
