M48
; DRILL file {KiCad (5.1.4)-1} date 18.11.2019 19:22:11
; FORMAT={-:-/ absolute / inch / decimal}
; #@! TF.CreationDate,2019-11-18T19:22:11+01:00
; #@! TF.GenerationSoftware,Kicad,Pcbnew,(5.1.4)-1
; #@! TF.FileFunction,Plated,1,2,PTH
FMAT,2
INCH
T1C0.0157
T2C0.0276
T3C0.0300
T4C0.0315
T5C0.0354
T6C0.0394
T7C0.0400
T8C0.0402
T9C0.0551
T10C0.0591
T11C0.0610
T12C0.0906
T13C0.1063
%
G90
G05
T1
X6.122Y-2.6457
X6.378Y-2.5472
X7.2087Y-3.2184
X8.2046Y-4.3427
T2
X5.7087Y-4.6535
X5.7087Y-4.9535
X5.4331Y-4.6535
X5.4331Y-4.9535
X7.4606Y-3.7283
X7.4606Y-4.0283
X7.6969Y-4.826
X7.6969Y-5.126
X6.3583Y-3.0
X6.6583Y-3.0
X7.0374Y-2.5374
X7.3374Y-2.5374
X4.9488Y-2.6496
X4.9488Y-2.9496
X7.4606Y-4.2059
X7.4606Y-4.5059
X7.9724Y-4.2106
X7.9724Y-4.5106
X7.7165Y-3.7283
X7.7165Y-4.0283
X7.4606Y-4.826
X7.4606Y-5.126
T3
X7.0441Y-2.7114
X7.0441Y-2.8114
X7.0441Y-2.9114
X7.0441Y-3.0114
X7.4441Y-2.7114
X7.4441Y-2.8114
X7.4441Y-2.9114
X7.4441Y-3.0114
T4
X7.9315Y-4.8307
X7.9315Y-5.1307
X8.0315Y-4.8307
X8.0315Y-5.1307
X7.9035Y-2.9409
X7.9035Y-3.0394
X7.9035Y-2.6555
X7.9035Y-2.7539
X7.9724Y-3.7677
X7.9724Y-3.9646
X5.7972Y-3.374
X5.7972Y-3.4724
X7.7165Y-3.5315
X7.9134Y-3.5315
X7.5Y-3.2724
X7.5Y-3.3724
X7.5Y-3.4724
X5.5118Y-3.374
X5.5118Y-3.4724
X6.3634Y-2.6638
X6.3634Y-2.7638
X6.6634Y-2.6638
X6.6634Y-2.7638
X7.7165Y-4.2402
X7.7165Y-4.437
X7.9035Y-3.2461
X7.9035Y-3.3445
T5
X7.6181Y-4.6535
X7.7181Y-4.6535
T6
X8.3646Y-3.0984
X8.3661Y-2.5276
X8.4646Y-3.0984
X8.563Y-2.5276
X8.5646Y-3.0984
X4.7819Y-3.8465
X4.8819Y-3.8465
X4.9819Y-3.8465
X5.0598Y-3.2047
X5.2598Y-3.2047
X8.3268Y-5.1949
X8.4744Y-5.1949
X8.622Y-5.1949
X5.5217Y-2.7213
X5.5217Y-2.8213
X5.5217Y-2.9213
X8.3268Y-4.1909
X8.4744Y-4.1909
X8.622Y-4.1909
X6.0335Y-2.7213
X6.0335Y-2.8213
X6.0335Y-2.9213
T7
X6.511Y-3.3988
X6.511Y-3.4988
X6.511Y-3.5988
X6.511Y-3.6988
X6.511Y-3.7988
X6.511Y-3.8988
X6.511Y-3.9988
X6.511Y-4.0988
X6.511Y-4.1988
X6.511Y-4.2988
X6.511Y-4.3988
X6.511Y-4.4988
X6.511Y-4.5988
X6.511Y-4.6988
X6.511Y-4.7988
X7.111Y-3.3988
X7.111Y-3.4988
X7.111Y-3.5988
X7.111Y-3.6988
X7.111Y-3.7988
X7.111Y-3.8988
X7.111Y-3.9988
X7.111Y-4.0988
X7.111Y-4.1988
X7.111Y-4.2988
X7.111Y-4.3988
X7.111Y-4.4988
X7.111Y-4.5988
X7.111Y-4.6988
X7.111Y-4.7988
T8
X4.0039Y-5.3425
X4.122Y-5.3425
X4.7362Y-5.3425
X4.8543Y-5.3425
X4.9724Y-5.3425
X5.0906Y-5.3425
X7.0394Y-5.3465
X7.1575Y-5.3465
X7.2756Y-5.3465
T9
X6.1614Y-2.0709
X6.1614Y-2.4331
X6.3189Y-2.0709
X6.3189Y-2.4331
X6.4764Y-2.0709
X6.4764Y-2.4331
X6.2205Y-5.2992
X6.2205Y-5.6614
X6.378Y-5.2992
X6.378Y-5.6614
X6.7717Y-2.0709
X6.7717Y-2.4331
X6.9291Y-2.0709
X6.9291Y-2.4331
X7.5295Y-2.0709
X7.5295Y-2.4331
X7.687Y-2.0709
X7.687Y-2.4331
X7.8445Y-2.0709
X7.8445Y-2.4331
X5.3642Y-2.0709
X5.3642Y-2.4331
X5.5217Y-2.0709
X5.5217Y-2.4331
X7.9134Y-5.2992
X7.9134Y-5.6614
X8.0709Y-5.2992
X8.0709Y-5.6614
X5.6004Y-5.2992
X5.6004Y-5.6614
X5.7579Y-5.2992
X5.7579Y-5.6614
T10
X2.811Y-4.8858
X2.8366Y-2.5157
X3.0728Y-2.5157
X3.3091Y-2.5157
X3.313Y-4.8858
X3.5472Y-2.5157
X4.3248Y-2.5157
T11
X5.2028Y-3.7917
X5.2028Y-3.8917
X5.2028Y-3.9917
X5.2028Y-4.0917
X5.2028Y-4.1917
X5.2028Y-4.2917
X5.2028Y-4.3917
X5.2028Y-4.4917
X5.7028Y-3.7917
X5.7028Y-3.8917
X5.7028Y-3.9917
X5.7028Y-4.0917
X5.7028Y-4.1917
X5.7028Y-4.2917
X5.7028Y-4.3917
X5.7028Y-4.4917
T12
G00X8.189Y-2.8012
M15
G01X8.189Y-2.8051
M16
G05
G00X8.7402Y-2.8012
M15
G01X8.7402Y-2.8051
M16
G05
T13
G00X8.2264Y-4.8071
M15
G01X8.2264Y-4.7953
M16
G05
G00X8.7224Y-4.8071
M15
G01X8.7224Y-4.7953
M16
G05
G00X8.2264Y-3.8031
M15
G01X8.2264Y-3.7913
M16
G05
G00X8.7224Y-3.8031
M15
G01X8.7224Y-3.7913
M16
G05
T0
M30
