G04 #@! TF.GenerationSoftware,KiCad,Pcbnew,5.1.5-52549c5~84~ubuntu19.04.1*
G04 #@! TF.CreationDate,2020-01-25T14:44:11+01:00*
G04 #@! TF.ProjectId,upuaut_2Nils,75707561-7574-45f3-924e-696c732e6b69,rev?*
G04 #@! TF.SameCoordinates,Original*
G04 #@! TF.FileFunction,Soldermask,Bot*
G04 #@! TF.FilePolarity,Negative*
%FSLAX46Y46*%
G04 Gerber Fmt 4.6, Leading zero omitted, Abs format (unit mm)*
G04 Created by KiCad (PCBNEW 5.1.5-52549c5~84~ubuntu19.04.1) date 2020-01-25 14:44:11*
%MOMM*%
%LPD*%
G04 APERTURE LIST*
%ADD10C,2.500000*%
%ADD11C,1.524000*%
%ADD12C,2.000000*%
%ADD13R,3.000000X1.000000*%
%ADD14R,3.500000X3.500000*%
%ADD15C,1.750000*%
%ADD16O,2.540000X1.524000*%
%ADD17O,1.524000X2.540000*%
%ADD18R,2.540000X1.524000*%
%ADD19O,1.400000X1.400000*%
%ADD20C,1.400000*%
%ADD21O,1.500000X2.020000*%
%ADD22C,0.100000*%
%ADD23C,3.000000*%
%ADD24O,1.600000X1.600000*%
%ADD25R,1.600000X1.600000*%
%ADD26O,2.032000X3.048000*%
%ADD27R,3.000000X3.000000*%
%ADD28R,1.800000X1.800000*%
%ADD29C,1.800000*%
%ADD30C,1.440000*%
%ADD31O,2.000000X2.000000*%
%ADD32R,2.000000X2.000000*%
%ADD33C,1.600000*%
%ADD34C,1.300000*%
%ADD35R,1.700000X1.700000*%
%ADD36O,1.700000X1.700000*%
G04 APERTURE END LIST*
D10*
X190650000Y-134900000D03*
X177900000Y-134900000D03*
X216350000Y-74700000D03*
X196600000Y-74700000D03*
X190550000Y-74700000D03*
X184550000Y-74700000D03*
X178550000Y-74700000D03*
D11*
X160500000Y-98540000D03*
X160500000Y-96000000D03*
X160500000Y-93460000D03*
D12*
X210500000Y-53400000D03*
X202500000Y-53400000D03*
X210500000Y-62600000D03*
X202500000Y-62600000D03*
X206500000Y-53400000D03*
X206500000Y-62600000D03*
D13*
X193275000Y-123375000D03*
X199075000Y-123375000D03*
X199075000Y-114175000D03*
X193275000Y-114175000D03*
D14*
X202475000Y-118775000D03*
X189875000Y-118775000D03*
D15*
X192425000Y-128775000D03*
X196175000Y-128775000D03*
X199925000Y-128775000D03*
D12*
X106000000Y-62600000D03*
X106000000Y-53400000D03*
X102000000Y-62600000D03*
X110000000Y-62600000D03*
X102000000Y-53400000D03*
X110000000Y-53400000D03*
D16*
X148952000Y-112530000D03*
X148952000Y-115070000D03*
X148952000Y-117610000D03*
X148952000Y-120150000D03*
X148952000Y-122690000D03*
X152508000Y-112530000D03*
X152508000Y-115070000D03*
X152508000Y-117610000D03*
X152508000Y-120150000D03*
X152508000Y-122690000D03*
X152508000Y-125230000D03*
X148952000Y-125230000D03*
X152508000Y-127770000D03*
X148952000Y-127770000D03*
X147428000Y-130310000D03*
X147428000Y-132850000D03*
X147428000Y-135390000D03*
X147428000Y-140470000D03*
D17*
X157080000Y-109990000D03*
X154540000Y-109990000D03*
X152000000Y-109990000D03*
X149460000Y-109990000D03*
X146920000Y-109990000D03*
D16*
X144380000Y-143010000D03*
X144380000Y-140470000D03*
X144380000Y-137930000D03*
X144380000Y-135390000D03*
X144380000Y-132850000D03*
X144380000Y-130310000D03*
X144380000Y-127770000D03*
X144380000Y-125230000D03*
X144380000Y-122690000D03*
X144380000Y-120150000D03*
X144380000Y-117610000D03*
X144380000Y-115070000D03*
X144380000Y-112530000D03*
X144380000Y-109990000D03*
X159620000Y-109990000D03*
X159620000Y-112530000D03*
X159620000Y-115070000D03*
X159620000Y-117610000D03*
X159620000Y-120150000D03*
X159620000Y-122690000D03*
X159620000Y-125230000D03*
X159620000Y-127770000D03*
X159620000Y-130310000D03*
X159620000Y-132850000D03*
X159620000Y-135390000D03*
X159620000Y-137930000D03*
X159620000Y-140470000D03*
D18*
X159620000Y-143010000D03*
D19*
X87500000Y-86880000D03*
D20*
X87500000Y-94500000D03*
D21*
X131500000Y-61000000D03*
X128500000Y-61000000D03*
X125500000Y-61000000D03*
D22*
G36*
X123024504Y-59991204D02*
G01*
X123048773Y-59994804D01*
X123072571Y-60000765D01*
X123095671Y-60009030D01*
X123117849Y-60019520D01*
X123138893Y-60032133D01*
X123158598Y-60046747D01*
X123176777Y-60063223D01*
X123193253Y-60081402D01*
X123207867Y-60101107D01*
X123220480Y-60122151D01*
X123230970Y-60144329D01*
X123239235Y-60167429D01*
X123245196Y-60191227D01*
X123248796Y-60215496D01*
X123250000Y-60240000D01*
X123250000Y-61760000D01*
X123248796Y-61784504D01*
X123245196Y-61808773D01*
X123239235Y-61832571D01*
X123230970Y-61855671D01*
X123220480Y-61877849D01*
X123207867Y-61898893D01*
X123193253Y-61918598D01*
X123176777Y-61936777D01*
X123158598Y-61953253D01*
X123138893Y-61967867D01*
X123117849Y-61980480D01*
X123095671Y-61990970D01*
X123072571Y-61999235D01*
X123048773Y-62005196D01*
X123024504Y-62008796D01*
X123000000Y-62010000D01*
X122000000Y-62010000D01*
X121975496Y-62008796D01*
X121951227Y-62005196D01*
X121927429Y-61999235D01*
X121904329Y-61990970D01*
X121882151Y-61980480D01*
X121861107Y-61967867D01*
X121841402Y-61953253D01*
X121823223Y-61936777D01*
X121806747Y-61918598D01*
X121792133Y-61898893D01*
X121779520Y-61877849D01*
X121769030Y-61855671D01*
X121760765Y-61832571D01*
X121754804Y-61808773D01*
X121751204Y-61784504D01*
X121750000Y-61760000D01*
X121750000Y-60240000D01*
X121751204Y-60215496D01*
X121754804Y-60191227D01*
X121760765Y-60167429D01*
X121769030Y-60144329D01*
X121779520Y-60122151D01*
X121792133Y-60101107D01*
X121806747Y-60081402D01*
X121823223Y-60063223D01*
X121841402Y-60046747D01*
X121861107Y-60032133D01*
X121882151Y-60019520D01*
X121904329Y-60009030D01*
X121927429Y-60000765D01*
X121951227Y-59994804D01*
X121975496Y-59991204D01*
X122000000Y-59990000D01*
X123000000Y-59990000D01*
X123024504Y-59991204D01*
G37*
D23*
X129350000Y-56680000D03*
X124650000Y-56680000D03*
D21*
X165000000Y-61000000D03*
D22*
G36*
X162524504Y-59991204D02*
G01*
X162548773Y-59994804D01*
X162572571Y-60000765D01*
X162595671Y-60009030D01*
X162617849Y-60019520D01*
X162638893Y-60032133D01*
X162658598Y-60046747D01*
X162676777Y-60063223D01*
X162693253Y-60081402D01*
X162707867Y-60101107D01*
X162720480Y-60122151D01*
X162730970Y-60144329D01*
X162739235Y-60167429D01*
X162745196Y-60191227D01*
X162748796Y-60215496D01*
X162750000Y-60240000D01*
X162750000Y-61760000D01*
X162748796Y-61784504D01*
X162745196Y-61808773D01*
X162739235Y-61832571D01*
X162730970Y-61855671D01*
X162720480Y-61877849D01*
X162707867Y-61898893D01*
X162693253Y-61918598D01*
X162676777Y-61936777D01*
X162658598Y-61953253D01*
X162638893Y-61967867D01*
X162617849Y-61980480D01*
X162595671Y-61990970D01*
X162572571Y-61999235D01*
X162548773Y-62005196D01*
X162524504Y-62008796D01*
X162500000Y-62010000D01*
X161500000Y-62010000D01*
X161475496Y-62008796D01*
X161451227Y-62005196D01*
X161427429Y-61999235D01*
X161404329Y-61990970D01*
X161382151Y-61980480D01*
X161361107Y-61967867D01*
X161341402Y-61953253D01*
X161323223Y-61936777D01*
X161306747Y-61918598D01*
X161292133Y-61898893D01*
X161279520Y-61877849D01*
X161269030Y-61855671D01*
X161260765Y-61832571D01*
X161254804Y-61808773D01*
X161251204Y-61784504D01*
X161250000Y-61760000D01*
X161250000Y-60240000D01*
X161251204Y-60215496D01*
X161254804Y-60191227D01*
X161260765Y-60167429D01*
X161269030Y-60144329D01*
X161279520Y-60122151D01*
X161292133Y-60101107D01*
X161306747Y-60081402D01*
X161323223Y-60063223D01*
X161341402Y-60046747D01*
X161361107Y-60032133D01*
X161382151Y-60019520D01*
X161404329Y-60009030D01*
X161427429Y-60000765D01*
X161451227Y-59994804D01*
X161475496Y-59991204D01*
X161500000Y-59990000D01*
X162500000Y-59990000D01*
X162524504Y-59991204D01*
G37*
D23*
X163500000Y-56680000D03*
D21*
X150000000Y-61000000D03*
X147000000Y-61000000D03*
D22*
G36*
X144524504Y-59991204D02*
G01*
X144548773Y-59994804D01*
X144572571Y-60000765D01*
X144595671Y-60009030D01*
X144617849Y-60019520D01*
X144638893Y-60032133D01*
X144658598Y-60046747D01*
X144676777Y-60063223D01*
X144693253Y-60081402D01*
X144707867Y-60101107D01*
X144720480Y-60122151D01*
X144730970Y-60144329D01*
X144739235Y-60167429D01*
X144745196Y-60191227D01*
X144748796Y-60215496D01*
X144750000Y-60240000D01*
X144750000Y-61760000D01*
X144748796Y-61784504D01*
X144745196Y-61808773D01*
X144739235Y-61832571D01*
X144730970Y-61855671D01*
X144720480Y-61877849D01*
X144707867Y-61898893D01*
X144693253Y-61918598D01*
X144676777Y-61936777D01*
X144658598Y-61953253D01*
X144638893Y-61967867D01*
X144617849Y-61980480D01*
X144595671Y-61990970D01*
X144572571Y-61999235D01*
X144548773Y-62005196D01*
X144524504Y-62008796D01*
X144500000Y-62010000D01*
X143500000Y-62010000D01*
X143475496Y-62008796D01*
X143451227Y-62005196D01*
X143427429Y-61999235D01*
X143404329Y-61990970D01*
X143382151Y-61980480D01*
X143361107Y-61967867D01*
X143341402Y-61953253D01*
X143323223Y-61936777D01*
X143306747Y-61918598D01*
X143292133Y-61898893D01*
X143279520Y-61877849D01*
X143269030Y-61855671D01*
X143260765Y-61832571D01*
X143254804Y-61808773D01*
X143251204Y-61784504D01*
X143250000Y-61760000D01*
X143250000Y-60240000D01*
X143251204Y-60215496D01*
X143254804Y-60191227D01*
X143260765Y-60167429D01*
X143269030Y-60144329D01*
X143279520Y-60122151D01*
X143292133Y-60101107D01*
X143306747Y-60081402D01*
X143323223Y-60063223D01*
X143341402Y-60046747D01*
X143361107Y-60032133D01*
X143382151Y-60019520D01*
X143404329Y-60009030D01*
X143427429Y-60000765D01*
X143451227Y-59994804D01*
X143475496Y-59991204D01*
X143500000Y-59990000D01*
X144500000Y-59990000D01*
X144524504Y-59991204D01*
G37*
D23*
X147000000Y-56680000D03*
D12*
X190500000Y-62600000D03*
X190500000Y-53400000D03*
X186500000Y-62600000D03*
X194500000Y-62600000D03*
X186500000Y-53400000D03*
X194500000Y-53400000D03*
X175000000Y-62600000D03*
X179000000Y-62600000D03*
X175000000Y-53400000D03*
X179000000Y-53400000D03*
D24*
X114000000Y-126120000D03*
X111460000Y-118500000D03*
X111460000Y-126120000D03*
D25*
X114000000Y-118500000D03*
D12*
X82000000Y-62600000D03*
X86000000Y-62600000D03*
X82000000Y-53400000D03*
X86000000Y-53400000D03*
D26*
X153390000Y-105850000D03*
X150850000Y-105850000D03*
X148310000Y-105850000D03*
X145770000Y-105850000D03*
X143230000Y-105850000D03*
X140690000Y-105850000D03*
X138150000Y-105850000D03*
X135610000Y-105850000D03*
X135610000Y-93150000D03*
X138150000Y-93150000D03*
X140690000Y-93150000D03*
X143230000Y-93150000D03*
X145770000Y-93150000D03*
X148310000Y-93150000D03*
X150850000Y-93150000D03*
X153390000Y-93150000D03*
D11*
X122420000Y-117920000D03*
X124960000Y-117920000D03*
X127500000Y-117920000D03*
X130040000Y-117920000D03*
X130040000Y-128080000D03*
X127500000Y-128080000D03*
X124960000Y-128080000D03*
X122420000Y-128080000D03*
D15*
X93675000Y-111775000D03*
X98675000Y-111775000D03*
D27*
X103175000Y-118775000D03*
X89175000Y-118775000D03*
D15*
X96175000Y-126275000D03*
X98715000Y-126275000D03*
X93635000Y-126275000D03*
D28*
X162000000Y-69000000D03*
D29*
X164540000Y-69000000D03*
X167080000Y-69000000D03*
D28*
X144000000Y-69000000D03*
D29*
X146540000Y-69000000D03*
X149080000Y-69000000D03*
D24*
X114000000Y-114120000D03*
X111460000Y-106500000D03*
X111460000Y-114120000D03*
D25*
X114000000Y-106500000D03*
D30*
X88420000Y-138500000D03*
X90960000Y-138500000D03*
X93500000Y-138500000D03*
D19*
X100500000Y-134380000D03*
D20*
X100500000Y-142000000D03*
X137500000Y-134380000D03*
X137500000Y-142000000D03*
D19*
X118880000Y-78000000D03*
D20*
X126500000Y-78000000D03*
D19*
X116500000Y-86880000D03*
D20*
X116500000Y-94500000D03*
D19*
X132500000Y-134380000D03*
D20*
X132500000Y-142000000D03*
D19*
X82000000Y-86880000D03*
D20*
X82000000Y-94500000D03*
D19*
X105000000Y-86880000D03*
D20*
X105000000Y-94500000D03*
D19*
X122000000Y-134380000D03*
D20*
X122000000Y-142000000D03*
D19*
X76500000Y-86880000D03*
D20*
X76500000Y-94500000D03*
D19*
X115620000Y-78000000D03*
D20*
X108000000Y-78000000D03*
D19*
X105500000Y-142120000D03*
D20*
X105500000Y-134500000D03*
D31*
X160920000Y-104500000D03*
D32*
X166000000Y-104500000D03*
D29*
X103885000Y-98775000D03*
D28*
X106425000Y-98775000D03*
D33*
X109000000Y-68000000D03*
D25*
X109000000Y-70500000D03*
D33*
X119500000Y-70500000D03*
D25*
X119500000Y-68000000D03*
D33*
X119000000Y-113000000D03*
X124000000Y-113000000D03*
X101500000Y-76000000D03*
D25*
X99000000Y-76000000D03*
D33*
X117000000Y-100500000D03*
X112000000Y-100500000D03*
X133000000Y-65000000D03*
X133000000Y-70000000D03*
X149000000Y-79000000D03*
X149000000Y-76500000D03*
X168500000Y-77000000D03*
X168500000Y-74500000D03*
D28*
X100550000Y-98750000D03*
D29*
X98010000Y-98750000D03*
X91910000Y-98775000D03*
D28*
X94450000Y-98775000D03*
X88550000Y-98775000D03*
D29*
X86010000Y-98775000D03*
X84910000Y-65775000D03*
D28*
X87450000Y-65775000D03*
X210440000Y-65775000D03*
D29*
X207900000Y-65775000D03*
X201910000Y-65775000D03*
D28*
X204450000Y-65775000D03*
D12*
X215000000Y-62600000D03*
X215000000Y-53400000D03*
X219000000Y-53400000D03*
X219000000Y-62600000D03*
D33*
X144500000Y-76500000D03*
X144500000Y-79000000D03*
X164500000Y-76500000D03*
X164500000Y-79000000D03*
D20*
X111000000Y-142000000D03*
D19*
X111000000Y-134380000D03*
X116500000Y-134380000D03*
D20*
X116500000Y-142000000D03*
X99000000Y-94500000D03*
D19*
X99000000Y-86880000D03*
X93000000Y-86880000D03*
D20*
X93000000Y-94500000D03*
D19*
X127500000Y-134380000D03*
D20*
X127500000Y-142000000D03*
X111000000Y-94500000D03*
D19*
X111000000Y-86880000D03*
X127500000Y-86880000D03*
D20*
X127500000Y-94500000D03*
X122000000Y-94500000D03*
D19*
X122000000Y-86880000D03*
D34*
X152450000Y-76375000D03*
X159950000Y-81375000D03*
D12*
X154900000Y-78775000D03*
X157500000Y-78975000D03*
X137500000Y-78825000D03*
X134900000Y-78625000D03*
D34*
X139950000Y-81225000D03*
X132450000Y-76225000D03*
X82500000Y-76225000D03*
X90000000Y-81225000D03*
D12*
X84950000Y-78625000D03*
X87550000Y-78825000D03*
X207550000Y-78775000D03*
X204950000Y-78575000D03*
D34*
X210000000Y-81175000D03*
X202500000Y-76175000D03*
D35*
X69500000Y-115720000D03*
D36*
X69500000Y-118260000D03*
X69500000Y-120800000D03*
X69500000Y-123340000D03*
X69500000Y-125880000D03*
X69500000Y-128420000D03*
X69500000Y-130960000D03*
X69500000Y-133500000D03*
X69500000Y-136040000D03*
X69500000Y-138580000D03*
X69500000Y-109860000D03*
X69500000Y-107320000D03*
X69500000Y-104780000D03*
X69500000Y-102240000D03*
X69500000Y-99700000D03*
X69500000Y-97160000D03*
X69500000Y-94620000D03*
X69500000Y-92080000D03*
X69500000Y-89540000D03*
D35*
X69500000Y-87000000D03*
X69500000Y-58500000D03*
D36*
X69500000Y-61040000D03*
X69500000Y-63580000D03*
X69500000Y-66120000D03*
X69500000Y-68660000D03*
X69500000Y-71200000D03*
X69500000Y-73740000D03*
X69500000Y-76280000D03*
X69500000Y-78820000D03*
X69500000Y-81360000D03*
M02*
