G04 #@! TF.GenerationSoftware,KiCad,Pcbnew,5.1.5-52549c5~84~ubuntu19.04.1*
G04 #@! TF.CreationDate,2020-01-25T14:44:11+01:00*
G04 #@! TF.ProjectId,upuaut_2Nils,75707561-7574-45f3-924e-696c732e6b69,rev?*
G04 #@! TF.SameCoordinates,Original*
G04 #@! TF.FileFunction,Copper,L2,Bot*
G04 #@! TF.FilePolarity,Positive*
%FSLAX46Y46*%
G04 Gerber Fmt 4.6, Leading zero omitted, Abs format (unit mm)*
G04 Created by KiCad (PCBNEW 5.1.5-52549c5~84~ubuntu19.04.1) date 2020-01-25 14:44:11*
%MOMM*%
%LPD*%
G04 APERTURE LIST*
%ADD10C,0.300000*%
%ADD11C,2.500000*%
%ADD12C,1.524000*%
%ADD13C,2.000000*%
%ADD14R,3.000000X1.000000*%
%ADD15R,3.500000X3.500000*%
%ADD16C,1.750000*%
%ADD17O,2.540000X1.524000*%
%ADD18O,1.524000X2.540000*%
%ADD19R,2.540000X1.524000*%
%ADD20O,1.400000X1.400000*%
%ADD21C,1.400000*%
%ADD22O,1.500000X2.020000*%
%ADD23C,0.100000*%
%ADD24O,1.600000X1.600000*%
%ADD25R,1.600000X1.600000*%
%ADD26O,2.032000X3.048000*%
%ADD27R,3.000000X3.000000*%
%ADD28R,1.800000X1.800000*%
%ADD29C,1.800000*%
%ADD30C,1.440000*%
%ADD31O,2.000000X2.000000*%
%ADD32R,2.000000X2.000000*%
%ADD33C,1.600000*%
%ADD34C,1.300000*%
%ADD35R,1.700000X1.700000*%
%ADD36O,1.700000X1.700000*%
%ADD37C,1.000000*%
%ADD38C,0.800000*%
%ADD39C,1.000000*%
%ADD40C,0.250000*%
G04 APERTURE END LIST*
D10*
X183857142Y-91250000D02*
X183714285Y-91178571D01*
X183500000Y-91178571D01*
X183285714Y-91250000D01*
X183142857Y-91392857D01*
X183071428Y-91535714D01*
X183000000Y-91821428D01*
X183000000Y-92035714D01*
X183071428Y-92321428D01*
X183142857Y-92464285D01*
X183285714Y-92607142D01*
X183500000Y-92678571D01*
X183642857Y-92678571D01*
X183857142Y-92607142D01*
X183928571Y-92535714D01*
X183928571Y-92035714D01*
X183642857Y-92035714D01*
X184571428Y-92678571D02*
X184571428Y-91178571D01*
X185428571Y-92678571D01*
X185428571Y-91178571D01*
X186142857Y-92678571D02*
X186142857Y-91178571D01*
X186500000Y-91178571D01*
X186714285Y-91250000D01*
X186857142Y-91392857D01*
X186928571Y-91535714D01*
X187000000Y-91821428D01*
X187000000Y-92035714D01*
X186928571Y-92321428D01*
X186857142Y-92464285D01*
X186714285Y-92607142D01*
X186500000Y-92678571D01*
X186142857Y-92678571D01*
D11*
X190650000Y-134900000D03*
X177900000Y-134900000D03*
X216350000Y-74700000D03*
X196600000Y-74700000D03*
X190550000Y-74700000D03*
X184550000Y-74700000D03*
X178550000Y-74700000D03*
D12*
X160500000Y-98540000D03*
X160500000Y-96000000D03*
X160500000Y-93460000D03*
D13*
X210500000Y-53400000D03*
X202500000Y-53400000D03*
X210500000Y-62600000D03*
X202500000Y-62600000D03*
X206500000Y-53400000D03*
X206500000Y-62600000D03*
D14*
X193275000Y-123375000D03*
X199075000Y-123375000D03*
X199075000Y-114175000D03*
X193275000Y-114175000D03*
D15*
X202475000Y-118775000D03*
X189875000Y-118775000D03*
D16*
X192425000Y-128775000D03*
X196175000Y-128775000D03*
X199925000Y-128775000D03*
D13*
X106000000Y-62600000D03*
X106000000Y-53400000D03*
X102000000Y-62600000D03*
X110000000Y-62600000D03*
X102000000Y-53400000D03*
X110000000Y-53400000D03*
D17*
X148952000Y-112530000D03*
X148952000Y-115070000D03*
X148952000Y-117610000D03*
X148952000Y-120150000D03*
X148952000Y-122690000D03*
X152508000Y-112530000D03*
X152508000Y-115070000D03*
X152508000Y-117610000D03*
X152508000Y-120150000D03*
X152508000Y-122690000D03*
X152508000Y-125230000D03*
X148952000Y-125230000D03*
X152508000Y-127770000D03*
X148952000Y-127770000D03*
X147428000Y-130310000D03*
X147428000Y-132850000D03*
X147428000Y-135390000D03*
X147428000Y-140470000D03*
D18*
X157080000Y-109990000D03*
X154540000Y-109990000D03*
X152000000Y-109990000D03*
X149460000Y-109990000D03*
X146920000Y-109990000D03*
D17*
X144380000Y-143010000D03*
X144380000Y-140470000D03*
X144380000Y-137930000D03*
X144380000Y-135390000D03*
X144380000Y-132850000D03*
X144380000Y-130310000D03*
X144380000Y-127770000D03*
X144380000Y-125230000D03*
X144380000Y-122690000D03*
X144380000Y-120150000D03*
X144380000Y-117610000D03*
X144380000Y-115070000D03*
X144380000Y-112530000D03*
X144380000Y-109990000D03*
X159620000Y-109990000D03*
X159620000Y-112530000D03*
X159620000Y-115070000D03*
X159620000Y-117610000D03*
X159620000Y-120150000D03*
X159620000Y-122690000D03*
X159620000Y-125230000D03*
X159620000Y-127770000D03*
X159620000Y-130310000D03*
X159620000Y-132850000D03*
X159620000Y-135390000D03*
X159620000Y-137930000D03*
X159620000Y-140470000D03*
D19*
X159620000Y-143010000D03*
D20*
X87500000Y-86880000D03*
D21*
X87500000Y-94500000D03*
D22*
X131500000Y-61000000D03*
X128500000Y-61000000D03*
X125500000Y-61000000D03*
G04 #@! TA.AperFunction,ComponentPad*
D23*
G36*
X123024504Y-59991204D02*
G01*
X123048773Y-59994804D01*
X123072571Y-60000765D01*
X123095671Y-60009030D01*
X123117849Y-60019520D01*
X123138893Y-60032133D01*
X123158598Y-60046747D01*
X123176777Y-60063223D01*
X123193253Y-60081402D01*
X123207867Y-60101107D01*
X123220480Y-60122151D01*
X123230970Y-60144329D01*
X123239235Y-60167429D01*
X123245196Y-60191227D01*
X123248796Y-60215496D01*
X123250000Y-60240000D01*
X123250000Y-61760000D01*
X123248796Y-61784504D01*
X123245196Y-61808773D01*
X123239235Y-61832571D01*
X123230970Y-61855671D01*
X123220480Y-61877849D01*
X123207867Y-61898893D01*
X123193253Y-61918598D01*
X123176777Y-61936777D01*
X123158598Y-61953253D01*
X123138893Y-61967867D01*
X123117849Y-61980480D01*
X123095671Y-61990970D01*
X123072571Y-61999235D01*
X123048773Y-62005196D01*
X123024504Y-62008796D01*
X123000000Y-62010000D01*
X122000000Y-62010000D01*
X121975496Y-62008796D01*
X121951227Y-62005196D01*
X121927429Y-61999235D01*
X121904329Y-61990970D01*
X121882151Y-61980480D01*
X121861107Y-61967867D01*
X121841402Y-61953253D01*
X121823223Y-61936777D01*
X121806747Y-61918598D01*
X121792133Y-61898893D01*
X121779520Y-61877849D01*
X121769030Y-61855671D01*
X121760765Y-61832571D01*
X121754804Y-61808773D01*
X121751204Y-61784504D01*
X121750000Y-61760000D01*
X121750000Y-60240000D01*
X121751204Y-60215496D01*
X121754804Y-60191227D01*
X121760765Y-60167429D01*
X121769030Y-60144329D01*
X121779520Y-60122151D01*
X121792133Y-60101107D01*
X121806747Y-60081402D01*
X121823223Y-60063223D01*
X121841402Y-60046747D01*
X121861107Y-60032133D01*
X121882151Y-60019520D01*
X121904329Y-60009030D01*
X121927429Y-60000765D01*
X121951227Y-59994804D01*
X121975496Y-59991204D01*
X122000000Y-59990000D01*
X123000000Y-59990000D01*
X123024504Y-59991204D01*
G37*
G04 #@! TD.AperFunction*
D22*
X165000000Y-61000000D03*
G04 #@! TA.AperFunction,ComponentPad*
D23*
G36*
X162524504Y-59991204D02*
G01*
X162548773Y-59994804D01*
X162572571Y-60000765D01*
X162595671Y-60009030D01*
X162617849Y-60019520D01*
X162638893Y-60032133D01*
X162658598Y-60046747D01*
X162676777Y-60063223D01*
X162693253Y-60081402D01*
X162707867Y-60101107D01*
X162720480Y-60122151D01*
X162730970Y-60144329D01*
X162739235Y-60167429D01*
X162745196Y-60191227D01*
X162748796Y-60215496D01*
X162750000Y-60240000D01*
X162750000Y-61760000D01*
X162748796Y-61784504D01*
X162745196Y-61808773D01*
X162739235Y-61832571D01*
X162730970Y-61855671D01*
X162720480Y-61877849D01*
X162707867Y-61898893D01*
X162693253Y-61918598D01*
X162676777Y-61936777D01*
X162658598Y-61953253D01*
X162638893Y-61967867D01*
X162617849Y-61980480D01*
X162595671Y-61990970D01*
X162572571Y-61999235D01*
X162548773Y-62005196D01*
X162524504Y-62008796D01*
X162500000Y-62010000D01*
X161500000Y-62010000D01*
X161475496Y-62008796D01*
X161451227Y-62005196D01*
X161427429Y-61999235D01*
X161404329Y-61990970D01*
X161382151Y-61980480D01*
X161361107Y-61967867D01*
X161341402Y-61953253D01*
X161323223Y-61936777D01*
X161306747Y-61918598D01*
X161292133Y-61898893D01*
X161279520Y-61877849D01*
X161269030Y-61855671D01*
X161260765Y-61832571D01*
X161254804Y-61808773D01*
X161251204Y-61784504D01*
X161250000Y-61760000D01*
X161250000Y-60240000D01*
X161251204Y-60215496D01*
X161254804Y-60191227D01*
X161260765Y-60167429D01*
X161269030Y-60144329D01*
X161279520Y-60122151D01*
X161292133Y-60101107D01*
X161306747Y-60081402D01*
X161323223Y-60063223D01*
X161341402Y-60046747D01*
X161361107Y-60032133D01*
X161382151Y-60019520D01*
X161404329Y-60009030D01*
X161427429Y-60000765D01*
X161451227Y-59994804D01*
X161475496Y-59991204D01*
X161500000Y-59990000D01*
X162500000Y-59990000D01*
X162524504Y-59991204D01*
G37*
G04 #@! TD.AperFunction*
D22*
X150000000Y-61000000D03*
X147000000Y-61000000D03*
G04 #@! TA.AperFunction,ComponentPad*
D23*
G36*
X144524504Y-59991204D02*
G01*
X144548773Y-59994804D01*
X144572571Y-60000765D01*
X144595671Y-60009030D01*
X144617849Y-60019520D01*
X144638893Y-60032133D01*
X144658598Y-60046747D01*
X144676777Y-60063223D01*
X144693253Y-60081402D01*
X144707867Y-60101107D01*
X144720480Y-60122151D01*
X144730970Y-60144329D01*
X144739235Y-60167429D01*
X144745196Y-60191227D01*
X144748796Y-60215496D01*
X144750000Y-60240000D01*
X144750000Y-61760000D01*
X144748796Y-61784504D01*
X144745196Y-61808773D01*
X144739235Y-61832571D01*
X144730970Y-61855671D01*
X144720480Y-61877849D01*
X144707867Y-61898893D01*
X144693253Y-61918598D01*
X144676777Y-61936777D01*
X144658598Y-61953253D01*
X144638893Y-61967867D01*
X144617849Y-61980480D01*
X144595671Y-61990970D01*
X144572571Y-61999235D01*
X144548773Y-62005196D01*
X144524504Y-62008796D01*
X144500000Y-62010000D01*
X143500000Y-62010000D01*
X143475496Y-62008796D01*
X143451227Y-62005196D01*
X143427429Y-61999235D01*
X143404329Y-61990970D01*
X143382151Y-61980480D01*
X143361107Y-61967867D01*
X143341402Y-61953253D01*
X143323223Y-61936777D01*
X143306747Y-61918598D01*
X143292133Y-61898893D01*
X143279520Y-61877849D01*
X143269030Y-61855671D01*
X143260765Y-61832571D01*
X143254804Y-61808773D01*
X143251204Y-61784504D01*
X143250000Y-61760000D01*
X143250000Y-60240000D01*
X143251204Y-60215496D01*
X143254804Y-60191227D01*
X143260765Y-60167429D01*
X143269030Y-60144329D01*
X143279520Y-60122151D01*
X143292133Y-60101107D01*
X143306747Y-60081402D01*
X143323223Y-60063223D01*
X143341402Y-60046747D01*
X143361107Y-60032133D01*
X143382151Y-60019520D01*
X143404329Y-60009030D01*
X143427429Y-60000765D01*
X143451227Y-59994804D01*
X143475496Y-59991204D01*
X143500000Y-59990000D01*
X144500000Y-59990000D01*
X144524504Y-59991204D01*
G37*
G04 #@! TD.AperFunction*
D13*
X190500000Y-62600000D03*
X190500000Y-53400000D03*
X186500000Y-62600000D03*
X194500000Y-62600000D03*
X186500000Y-53400000D03*
X194500000Y-53400000D03*
X175000000Y-62600000D03*
X179000000Y-62600000D03*
X175000000Y-53400000D03*
X179000000Y-53400000D03*
D24*
X114000000Y-126120000D03*
X111460000Y-118500000D03*
X111460000Y-126120000D03*
D25*
X114000000Y-118500000D03*
D13*
X82000000Y-62600000D03*
X86000000Y-62600000D03*
X82000000Y-53400000D03*
X86000000Y-53400000D03*
D26*
X153390000Y-105850000D03*
X150850000Y-105850000D03*
X148310000Y-105850000D03*
X145770000Y-105850000D03*
X143230000Y-105850000D03*
X140690000Y-105850000D03*
X138150000Y-105850000D03*
X135610000Y-105850000D03*
X135610000Y-93150000D03*
X138150000Y-93150000D03*
X140690000Y-93150000D03*
X143230000Y-93150000D03*
X145770000Y-93150000D03*
X148310000Y-93150000D03*
X150850000Y-93150000D03*
X153390000Y-93150000D03*
D12*
X122420000Y-117920000D03*
X124960000Y-117920000D03*
X127500000Y-117920000D03*
X130040000Y-117920000D03*
X130040000Y-128080000D03*
X127500000Y-128080000D03*
X124960000Y-128080000D03*
X122420000Y-128080000D03*
D16*
X93675000Y-111775000D03*
X98675000Y-111775000D03*
D27*
X103175000Y-118775000D03*
X89175000Y-118775000D03*
D16*
X96175000Y-126275000D03*
X98715000Y-126275000D03*
X93635000Y-126275000D03*
D28*
X162000000Y-69000000D03*
D29*
X164540000Y-69000000D03*
X167080000Y-69000000D03*
D28*
X144000000Y-69000000D03*
D29*
X146540000Y-69000000D03*
X149080000Y-69000000D03*
D24*
X114000000Y-114120000D03*
X111460000Y-106500000D03*
X111460000Y-114120000D03*
D25*
X114000000Y-106500000D03*
D30*
X88420000Y-138500000D03*
X90960000Y-138500000D03*
X93500000Y-138500000D03*
D20*
X100500000Y-134380000D03*
D21*
X100500000Y-142000000D03*
X137500000Y-134380000D03*
X137500000Y-142000000D03*
D20*
X118880000Y-78000000D03*
D21*
X126500000Y-78000000D03*
D20*
X116500000Y-86880000D03*
D21*
X116500000Y-94500000D03*
D20*
X132500000Y-134380000D03*
D21*
X132500000Y-142000000D03*
D20*
X82000000Y-86880000D03*
D21*
X82000000Y-94500000D03*
D20*
X105000000Y-86880000D03*
D21*
X105000000Y-94500000D03*
D20*
X122000000Y-134380000D03*
D21*
X122000000Y-142000000D03*
D20*
X76500000Y-86880000D03*
D21*
X76500000Y-94500000D03*
D20*
X115620000Y-78000000D03*
D21*
X108000000Y-78000000D03*
D20*
X105500000Y-142120000D03*
D21*
X105500000Y-134500000D03*
D31*
X160920000Y-104500000D03*
D32*
X166000000Y-104500000D03*
D29*
X103885000Y-98775000D03*
D28*
X106425000Y-98775000D03*
D33*
X109000000Y-68000000D03*
D25*
X109000000Y-70500000D03*
D33*
X119500000Y-70500000D03*
D25*
X119500000Y-68000000D03*
D33*
X119000000Y-113000000D03*
X124000000Y-113000000D03*
X101500000Y-76000000D03*
D25*
X99000000Y-76000000D03*
D33*
X117000000Y-100500000D03*
X112000000Y-100500000D03*
X133000000Y-65000000D03*
X133000000Y-70000000D03*
X149000000Y-79000000D03*
X149000000Y-76500000D03*
X168500000Y-77000000D03*
X168500000Y-74500000D03*
D28*
X100550000Y-98750000D03*
D29*
X98010000Y-98750000D03*
X91910000Y-98775000D03*
D28*
X94450000Y-98775000D03*
X88550000Y-98775000D03*
D29*
X86010000Y-98775000D03*
X84910000Y-65775000D03*
D28*
X87450000Y-65775000D03*
X210440000Y-65775000D03*
D29*
X207900000Y-65775000D03*
X201910000Y-65775000D03*
D28*
X204450000Y-65775000D03*
D13*
X215000000Y-62600000D03*
X215000000Y-53400000D03*
X219000000Y-53400000D03*
X219000000Y-62600000D03*
D33*
X144500000Y-76500000D03*
X144500000Y-79000000D03*
X164500000Y-76500000D03*
X164500000Y-79000000D03*
D21*
X111000000Y-142000000D03*
D20*
X111000000Y-134380000D03*
X116500000Y-134380000D03*
D21*
X116500000Y-142000000D03*
X99000000Y-94500000D03*
D20*
X99000000Y-86880000D03*
X93000000Y-86880000D03*
D21*
X93000000Y-94500000D03*
D20*
X127500000Y-134380000D03*
D21*
X127500000Y-142000000D03*
X111000000Y-94500000D03*
D20*
X111000000Y-86880000D03*
X127500000Y-86880000D03*
D21*
X127500000Y-94500000D03*
X122000000Y-94500000D03*
D20*
X122000000Y-86880000D03*
D34*
X152450000Y-76375000D03*
X159950000Y-81375000D03*
D13*
X154900000Y-78775000D03*
X157500000Y-78975000D03*
X137500000Y-78825000D03*
X134900000Y-78625000D03*
D34*
X139950000Y-81225000D03*
X132450000Y-76225000D03*
X82500000Y-76225000D03*
X90000000Y-81225000D03*
D13*
X84950000Y-78625000D03*
X87550000Y-78825000D03*
X207550000Y-78775000D03*
X204950000Y-78575000D03*
D34*
X210000000Y-81175000D03*
X202500000Y-76175000D03*
D35*
X69500000Y-115720000D03*
D36*
X69500000Y-118260000D03*
X69500000Y-120800000D03*
X69500000Y-123340000D03*
X69500000Y-125880000D03*
X69500000Y-128420000D03*
X69500000Y-130960000D03*
X69500000Y-133500000D03*
X69500000Y-136040000D03*
X69500000Y-138580000D03*
X69500000Y-109860000D03*
X69500000Y-107320000D03*
X69500000Y-104780000D03*
X69500000Y-102240000D03*
X69500000Y-99700000D03*
X69500000Y-97160000D03*
X69500000Y-94620000D03*
X69500000Y-92080000D03*
X69500000Y-89540000D03*
D35*
X69500000Y-87000000D03*
X69500000Y-58500000D03*
D36*
X69500000Y-61040000D03*
X69500000Y-63580000D03*
X69500000Y-66120000D03*
X69500000Y-68660000D03*
X69500000Y-71200000D03*
X69500000Y-73740000D03*
X69500000Y-76280000D03*
X69500000Y-78820000D03*
X69500000Y-81360000D03*
D37*
X204450000Y-70950000D03*
X95500000Y-129150011D03*
X113000000Y-111000000D03*
X122625000Y-99525000D03*
X127900000Y-105050000D03*
X137950000Y-100975000D03*
X74449989Y-74600428D03*
D38*
X148500000Y-71000000D03*
X162512653Y-79987347D03*
X158500000Y-85000000D03*
X155500000Y-85446077D03*
X103500000Y-140500000D03*
X105700000Y-111325000D03*
X105775000Y-104025000D03*
X108568261Y-102756739D03*
X113275000Y-86850000D03*
X110000000Y-113000000D03*
X127950000Y-132725000D03*
X123660000Y-132750000D03*
X123600000Y-130050000D03*
X114000000Y-81775000D03*
X107097468Y-74097468D03*
X123884107Y-79590587D03*
X124750000Y-81775000D03*
X122262347Y-101212347D03*
X127375153Y-106849847D03*
X125650000Y-109700000D03*
X126550000Y-113755761D03*
D37*
X168000000Y-116700000D03*
X168475000Y-107725000D03*
X163325000Y-107925000D03*
X162000000Y-71633653D03*
X175000000Y-90000000D03*
D38*
X172000000Y-82500000D03*
X167000000Y-83500000D03*
D37*
X115000000Y-69475000D03*
X115000000Y-71975000D03*
X117500000Y-111000000D03*
X127975000Y-110500000D03*
X133500000Y-110000000D03*
X133500000Y-104000000D03*
D38*
X118950000Y-83225000D03*
X114725000Y-89775000D03*
X117425000Y-104050000D03*
X134835092Y-129500000D03*
X127500000Y-124269999D03*
X106500000Y-124269999D03*
X166219240Y-76619238D03*
X163500000Y-74500000D03*
X155624154Y-75624154D03*
X147840000Y-71998261D03*
X138000000Y-75624999D03*
X126800000Y-73000000D03*
X170000000Y-61500000D03*
X160619999Y-106297448D03*
X163099707Y-104953840D03*
X165000000Y-120500000D03*
X132000000Y-125000000D03*
X132052001Y-129000000D03*
X119000000Y-131275000D03*
X126483240Y-136776760D03*
X122500000Y-133000000D03*
X119183966Y-114816372D03*
X116015762Y-107134238D03*
X116906739Y-102431739D03*
X117275000Y-89150000D03*
X122350000Y-83450000D03*
X131819239Y-114480761D03*
X119900001Y-81500000D03*
X119750000Y-74025000D03*
X179050001Y-127574999D03*
X156342000Y-127407990D03*
X154868347Y-129631653D03*
X137500000Y-131000000D03*
X125487347Y-142987347D03*
X123000000Y-144000000D03*
X107000000Y-144000000D03*
D37*
X132000000Y-95500000D03*
X130500000Y-92500000D03*
X132000000Y-84500000D03*
X133500000Y-89500000D03*
X134000000Y-97000000D03*
X146000000Y-84500000D03*
X142000000Y-84000000D03*
X131150000Y-80000000D03*
X127000000Y-97000000D03*
X140404000Y-98500000D03*
X128500000Y-98500000D03*
D38*
X108500000Y-133500000D03*
X119000000Y-130274997D03*
X129000000Y-123500000D03*
X119000000Y-123500000D03*
X120012152Y-127987848D03*
X168500000Y-96000000D03*
X163500000Y-123000000D03*
X164000000Y-87500000D03*
X164487347Y-82987347D03*
X161000000Y-79000000D03*
X158500000Y-81000000D03*
X141487347Y-85446077D03*
X138000000Y-84500000D03*
X130650000Y-106900000D03*
X130375000Y-109150000D03*
X123825000Y-109119990D03*
X128050331Y-103361853D03*
X139827980Y-111102980D03*
X137412347Y-114412347D03*
X159000000Y-67700000D03*
X146550001Y-82500000D03*
X139000000Y-85446077D03*
X138079766Y-89043099D03*
X156500000Y-91500000D03*
X156637427Y-102362573D03*
X147987347Y-72987347D03*
X162000000Y-85446077D03*
X162830761Y-91830761D03*
X169152346Y-97377346D03*
X170000000Y-135500000D03*
X166975000Y-137221762D03*
X169775000Y-137150000D03*
X150512653Y-72512653D03*
X147461349Y-81736349D03*
X147487347Y-83487347D03*
X152000000Y-87346087D03*
X160500000Y-91447999D03*
X161980959Y-92963405D03*
X156000000Y-107500000D03*
X139000000Y-103000000D03*
X132000000Y-101000000D03*
X130000000Y-102000000D03*
X128004152Y-100995848D03*
X109300000Y-107925000D03*
X103450000Y-103375000D03*
X102074999Y-115074999D03*
X91912653Y-122612653D03*
X158658653Y-72658653D03*
X156000000Y-71150001D03*
X155512653Y-67512653D03*
X163300000Y-73500000D03*
X160500000Y-73500000D03*
X158000000Y-71150001D03*
X156512653Y-66512653D03*
X162725000Y-90500000D03*
X129000000Y-99800000D03*
X127052653Y-99552653D03*
X123754152Y-96745848D03*
D37*
X145974000Y-99800000D03*
D38*
X90654978Y-122845022D03*
X92478846Y-136521154D03*
D37*
X129000000Y-103950000D03*
D38*
X125071739Y-126353261D03*
X129000000Y-106974010D03*
X164575000Y-89025000D03*
X171550000Y-87450000D03*
X103000000Y-109849999D03*
X105775000Y-122000000D03*
X109500000Y-123544999D03*
X124000000Y-144775000D03*
X93000000Y-72000000D03*
X95000000Y-80500000D03*
X199500000Y-69000000D03*
X136500000Y-117000000D03*
X132004152Y-104995848D03*
X129290071Y-93128550D03*
X128450000Y-85500000D03*
X121500000Y-82500000D03*
X110500000Y-83500000D03*
X108725000Y-85000000D03*
X82000000Y-91000000D03*
X74554652Y-107770001D03*
X92000000Y-125000000D03*
X102987347Y-145512653D03*
X121000000Y-143275000D03*
X126000000Y-140500000D03*
X139500000Y-130000000D03*
X138500000Y-127000000D03*
X166482218Y-118977612D03*
X166500000Y-112000000D03*
X122300001Y-139500000D03*
X125000000Y-139000000D03*
X127931499Y-136406193D03*
X157000000Y-135000000D03*
X157085402Y-128076837D03*
X157151153Y-119584153D03*
X121249989Y-96420847D03*
X118000000Y-93500000D03*
X109000000Y-80000000D03*
X103000000Y-80000000D03*
X126043469Y-126954859D03*
X133950000Y-112950000D03*
X111275000Y-112350000D03*
X112275000Y-122550000D03*
X130900000Y-113500000D03*
X124000000Y-90500000D03*
X122000000Y-102500000D03*
X142235664Y-107669990D03*
X138550000Y-117875000D03*
X133573651Y-118148651D03*
X131852001Y-116475000D03*
X127400000Y-116100000D03*
X125350000Y-112300000D03*
X122325000Y-109119990D03*
X124599999Y-88250000D03*
X124599999Y-93175000D03*
X127487583Y-101852096D03*
X190500000Y-55200000D03*
X190500000Y-57999989D03*
X167500000Y-141000000D03*
X163219999Y-141000000D03*
X193000000Y-64500000D03*
X192000000Y-68000000D03*
X167000000Y-85500000D03*
D39*
X206250001Y-67575001D02*
X204450000Y-65775000D01*
X208764001Y-67575001D02*
X206250001Y-67575001D01*
X210440000Y-65899002D02*
X208764001Y-67575001D01*
X210440000Y-65775000D02*
X210440000Y-65899002D01*
X204450000Y-65775000D02*
X204450000Y-70950000D01*
X151275000Y-78775000D02*
X149000000Y-76500000D01*
X154900000Y-78775000D02*
X151275000Y-78775000D01*
X149000000Y-76500000D02*
X144500000Y-76500000D01*
X146540000Y-74460000D02*
X146540000Y-69000000D01*
X144500000Y-76500000D02*
X146540000Y-74460000D01*
X76480000Y-81360000D02*
X69500000Y-81360000D01*
X82000000Y-86880000D02*
X76480000Y-81360000D01*
X87450000Y-63875000D02*
X87450000Y-65775000D01*
X88725000Y-62600000D02*
X87450000Y-63875000D01*
X102000000Y-62600000D02*
X88725000Y-62600000D01*
X107400000Y-68000000D02*
X109000000Y-68000000D01*
X102000000Y-62600000D02*
X107400000Y-68000000D01*
X94450000Y-98899002D02*
X94450000Y-98775000D01*
X92774001Y-100575001D02*
X94450000Y-98899002D01*
X90350001Y-100575001D02*
X92774001Y-100575001D01*
X88550000Y-98775000D02*
X90350001Y-100575001D01*
X100550000Y-98874002D02*
X100550000Y-98750000D01*
X98874001Y-100550001D02*
X100550000Y-98874002D01*
X96225001Y-100550001D02*
X98874001Y-100550001D01*
X94450000Y-98775000D02*
X96225001Y-100550001D01*
X106425000Y-100220419D02*
X106425000Y-98775000D01*
X106070418Y-100575001D02*
X106425000Y-100220419D01*
X102375001Y-100575001D02*
X106070418Y-100575001D01*
X100550000Y-98750000D02*
X102375001Y-100575001D01*
X95500000Y-126950000D02*
X96175000Y-126275000D01*
X95500000Y-129150011D02*
X95500000Y-126950000D01*
X120757999Y-123877999D02*
X124960000Y-128080000D01*
X113000000Y-111000000D02*
X113707106Y-111000000D01*
X120757999Y-118050893D02*
X120757999Y-123877999D01*
X112328630Y-116500000D02*
X119000000Y-116500000D01*
X111460000Y-117368630D02*
X112328630Y-116500000D01*
X111460000Y-118500000D02*
X111460000Y-117368630D01*
X113707106Y-111000000D02*
X119000000Y-116500000D01*
X119000000Y-116500000D02*
X120757999Y-118050893D01*
X138150000Y-98225912D02*
X138150000Y-93150000D01*
X138150000Y-92472353D02*
X138150000Y-93150000D01*
X151643637Y-90725990D02*
X139896363Y-90725990D01*
X153390000Y-92472353D02*
X151643637Y-90725990D01*
X139896363Y-90725990D02*
X138150000Y-92472353D01*
X153390000Y-93150000D02*
X153390000Y-92472353D01*
X123562348Y-100712348D02*
X127900000Y-105050000D01*
X122625000Y-99525000D02*
X123562348Y-100462348D01*
X123562348Y-100462348D02*
X123562348Y-100712348D01*
X137950000Y-100267894D02*
X138150000Y-100067894D01*
X138150000Y-100067894D02*
X138150000Y-98225912D01*
X137950000Y-100975000D02*
X137950000Y-100267894D01*
X69500000Y-73740000D02*
X73589561Y-73740000D01*
X73589561Y-73740000D02*
X74449989Y-74600428D01*
X129278001Y-128841999D02*
X130040000Y-128080000D01*
X126702239Y-129742001D02*
X128377999Y-129742001D01*
X125040238Y-128080000D02*
X126702239Y-129742001D01*
X128377999Y-129742001D02*
X129278001Y-128841999D01*
X124960000Y-128080000D02*
X125040238Y-128080000D01*
D40*
X148500000Y-71573002D02*
X150164652Y-73237654D01*
X150164652Y-73237654D02*
X156310656Y-73237654D01*
X148500000Y-71000000D02*
X148500000Y-71573002D01*
X156310656Y-73237654D02*
X162512653Y-79439651D01*
X162512653Y-79439651D02*
X162512653Y-79987347D01*
X158500000Y-85000000D02*
X158053923Y-85446077D01*
X158053923Y-85446077D02*
X155500000Y-85446077D01*
X136185104Y-129222990D02*
X133408094Y-132000000D01*
X149544274Y-129222990D02*
X136185104Y-129222990D01*
X150912990Y-127854274D02*
X149544274Y-129222990D01*
X150912990Y-127319746D02*
X150912990Y-127854274D01*
X158100000Y-125230000D02*
X156647010Y-126682990D01*
X159620000Y-125230000D02*
X158100000Y-125230000D01*
X156647010Y-126682990D02*
X151549746Y-126682990D01*
X151549746Y-126682990D02*
X150912990Y-127319746D01*
X115620000Y-132000000D02*
X105500000Y-142120000D01*
X133408094Y-132000000D02*
X115620000Y-132000000D01*
X93635000Y-126275000D02*
X93635000Y-136015592D01*
X93635000Y-136015592D02*
X98119408Y-140500000D01*
X98119408Y-140500000D02*
X103500000Y-140500000D01*
X105700000Y-111325000D02*
X105700000Y-104100000D01*
X105700000Y-104100000D02*
X105775000Y-104025000D01*
X109743261Y-102756739D02*
X112000000Y-100500000D01*
X108568261Y-102756739D02*
X109743261Y-102756739D01*
X112000000Y-100500000D02*
X113275000Y-99225000D01*
X113275000Y-99225000D02*
X113275000Y-86850000D01*
X110000000Y-113000000D02*
X110000000Y-119001002D01*
X127950000Y-132725000D02*
X127384315Y-132725000D01*
X127359315Y-132750000D02*
X123660000Y-132750000D01*
X127384315Y-132725000D02*
X127359315Y-132750000D01*
X123600000Y-130050000D02*
X121048998Y-130050000D01*
X110000000Y-119001002D02*
X120936999Y-129938001D01*
X121048998Y-130050000D02*
X120936999Y-129938001D01*
X120936999Y-129938001D02*
X120998998Y-130000000D01*
X122420000Y-116842370D02*
X122420000Y-117920000D01*
X122420000Y-114754998D02*
X122420000Y-116842370D01*
X118525010Y-110860008D02*
X122420000Y-114754998D01*
X118525010Y-106355425D02*
X118525010Y-110860008D01*
X114000000Y-101830415D02*
X118525010Y-106355425D01*
X114000000Y-81775000D02*
X114000000Y-101830415D01*
X123200001Y-112200001D02*
X124000000Y-113000000D01*
X120524989Y-109524989D02*
X123200001Y-112200001D01*
X120524989Y-93821599D02*
X120524989Y-109524989D01*
X120625001Y-93721587D02*
X120524989Y-93821599D01*
X120550000Y-68000000D02*
X120625001Y-68075001D01*
X120625001Y-68075001D02*
X120625001Y-93721587D01*
X119500000Y-68000000D02*
X120550000Y-68000000D01*
X113900000Y-70500000D02*
X119500000Y-70500000D01*
X106000000Y-62600000D02*
X113900000Y-70500000D01*
X108585787Y-62600000D02*
X106000000Y-62600000D01*
X110000000Y-62600000D02*
X108585787Y-62600000D01*
X109000000Y-70500000D02*
X109000000Y-72194936D01*
X109000000Y-72194936D02*
X107097468Y-74097468D01*
X123884107Y-79590587D02*
X124750000Y-80456480D01*
X124750000Y-80456480D02*
X124750000Y-81775000D01*
X122262347Y-101212347D02*
X127375153Y-106325153D01*
X127375153Y-106325153D02*
X127375153Y-106849847D01*
X125650000Y-109700000D02*
X126550000Y-110600000D01*
X126550000Y-110600000D02*
X126550000Y-113755761D01*
D39*
X161919999Y-103500001D02*
X160920000Y-104500000D01*
X162500000Y-102920000D02*
X161919999Y-103500001D01*
X162500000Y-95540238D02*
X162500000Y-102920000D01*
X160500000Y-93540238D02*
X162500000Y-95540238D01*
X160500000Y-93460000D02*
X160500000Y-93540238D01*
X160920000Y-104500000D02*
X160000000Y-104500000D01*
X137500000Y-139099583D02*
X143072418Y-144672001D01*
X161610001Y-144672001D02*
X168275000Y-138007002D01*
X170449512Y-119149512D02*
X168000000Y-116700000D01*
X170449512Y-121530038D02*
X170449512Y-119149512D01*
X168275000Y-123704550D02*
X170449512Y-121530038D01*
X137500000Y-134380000D02*
X137500000Y-139099583D01*
X143072418Y-144672001D02*
X161610001Y-144672001D01*
X168275000Y-138007002D02*
X168275000Y-123704550D01*
X168475000Y-107725000D02*
X163525000Y-107725000D01*
X163525000Y-107725000D02*
X163325000Y-107925000D01*
X144000000Y-68875998D02*
X144000000Y-69000000D01*
X145675999Y-67199999D02*
X144000000Y-68875998D01*
X149944001Y-67199999D02*
X145675999Y-67199999D01*
X151744002Y-69000000D02*
X149944001Y-67199999D01*
X162000000Y-69000000D02*
X151744002Y-69000000D01*
X162000000Y-76500000D02*
X164500000Y-79000000D01*
X162000000Y-71633653D02*
X162000000Y-76500000D01*
X144000000Y-70900000D02*
X144000000Y-69000000D01*
X142799999Y-72100001D02*
X144000000Y-70900000D01*
X142799999Y-77316001D02*
X142799999Y-72100001D01*
X143683999Y-78200001D02*
X142799999Y-77316001D01*
X144200001Y-78200001D02*
X143683999Y-78200001D01*
X144500000Y-78500000D02*
X144200001Y-78200001D01*
X144500000Y-79000000D02*
X144500000Y-78500000D01*
X186380998Y-90000000D02*
X175000000Y-90000000D01*
X202930997Y-73450001D02*
X186380998Y-90000000D01*
X216350000Y-74700000D02*
X215100001Y-73450001D01*
X215100001Y-73450001D02*
X202930997Y-73450001D01*
X172000000Y-82500000D02*
X168000000Y-82500000D01*
X168000000Y-82500000D02*
X167000000Y-83500000D01*
X115000000Y-65613638D02*
X115000000Y-69475000D01*
X139400001Y-73900001D02*
X139400001Y-66306535D01*
X144500000Y-79000000D02*
X139400001Y-73900001D01*
X139400001Y-66306535D02*
X132183456Y-59089990D01*
X132183456Y-59089990D02*
X121523648Y-59089990D01*
X121523648Y-59089990D02*
X115000000Y-65613638D01*
X117500000Y-106779998D02*
X117500000Y-111000000D01*
X110305435Y-104799999D02*
X115520001Y-104799999D01*
X107800001Y-107305433D02*
X110305435Y-104799999D01*
X98811999Y-78699999D02*
X84209999Y-93301999D01*
X107800001Y-124894000D02*
X107800001Y-107305433D01*
X115000000Y-71975000D02*
X111058414Y-71975000D01*
X105349998Y-125570000D02*
X107124001Y-125570000D01*
X111058414Y-71975000D02*
X104333415Y-78699999D01*
X104333415Y-78699999D02*
X98811999Y-78699999D01*
X115520001Y-104799999D02*
X117500000Y-106779998D01*
X90441418Y-105870420D02*
X100774999Y-105870420D01*
X84209999Y-93301999D02*
X84209999Y-99639001D01*
X84209999Y-99639001D02*
X90441418Y-105870420D01*
X100774999Y-105870420D02*
X100774999Y-120995001D01*
X100774999Y-120995001D02*
X105349998Y-125570000D01*
X107124001Y-125570000D02*
X107800001Y-124894000D01*
X127975000Y-110500000D02*
X133000000Y-110500000D01*
X133000000Y-110500000D02*
X133500000Y-110000000D01*
X135610000Y-101890000D02*
X135610000Y-93150000D01*
X133500000Y-104000000D02*
X135610000Y-101890000D01*
D40*
X115620000Y-78000000D02*
X115620000Y-79895000D01*
X115620000Y-79895000D02*
X118950000Y-83225000D01*
X114725000Y-89775000D02*
X114725000Y-101350000D01*
X114725000Y-101350000D02*
X117425000Y-104050000D01*
X134835092Y-129500000D02*
X129835092Y-124500000D01*
X106500000Y-101595002D02*
X108000000Y-100095002D01*
X108000000Y-78989949D02*
X108000000Y-78000000D01*
X106500000Y-124500000D02*
X106500000Y-101595002D01*
X108000000Y-100095002D02*
X108000000Y-78989949D01*
X129835092Y-124500000D02*
X127730001Y-124500000D01*
X127730001Y-124500000D02*
X127500000Y-124269999D01*
X164665687Y-74500000D02*
X163500000Y-74500000D01*
X166219240Y-76619238D02*
X166219240Y-76053553D01*
X166219240Y-76053553D02*
X164665687Y-74500000D01*
X155624154Y-75624154D02*
X154270190Y-74270190D01*
X154270190Y-74270190D02*
X149729810Y-74270190D01*
X148071263Y-71998261D02*
X147840000Y-71998261D01*
X149729810Y-74270190D02*
X149729810Y-73656808D01*
X149729810Y-73656808D02*
X148071263Y-71998261D01*
X137500000Y-76124999D02*
X137500000Y-78825000D01*
X138000000Y-75624999D02*
X137500000Y-76124999D01*
X137500000Y-78825000D02*
X131675000Y-73000000D01*
X131675000Y-73000000D02*
X126800000Y-73000000D01*
X160619999Y-106297448D02*
X161756099Y-106297448D01*
X161756099Y-106297448D02*
X163099707Y-104953840D01*
X159970000Y-120500000D02*
X159620000Y-120150000D01*
X165000000Y-120500000D02*
X159970000Y-120500000D01*
X159620000Y-120150000D02*
X159620000Y-121162000D01*
X159620000Y-121162000D02*
X159544990Y-121237010D01*
X159544990Y-121237010D02*
X143421746Y-121237010D01*
X143421746Y-121237010D02*
X139658756Y-125000000D01*
X139658756Y-125000000D02*
X132000000Y-125000000D01*
X132052001Y-129000000D02*
X129777001Y-131275000D01*
X129777001Y-131275000D02*
X119000000Y-131275000D01*
X126483240Y-136776760D02*
X122706480Y-133000000D01*
X122706480Y-133000000D02*
X122500000Y-133000000D01*
X119183966Y-114816372D02*
X116015762Y-111648168D01*
X116015762Y-111648168D02*
X116015762Y-107134238D01*
X116906739Y-102431739D02*
X115474999Y-100999999D01*
X115474999Y-90950001D02*
X117275000Y-89150000D01*
X115474999Y-100999999D02*
X115474999Y-90950001D01*
X119900001Y-110565003D02*
X119900001Y-81500000D01*
X131819239Y-114480761D02*
X123815759Y-114480761D01*
X123815759Y-114480761D02*
X119900001Y-110565003D01*
X119905001Y-80929315D02*
X119905001Y-74180001D01*
X119900001Y-81500000D02*
X119900001Y-80934315D01*
X119905001Y-74180001D02*
X119750000Y-74025000D01*
X119900001Y-80934315D02*
X119905001Y-80929315D01*
X199925000Y-128775000D02*
X198687564Y-128775000D01*
X198687564Y-128775000D02*
X197487563Y-127574999D01*
X179050001Y-127574999D02*
X178998003Y-127574999D01*
X197487563Y-127574999D02*
X179050001Y-127574999D01*
X156342000Y-127407990D02*
X156342000Y-128158000D01*
X156342000Y-128158000D02*
X154868347Y-129631653D01*
X125487347Y-142495651D02*
X125487347Y-142987347D01*
X127007999Y-140974999D02*
X125487347Y-142495651D01*
X137500000Y-131000000D02*
X127525001Y-140974999D01*
X127525001Y-140974999D02*
X127007999Y-140974999D01*
X123000000Y-144000000D02*
X107000000Y-144000000D01*
D39*
X179149999Y-136149999D02*
X177900000Y-134900000D01*
X180050001Y-137050001D02*
X179149999Y-136149999D01*
X220900001Y-110427001D02*
X194277001Y-137050001D01*
X220900001Y-61687999D02*
X220900001Y-110427001D01*
X194277001Y-137050001D02*
X180050001Y-137050001D01*
X165000000Y-61000000D02*
X165000000Y-60740000D01*
X166440010Y-59299990D02*
X191700010Y-59299990D01*
X165000000Y-60740000D02*
X166440010Y-59299990D01*
X191700010Y-59299990D02*
X193000000Y-58000000D01*
X217212002Y-58000000D02*
X220900001Y-61687999D01*
X193000000Y-58000000D02*
X217212002Y-58000000D01*
X132000000Y-95500000D02*
X132000000Y-94000000D01*
X132000000Y-94000000D02*
X130500000Y-92500000D01*
X130631998Y-84500000D02*
X132000000Y-84500000D01*
X122500000Y-61000000D02*
X122500000Y-76368002D01*
X122500000Y-76368002D02*
X130631998Y-84500000D01*
X134500000Y-90500000D02*
X134500000Y-91042353D01*
X133500000Y-89500000D02*
X134500000Y-90500000D01*
X134500000Y-91042353D02*
X133693990Y-91848363D01*
X133693990Y-91848363D02*
X133693990Y-96693990D01*
X133693990Y-96693990D02*
X134000000Y-97000000D01*
X146000000Y-84500000D02*
X142500000Y-84500000D01*
X142500000Y-84500000D02*
X142000000Y-84000000D01*
X125500000Y-74350000D02*
X125500000Y-61000000D01*
X131150000Y-80000000D02*
X125500000Y-74350000D01*
X127000000Y-97000000D02*
X128500000Y-98500000D01*
X143230000Y-95674000D02*
X143230000Y-93150000D01*
X140404000Y-98500000D02*
X140404000Y-98500000D01*
X140404000Y-98500000D02*
X143230000Y-95674000D01*
X128500000Y-98500000D02*
X128500000Y-98500000D01*
D40*
X83184989Y-91195011D02*
X86800001Y-87579999D01*
X83184989Y-103815011D02*
X83184989Y-91195011D01*
X69125997Y-108495001D02*
X78504999Y-108495001D01*
X68324999Y-109295999D02*
X69125997Y-108495001D01*
X86800001Y-87579999D02*
X87500000Y-86880000D01*
X68324999Y-110424001D02*
X68324999Y-109295999D01*
X69675998Y-111775000D02*
X68324999Y-110424001D01*
X78504999Y-108495001D02*
X83184989Y-103815011D01*
X93675000Y-111775000D02*
X69675998Y-111775000D01*
X93675000Y-111775000D02*
X93675000Y-118675000D01*
X93675000Y-118675000D02*
X108500000Y-133500000D01*
X129471502Y-123500000D02*
X129000000Y-123500000D01*
X144380000Y-127770000D02*
X133741502Y-127770000D01*
X133741502Y-127770000D02*
X129471502Y-123500000D01*
X119000000Y-123500000D02*
X119000000Y-126975696D01*
X119000000Y-126975696D02*
X120012152Y-127987848D01*
X163605760Y-91105760D02*
X168500000Y-96000000D01*
X159930000Y-123000000D02*
X159620000Y-122690000D01*
X163500000Y-123000000D02*
X159930000Y-123000000D01*
X163605760Y-91105760D02*
X163605760Y-87894240D01*
X163605760Y-87894240D02*
X164000000Y-87500000D01*
X164487347Y-82987347D02*
X161000000Y-79500000D01*
X161000000Y-79500000D02*
X161000000Y-79000000D01*
X158500000Y-81000000D02*
X151000000Y-81000000D01*
X151000000Y-81000000D02*
X147500000Y-84500000D01*
X121507999Y-93474999D02*
X120974999Y-94007999D01*
X122388591Y-93474999D02*
X121507999Y-93474999D01*
X130142522Y-85721068D02*
X122388591Y-93474999D01*
X137652007Y-85721068D02*
X130142522Y-85721068D01*
X120974999Y-94007999D02*
X120974999Y-94992001D01*
X147500000Y-85000000D02*
X146778933Y-85721067D01*
X147500000Y-84500000D02*
X147500000Y-85000000D01*
X146778933Y-85721067D02*
X141762337Y-85721067D01*
X141762337Y-85721067D02*
X141487347Y-85446077D01*
X138000000Y-85373075D02*
X137652007Y-85721068D01*
X138000000Y-84500000D02*
X138000000Y-85373075D01*
X135610000Y-105850000D02*
X131700000Y-105850000D01*
X131700000Y-105850000D02*
X130650000Y-106900000D01*
X123969991Y-108974999D02*
X123825000Y-109119990D01*
X129634314Y-108974999D02*
X123969991Y-108974999D01*
X130375000Y-109150000D02*
X129809315Y-109150000D01*
X129809315Y-109150000D02*
X129634314Y-108974999D01*
X121974990Y-95991992D02*
X120974999Y-94992001D01*
X121974990Y-97412505D02*
X121974990Y-95991992D01*
X127650332Y-102961854D02*
X127524339Y-102961854D01*
X127524339Y-102961854D02*
X121974990Y-97412505D01*
X128050331Y-103361853D02*
X127650332Y-102961854D01*
X139827980Y-111102980D02*
X139827980Y-111996714D01*
X139827980Y-111996714D02*
X137412347Y-114412347D01*
X164164990Y-62535010D02*
X159000000Y-67700000D01*
X170000000Y-61500000D02*
X168964990Y-62535010D01*
X168964990Y-62535010D02*
X164164990Y-62535010D01*
X146550001Y-82500000D02*
X141946077Y-82500000D01*
X141946077Y-82500000D02*
X139000000Y-85446077D01*
X138079766Y-89043099D02*
X154043099Y-89043099D01*
X154043099Y-89043099D02*
X156500000Y-91500000D01*
X156637427Y-105007047D02*
X153644474Y-108000000D01*
X156637427Y-102362573D02*
X156637427Y-105007047D01*
X150850000Y-107624000D02*
X150850000Y-105850000D01*
X151226000Y-108000000D02*
X150850000Y-107624000D01*
X153644474Y-108000000D02*
X151226000Y-108000000D01*
X157736001Y-77249999D02*
X162000000Y-81513998D01*
X147987347Y-73553032D02*
X152184305Y-77749990D01*
X152184305Y-77749990D02*
X153668008Y-77749990D01*
X154167999Y-77249999D02*
X157736001Y-77249999D01*
X147987347Y-72987347D02*
X147987347Y-73553032D01*
X162000000Y-81513998D02*
X162000000Y-85446077D01*
X153668008Y-77749990D02*
X154167999Y-77249999D01*
X162830761Y-91830761D02*
X168377346Y-97377346D01*
X168377346Y-97377346D02*
X169152346Y-97377346D01*
X166230248Y-136477010D02*
X166975000Y-137221762D01*
X144380000Y-135390000D02*
X144380000Y-136402000D01*
X144455010Y-136477010D02*
X166230248Y-136477010D01*
X144380000Y-136402000D02*
X144455010Y-136477010D01*
X169775000Y-135725000D02*
X170000000Y-135500000D01*
X169775000Y-137150000D02*
X169775000Y-135725000D01*
X149979999Y-69899999D02*
X149080000Y-69000000D01*
X150505001Y-70425001D02*
X149979999Y-69899999D01*
X167468001Y-70425001D02*
X150505001Y-70425001D01*
X172568012Y-65324990D02*
X167468001Y-70425001D01*
X189736012Y-65324990D02*
X172568012Y-65324990D01*
X192461002Y-62600000D02*
X189736012Y-65324990D01*
X194500000Y-62600000D02*
X192461002Y-62600000D01*
X150512653Y-70432653D02*
X150505001Y-70425001D01*
X150512653Y-72512653D02*
X150512653Y-70432653D01*
X147461349Y-81736349D02*
X147461349Y-83461349D01*
X147461349Y-83461349D02*
X147487347Y-83487347D01*
X152000000Y-87346087D02*
X156398088Y-87346087D01*
X156398088Y-87346087D02*
X160500000Y-91447999D01*
X163824708Y-94807154D02*
X163824708Y-105301841D01*
X163824708Y-105301841D02*
X161101540Y-108025009D01*
X161980959Y-92963405D02*
X163824708Y-94807154D01*
X161101540Y-108025009D02*
X156525009Y-108025009D01*
X156525009Y-108025009D02*
X156000000Y-107500000D01*
X133924573Y-105025009D02*
X133075427Y-105025009D01*
X139000000Y-103000000D02*
X135949582Y-103000000D01*
X133075427Y-105025009D02*
X132000000Y-103949582D01*
X135949582Y-103000000D02*
X133924573Y-105025009D01*
X132000000Y-103949582D02*
X132000000Y-101000000D01*
X130000000Y-102000000D02*
X129008304Y-102000000D01*
X129008304Y-102000000D02*
X128004152Y-100995848D01*
X111974990Y-110599990D02*
X109300000Y-107925000D01*
X114000000Y-114120000D02*
X111974990Y-112094990D01*
X111974990Y-112094990D02*
X111974990Y-110599990D01*
X103450000Y-103375000D02*
X102074999Y-104750001D01*
X102074999Y-104750001D02*
X102074999Y-115074999D01*
X69500000Y-116820000D02*
X69500000Y-115720000D01*
X91420021Y-122120021D02*
X74800021Y-122120021D01*
X74800021Y-122120021D02*
X69500000Y-116820000D01*
X91912653Y-122612653D02*
X91420021Y-122120021D01*
X68650001Y-134349999D02*
X69500000Y-133500000D01*
X68650001Y-135190001D02*
X68650001Y-134349999D01*
X69500000Y-136040000D02*
X68650001Y-135190001D01*
X158658653Y-72658653D02*
X157508652Y-72658653D01*
X157508652Y-72658653D02*
X156000000Y-71150001D01*
X150000000Y-62000000D02*
X150000000Y-61000000D01*
X155512653Y-67512653D02*
X150000000Y-62000000D01*
X168500000Y-77000000D02*
X165000000Y-73500000D01*
X165000000Y-73500000D02*
X163300000Y-73500000D01*
X160500000Y-73500000D02*
X158150001Y-71150001D01*
X158150001Y-71150001D02*
X158000000Y-71150001D01*
X151000000Y-61000000D02*
X150000000Y-61000000D01*
X156512653Y-66512653D02*
X151000000Y-61000000D01*
X162725000Y-90500000D02*
X162105760Y-91119240D01*
X150850000Y-94924000D02*
X150850000Y-93150000D01*
X151125010Y-95199010D02*
X150850000Y-94924000D01*
X154028307Y-95199010D02*
X151125010Y-95199010D01*
X157054318Y-92172999D02*
X154028307Y-95199010D01*
X161117761Y-92172999D02*
X157054318Y-92172999D01*
X150850000Y-94924000D02*
X145974000Y-99800000D01*
X145974000Y-99800000D02*
X145974000Y-99800000D01*
X127052653Y-99552653D02*
X124245848Y-96745848D01*
X124245848Y-96745848D02*
X123754152Y-96745848D01*
X161117761Y-92107239D02*
X162105760Y-91119240D01*
X161117761Y-92172999D02*
X161117761Y-92107239D01*
X69620000Y-86880000D02*
X69500000Y-87000000D01*
X76500000Y-86880000D02*
X69620000Y-86880000D01*
X70702081Y-109860000D02*
X69500000Y-109860000D01*
X93536002Y-109860000D02*
X70702081Y-109860000D01*
X94576003Y-110900001D02*
X93536002Y-109860000D01*
X97800001Y-110900001D02*
X94576003Y-110900001D01*
X98675000Y-111775000D02*
X97800001Y-110900001D01*
X90654978Y-122845022D02*
X90654978Y-134697286D01*
X90654978Y-134697286D02*
X92478846Y-136521154D01*
X129000000Y-103950000D02*
X129000000Y-107000000D01*
X123025001Y-135405001D02*
X123025001Y-142492001D01*
X123025001Y-142492001D02*
X125533000Y-145000000D01*
X122000000Y-134380000D02*
X123025001Y-135405001D01*
X125533000Y-145000000D02*
X136313002Y-145000000D01*
X122000000Y-135369949D02*
X122000000Y-134380000D01*
X124725001Y-139798003D02*
X122000000Y-137073002D01*
X124725001Y-145123001D02*
X124725001Y-139798003D01*
X124348001Y-145500001D02*
X124725001Y-145123001D01*
X106726589Y-145500001D02*
X124348001Y-145500001D01*
X104024990Y-142798402D02*
X106726589Y-145500001D01*
X107013392Y-134380000D02*
X109049990Y-136416598D01*
X122000000Y-137073002D02*
X122000000Y-135369949D01*
X104024989Y-141441599D02*
X104024990Y-142798402D01*
X109049990Y-136416598D02*
X104024989Y-141441599D01*
X100500000Y-134380000D02*
X107013392Y-134380000D01*
X125071739Y-120348261D02*
X127500000Y-117920000D01*
X125071739Y-126353261D02*
X125071739Y-120348261D01*
X116500000Y-134380000D02*
X122000000Y-134380000D01*
X69500000Y-88100000D02*
X69500000Y-89540000D01*
X69500000Y-87000000D02*
X69500000Y-88100000D01*
X69500000Y-90742081D02*
X69500000Y-92080000D01*
X69500000Y-89540000D02*
X69500000Y-90742081D01*
X69500000Y-92080000D02*
X69500000Y-94620000D01*
X69500000Y-94620000D02*
X69500000Y-97160000D01*
X69500000Y-98362081D02*
X69500000Y-99700000D01*
X69500000Y-97160000D02*
X69500000Y-98362081D01*
X69500000Y-99700000D02*
X69500000Y-102240000D01*
X69500000Y-103442081D02*
X69500000Y-104780000D01*
X69500000Y-102240000D02*
X69500000Y-103442081D01*
X70349999Y-106470001D02*
X69500000Y-107320000D01*
X70349999Y-105629999D02*
X70349999Y-106470001D01*
X69500000Y-104780000D02*
X70349999Y-105629999D01*
X171550000Y-87604272D02*
X171550000Y-87450000D01*
X168775360Y-90378912D02*
X171550000Y-87604272D01*
X164575000Y-89025000D02*
X165928912Y-90378912D01*
X165928912Y-90378912D02*
X168775360Y-90378912D01*
X142860000Y-143010000D02*
X144380000Y-143010000D01*
X142784990Y-142934990D02*
X142860000Y-143010000D01*
X142784990Y-137851988D02*
X142784990Y-142934990D01*
X138088001Y-133154999D02*
X142784990Y-137851988D01*
X136911999Y-133154999D02*
X138088001Y-133154999D01*
X136274999Y-133791999D02*
X136911999Y-133154999D01*
X136274999Y-144961997D02*
X136274999Y-133791999D01*
X136313002Y-145000000D02*
X136274999Y-144961997D01*
X99000000Y-97760000D02*
X99000000Y-94500000D01*
X98010000Y-98750000D02*
X99000000Y-97760000D01*
X103885000Y-95615000D02*
X105000000Y-94500000D01*
X103885000Y-98775000D02*
X103885000Y-95615000D01*
X91910000Y-95590000D02*
X93000000Y-94500000D01*
X91910000Y-98775000D02*
X91910000Y-95590000D01*
X103000000Y-109849999D02*
X105775000Y-112624999D01*
X105775000Y-112624999D02*
X105775000Y-122000000D01*
X109500000Y-136602998D02*
X104474999Y-141627999D01*
X109500000Y-123544999D02*
X109500000Y-136602998D01*
X104474999Y-141627999D02*
X104474999Y-142612001D01*
X104474999Y-142612001D02*
X106637998Y-144775000D01*
X106637998Y-144775000D02*
X124000000Y-144775000D01*
X93000000Y-72000000D02*
X93000000Y-78500000D01*
X93000000Y-78500000D02*
X95000000Y-80500000D01*
X134388964Y-86621087D02*
X127500000Y-93510051D01*
X181878913Y-86621087D02*
X134388964Y-86621087D01*
X127500000Y-93510051D02*
X127500000Y-94500000D01*
X199500000Y-69000000D02*
X181878913Y-86621087D01*
X122699999Y-93800001D02*
X122000000Y-94500000D01*
X130328923Y-86171077D02*
X122699999Y-93800001D01*
X162328923Y-86171077D02*
X130328923Y-86171077D01*
X182725000Y-65775000D02*
X162328923Y-86171077D01*
X201910000Y-65775000D02*
X182725000Y-65775000D01*
X142944736Y-117000000D02*
X136500000Y-117000000D01*
X143421746Y-116522990D02*
X142944736Y-117000000D01*
X144972274Y-116522990D02*
X143421746Y-116522990D01*
X147878254Y-113617010D02*
X144972274Y-116522990D01*
X159112000Y-109990000D02*
X158100000Y-111002000D01*
X159620000Y-109990000D02*
X159112000Y-109990000D01*
X158100000Y-111002000D02*
X158100000Y-111510000D01*
X158100000Y-111510000D02*
X155992990Y-113617010D01*
X155992990Y-113617010D02*
X147878254Y-113617010D01*
X130974990Y-94813469D02*
X129290071Y-93128550D01*
X132004152Y-104995848D02*
X130974990Y-103966686D01*
X130974990Y-103966686D02*
X130974990Y-94813469D01*
X128450000Y-85500000D02*
X125450000Y-82500000D01*
X125450000Y-82500000D02*
X121500000Y-82500000D01*
X110500000Y-83500000D02*
X110225000Y-83500000D01*
X110225000Y-83500000D02*
X108725000Y-85000000D01*
X82000000Y-91000000D02*
X74554652Y-98445348D01*
X74554652Y-98445348D02*
X74554652Y-107770001D01*
X102495651Y-145512653D02*
X102987347Y-145512653D01*
X92000000Y-125000000D02*
X92000000Y-135017002D01*
X92000000Y-135017002D02*
X102495651Y-145512653D01*
X111000000Y-142000000D02*
X112275000Y-143275000D01*
X112275000Y-143275000D02*
X121000000Y-143275000D01*
X126000000Y-139362998D02*
X132007999Y-133354999D01*
X126000000Y-140500000D02*
X126000000Y-139362998D01*
X132007999Y-133354999D02*
X132992001Y-133354999D01*
X132992001Y-133354999D02*
X136347000Y-130000000D01*
X136347000Y-130000000D02*
X139500000Y-130000000D01*
X141722990Y-123777010D02*
X163795992Y-123777010D01*
X138500000Y-127000000D02*
X141722990Y-123777010D01*
X163795992Y-123777010D02*
X165725001Y-121848001D01*
X165725001Y-121848001D02*
X165725001Y-119734829D01*
X165725001Y-119734829D02*
X166482218Y-118977612D01*
X165970000Y-112530000D02*
X159620000Y-112530000D01*
X166500000Y-112000000D02*
X165970000Y-112530000D01*
X171255000Y-115070000D02*
X159620000Y-115070000D01*
X207550000Y-78775000D02*
X171255000Y-115070000D01*
X116500000Y-142000000D02*
X119800001Y-142000000D01*
X119800001Y-142000000D02*
X122300001Y-139500000D01*
X127931499Y-136634186D02*
X127931499Y-136406193D01*
X125000000Y-139000000D02*
X125565685Y-139000000D01*
X125565685Y-139000000D02*
X127931499Y-136634186D01*
X157000000Y-135000000D02*
X157000000Y-128162239D01*
X157000000Y-128162239D02*
X157085402Y-128076837D01*
X158100000Y-115070000D02*
X159620000Y-115070000D01*
X157151153Y-116018847D02*
X158100000Y-115070000D01*
X157151153Y-119584153D02*
X157151153Y-116018847D01*
X107507999Y-76974999D02*
X99000000Y-85482998D01*
X111474999Y-76974999D02*
X107507999Y-76974999D01*
X119000000Y-84500000D02*
X111474999Y-76974999D01*
X144380000Y-109990000D02*
X142860000Y-109990000D01*
X99000000Y-85482998D02*
X99000000Y-85890051D01*
X142860000Y-109990000D02*
X137644238Y-115205762D01*
X99000000Y-85890051D02*
X99000000Y-86880000D01*
X137644238Y-115205762D02*
X123904350Y-115205762D01*
X123904350Y-115205762D02*
X119000000Y-110301412D01*
X119000000Y-110301412D02*
X119000000Y-84500000D01*
X147370254Y-108394990D02*
X121105010Y-108394990D01*
X148007010Y-109031746D02*
X147370254Y-108394990D01*
X148007010Y-110948254D02*
X148007010Y-109031746D01*
X144380000Y-112530000D02*
X146425264Y-112530000D01*
X146425264Y-112530000D02*
X148007010Y-110948254D01*
X121105010Y-108394990D02*
X121000000Y-108289980D01*
X121000000Y-108289980D02*
X121000000Y-103500000D01*
X121000000Y-103500000D02*
X121000000Y-96670836D01*
X121000000Y-96670836D02*
X121249989Y-96420847D01*
X118000000Y-93500000D02*
X118000000Y-84500000D01*
X118000000Y-84500000D02*
X113500000Y-80000000D01*
X113500000Y-80000000D02*
X109000000Y-80000000D01*
X99880000Y-80000000D02*
X93000000Y-86880000D01*
X103000000Y-80000000D02*
X99880000Y-80000000D01*
X143872000Y-115070000D02*
X142860000Y-116082000D01*
X144380000Y-115070000D02*
X143872000Y-115070000D01*
X134614997Y-116082000D02*
X126043469Y-124653528D01*
X142860000Y-116082000D02*
X134614997Y-116082000D01*
X126043469Y-124653528D02*
X126043469Y-126954859D01*
X110875001Y-111950001D02*
X109976997Y-111950001D01*
X109976997Y-111950001D02*
X109274999Y-112651999D01*
X111275000Y-112350000D02*
X110875001Y-111950001D01*
X109274999Y-112651999D02*
X109274999Y-119549999D01*
X109274999Y-119549999D02*
X112275000Y-122550000D01*
X133400000Y-113500000D02*
X133950000Y-112950000D01*
X130900000Y-113500000D02*
X133400000Y-113500000D01*
X127500000Y-86880000D02*
X124000000Y-90380000D01*
X124000000Y-90380000D02*
X124000000Y-90500000D01*
X142206644Y-107699010D02*
X142235664Y-107669990D01*
X122000000Y-102500000D02*
X127199010Y-107699010D01*
X127199010Y-107699010D02*
X142206644Y-107699010D01*
X138550000Y-117875000D02*
X133847302Y-117875000D01*
X133847302Y-117875000D02*
X133573651Y-118148651D01*
X131852001Y-116475000D02*
X127775000Y-116475000D01*
X127775000Y-116475000D02*
X127400000Y-116100000D01*
X125350000Y-112300000D02*
X122325000Y-109275000D01*
X122325000Y-109275000D02*
X122325000Y-109119990D01*
X122000000Y-86880000D02*
X123229999Y-86880000D01*
X123229999Y-86880000D02*
X124599999Y-88250000D01*
X126834305Y-95974991D02*
X129549858Y-95974991D01*
X124599999Y-93175000D02*
X124599999Y-93740685D01*
X129549858Y-95974991D02*
X129850000Y-96275133D01*
X124599999Y-93740685D02*
X126834305Y-95974991D01*
X129850000Y-96275133D02*
X129850000Y-100850000D01*
X127553308Y-100125000D02*
X127378308Y-100300000D01*
X128206306Y-100125000D02*
X127553308Y-100125000D01*
X129850000Y-100850000D02*
X128931306Y-100850000D01*
X128931306Y-100850000D02*
X128206306Y-100125000D01*
X127400000Y-100375000D02*
X127400000Y-100300000D01*
X127378308Y-100396692D02*
X127400000Y-100375000D01*
X127378308Y-100300000D02*
X127400000Y-100300000D01*
X127279151Y-100399157D02*
X127378308Y-100300000D01*
X127279151Y-100880164D02*
X127279151Y-100399157D01*
X126841346Y-101317969D02*
X127279151Y-100880164D01*
X126841346Y-101317969D02*
X126953456Y-101317969D01*
X126953456Y-101317969D02*
X127487583Y-101852096D01*
X190500000Y-55200000D02*
X190500000Y-57999989D01*
X192425000Y-128775000D02*
X179725000Y-128775000D01*
X179725000Y-128775000D02*
X167500000Y-141000000D01*
X144455010Y-139382990D02*
X144380000Y-139458000D01*
X144380000Y-139458000D02*
X144380000Y-140470000D01*
X161602989Y-139382990D02*
X144455010Y-139382990D01*
X163219999Y-141000000D02*
X161602989Y-139382990D01*
D39*
X206500000Y-62600000D02*
X203900000Y-60000000D01*
X203900000Y-60000000D02*
X199061002Y-60000000D01*
X176081002Y-85500000D02*
X167000000Y-85500000D01*
X192000000Y-68000000D02*
X192000000Y-69581002D01*
X193000000Y-64500000D02*
X197125000Y-64500000D01*
X199061002Y-62563998D02*
X199061002Y-60000000D01*
X197125000Y-64500000D02*
X199061002Y-62563998D01*
X192000000Y-69581002D02*
X190993998Y-69581002D01*
X190993998Y-69581002D02*
X187150000Y-73425000D01*
X178800000Y-85500000D02*
X176081002Y-85500000D01*
X187150000Y-77150000D02*
X178800000Y-85500000D01*
X187150000Y-73425000D02*
X187150000Y-77150000D01*
M02*
