G04 #@! TF.GenerationSoftware,KiCad,Pcbnew,5.1.5-52549c5~84~ubuntu19.04.1*
G04 #@! TF.CreationDate,2020-01-25T14:44:11+01:00*
G04 #@! TF.ProjectId,upuaut_2Nils,75707561-7574-45f3-924e-696c732e6b69,rev?*
G04 #@! TF.SameCoordinates,Original*
G04 #@! TF.FileFunction,Paste,Top*
G04 #@! TF.FilePolarity,Positive*
%FSLAX46Y46*%
G04 Gerber Fmt 4.6, Leading zero omitted, Abs format (unit mm)*
G04 Created by KiCad (PCBNEW 5.1.5-52549c5~84~ubuntu19.04.1) date 2020-01-25 14:44:11*
%MOMM*%
%LPD*%
G04 APERTURE LIST*
%ADD10C,0.150000*%
%ADD11C,0.125000*%
G04 APERTURE END LIST*
D10*
X101619047Y-64571428D02*
X102380952Y-64571428D01*
X174619047Y-64571428D02*
X175380952Y-64571428D01*
X175000000Y-64952380D02*
X175000000Y-64190476D01*
X194619047Y-64571428D02*
X195380952Y-64571428D01*
X195000000Y-64952380D02*
X195000000Y-64190476D01*
X186119047Y-64571428D02*
X186880952Y-64571428D01*
X178619047Y-64571428D02*
X179380952Y-64571428D01*
D11*
X206535714Y-51464285D02*
X206607142Y-51488095D01*
X206630952Y-51511904D01*
X206654761Y-51559523D01*
X206654761Y-51630952D01*
X206630952Y-51678571D01*
X206607142Y-51702380D01*
X206559523Y-51726190D01*
X206369047Y-51726190D01*
X206369047Y-51226190D01*
X206535714Y-51226190D01*
X206583333Y-51250000D01*
X206607142Y-51273809D01*
X206630952Y-51321428D01*
X206630952Y-51369047D01*
X206607142Y-51416666D01*
X206583333Y-51440476D01*
X206535714Y-51464285D01*
X206369047Y-51464285D01*
X202380952Y-51583333D02*
X202619047Y-51583333D01*
X202333333Y-51726190D02*
X202500000Y-51226190D01*
X202666666Y-51726190D01*
X210178571Y-51726190D02*
X209940476Y-51726190D01*
X209940476Y-51226190D01*
X210345238Y-51464285D02*
X210511904Y-51464285D01*
X210583333Y-51726190D02*
X210345238Y-51726190D01*
X210345238Y-51226190D01*
X210583333Y-51226190D01*
X210797619Y-51726190D02*
X210797619Y-51226190D01*
X210916666Y-51226190D01*
X210988095Y-51250000D01*
X211035714Y-51297619D01*
X211059523Y-51345238D01*
X211083333Y-51440476D01*
X211083333Y-51511904D01*
X211059523Y-51607142D01*
X211035714Y-51654761D01*
X210988095Y-51702380D01*
X210916666Y-51726190D01*
X210797619Y-51726190D01*
D10*
X218619047Y-64571428D02*
X219380952Y-64571428D01*
X214619047Y-64571428D02*
X215380952Y-64571428D01*
X215000000Y-64952380D02*
X215000000Y-64190476D01*
X92566071Y-124602380D02*
X91994642Y-124602380D01*
X92280357Y-124602380D02*
X92280357Y-123602380D01*
X92185119Y-123745238D01*
X92089880Y-123840476D01*
X91994642Y-123888095D01*
X93423214Y-123935714D02*
X93423214Y-124602380D01*
X93185119Y-123554761D02*
X92947023Y-124269047D01*
X93566071Y-124269047D01*
X93994642Y-124554761D02*
X93994642Y-124602380D01*
X93947023Y-124697619D01*
X93899404Y-124745238D01*
X94613690Y-123602380D02*
X94708928Y-123602380D01*
X94804166Y-123650000D01*
X94851785Y-123697619D01*
X94899404Y-123792857D01*
X94947023Y-123983333D01*
X94947023Y-124221428D01*
X94899404Y-124411904D01*
X94851785Y-124507142D01*
X94804166Y-124554761D01*
X94708928Y-124602380D01*
X94613690Y-124602380D01*
X94518452Y-124554761D01*
X94470833Y-124507142D01*
X94423214Y-124411904D01*
X94375595Y-124221428D01*
X94375595Y-123983333D01*
X94423214Y-123792857D01*
X94470833Y-123697619D01*
X94518452Y-123650000D01*
X94613690Y-123602380D01*
X95280357Y-123602380D02*
X95947023Y-123602380D01*
X95518452Y-124602380D01*
X96804166Y-123602380D02*
X96327976Y-123602380D01*
X96280357Y-124078571D01*
X96327976Y-124030952D01*
X96423214Y-123983333D01*
X96661309Y-123983333D01*
X96756547Y-124030952D01*
X96804166Y-124078571D01*
X96851785Y-124173809D01*
X96851785Y-124411904D01*
X96804166Y-124507142D01*
X96756547Y-124554761D01*
X96661309Y-124602380D01*
X96423214Y-124602380D01*
X96327976Y-124554761D01*
X96280357Y-124507142D01*
X98042261Y-124602380D02*
X98042261Y-123935714D01*
X98042261Y-124030952D02*
X98089880Y-123983333D01*
X98185119Y-123935714D01*
X98327976Y-123935714D01*
X98423214Y-123983333D01*
X98470833Y-124078571D01*
X98470833Y-124602380D01*
X98470833Y-124078571D02*
X98518452Y-123983333D01*
X98613690Y-123935714D01*
X98756547Y-123935714D01*
X98851785Y-123983333D01*
X98899404Y-124078571D01*
X98899404Y-124602380D01*
X99375595Y-124602380D02*
X99375595Y-123935714D01*
X99375595Y-124030952D02*
X99423214Y-123983333D01*
X99518452Y-123935714D01*
X99661309Y-123935714D01*
X99756547Y-123983333D01*
X99804166Y-124078571D01*
X99804166Y-124602380D01*
X99804166Y-124078571D02*
X99851785Y-123983333D01*
X99947023Y-123935714D01*
X100089880Y-123935714D01*
X100185119Y-123983333D01*
X100232738Y-124078571D01*
X100232738Y-124602380D01*
X103175000Y-122850000D02*
X89100000Y-122850000D01*
X103175000Y-118925000D02*
X103175000Y-123436421D01*
X89100000Y-118925000D02*
X89100000Y-123436421D01*
X89100000Y-122850000D02*
X90226504Y-122263579D01*
X89100000Y-122850000D02*
X90226504Y-123436421D01*
X103175000Y-122850000D02*
X102048496Y-122263579D01*
X103175000Y-122850000D02*
X102048496Y-123436421D01*
M02*
