G04 #@! TF.GenerationSoftware,KiCad,Pcbnew,5.1.5-52549c5~84~ubuntu19.04.1*
G04 #@! TF.CreationDate,2020-01-25T14:44:11+01:00*
G04 #@! TF.ProjectId,upuaut_2Nils,75707561-7574-45f3-924e-696c732e6b69,rev?*
G04 #@! TF.SameCoordinates,Original*
G04 #@! TF.FileFunction,Copper,L1,Top*
G04 #@! TF.FilePolarity,Positive*
%FSLAX46Y46*%
G04 Gerber Fmt 4.6, Leading zero omitted, Abs format (unit mm)*
G04 Created by KiCad (PCBNEW 5.1.5-52549c5~84~ubuntu19.04.1) date 2020-01-25 14:44:11*
%MOMM*%
%LPD*%
G04 APERTURE LIST*
%ADD10C,2.500000*%
%ADD11C,1.524000*%
%ADD12C,2.000000*%
%ADD13R,3.000000X1.000000*%
%ADD14R,3.500000X3.500000*%
%ADD15C,1.750000*%
%ADD16O,2.540000X1.524000*%
%ADD17O,1.524000X2.540000*%
%ADD18R,2.540000X1.524000*%
%ADD19O,1.400000X1.400000*%
%ADD20C,1.400000*%
%ADD21O,1.500000X2.020000*%
%ADD22C,0.100000*%
%ADD23O,1.600000X1.600000*%
%ADD24R,1.600000X1.600000*%
%ADD25O,2.032000X3.048000*%
%ADD26R,3.000000X3.000000*%
%ADD27R,1.800000X1.800000*%
%ADD28C,1.800000*%
%ADD29C,1.440000*%
%ADD30O,2.000000X2.000000*%
%ADD31R,2.000000X2.000000*%
%ADD32C,1.600000*%
%ADD33C,1.300000*%
%ADD34R,1.700000X1.700000*%
%ADD35O,1.700000X1.700000*%
%ADD36C,1.000000*%
%ADD37C,0.800000*%
%ADD38C,1.000000*%
%ADD39C,0.250000*%
%ADD40C,0.254000*%
G04 APERTURE END LIST*
D10*
X190650000Y-134900000D03*
X177900000Y-134900000D03*
X216350000Y-74700000D03*
X196600000Y-74700000D03*
X190550000Y-74700000D03*
X184550000Y-74700000D03*
X178550000Y-74700000D03*
D11*
X160500000Y-98540000D03*
X160500000Y-96000000D03*
X160500000Y-93460000D03*
D12*
X210500000Y-53400000D03*
X202500000Y-53400000D03*
X210500000Y-62600000D03*
X202500000Y-62600000D03*
X206500000Y-53400000D03*
X206500000Y-62600000D03*
D13*
X193275000Y-123375000D03*
X199075000Y-123375000D03*
X199075000Y-114175000D03*
X193275000Y-114175000D03*
D14*
X202475000Y-118775000D03*
X189875000Y-118775000D03*
D15*
X192425000Y-128775000D03*
X196175000Y-128775000D03*
X199925000Y-128775000D03*
D12*
X106000000Y-62600000D03*
X106000000Y-53400000D03*
X102000000Y-62600000D03*
X110000000Y-62600000D03*
X102000000Y-53400000D03*
X110000000Y-53400000D03*
D16*
X148952000Y-112530000D03*
X148952000Y-115070000D03*
X148952000Y-117610000D03*
X148952000Y-120150000D03*
X148952000Y-122690000D03*
X152508000Y-112530000D03*
X152508000Y-115070000D03*
X152508000Y-117610000D03*
X152508000Y-120150000D03*
X152508000Y-122690000D03*
X152508000Y-125230000D03*
X148952000Y-125230000D03*
X152508000Y-127770000D03*
X148952000Y-127770000D03*
X147428000Y-130310000D03*
X147428000Y-132850000D03*
X147428000Y-135390000D03*
X147428000Y-140470000D03*
D17*
X157080000Y-109990000D03*
X154540000Y-109990000D03*
X152000000Y-109990000D03*
X149460000Y-109990000D03*
X146920000Y-109990000D03*
D16*
X144380000Y-143010000D03*
X144380000Y-140470000D03*
X144380000Y-137930000D03*
X144380000Y-135390000D03*
X144380000Y-132850000D03*
X144380000Y-130310000D03*
X144380000Y-127770000D03*
X144380000Y-125230000D03*
X144380000Y-122690000D03*
X144380000Y-120150000D03*
X144380000Y-117610000D03*
X144380000Y-115070000D03*
X144380000Y-112530000D03*
X144380000Y-109990000D03*
X159620000Y-109990000D03*
X159620000Y-112530000D03*
X159620000Y-115070000D03*
X159620000Y-117610000D03*
X159620000Y-120150000D03*
X159620000Y-122690000D03*
X159620000Y-125230000D03*
X159620000Y-127770000D03*
X159620000Y-130310000D03*
X159620000Y-132850000D03*
X159620000Y-135390000D03*
X159620000Y-137930000D03*
X159620000Y-140470000D03*
D18*
X159620000Y-143010000D03*
D19*
X87500000Y-86880000D03*
D20*
X87500000Y-94500000D03*
D21*
X131500000Y-61000000D03*
X128500000Y-61000000D03*
X125500000Y-61000000D03*
G04 #@! TA.AperFunction,ComponentPad*
D22*
G36*
X123024504Y-59991204D02*
G01*
X123048773Y-59994804D01*
X123072571Y-60000765D01*
X123095671Y-60009030D01*
X123117849Y-60019520D01*
X123138893Y-60032133D01*
X123158598Y-60046747D01*
X123176777Y-60063223D01*
X123193253Y-60081402D01*
X123207867Y-60101107D01*
X123220480Y-60122151D01*
X123230970Y-60144329D01*
X123239235Y-60167429D01*
X123245196Y-60191227D01*
X123248796Y-60215496D01*
X123250000Y-60240000D01*
X123250000Y-61760000D01*
X123248796Y-61784504D01*
X123245196Y-61808773D01*
X123239235Y-61832571D01*
X123230970Y-61855671D01*
X123220480Y-61877849D01*
X123207867Y-61898893D01*
X123193253Y-61918598D01*
X123176777Y-61936777D01*
X123158598Y-61953253D01*
X123138893Y-61967867D01*
X123117849Y-61980480D01*
X123095671Y-61990970D01*
X123072571Y-61999235D01*
X123048773Y-62005196D01*
X123024504Y-62008796D01*
X123000000Y-62010000D01*
X122000000Y-62010000D01*
X121975496Y-62008796D01*
X121951227Y-62005196D01*
X121927429Y-61999235D01*
X121904329Y-61990970D01*
X121882151Y-61980480D01*
X121861107Y-61967867D01*
X121841402Y-61953253D01*
X121823223Y-61936777D01*
X121806747Y-61918598D01*
X121792133Y-61898893D01*
X121779520Y-61877849D01*
X121769030Y-61855671D01*
X121760765Y-61832571D01*
X121754804Y-61808773D01*
X121751204Y-61784504D01*
X121750000Y-61760000D01*
X121750000Y-60240000D01*
X121751204Y-60215496D01*
X121754804Y-60191227D01*
X121760765Y-60167429D01*
X121769030Y-60144329D01*
X121779520Y-60122151D01*
X121792133Y-60101107D01*
X121806747Y-60081402D01*
X121823223Y-60063223D01*
X121841402Y-60046747D01*
X121861107Y-60032133D01*
X121882151Y-60019520D01*
X121904329Y-60009030D01*
X121927429Y-60000765D01*
X121951227Y-59994804D01*
X121975496Y-59991204D01*
X122000000Y-59990000D01*
X123000000Y-59990000D01*
X123024504Y-59991204D01*
G37*
G04 #@! TD.AperFunction*
D21*
X165000000Y-61000000D03*
G04 #@! TA.AperFunction,ComponentPad*
D22*
G36*
X162524504Y-59991204D02*
G01*
X162548773Y-59994804D01*
X162572571Y-60000765D01*
X162595671Y-60009030D01*
X162617849Y-60019520D01*
X162638893Y-60032133D01*
X162658598Y-60046747D01*
X162676777Y-60063223D01*
X162693253Y-60081402D01*
X162707867Y-60101107D01*
X162720480Y-60122151D01*
X162730970Y-60144329D01*
X162739235Y-60167429D01*
X162745196Y-60191227D01*
X162748796Y-60215496D01*
X162750000Y-60240000D01*
X162750000Y-61760000D01*
X162748796Y-61784504D01*
X162745196Y-61808773D01*
X162739235Y-61832571D01*
X162730970Y-61855671D01*
X162720480Y-61877849D01*
X162707867Y-61898893D01*
X162693253Y-61918598D01*
X162676777Y-61936777D01*
X162658598Y-61953253D01*
X162638893Y-61967867D01*
X162617849Y-61980480D01*
X162595671Y-61990970D01*
X162572571Y-61999235D01*
X162548773Y-62005196D01*
X162524504Y-62008796D01*
X162500000Y-62010000D01*
X161500000Y-62010000D01*
X161475496Y-62008796D01*
X161451227Y-62005196D01*
X161427429Y-61999235D01*
X161404329Y-61990970D01*
X161382151Y-61980480D01*
X161361107Y-61967867D01*
X161341402Y-61953253D01*
X161323223Y-61936777D01*
X161306747Y-61918598D01*
X161292133Y-61898893D01*
X161279520Y-61877849D01*
X161269030Y-61855671D01*
X161260765Y-61832571D01*
X161254804Y-61808773D01*
X161251204Y-61784504D01*
X161250000Y-61760000D01*
X161250000Y-60240000D01*
X161251204Y-60215496D01*
X161254804Y-60191227D01*
X161260765Y-60167429D01*
X161269030Y-60144329D01*
X161279520Y-60122151D01*
X161292133Y-60101107D01*
X161306747Y-60081402D01*
X161323223Y-60063223D01*
X161341402Y-60046747D01*
X161361107Y-60032133D01*
X161382151Y-60019520D01*
X161404329Y-60009030D01*
X161427429Y-60000765D01*
X161451227Y-59994804D01*
X161475496Y-59991204D01*
X161500000Y-59990000D01*
X162500000Y-59990000D01*
X162524504Y-59991204D01*
G37*
G04 #@! TD.AperFunction*
D21*
X150000000Y-61000000D03*
X147000000Y-61000000D03*
G04 #@! TA.AperFunction,ComponentPad*
D22*
G36*
X144524504Y-59991204D02*
G01*
X144548773Y-59994804D01*
X144572571Y-60000765D01*
X144595671Y-60009030D01*
X144617849Y-60019520D01*
X144638893Y-60032133D01*
X144658598Y-60046747D01*
X144676777Y-60063223D01*
X144693253Y-60081402D01*
X144707867Y-60101107D01*
X144720480Y-60122151D01*
X144730970Y-60144329D01*
X144739235Y-60167429D01*
X144745196Y-60191227D01*
X144748796Y-60215496D01*
X144750000Y-60240000D01*
X144750000Y-61760000D01*
X144748796Y-61784504D01*
X144745196Y-61808773D01*
X144739235Y-61832571D01*
X144730970Y-61855671D01*
X144720480Y-61877849D01*
X144707867Y-61898893D01*
X144693253Y-61918598D01*
X144676777Y-61936777D01*
X144658598Y-61953253D01*
X144638893Y-61967867D01*
X144617849Y-61980480D01*
X144595671Y-61990970D01*
X144572571Y-61999235D01*
X144548773Y-62005196D01*
X144524504Y-62008796D01*
X144500000Y-62010000D01*
X143500000Y-62010000D01*
X143475496Y-62008796D01*
X143451227Y-62005196D01*
X143427429Y-61999235D01*
X143404329Y-61990970D01*
X143382151Y-61980480D01*
X143361107Y-61967867D01*
X143341402Y-61953253D01*
X143323223Y-61936777D01*
X143306747Y-61918598D01*
X143292133Y-61898893D01*
X143279520Y-61877849D01*
X143269030Y-61855671D01*
X143260765Y-61832571D01*
X143254804Y-61808773D01*
X143251204Y-61784504D01*
X143250000Y-61760000D01*
X143250000Y-60240000D01*
X143251204Y-60215496D01*
X143254804Y-60191227D01*
X143260765Y-60167429D01*
X143269030Y-60144329D01*
X143279520Y-60122151D01*
X143292133Y-60101107D01*
X143306747Y-60081402D01*
X143323223Y-60063223D01*
X143341402Y-60046747D01*
X143361107Y-60032133D01*
X143382151Y-60019520D01*
X143404329Y-60009030D01*
X143427429Y-60000765D01*
X143451227Y-59994804D01*
X143475496Y-59991204D01*
X143500000Y-59990000D01*
X144500000Y-59990000D01*
X144524504Y-59991204D01*
G37*
G04 #@! TD.AperFunction*
D12*
X190500000Y-62600000D03*
X190500000Y-53400000D03*
X186500000Y-62600000D03*
X194500000Y-62600000D03*
X186500000Y-53400000D03*
X194500000Y-53400000D03*
X175000000Y-62600000D03*
X179000000Y-62600000D03*
X175000000Y-53400000D03*
X179000000Y-53400000D03*
D23*
X114000000Y-126120000D03*
X111460000Y-118500000D03*
X111460000Y-126120000D03*
D24*
X114000000Y-118500000D03*
D12*
X82000000Y-62600000D03*
X86000000Y-62600000D03*
X82000000Y-53400000D03*
X86000000Y-53400000D03*
D25*
X153390000Y-105850000D03*
X150850000Y-105850000D03*
X148310000Y-105850000D03*
X145770000Y-105850000D03*
X143230000Y-105850000D03*
X140690000Y-105850000D03*
X138150000Y-105850000D03*
X135610000Y-105850000D03*
X135610000Y-93150000D03*
X138150000Y-93150000D03*
X140690000Y-93150000D03*
X143230000Y-93150000D03*
X145770000Y-93150000D03*
X148310000Y-93150000D03*
X150850000Y-93150000D03*
X153390000Y-93150000D03*
D11*
X122420000Y-117920000D03*
X124960000Y-117920000D03*
X127500000Y-117920000D03*
X130040000Y-117920000D03*
X130040000Y-128080000D03*
X127500000Y-128080000D03*
X124960000Y-128080000D03*
X122420000Y-128080000D03*
D15*
X93675000Y-111775000D03*
X98675000Y-111775000D03*
D26*
X103175000Y-118775000D03*
X89175000Y-118775000D03*
D15*
X96175000Y-126275000D03*
X98715000Y-126275000D03*
X93635000Y-126275000D03*
D27*
X162000000Y-69000000D03*
D28*
X164540000Y-69000000D03*
X167080000Y-69000000D03*
D27*
X144000000Y-69000000D03*
D28*
X146540000Y-69000000D03*
X149080000Y-69000000D03*
D23*
X114000000Y-114120000D03*
X111460000Y-106500000D03*
X111460000Y-114120000D03*
D24*
X114000000Y-106500000D03*
D29*
X88420000Y-138500000D03*
X90960000Y-138500000D03*
X93500000Y-138500000D03*
D19*
X100500000Y-134380000D03*
D20*
X100500000Y-142000000D03*
X137500000Y-134380000D03*
X137500000Y-142000000D03*
D19*
X118880000Y-78000000D03*
D20*
X126500000Y-78000000D03*
D19*
X116500000Y-86880000D03*
D20*
X116500000Y-94500000D03*
D19*
X132500000Y-134380000D03*
D20*
X132500000Y-142000000D03*
D19*
X82000000Y-86880000D03*
D20*
X82000000Y-94500000D03*
D19*
X105000000Y-86880000D03*
D20*
X105000000Y-94500000D03*
D19*
X122000000Y-134380000D03*
D20*
X122000000Y-142000000D03*
D19*
X76500000Y-86880000D03*
D20*
X76500000Y-94500000D03*
D19*
X115620000Y-78000000D03*
D20*
X108000000Y-78000000D03*
D19*
X105500000Y-142120000D03*
D20*
X105500000Y-134500000D03*
D30*
X160920000Y-104500000D03*
D31*
X166000000Y-104500000D03*
D28*
X103885000Y-98775000D03*
D27*
X106425000Y-98775000D03*
D32*
X109000000Y-68000000D03*
D24*
X109000000Y-70500000D03*
D32*
X119500000Y-70500000D03*
D24*
X119500000Y-68000000D03*
D32*
X119000000Y-113000000D03*
X124000000Y-113000000D03*
X101500000Y-76000000D03*
D24*
X99000000Y-76000000D03*
D32*
X117000000Y-100500000D03*
X112000000Y-100500000D03*
X133000000Y-65000000D03*
X133000000Y-70000000D03*
X149000000Y-79000000D03*
X149000000Y-76500000D03*
X168500000Y-77000000D03*
X168500000Y-74500000D03*
D27*
X100550000Y-98750000D03*
D28*
X98010000Y-98750000D03*
X91910000Y-98775000D03*
D27*
X94450000Y-98775000D03*
X88550000Y-98775000D03*
D28*
X86010000Y-98775000D03*
X84910000Y-65775000D03*
D27*
X87450000Y-65775000D03*
X210440000Y-65775000D03*
D28*
X207900000Y-65775000D03*
X201910000Y-65775000D03*
D27*
X204450000Y-65775000D03*
D12*
X215000000Y-62600000D03*
X215000000Y-53400000D03*
X219000000Y-53400000D03*
X219000000Y-62600000D03*
D32*
X144500000Y-76500000D03*
X144500000Y-79000000D03*
X164500000Y-76500000D03*
X164500000Y-79000000D03*
D20*
X111000000Y-142000000D03*
D19*
X111000000Y-134380000D03*
X116500000Y-134380000D03*
D20*
X116500000Y-142000000D03*
X99000000Y-94500000D03*
D19*
X99000000Y-86880000D03*
X93000000Y-86880000D03*
D20*
X93000000Y-94500000D03*
D19*
X127500000Y-134380000D03*
D20*
X127500000Y-142000000D03*
X111000000Y-94500000D03*
D19*
X111000000Y-86880000D03*
X127500000Y-86880000D03*
D20*
X127500000Y-94500000D03*
X122000000Y-94500000D03*
D19*
X122000000Y-86880000D03*
D33*
X152450000Y-76375000D03*
X159950000Y-81375000D03*
D12*
X154900000Y-78775000D03*
X157500000Y-78975000D03*
X137500000Y-78825000D03*
X134900000Y-78625000D03*
D33*
X139950000Y-81225000D03*
X132450000Y-76225000D03*
X82500000Y-76225000D03*
X90000000Y-81225000D03*
D12*
X84950000Y-78625000D03*
X87550000Y-78825000D03*
X207550000Y-78775000D03*
X204950000Y-78575000D03*
D33*
X210000000Y-81175000D03*
X202500000Y-76175000D03*
D34*
X69500000Y-115720000D03*
D35*
X69500000Y-118260000D03*
X69500000Y-120800000D03*
X69500000Y-123340000D03*
X69500000Y-125880000D03*
X69500000Y-128420000D03*
X69500000Y-130960000D03*
X69500000Y-133500000D03*
X69500000Y-136040000D03*
X69500000Y-138580000D03*
X69500000Y-109860000D03*
X69500000Y-107320000D03*
X69500000Y-104780000D03*
X69500000Y-102240000D03*
X69500000Y-99700000D03*
X69500000Y-97160000D03*
X69500000Y-94620000D03*
X69500000Y-92080000D03*
X69500000Y-89540000D03*
D34*
X69500000Y-87000000D03*
X69500000Y-58500000D03*
D35*
X69500000Y-61040000D03*
X69500000Y-63580000D03*
X69500000Y-66120000D03*
X69500000Y-68660000D03*
X69500000Y-71200000D03*
X69500000Y-73740000D03*
X69500000Y-76280000D03*
X69500000Y-78820000D03*
X69500000Y-81360000D03*
D36*
X204450000Y-70950000D03*
X95500000Y-129150011D03*
X113000000Y-111000000D03*
X122625000Y-99525000D03*
X127900000Y-105050000D03*
X137950000Y-100975000D03*
X74449989Y-74600428D03*
D37*
X148500000Y-71000000D03*
X162512653Y-79987347D03*
X158500000Y-85000000D03*
X155500000Y-85446077D03*
X103500000Y-140500000D03*
X105700000Y-111325000D03*
X105775000Y-104025000D03*
X108568261Y-102756739D03*
X113275000Y-86850000D03*
X110000000Y-113000000D03*
X127950000Y-132725000D03*
X123660000Y-132750000D03*
X123600000Y-130050000D03*
X114000000Y-81775000D03*
X107097468Y-74097468D03*
X123884107Y-79590587D03*
X124750000Y-81775000D03*
X122262347Y-101212347D03*
X127375153Y-106849847D03*
X125650000Y-109700000D03*
X126550000Y-113755761D03*
D36*
X168000000Y-116700000D03*
X168475000Y-107725000D03*
X163325000Y-107925000D03*
X162000000Y-71633653D03*
X175000000Y-90000000D03*
D37*
X172000000Y-82500000D03*
X167000000Y-83500000D03*
D36*
X115000000Y-69475000D03*
X115000000Y-71975000D03*
X117500000Y-111000000D03*
X127975000Y-110500000D03*
X133500000Y-110000000D03*
X133500000Y-104000000D03*
D37*
X118950000Y-83225000D03*
X114725000Y-89775000D03*
X117425000Y-104050000D03*
X134835092Y-129500000D03*
X127500000Y-124269999D03*
X106500000Y-124269999D03*
X166219240Y-76619238D03*
X163500000Y-74500000D03*
X155624154Y-75624154D03*
X147840000Y-71998261D03*
X138000000Y-75624999D03*
X126800000Y-73000000D03*
X170000000Y-61500000D03*
X160619999Y-106297448D03*
X163099707Y-104953840D03*
X165000000Y-120500000D03*
X132000000Y-125000000D03*
X132052001Y-129000000D03*
X119000000Y-131275000D03*
X126483240Y-136776760D03*
X122500000Y-133000000D03*
X119183966Y-114816372D03*
X116015762Y-107134238D03*
X116906739Y-102431739D03*
X117275000Y-89150000D03*
X122350000Y-83450000D03*
X131819239Y-114480761D03*
X119900001Y-81500000D03*
X119750000Y-74025000D03*
X179050001Y-127574999D03*
X156342000Y-127407990D03*
X154868347Y-129631653D03*
X137500000Y-131000000D03*
X125487347Y-142987347D03*
X123000000Y-144000000D03*
X107000000Y-144000000D03*
D36*
X132000000Y-95500000D03*
X130500000Y-92500000D03*
X132000000Y-84500000D03*
X133500000Y-89500000D03*
X134000000Y-97000000D03*
X146000000Y-84500000D03*
X142000000Y-84000000D03*
X131150000Y-80000000D03*
X127000000Y-97000000D03*
X140404000Y-98500000D03*
X128500000Y-98500000D03*
D37*
X108500000Y-133500000D03*
X119000000Y-130274997D03*
X129000000Y-123500000D03*
X119000000Y-123500000D03*
X120012152Y-127987848D03*
X168500000Y-96000000D03*
X163500000Y-123000000D03*
X164000000Y-87500000D03*
X164487347Y-82987347D03*
X161000000Y-79000000D03*
X158500000Y-81000000D03*
X141487347Y-85446077D03*
X138000000Y-84500000D03*
X130650000Y-106900000D03*
X130375000Y-109150000D03*
X123825000Y-109119990D03*
X128050331Y-103361853D03*
X139827980Y-111102980D03*
X137412347Y-114412347D03*
X159000000Y-67700000D03*
X146550001Y-82500000D03*
X139000000Y-85446077D03*
X138079766Y-89043099D03*
X156500000Y-91500000D03*
X156637427Y-102362573D03*
X147987347Y-72987347D03*
X162000000Y-85446077D03*
X162830761Y-91830761D03*
X169152346Y-97377346D03*
X170000000Y-135500000D03*
X166975000Y-137221762D03*
X169775000Y-137150000D03*
X150512653Y-72512653D03*
X147461349Y-81736349D03*
X147487347Y-83487347D03*
X152000000Y-87346087D03*
X160500000Y-91447999D03*
X161980959Y-92963405D03*
X156000000Y-107500000D03*
X139000000Y-103000000D03*
X132000000Y-101000000D03*
X130000000Y-102000000D03*
X128004152Y-100995848D03*
X109300000Y-107925000D03*
X103450000Y-103375000D03*
X102074999Y-115074999D03*
X91912653Y-122612653D03*
X158658653Y-72658653D03*
X156000000Y-71150001D03*
X155512653Y-67512653D03*
X163300000Y-73500000D03*
X160500000Y-73500000D03*
X158000000Y-71150001D03*
X156512653Y-66512653D03*
X162725000Y-90500000D03*
X129000000Y-99800000D03*
X127052653Y-99552653D03*
X123754152Y-96745848D03*
D36*
X145974000Y-99800000D03*
D37*
X90654978Y-122845022D03*
X92478846Y-136521154D03*
D36*
X129000000Y-103950000D03*
D37*
X125071739Y-126353261D03*
X129000000Y-106974010D03*
X164575000Y-89025000D03*
X171550000Y-87450000D03*
X103000000Y-109849999D03*
X105775000Y-122000000D03*
X109500000Y-123544999D03*
X124000000Y-144775000D03*
X93000000Y-72000000D03*
X95000000Y-80500000D03*
X199500000Y-69000000D03*
X136500000Y-117000000D03*
X132004152Y-104995848D03*
X129290071Y-93128550D03*
X128450000Y-85500000D03*
X121500000Y-82500000D03*
X110500000Y-83500000D03*
X108725000Y-85000000D03*
X82000000Y-91000000D03*
X74554652Y-107770001D03*
X92000000Y-125000000D03*
X102987347Y-145512653D03*
X121000000Y-143275000D03*
X126000000Y-140500000D03*
X139500000Y-130000000D03*
X138500000Y-127000000D03*
X166482218Y-118977612D03*
X166500000Y-112000000D03*
X122300001Y-139500000D03*
X125000000Y-139000000D03*
X127931499Y-136406193D03*
X157000000Y-135000000D03*
X157085402Y-128076837D03*
X157151153Y-119584153D03*
X121249989Y-96420847D03*
X118000000Y-93500000D03*
X109000000Y-80000000D03*
X103000000Y-80000000D03*
X126043469Y-126954859D03*
X133950000Y-112950000D03*
X111275000Y-112350000D03*
X112275000Y-122550000D03*
X130900000Y-113500000D03*
X124000000Y-90500000D03*
X122000000Y-102500000D03*
X142235664Y-107669990D03*
X138550000Y-117875000D03*
X133573651Y-118148651D03*
X131852001Y-116475000D03*
X127400000Y-116100000D03*
X125350000Y-112300000D03*
X122325000Y-109119990D03*
X124599999Y-88250000D03*
X124599999Y-93175000D03*
X127487583Y-101852096D03*
X190500000Y-55200000D03*
X190500000Y-57999989D03*
X167500000Y-141000000D03*
X163219999Y-141000000D03*
X193000000Y-64500000D03*
X192000000Y-68000000D03*
X167000000Y-85500000D03*
D38*
X215825000Y-65775000D02*
X210440000Y-65775000D01*
X219000000Y-62600000D02*
X215825000Y-65775000D01*
X207050000Y-70950000D02*
X204450000Y-70950000D01*
X186500000Y-64600000D02*
X196600000Y-74700000D01*
X186500000Y-62600000D02*
X186500000Y-64600000D01*
X180485788Y-67199999D02*
X165067209Y-67199999D01*
X186500000Y-62600000D02*
X185085787Y-62600000D01*
X179000000Y-65500000D02*
X180500000Y-67000000D01*
X185085787Y-62600000D02*
X180500000Y-67000000D01*
X179000000Y-62600000D02*
X179000000Y-65500000D01*
X180500000Y-67000000D02*
X180485788Y-67199999D01*
X169299999Y-73700001D02*
X168500000Y-74500000D01*
X165067209Y-67199999D02*
X167944001Y-67199999D01*
X164540000Y-67727208D02*
X165067209Y-67199999D01*
X169299999Y-68555997D02*
X169299999Y-73700001D01*
X167944001Y-67199999D02*
X169299999Y-68555997D01*
X164540000Y-69000000D02*
X164540000Y-67727208D01*
X166500000Y-74500000D02*
X164500000Y-76500000D01*
X168500000Y-74500000D02*
X166500000Y-74500000D01*
X154900000Y-78762998D02*
X154900000Y-78775000D01*
X156587999Y-77074999D02*
X154900000Y-78762998D01*
X164500000Y-76500000D02*
X163925001Y-77074999D01*
X163925001Y-77074999D02*
X156587999Y-77074999D01*
X136600001Y-76924999D02*
X134900000Y-78625000D01*
X144500000Y-76500000D02*
X144075001Y-76924999D01*
X144075001Y-76924999D02*
X136600001Y-76924999D01*
X204450000Y-70950000D02*
X202050000Y-70950000D01*
X191572999Y-130550001D02*
X181949989Y-120926991D01*
X195675001Y-112954999D02*
X195675001Y-117710420D01*
X197027001Y-130550001D02*
X191572999Y-130550001D01*
X197950001Y-129627001D02*
X197027001Y-130550001D01*
X202050000Y-70950000D02*
X199400011Y-73599989D01*
X181949989Y-73519426D02*
X183969415Y-71500000D01*
X181949989Y-120926991D02*
X181949989Y-73519426D01*
X201475001Y-122154999D02*
X201475001Y-124397999D01*
X199400011Y-73599989D02*
X199400011Y-109229989D01*
X195675001Y-117710420D02*
X199939580Y-121974999D01*
X199939580Y-121974999D02*
X201295001Y-121974999D01*
X201295001Y-121974999D02*
X201475001Y-122154999D01*
X199400011Y-109229989D02*
X195675001Y-112954999D01*
X201475001Y-124397999D02*
X197950001Y-127922999D01*
X197950001Y-127922999D02*
X197950001Y-129627001D01*
X183969415Y-65130585D02*
X186500000Y-62600000D01*
X183969415Y-71500000D02*
X183969415Y-65130585D01*
X155687990Y-144672010D02*
X137672010Y-144672010D01*
X159620000Y-143010000D02*
X157350000Y-143010000D01*
X157350000Y-143010000D02*
X155687990Y-144672010D01*
X137500000Y-144500000D02*
X137500000Y-142000000D01*
X137672010Y-144672010D02*
X137500000Y-144500000D01*
X153390000Y-80285000D02*
X153390000Y-93150000D01*
X154900000Y-78775000D02*
X153390000Y-80285000D01*
X133799999Y-74124997D02*
X136600001Y-76924999D01*
X133799999Y-70799999D02*
X133799999Y-74124997D01*
X133000000Y-70000000D02*
X133799999Y-70799999D01*
X153000000Y-93540000D02*
X153390000Y-93150000D01*
X85774001Y-67575001D02*
X87450000Y-65899002D01*
X81475416Y-67575001D02*
X85774001Y-67575001D01*
X74449989Y-74600428D02*
X81475416Y-67575001D01*
X74449989Y-94817991D02*
X74449989Y-74600428D01*
X75731999Y-96100001D02*
X74449989Y-94817991D01*
X77268001Y-96100001D02*
X75731999Y-96100001D01*
X87450000Y-65899002D02*
X87450000Y-65775000D01*
X80674999Y-92693003D02*
X77268001Y-96100001D01*
X80674999Y-74674999D02*
X80674999Y-92693003D01*
X83244001Y-74674999D02*
X80674999Y-74674999D01*
X84950000Y-76380998D02*
X83244001Y-74674999D01*
X84950000Y-78625000D02*
X84950000Y-76380998D01*
X80881995Y-92899999D02*
X80674999Y-92693003D01*
X85899999Y-92899999D02*
X80881995Y-92899999D01*
X87500000Y-94500000D02*
X85899999Y-92899999D01*
X87500000Y-97725000D02*
X88550000Y-98775000D01*
X87500000Y-94500000D02*
X87500000Y-97725000D01*
X136800001Y-142699999D02*
X137500000Y-142000000D01*
X131468003Y-143600001D02*
X135899999Y-143600001D01*
X135899999Y-143600001D02*
X136800001Y-142699999D01*
X124960000Y-137091998D02*
X131468003Y-143600001D01*
X124960000Y-128080000D02*
X124960000Y-137091998D01*
X111460000Y-103810000D02*
X106425000Y-98775000D01*
X111460000Y-106500000D02*
X111460000Y-103810000D01*
X88420000Y-138500000D02*
X88420000Y-136230011D01*
X88420000Y-136230011D02*
X95500000Y-129150011D01*
X100954999Y-116374999D02*
X109334999Y-116374999D01*
X96175000Y-121154998D02*
X100954999Y-116374999D01*
X110660001Y-117700001D02*
X111460000Y-118500000D01*
X109334999Y-116374999D02*
X110660001Y-117700001D01*
X96175000Y-126275000D02*
X96175000Y-121154998D01*
X111460000Y-106040000D02*
X111460000Y-106500000D01*
X117000000Y-100500000D02*
X111460000Y-106040000D01*
X111460000Y-106500000D02*
X111460000Y-109460000D01*
X111460000Y-109460000D02*
X113000000Y-111000000D01*
X117000000Y-100500000D02*
X117975000Y-99525000D01*
X117975000Y-99525000D02*
X122625000Y-99525000D01*
X134047002Y-100975000D02*
X137950000Y-100975000D01*
X129472003Y-105549999D02*
X134047002Y-100975000D01*
X127900000Y-105050000D02*
X128399999Y-105549999D01*
X128399999Y-105549999D02*
X129472003Y-105549999D01*
X69500000Y-81360000D02*
X69500000Y-76280000D01*
X69500000Y-73740000D02*
X69500000Y-76280000D01*
X69500000Y-73740000D02*
X69500000Y-71200000D01*
X69500000Y-71200000D02*
X69500000Y-68660000D01*
X69500000Y-68660000D02*
X69500000Y-66120000D01*
X69500000Y-63580000D02*
X69500000Y-61040000D01*
X69500000Y-63580000D02*
X69500000Y-66120000D01*
X69500000Y-61040000D02*
X69500000Y-58500000D01*
D39*
X133000000Y-65000000D02*
X139000000Y-71000000D01*
X139000000Y-71000000D02*
X148500000Y-71000000D01*
X162512653Y-79987347D02*
X162512653Y-80987347D01*
X162512653Y-80987347D02*
X158500000Y-85000000D01*
X155500000Y-102250451D02*
X162500000Y-109250451D01*
X155500000Y-85446077D02*
X155500000Y-102250451D01*
X161140000Y-125230000D02*
X159620000Y-125230000D01*
X162500000Y-123870000D02*
X161140000Y-125230000D01*
X162500000Y-109250451D02*
X162500000Y-123870000D01*
X105120000Y-142120000D02*
X105500000Y-142120000D01*
X103500000Y-140500000D02*
X105120000Y-142120000D01*
X138088001Y-135605001D02*
X136605001Y-135605001D01*
X139755992Y-133937010D02*
X138088001Y-135605001D01*
X159125264Y-127770000D02*
X161215010Y-129859746D01*
X159620000Y-127770000D02*
X159125264Y-127770000D01*
X161215010Y-129859746D02*
X161215010Y-133300254D01*
X161215010Y-133300254D02*
X160578254Y-133937010D01*
X160578254Y-133937010D02*
X139755992Y-133937010D01*
X99589999Y-125400001D02*
X98715000Y-126275000D01*
X99995001Y-124994999D02*
X99589999Y-125400001D01*
X131327001Y-127462239D02*
X128859761Y-124994999D01*
X131327001Y-130327001D02*
X131327001Y-127462239D01*
X128859761Y-124994999D02*
X99995001Y-124994999D01*
X136605001Y-135605001D02*
X131327001Y-130327001D01*
X106246002Y-111325000D02*
X105700000Y-111325000D01*
X104389999Y-120600001D02*
X111321001Y-120600001D01*
X112785001Y-119136001D02*
X112785001Y-117863999D01*
X98715000Y-126275000D02*
X104389999Y-120600001D01*
X111321001Y-120600001D02*
X112785001Y-119136001D01*
X112785001Y-117863999D02*
X106246002Y-111325000D01*
X105775000Y-104025000D02*
X107043261Y-102756739D01*
X107043261Y-102756739D02*
X108568261Y-102756739D01*
X116470000Y-86850000D02*
X116500000Y-86880000D01*
X113275000Y-86850000D02*
X116470000Y-86850000D01*
X106124998Y-109124998D02*
X110000000Y-113000000D01*
X97950000Y-76000000D02*
X90684999Y-83265001D01*
X99000000Y-76000000D02*
X97950000Y-76000000D01*
X90684999Y-83265001D02*
X90684999Y-99363001D01*
X90684999Y-99363001D02*
X100446996Y-109124998D01*
X100446996Y-109124998D02*
X106124998Y-109124998D01*
X132500000Y-134380000D02*
X129605000Y-134380000D01*
X129605000Y-134380000D02*
X127950000Y-132725000D01*
X123660000Y-132750000D02*
X123660000Y-130110000D01*
X123660000Y-130110000D02*
X123600000Y-130050000D01*
X101500000Y-76000000D02*
X108225000Y-76000000D01*
X108225000Y-76000000D02*
X114000000Y-81775000D01*
X124000000Y-114131370D02*
X124000000Y-113000000D01*
X123872999Y-118441761D02*
X123872999Y-114258371D01*
X124438239Y-119007001D02*
X123872999Y-118441761D01*
X123872999Y-114258371D02*
X124000000Y-114131370D01*
X128952999Y-119007001D02*
X124438239Y-119007001D01*
X130040000Y-117920000D02*
X128952999Y-119007001D01*
X116754999Y-115245001D02*
X118200001Y-113799999D01*
X110919999Y-115245001D02*
X116754999Y-115245001D01*
X118200001Y-113799999D02*
X119000000Y-113000000D01*
X95996997Y-110574999D02*
X106249997Y-110574999D01*
X106249997Y-110574999D02*
X110919999Y-115245001D01*
X82000000Y-96578002D02*
X95996997Y-110574999D01*
X82000000Y-94500000D02*
X82000000Y-96578002D01*
X107097468Y-74097468D02*
X118390988Y-74097468D01*
X118390988Y-74097468D02*
X123884107Y-79590587D01*
X123274999Y-95266693D02*
X123754153Y-95745847D01*
X124750000Y-81775000D02*
X123274999Y-83250001D01*
X123274999Y-83250001D02*
X123274999Y-95266693D01*
X123754153Y-95745847D02*
X123704152Y-95695846D01*
X127375153Y-106849847D02*
X127375153Y-107974847D01*
X127375153Y-107974847D02*
X125650000Y-109700000D01*
X124960000Y-115345761D02*
X124960000Y-117920000D01*
X126550000Y-113755761D02*
X124960000Y-115345761D01*
X122662346Y-100812348D02*
X122262347Y-101212347D01*
X123650010Y-99949573D02*
X122787235Y-100812348D01*
X123650010Y-99100427D02*
X123650010Y-99949573D01*
X123049573Y-98499990D02*
X123650010Y-99100427D01*
X118982988Y-98499990D02*
X123049573Y-98499990D01*
X115474999Y-94007999D02*
X115474999Y-94992001D01*
X116707999Y-92774999D02*
X115474999Y-94007999D01*
X115474999Y-94992001D02*
X118982988Y-98499990D01*
X118799999Y-92774999D02*
X116707999Y-92774999D01*
X122045847Y-96020847D02*
X118799999Y-92774999D01*
X122787235Y-100812348D02*
X122662346Y-100812348D01*
X123554153Y-96020847D02*
X122045847Y-96020847D01*
X123754153Y-95820847D02*
X123554153Y-96020847D01*
X123754153Y-95745847D02*
X123754153Y-95820847D01*
D38*
X168000000Y-116700000D02*
X168000000Y-108200000D01*
X168000000Y-108200000D02*
X168475000Y-107725000D01*
X161919999Y-105499999D02*
X160920000Y-104500000D01*
X161919999Y-105673446D02*
X161919999Y-105499999D01*
X163325000Y-107078447D02*
X161919999Y-105673446D01*
X163325000Y-107925000D02*
X163325000Y-107078447D01*
X162000000Y-69000000D02*
X162000000Y-71633653D01*
X166000000Y-104040000D02*
X160500000Y-98540000D01*
X166000000Y-104500000D02*
X166000000Y-104040000D01*
X159738001Y-97778001D02*
X160500000Y-98540000D01*
X158525010Y-96565010D02*
X159738001Y-97778001D01*
X158525010Y-86997065D02*
X158525010Y-96565010D01*
X164500000Y-81022075D02*
X158525010Y-86997065D01*
X164500000Y-79000000D02*
X164500000Y-81022075D01*
X175000000Y-90000000D02*
X175000000Y-85500000D01*
X175000000Y-85500000D02*
X172000000Y-82500000D01*
X167000000Y-81500000D02*
X164500000Y-79000000D01*
X167000000Y-83500000D02*
X167000000Y-81500000D01*
X115000000Y-69475000D02*
X115000000Y-71975000D01*
X117500000Y-111000000D02*
X127475000Y-111000000D01*
X127475000Y-111000000D02*
X127975000Y-110500000D01*
X133500000Y-110000000D02*
X133500000Y-104000000D01*
D39*
X118950000Y-83225000D02*
X118950000Y-85947002D01*
X115122002Y-89775000D02*
X114725000Y-89775000D01*
X118950000Y-85947002D02*
X115122002Y-89775000D01*
X114975000Y-106500000D02*
X114000000Y-106500000D01*
X117425000Y-104050000D02*
X114975000Y-106500000D01*
X144380000Y-132850000D02*
X138185092Y-132850000D01*
X138185092Y-132850000D02*
X134835092Y-129500000D01*
X127500000Y-124269999D02*
X106500000Y-124269999D01*
X170725001Y-96225001D02*
X166500000Y-92000000D01*
X161140000Y-135390000D02*
X161975001Y-136225001D01*
X161975001Y-136225001D02*
X170348001Y-136225001D01*
X170348001Y-136225001D02*
X170725001Y-135848001D01*
X170725001Y-135848001D02*
X170725001Y-96225001D01*
X159620000Y-135390000D02*
X161140000Y-135390000D01*
X169874549Y-80274547D02*
X166219240Y-76619238D01*
X169874549Y-89285059D02*
X169874549Y-80274547D01*
X166500000Y-92000000D02*
X167159608Y-92000000D01*
X167159608Y-92000000D02*
X169874549Y-89285059D01*
X163500000Y-74500000D02*
X156748308Y-74500000D01*
X156748308Y-74500000D02*
X155624154Y-75624154D01*
X147840000Y-71998261D02*
X141626738Y-71998261D01*
X141626738Y-71998261D02*
X138000000Y-75624999D01*
X126800000Y-73000000D02*
X77500000Y-73000000D01*
X75800001Y-93800001D02*
X76500000Y-94500000D01*
X75474999Y-75025001D02*
X75474999Y-93474999D01*
X75474999Y-93474999D02*
X75800001Y-93800001D01*
X77500000Y-73000000D02*
X75474999Y-75025001D01*
X170425001Y-61074999D02*
X170000000Y-61500000D01*
X190500000Y-62600000D02*
X188974999Y-61074999D01*
X188974999Y-61074999D02*
X170425001Y-61074999D01*
X160460446Y-106297448D02*
X160619999Y-106297448D01*
X157500000Y-78975000D02*
X157500000Y-103337002D01*
X157500000Y-103337002D02*
X160460446Y-106297448D01*
X163099707Y-104953840D02*
X165000000Y-106854133D01*
X165000000Y-106854133D02*
X165000000Y-120500000D01*
X132000000Y-125000000D02*
X132000000Y-128947999D01*
X132000000Y-128947999D02*
X132052001Y-129000000D01*
X119000000Y-139000000D02*
X122000000Y-142000000D01*
X119000000Y-131275000D02*
X119000000Y-139000000D01*
X132500000Y-142000000D02*
X127276760Y-136776760D01*
X127276760Y-136776760D02*
X126483240Y-136776760D01*
X122500000Y-128160000D02*
X122420000Y-128080000D01*
X122500000Y-133000000D02*
X122500000Y-128160000D01*
X114000000Y-118500000D02*
X115500338Y-118500000D01*
X115500338Y-118500000D02*
X119183966Y-114816372D01*
X118150001Y-103675001D02*
X116906739Y-102431739D01*
X116015762Y-107134238D02*
X118150001Y-104999999D01*
X118150001Y-104999999D02*
X118150001Y-103675001D01*
X117275000Y-89150000D02*
X117275000Y-88525000D01*
X117275000Y-88525000D02*
X122350000Y-83450000D01*
X118880000Y-78000000D02*
X121505000Y-80625000D01*
X121505000Y-80625000D02*
X122100000Y-80625000D01*
X122499999Y-82734316D02*
X122499999Y-81024999D01*
X122499999Y-81024999D02*
X122100000Y-80625000D01*
X122350000Y-82884315D02*
X122499999Y-82734316D01*
X122350000Y-83450000D02*
X122350000Y-82884315D01*
X137874549Y-119720229D02*
X133154320Y-115000000D01*
X137874549Y-125324549D02*
X137874549Y-119720229D01*
X144380000Y-130310000D02*
X142860000Y-130310000D01*
X142860000Y-130310000D02*
X137874549Y-125324549D01*
X133154320Y-115000000D02*
X132338478Y-115000000D01*
X132338478Y-115000000D02*
X131819239Y-114480761D01*
X122525000Y-74025000D02*
X126500000Y-78000000D01*
X119750000Y-74025000D02*
X122525000Y-74025000D01*
X101774999Y-143274999D02*
X101199999Y-142699999D01*
X107725001Y-143651999D02*
X107348001Y-143274999D01*
X107348001Y-143274999D02*
X101774999Y-143274999D01*
X109974999Y-142388591D02*
X107638589Y-144725001D01*
X107638589Y-144725001D02*
X107348001Y-144725001D01*
X107725001Y-144348001D02*
X107725001Y-143651999D01*
X179050001Y-127574999D02*
X179050001Y-130523001D01*
X101199999Y-142699999D02*
X100500000Y-142000000D01*
X117602980Y-145697020D02*
X112880959Y-140974999D01*
X107348001Y-144725001D02*
X107725001Y-144348001D01*
X112880959Y-140974999D02*
X110507999Y-140974999D01*
X179050001Y-130523001D02*
X163875982Y-145697020D01*
X110507999Y-140974999D02*
X109974999Y-141507999D01*
X163875982Y-145697020D02*
X117602980Y-145697020D01*
X109974999Y-141507999D02*
X109974999Y-142388591D01*
X159620000Y-117610000D02*
X158100000Y-117610000D01*
X156342000Y-119368000D02*
X156342000Y-127407990D01*
X158100000Y-117610000D02*
X156342000Y-119368000D01*
X137897010Y-131397010D02*
X137500000Y-131000000D01*
X154868347Y-129631653D02*
X153102990Y-131397010D01*
X153102990Y-131397010D02*
X137897010Y-131397010D01*
X125487347Y-142987347D02*
X124012653Y-142987347D01*
X124012653Y-142987347D02*
X123000000Y-144000000D01*
X99000000Y-144000000D02*
X93500000Y-138500000D01*
X107000000Y-144000000D02*
X99000000Y-144000000D01*
X101027999Y-137454999D02*
X109482998Y-129000000D01*
X90960000Y-138500000D02*
X92005001Y-137454999D01*
X92005001Y-137454999D02*
X101027999Y-137454999D01*
X109482998Y-129000000D02*
X114500000Y-129000000D01*
X114500000Y-129000000D02*
X118000000Y-125500000D01*
X127500000Y-127002370D02*
X127500000Y-128080000D01*
X125997630Y-125500000D02*
X127500000Y-127002370D01*
X118000000Y-125500000D02*
X125997630Y-125500000D01*
X196175000Y-127537564D02*
X196175000Y-128775000D01*
X196175000Y-119660002D02*
X196175000Y-127537564D01*
X184550000Y-108035002D02*
X196175000Y-119660002D01*
X184550000Y-74700000D02*
X184550000Y-108035002D01*
D38*
X209100000Y-134900000D02*
X190650000Y-134900000D01*
X226500000Y-117500000D02*
X209100000Y-134900000D01*
X223000000Y-56500000D02*
X226500000Y-60000000D01*
X170500000Y-56500000D02*
X223000000Y-56500000D01*
X168279999Y-54279999D02*
X170500000Y-56500000D01*
X161250000Y-61000000D02*
X161099999Y-60849999D01*
X162000000Y-61000000D02*
X161250000Y-61000000D01*
X161099999Y-60849999D02*
X161099999Y-55527999D01*
X226500000Y-60000000D02*
X226500000Y-117500000D01*
X161099999Y-55527999D02*
X162347999Y-54279999D01*
X162347999Y-54279999D02*
X168279999Y-54279999D01*
D39*
X165400000Y-62600000D02*
X175000000Y-62600000D01*
X126327652Y-99204652D02*
X135153392Y-90378912D01*
X111460000Y-114120000D02*
X125034162Y-100545838D01*
X135153392Y-90378912D02*
X138121088Y-90378912D01*
X125034162Y-100545838D02*
X126972836Y-100545838D01*
X138121088Y-90378912D02*
X145825001Y-82674999D01*
X126972836Y-100545838D02*
X126327652Y-99900654D01*
X145825001Y-82674999D02*
X145825001Y-76174999D01*
X126327652Y-99900654D02*
X126327652Y-99204652D01*
X145825001Y-76174999D02*
X157500000Y-64500000D01*
X157500000Y-64500000D02*
X163500000Y-64500000D01*
X163500000Y-64500000D02*
X165400000Y-62600000D01*
D38*
X138943637Y-95574010D02*
X135495785Y-95574010D01*
X140690000Y-93150000D02*
X140690000Y-93827647D01*
X140690000Y-93827647D02*
X138943637Y-95574010D01*
X135495785Y-95574010D02*
X132074010Y-95574010D01*
X132074010Y-95574010D02*
X132000000Y-95500000D01*
X131500000Y-61260000D02*
X131500000Y-61000000D01*
X129750000Y-63010000D02*
X131500000Y-61260000D01*
X130500000Y-92500000D02*
X129750000Y-91750000D01*
X129750000Y-91750000D02*
X129750000Y-63010000D01*
X132000000Y-84500000D02*
X132000000Y-88000000D01*
X132000000Y-88000000D02*
X133500000Y-89500000D01*
X145770000Y-95674000D02*
X145770000Y-93150000D01*
X144444000Y-97000000D02*
X145770000Y-95674000D01*
X134000000Y-97000000D02*
X144444000Y-97000000D01*
X148310000Y-93150000D02*
X148310000Y-86810000D01*
X148310000Y-86810000D02*
X146000000Y-84500000D01*
X133925001Y-82775001D02*
X131150000Y-80000000D01*
X142000000Y-84000000D02*
X140775001Y-82775001D01*
X140775001Y-82775001D02*
X133925001Y-82775001D01*
X128268001Y-61231999D02*
X128268001Y-83743997D01*
X128500000Y-61000000D02*
X128268001Y-61231999D01*
X128268001Y-83743997D02*
X125899999Y-86111999D01*
X125899999Y-86111999D02*
X125899999Y-95899999D01*
X125899999Y-95899999D02*
X127000000Y-97000000D01*
X128529582Y-98500000D02*
X128514791Y-98514791D01*
X140404000Y-98500000D02*
X128529582Y-98500000D01*
D39*
X108500000Y-133500000D02*
X111725003Y-130274997D01*
X111725003Y-130274997D02*
X119000000Y-130274997D01*
X129000000Y-123500000D02*
X119000000Y-123500000D01*
X119000000Y-129000000D02*
X119000000Y-130274997D01*
X120012152Y-127987848D02*
X119000000Y-129000000D01*
X163573002Y-123000000D02*
X163500000Y-123000000D01*
X168100001Y-96399999D02*
X168100001Y-105345001D01*
X168500000Y-96000000D02*
X168100001Y-96399999D01*
X168100001Y-105345001D02*
X165725001Y-107720001D01*
X165725001Y-107720001D02*
X165725001Y-120848001D01*
X165725001Y-120848001D02*
X163573002Y-123000000D01*
X164000000Y-87500000D02*
X164487347Y-87012653D01*
X164487347Y-87012653D02*
X164487347Y-82987347D01*
X158500000Y-80934315D02*
X158500000Y-81000000D01*
X161000000Y-79000000D02*
X160434315Y-79000000D01*
X160434315Y-79000000D02*
X158500000Y-80934315D01*
X141487347Y-85446077D02*
X140541270Y-84500000D01*
X140541270Y-84500000D02*
X138000000Y-84500000D01*
X130650000Y-106900000D02*
X130650000Y-108875000D01*
X130650000Y-108875000D02*
X130375000Y-109150000D01*
X123825000Y-109119990D02*
X123825000Y-106375000D01*
X123825000Y-106375000D02*
X123950000Y-106250000D01*
X123950000Y-106250000D02*
X125162184Y-106250000D01*
X125162184Y-106250000D02*
X128050331Y-103361853D01*
X143230000Y-105850000D02*
X143230000Y-107700960D01*
X143230000Y-107700960D02*
X139827980Y-111102980D01*
X143872000Y-125230000D02*
X144380000Y-125230000D01*
X142860000Y-124218000D02*
X143872000Y-125230000D01*
X142860000Y-123710000D02*
X142860000Y-124218000D01*
X137412347Y-118262347D02*
X142860000Y-123710000D01*
X137412347Y-114412347D02*
X137412347Y-118262347D01*
X159000000Y-67700000D02*
X159000000Y-71223003D01*
X147723003Y-82500000D02*
X146550001Y-82500000D01*
X159000000Y-71223003D02*
X147723003Y-82500000D01*
X139000000Y-85446077D02*
X138079766Y-86366311D01*
X138079766Y-86366311D02*
X138079766Y-89043099D01*
X156500000Y-91500000D02*
X156500000Y-102225146D01*
X156500000Y-102225146D02*
X156637427Y-102362573D01*
X150850000Y-107624000D02*
X150850000Y-105850000D01*
X151549746Y-113617010D02*
X150850000Y-112917264D01*
X153100274Y-113617010D02*
X151549746Y-113617010D01*
X154103010Y-114619746D02*
X153100274Y-113617010D01*
X150850000Y-112917264D02*
X150850000Y-107624000D01*
X154103010Y-123140254D02*
X154103010Y-114619746D01*
X153500000Y-123743264D02*
X154103010Y-123140254D01*
X153500000Y-124176736D02*
X153500000Y-123743264D01*
X154103010Y-124779746D02*
X153500000Y-124176736D01*
X154103010Y-127841010D02*
X154103010Y-124779746D01*
X159112000Y-132850000D02*
X154103010Y-127841010D01*
X159620000Y-132850000D02*
X159112000Y-132850000D01*
X153390000Y-111366736D02*
X155000000Y-112976736D01*
X153390000Y-105850000D02*
X153390000Y-111366736D01*
X158100000Y-130310000D02*
X159620000Y-130310000D01*
X155000000Y-127210000D02*
X158100000Y-130310000D01*
X155000000Y-112976736D02*
X155000000Y-127210000D01*
X110660001Y-126919999D02*
X111460000Y-126120000D01*
X109904999Y-127675001D02*
X110660001Y-126919999D01*
X93258999Y-127675001D02*
X109904999Y-127675001D01*
X73424979Y-107840981D02*
X93258999Y-127675001D01*
X73424979Y-74175855D02*
X73424979Y-107840981D01*
X85000834Y-62600000D02*
X73424979Y-74175855D01*
X86000000Y-62600000D02*
X85000834Y-62600000D01*
X113200001Y-126919999D02*
X114000000Y-126120000D01*
X111994989Y-128125011D02*
X113200001Y-126919999D01*
X92125011Y-128125011D02*
X111994989Y-128125011D01*
X72974969Y-71625031D02*
X72974969Y-108974969D01*
X72974969Y-108974969D02*
X92125011Y-128125011D01*
X82000000Y-62600000D02*
X72974969Y-71625031D01*
X150305001Y-70669693D02*
X147987347Y-72987347D01*
X150305001Y-63305001D02*
X150305001Y-70669693D01*
X147000000Y-61000000D02*
X148000000Y-61000000D01*
X148000000Y-61000000D02*
X150305001Y-63305001D01*
X162000000Y-85446077D02*
X162000000Y-91000000D01*
X162000000Y-91000000D02*
X162830761Y-91830761D01*
X169152346Y-97377346D02*
X170000000Y-98225000D01*
X170000000Y-98225000D02*
X170000000Y-135500000D01*
X166975000Y-137221762D02*
X169703238Y-137221762D01*
X169703238Y-137221762D02*
X169775000Y-137150000D01*
X208750001Y-64349999D02*
X209500001Y-63599999D01*
X209500001Y-63599999D02*
X210500000Y-62600000D01*
X197664212Y-64349999D02*
X208750001Y-64349999D01*
X195914213Y-62600000D02*
X197664212Y-64349999D01*
X194500000Y-62600000D02*
X195914213Y-62600000D01*
X149000000Y-79000000D02*
X150512653Y-77487347D01*
X150512653Y-77487347D02*
X150512653Y-72512653D01*
X149000000Y-79000000D02*
X149000000Y-80197698D01*
X149000000Y-80197698D02*
X147461349Y-81736349D01*
X147487347Y-83487347D02*
X151346087Y-87346087D01*
X151346087Y-87346087D02*
X152000000Y-87346087D01*
X160500000Y-91447999D02*
X160500000Y-91482446D01*
X160500000Y-91482446D02*
X161980959Y-92963405D01*
X152944474Y-103000000D02*
X139000000Y-103000000D01*
X156000000Y-107500000D02*
X156000000Y-106055526D01*
X156000000Y-106055526D02*
X152944474Y-103000000D01*
X132000000Y-101000000D02*
X131000000Y-101000000D01*
X131000000Y-101000000D02*
X130000000Y-102000000D01*
X125992782Y-100995848D02*
X114000000Y-112988630D01*
X114000000Y-112988630D02*
X114000000Y-114120000D01*
X128004152Y-100995848D02*
X125992782Y-100995848D01*
X69500000Y-138580000D02*
X69500000Y-136040000D01*
X69500000Y-133500000D02*
X69500000Y-133800000D01*
X69500000Y-133800000D02*
X69500000Y-130960000D01*
X69500000Y-130960000D02*
X69500000Y-128420000D01*
X70349999Y-126729999D02*
X69500000Y-125880000D01*
X70349999Y-127570001D02*
X70349999Y-126729999D01*
X69500000Y-128420000D02*
X70349999Y-127570001D01*
X69500000Y-124677919D02*
X69500000Y-123340000D01*
X69500000Y-125880000D02*
X69500000Y-124677919D01*
X69500000Y-122137919D02*
X69500000Y-120800000D01*
X69500000Y-123340000D02*
X69500000Y-122137919D01*
X69500000Y-120800000D02*
X69500000Y-118260000D01*
X69500000Y-118260000D02*
X69500000Y-115720000D01*
X109300000Y-107925000D02*
X108000000Y-107925000D01*
X108000000Y-107925000D02*
X103450000Y-103375000D01*
X102074999Y-115074999D02*
X99450307Y-115074999D01*
X99450307Y-115074999D02*
X91912653Y-122612653D01*
X167080000Y-69000000D02*
X163421347Y-72658653D01*
X163421347Y-72658653D02*
X158658653Y-72658653D01*
X156000000Y-71150001D02*
X155568205Y-70718206D01*
X155568205Y-70718206D02*
X155568205Y-67568205D01*
X155568205Y-67568205D02*
X155512653Y-67512653D01*
X163300000Y-73500000D02*
X160500000Y-73500000D01*
X160500000Y-73500000D02*
X160500000Y-73500000D01*
X158000000Y-71150001D02*
X158000000Y-68000000D01*
X158000000Y-68000000D02*
X156512653Y-66512653D01*
X129000000Y-116420000D02*
X127500000Y-117920000D01*
X129000000Y-99800000D02*
X127300000Y-99800000D01*
X127300000Y-99800000D02*
X127052653Y-99552653D01*
X117199999Y-95199999D02*
X116500000Y-94500000D01*
X119145847Y-97145847D02*
X117199999Y-95199999D01*
X123354153Y-97145847D02*
X119145847Y-97145847D01*
X123754152Y-96745848D02*
X123354153Y-97145847D01*
X129000000Y-99800000D02*
X145974000Y-99800000D01*
X98675000Y-111775000D02*
X98675000Y-114825000D01*
X98675000Y-114825000D02*
X90654978Y-122845022D01*
X94620000Y-134380000D02*
X100500000Y-134380000D01*
X92478846Y-136521154D02*
X94620000Y-134380000D01*
X129000000Y-103775000D02*
X129025000Y-103800000D01*
X129000000Y-99800000D02*
X129000000Y-103950000D01*
X122537977Y-126353261D02*
X125071739Y-126353261D01*
X121300001Y-127591237D02*
X122537977Y-126353261D01*
X122000000Y-134380000D02*
X121300001Y-133680001D01*
X121300001Y-133680001D02*
X121300001Y-127591237D01*
X111000000Y-134380000D02*
X116500000Y-134380000D01*
X69500000Y-108522081D02*
X69500000Y-109860000D01*
X69500000Y-107320000D02*
X69500000Y-108522081D01*
X129000000Y-116420000D02*
X129000000Y-106974010D01*
X162725000Y-90500000D02*
X163100000Y-90500000D01*
X163100000Y-90500000D02*
X164575000Y-89025000D01*
X169299999Y-77799999D02*
X168500000Y-77000000D01*
X170324559Y-78824559D02*
X169299999Y-77799999D01*
X171550000Y-86884315D02*
X170324559Y-85658874D01*
X170324559Y-85658874D02*
X170324559Y-78824559D01*
X171550000Y-87450000D02*
X171550000Y-86884315D01*
X96879997Y-109849999D02*
X103000000Y-109849999D01*
X86010000Y-98775000D02*
X86909999Y-99674999D01*
X86909999Y-99880001D02*
X96879997Y-109849999D01*
X86909999Y-99674999D02*
X86909999Y-99880001D01*
X105775000Y-122000000D02*
X107955001Y-122000000D01*
X107955001Y-122000000D02*
X109500000Y-123544999D01*
X124725000Y-144775000D02*
X127500000Y-142000000D01*
X124000000Y-144775000D02*
X124725000Y-144775000D01*
X85062209Y-64349999D02*
X88770001Y-64349999D01*
X84910000Y-64502208D02*
X85062209Y-64349999D01*
X84910000Y-65775000D02*
X84910000Y-64502208D01*
X88770001Y-64349999D02*
X93000000Y-68579998D01*
X93000000Y-68579998D02*
X93000000Y-72000000D01*
X95000000Y-80500000D02*
X95500000Y-81000000D01*
X112025001Y-93474999D02*
X111699999Y-93800001D01*
X106637002Y-81000000D02*
X112025001Y-86387999D01*
X111699999Y-93800001D02*
X111000000Y-94500000D01*
X112025001Y-86387999D02*
X112025001Y-93474999D01*
X95500000Y-81000000D02*
X106637002Y-81000000D01*
X207900000Y-65775000D02*
X204675000Y-69000000D01*
X204675000Y-69000000D02*
X199500000Y-69000000D01*
X136500000Y-117000000D02*
X132004152Y-112504152D01*
X132004152Y-112504152D02*
X132004152Y-104995848D01*
X128525001Y-85575001D02*
X128450000Y-85500000D01*
X129290071Y-93128550D02*
X128525001Y-92363480D01*
X128525001Y-92363480D02*
X128525001Y-85575001D01*
X121500000Y-82500000D02*
X111500000Y-82500000D01*
X111500000Y-82500000D02*
X110500000Y-83500000D01*
X106845000Y-86880000D02*
X105000000Y-86880000D01*
X108725000Y-85000000D02*
X106845000Y-86880000D01*
X86550001Y-86449999D02*
X82000000Y-91000000D01*
X87550000Y-78825000D02*
X86550001Y-79824999D01*
X86550001Y-79824999D02*
X86550001Y-86449999D01*
X74554652Y-107770001D02*
X91784651Y-125000000D01*
X91784651Y-125000000D02*
X92000000Y-125000000D01*
X107487347Y-145512653D02*
X111000000Y-142000000D01*
X102987347Y-145512653D02*
X107487347Y-145512653D01*
X125863590Y-140500000D02*
X126000000Y-140500000D01*
X121000000Y-143275000D02*
X123088590Y-143275000D01*
X123088590Y-143275000D02*
X125863590Y-140500000D01*
X139500000Y-130000000D02*
X139500000Y-128000000D01*
X139500000Y-128000000D02*
X138500000Y-127000000D01*
X166482218Y-118977612D02*
X166482218Y-112017782D01*
X166482218Y-112017782D02*
X166500000Y-112000000D01*
X122300001Y-139500000D02*
X122800001Y-139000000D01*
X122800001Y-139000000D02*
X125000000Y-139000000D01*
X127931499Y-136406193D02*
X129406193Y-136406193D01*
X155522990Y-136477010D02*
X157000000Y-135000000D01*
X129406193Y-136406193D02*
X129477010Y-136477010D01*
X129477010Y-136477010D02*
X155522990Y-136477010D01*
X157085402Y-128076837D02*
X157085402Y-119649904D01*
X157085402Y-119649904D02*
X157151153Y-119584153D01*
X121249989Y-96420847D02*
X118329142Y-93500000D01*
X118329142Y-93500000D02*
X118000000Y-93500000D01*
X109000000Y-80000000D02*
X103000000Y-80000000D01*
X126800001Y-133680001D02*
X127500000Y-134380000D01*
X126247001Y-133127001D02*
X126800001Y-133680001D01*
X126247001Y-127158391D02*
X126247001Y-133127001D01*
X126043469Y-126954859D02*
X126247001Y-127158391D01*
X111000000Y-86880000D02*
X109974999Y-87905001D01*
X109974999Y-87905001D02*
X109974999Y-94992001D01*
X138137348Y-116318592D02*
X138137348Y-114064346D01*
X143421746Y-121602990D02*
X138137348Y-116318592D01*
X137023002Y-112950000D02*
X133950000Y-112950000D01*
X145900000Y-117610000D02*
X145975010Y-117685010D01*
X144380000Y-117610000D02*
X145900000Y-117610000D01*
X145975010Y-117685010D02*
X145975010Y-120966234D01*
X138137348Y-114064346D02*
X137023002Y-112950000D01*
X145338254Y-121602990D02*
X143421746Y-121602990D01*
X145975010Y-120966234D02*
X145338254Y-121602990D01*
X102659999Y-103734999D02*
X111275000Y-112350000D01*
X107030999Y-94992001D02*
X104473001Y-97549999D01*
X109974999Y-94992001D02*
X107030999Y-94992001D01*
X104473001Y-97549999D02*
X103296999Y-97549999D01*
X103296999Y-97549999D02*
X102659999Y-98186999D01*
X102659999Y-98186999D02*
X102659999Y-103734999D01*
X127018762Y-122550000D02*
X131127001Y-118441761D01*
X112275000Y-122550000D02*
X127018762Y-122550000D01*
X131127001Y-118441761D02*
X131127001Y-115151991D01*
X131127001Y-115151991D02*
X130900000Y-114924990D01*
X130900000Y-114924990D02*
X130900000Y-113500000D01*
X142235664Y-107669990D02*
X139000000Y-110905654D01*
X139000000Y-116290000D02*
X142860000Y-120150000D01*
X142860000Y-120150000D02*
X144380000Y-120150000D01*
X139000000Y-110905654D02*
X139000000Y-116290000D01*
X124479153Y-100020847D02*
X124425000Y-100075000D01*
X124479153Y-95834437D02*
X124479153Y-100020847D01*
X124425000Y-100075000D02*
X122000000Y-102500000D01*
X124000000Y-95355284D02*
X124479153Y-95834437D01*
X124000000Y-91065685D02*
X123725009Y-91340676D01*
X124000000Y-90500000D02*
X124000000Y-91065685D01*
X123725009Y-95080293D02*
X124047358Y-95402642D01*
X123725009Y-91340676D02*
X123725009Y-95080293D01*
X138550000Y-118380000D02*
X138550000Y-117875000D01*
X144380000Y-122690000D02*
X142860000Y-122690000D01*
X142860000Y-122690000D02*
X138550000Y-118380000D01*
X133573651Y-118148651D02*
X133525652Y-118148651D01*
X133525652Y-118148651D02*
X131852001Y-116475000D01*
X126167241Y-112300000D02*
X125350000Y-112300000D01*
X127400000Y-116100000D02*
X127400000Y-113532759D01*
X127400000Y-113532759D02*
X126167241Y-112300000D01*
X124725001Y-93049998D02*
X124599999Y-93175000D01*
X124725001Y-88940687D02*
X124725001Y-93049998D01*
X124599999Y-88250000D02*
X124599999Y-88815685D01*
X124599999Y-88815685D02*
X124725001Y-88940687D01*
X126872904Y-101852096D02*
X127487583Y-101852096D01*
X122325000Y-109119990D02*
X122325000Y-106400000D01*
X122325000Y-106400000D02*
X126872904Y-101852096D01*
X168704572Y-53254989D02*
X170649583Y-55200000D01*
X170649583Y-55200000D02*
X190500000Y-55200000D01*
X144000000Y-59990000D02*
X144325010Y-59664990D01*
X161923426Y-53254989D02*
X168704572Y-53254989D01*
X144325010Y-59664990D02*
X155513425Y-59664990D01*
X144000000Y-61000000D02*
X144000000Y-59990000D01*
X155513425Y-59664990D02*
X161923426Y-53254989D01*
X191799999Y-75949999D02*
X190550000Y-74700000D01*
X192325001Y-76475001D02*
X191799999Y-75949999D01*
X198375001Y-75552001D02*
X197452001Y-76475001D01*
X198375001Y-68513999D02*
X198375001Y-75552001D01*
X190500000Y-60638998D02*
X198375001Y-68513999D01*
X197452001Y-76475001D02*
X192325001Y-76475001D01*
X190500000Y-57999989D02*
X190500000Y-60638998D01*
X189300001Y-73450001D02*
X190550000Y-74700000D01*
X188974999Y-73124999D02*
X189300001Y-73450001D01*
X183793999Y-73124999D02*
X188974999Y-73124999D01*
X182974999Y-73943999D02*
X183793999Y-73124999D01*
X182974999Y-107096411D02*
X182974999Y-73943999D01*
X195100001Y-119221413D02*
X182974999Y-107096411D01*
X195100001Y-124862563D02*
X195100001Y-119221413D01*
X192425000Y-127537564D02*
X195100001Y-124862563D01*
X192425000Y-128775000D02*
X192425000Y-127537564D01*
X167500000Y-141000000D02*
X163000000Y-141000000D01*
X163000000Y-141000000D02*
X163219999Y-141000000D01*
D38*
X193000000Y-64500000D02*
X193000000Y-67000000D01*
X193000000Y-67000000D02*
X192000000Y-68000000D01*
X161261999Y-95238001D02*
X160500000Y-96000000D01*
X166125450Y-90374550D02*
X161261999Y-95238001D01*
X167000000Y-85500000D02*
X166125450Y-86374550D01*
X165735707Y-89984807D02*
X166125450Y-90374550D01*
X166125450Y-86449550D02*
X165735707Y-86839293D01*
X165735707Y-86839293D02*
X165735707Y-89984807D01*
X166125450Y-86374550D02*
X166125450Y-86449550D01*
X215000000Y-62600000D02*
X211900000Y-59500000D01*
X205600000Y-59500000D02*
X202500000Y-62600000D01*
X211900000Y-59500000D02*
X205600000Y-59500000D01*
D40*
G36*
X192000000Y-69634871D02*
G01*
X192079914Y-69627000D01*
X197123001Y-69627000D01*
X197123002Y-72376982D01*
X197033305Y-72351131D01*
X196566738Y-72311730D01*
X196101448Y-72364109D01*
X195655318Y-72506255D01*
X195300806Y-72695747D01*
X195202814Y-73123208D01*
X196600000Y-74520395D01*
X196614143Y-74506253D01*
X196793748Y-74685858D01*
X196779605Y-74700000D01*
X196793748Y-74714143D01*
X196614143Y-74893748D01*
X196600000Y-74879605D01*
X196585858Y-74893748D01*
X196406253Y-74714143D01*
X196420395Y-74700000D01*
X195023208Y-73302814D01*
X194595747Y-73400806D01*
X194380798Y-73816780D01*
X194251131Y-74266695D01*
X194211730Y-74733262D01*
X194264109Y-75198552D01*
X194271899Y-75223001D01*
X192869537Y-75223001D01*
X192927000Y-74934114D01*
X192927000Y-74465886D01*
X192835653Y-74006655D01*
X192656470Y-73574068D01*
X192396336Y-73184751D01*
X192065249Y-72853664D01*
X191675932Y-72593530D01*
X191243345Y-72414347D01*
X190784114Y-72323000D01*
X190315886Y-72323000D01*
X190005362Y-72384767D01*
X189903786Y-72283191D01*
X189864580Y-72235418D01*
X189673938Y-72078963D01*
X189456437Y-71962706D01*
X189220434Y-71891115D01*
X189036497Y-71872999D01*
X189036495Y-71872999D01*
X188974999Y-71866942D01*
X188913503Y-71872999D01*
X183855495Y-71872999D01*
X183793999Y-71866942D01*
X183732503Y-71872999D01*
X183732501Y-71872999D01*
X183548564Y-71891115D01*
X183312561Y-71962706D01*
X183095060Y-72078963D01*
X182904418Y-72235418D01*
X182865207Y-72283196D01*
X182133187Y-73015216D01*
X182085419Y-73054418D01*
X182046217Y-73102186D01*
X182046216Y-73102187D01*
X181928963Y-73245061D01*
X181812706Y-73462562D01*
X181741116Y-73698565D01*
X181716942Y-73943999D01*
X181723000Y-74005505D01*
X181722999Y-96873000D01*
X172627000Y-96873000D01*
X172627000Y-88532505D01*
X172736099Y-88423406D01*
X172903210Y-88173306D01*
X173018319Y-87895410D01*
X173077000Y-87600396D01*
X173077000Y-87299604D01*
X173018319Y-87004590D01*
X172903210Y-86726694D01*
X172736099Y-86476594D01*
X172734026Y-86474521D01*
X172712293Y-86402878D01*
X172712293Y-86402877D01*
X172627000Y-86243305D01*
X172627000Y-85427926D01*
X173373001Y-86173927D01*
X173373000Y-89839755D01*
X173373000Y-90160245D01*
X173388670Y-90239024D01*
X173396542Y-90318947D01*
X173419855Y-90395800D01*
X173435525Y-90474578D01*
X173466261Y-90548782D01*
X173489575Y-90625637D01*
X173527435Y-90696469D01*
X173558172Y-90770673D01*
X173602796Y-90837457D01*
X173640654Y-90908285D01*
X173691602Y-90970365D01*
X173736227Y-91037152D01*
X173793022Y-91093947D01*
X173843971Y-91156029D01*
X173906055Y-91206980D01*
X173962848Y-91263773D01*
X174029631Y-91308395D01*
X174091714Y-91359346D01*
X174162547Y-91397207D01*
X174229327Y-91441828D01*
X174303527Y-91472563D01*
X174374362Y-91510425D01*
X174451221Y-91533740D01*
X174525422Y-91564475D01*
X174604197Y-91580144D01*
X174681052Y-91603458D01*
X174760977Y-91611330D01*
X174839755Y-91627000D01*
X174920075Y-91627000D01*
X175000000Y-91634872D01*
X175079925Y-91627000D01*
X175160245Y-91627000D01*
X175239024Y-91611330D01*
X175318947Y-91603458D01*
X175395800Y-91580145D01*
X175474578Y-91564475D01*
X175548782Y-91533739D01*
X175625637Y-91510425D01*
X175696469Y-91472565D01*
X175770673Y-91441828D01*
X175837457Y-91397204D01*
X175908285Y-91359346D01*
X175970365Y-91308398D01*
X176037152Y-91263773D01*
X176093947Y-91206978D01*
X176156029Y-91156029D01*
X176206980Y-91093945D01*
X176263773Y-91037152D01*
X176308395Y-90970369D01*
X176359346Y-90908286D01*
X176397207Y-90837453D01*
X176441828Y-90770673D01*
X176472563Y-90696473D01*
X176510425Y-90625638D01*
X176533740Y-90548779D01*
X176564475Y-90474578D01*
X176580144Y-90395803D01*
X176603458Y-90318948D01*
X176611330Y-90239023D01*
X176627000Y-90160245D01*
X176627000Y-85579925D01*
X176634872Y-85500000D01*
X176626347Y-85413440D01*
X176603458Y-85181052D01*
X176510425Y-84874362D01*
X176359346Y-84591714D01*
X176281273Y-84496581D01*
X176206978Y-84406052D01*
X176206975Y-84406049D01*
X176156029Y-84343971D01*
X176093951Y-84293025D01*
X173093947Y-81293022D01*
X172908285Y-81140654D01*
X172627000Y-80990304D01*
X172627000Y-74465886D01*
X176173000Y-74465886D01*
X176173000Y-74934114D01*
X176264347Y-75393345D01*
X176443530Y-75825932D01*
X176703664Y-76215249D01*
X177034751Y-76546336D01*
X177424068Y-76806470D01*
X177856655Y-76985653D01*
X178315886Y-77077000D01*
X178784114Y-77077000D01*
X179243345Y-76985653D01*
X179675932Y-76806470D01*
X180065249Y-76546336D01*
X180396336Y-76215249D01*
X180656470Y-75825932D01*
X180835653Y-75393345D01*
X180927000Y-74934114D01*
X180927000Y-74465886D01*
X180835653Y-74006655D01*
X180656470Y-73574068D01*
X180396336Y-73184751D01*
X180065249Y-72853664D01*
X179675932Y-72593530D01*
X179243345Y-72414347D01*
X178784114Y-72323000D01*
X178315886Y-72323000D01*
X177856655Y-72414347D01*
X177424068Y-72593530D01*
X177034751Y-72853664D01*
X176703664Y-73184751D01*
X176443530Y-73574068D01*
X176264347Y-74006655D01*
X176173000Y-74465886D01*
X172627000Y-74465886D01*
X172627000Y-69627000D01*
X191920086Y-69627000D01*
X192000000Y-69634871D01*
G37*
X192000000Y-69634871D02*
X192079914Y-69627000D01*
X197123001Y-69627000D01*
X197123002Y-72376982D01*
X197033305Y-72351131D01*
X196566738Y-72311730D01*
X196101448Y-72364109D01*
X195655318Y-72506255D01*
X195300806Y-72695747D01*
X195202814Y-73123208D01*
X196600000Y-74520395D01*
X196614143Y-74506253D01*
X196793748Y-74685858D01*
X196779605Y-74700000D01*
X196793748Y-74714143D01*
X196614143Y-74893748D01*
X196600000Y-74879605D01*
X196585858Y-74893748D01*
X196406253Y-74714143D01*
X196420395Y-74700000D01*
X195023208Y-73302814D01*
X194595747Y-73400806D01*
X194380798Y-73816780D01*
X194251131Y-74266695D01*
X194211730Y-74733262D01*
X194264109Y-75198552D01*
X194271899Y-75223001D01*
X192869537Y-75223001D01*
X192927000Y-74934114D01*
X192927000Y-74465886D01*
X192835653Y-74006655D01*
X192656470Y-73574068D01*
X192396336Y-73184751D01*
X192065249Y-72853664D01*
X191675932Y-72593530D01*
X191243345Y-72414347D01*
X190784114Y-72323000D01*
X190315886Y-72323000D01*
X190005362Y-72384767D01*
X189903786Y-72283191D01*
X189864580Y-72235418D01*
X189673938Y-72078963D01*
X189456437Y-71962706D01*
X189220434Y-71891115D01*
X189036497Y-71872999D01*
X189036495Y-71872999D01*
X188974999Y-71866942D01*
X188913503Y-71872999D01*
X183855495Y-71872999D01*
X183793999Y-71866942D01*
X183732503Y-71872999D01*
X183732501Y-71872999D01*
X183548564Y-71891115D01*
X183312561Y-71962706D01*
X183095060Y-72078963D01*
X182904418Y-72235418D01*
X182865207Y-72283196D01*
X182133187Y-73015216D01*
X182085419Y-73054418D01*
X182046217Y-73102186D01*
X182046216Y-73102187D01*
X181928963Y-73245061D01*
X181812706Y-73462562D01*
X181741116Y-73698565D01*
X181716942Y-73943999D01*
X181723000Y-74005505D01*
X181722999Y-96873000D01*
X172627000Y-96873000D01*
X172627000Y-88532505D01*
X172736099Y-88423406D01*
X172903210Y-88173306D01*
X173018319Y-87895410D01*
X173077000Y-87600396D01*
X173077000Y-87299604D01*
X173018319Y-87004590D01*
X172903210Y-86726694D01*
X172736099Y-86476594D01*
X172734026Y-86474521D01*
X172712293Y-86402878D01*
X172712293Y-86402877D01*
X172627000Y-86243305D01*
X172627000Y-85427926D01*
X173373001Y-86173927D01*
X173373000Y-89839755D01*
X173373000Y-90160245D01*
X173388670Y-90239024D01*
X173396542Y-90318947D01*
X173419855Y-90395800D01*
X173435525Y-90474578D01*
X173466261Y-90548782D01*
X173489575Y-90625637D01*
X173527435Y-90696469D01*
X173558172Y-90770673D01*
X173602796Y-90837457D01*
X173640654Y-90908285D01*
X173691602Y-90970365D01*
X173736227Y-91037152D01*
X173793022Y-91093947D01*
X173843971Y-91156029D01*
X173906055Y-91206980D01*
X173962848Y-91263773D01*
X174029631Y-91308395D01*
X174091714Y-91359346D01*
X174162547Y-91397207D01*
X174229327Y-91441828D01*
X174303527Y-91472563D01*
X174374362Y-91510425D01*
X174451221Y-91533740D01*
X174525422Y-91564475D01*
X174604197Y-91580144D01*
X174681052Y-91603458D01*
X174760977Y-91611330D01*
X174839755Y-91627000D01*
X174920075Y-91627000D01*
X175000000Y-91634872D01*
X175079925Y-91627000D01*
X175160245Y-91627000D01*
X175239024Y-91611330D01*
X175318947Y-91603458D01*
X175395800Y-91580145D01*
X175474578Y-91564475D01*
X175548782Y-91533739D01*
X175625637Y-91510425D01*
X175696469Y-91472565D01*
X175770673Y-91441828D01*
X175837457Y-91397204D01*
X175908285Y-91359346D01*
X175970365Y-91308398D01*
X176037152Y-91263773D01*
X176093947Y-91206978D01*
X176156029Y-91156029D01*
X176206980Y-91093945D01*
X176263773Y-91037152D01*
X176308395Y-90970369D01*
X176359346Y-90908286D01*
X176397207Y-90837453D01*
X176441828Y-90770673D01*
X176472563Y-90696473D01*
X176510425Y-90625638D01*
X176533740Y-90548779D01*
X176564475Y-90474578D01*
X176580144Y-90395803D01*
X176603458Y-90318948D01*
X176611330Y-90239023D01*
X176627000Y-90160245D01*
X176627000Y-85579925D01*
X176634872Y-85500000D01*
X176626347Y-85413440D01*
X176603458Y-85181052D01*
X176510425Y-84874362D01*
X176359346Y-84591714D01*
X176281273Y-84496581D01*
X176206978Y-84406052D01*
X176206975Y-84406049D01*
X176156029Y-84343971D01*
X176093951Y-84293025D01*
X173093947Y-81293022D01*
X172908285Y-81140654D01*
X172627000Y-80990304D01*
X172627000Y-74465886D01*
X176173000Y-74465886D01*
X176173000Y-74934114D01*
X176264347Y-75393345D01*
X176443530Y-75825932D01*
X176703664Y-76215249D01*
X177034751Y-76546336D01*
X177424068Y-76806470D01*
X177856655Y-76985653D01*
X178315886Y-77077000D01*
X178784114Y-77077000D01*
X179243345Y-76985653D01*
X179675932Y-76806470D01*
X180065249Y-76546336D01*
X180396336Y-76215249D01*
X180656470Y-75825932D01*
X180835653Y-75393345D01*
X180927000Y-74934114D01*
X180927000Y-74465886D01*
X180835653Y-74006655D01*
X180656470Y-73574068D01*
X180396336Y-73184751D01*
X180065249Y-72853664D01*
X179675932Y-72593530D01*
X179243345Y-72414347D01*
X178784114Y-72323000D01*
X178315886Y-72323000D01*
X177856655Y-72414347D01*
X177424068Y-72593530D01*
X177034751Y-72853664D01*
X176703664Y-73184751D01*
X176443530Y-73574068D01*
X176264347Y-74006655D01*
X176173000Y-74465886D01*
X172627000Y-74465886D01*
X172627000Y-69627000D01*
X191920086Y-69627000D01*
X192000000Y-69634871D01*
G36*
X221373000Y-96873000D02*
G01*
X185802000Y-96873000D01*
X185802000Y-76722234D01*
X186065249Y-76546336D01*
X186396336Y-76215249D01*
X186656470Y-75825932D01*
X186835653Y-75393345D01*
X186927000Y-74934114D01*
X186927000Y-74465886D01*
X186909319Y-74376999D01*
X188190681Y-74376999D01*
X188173000Y-74465886D01*
X188173000Y-74934114D01*
X188264347Y-75393345D01*
X188443530Y-75825932D01*
X188703664Y-76215249D01*
X189034751Y-76546336D01*
X189424068Y-76806470D01*
X189856655Y-76985653D01*
X190315886Y-77077000D01*
X190784114Y-77077000D01*
X191094638Y-77015233D01*
X191396214Y-77316809D01*
X191435420Y-77364582D01*
X191626062Y-77521037D01*
X191843563Y-77637294D01*
X192079566Y-77708885D01*
X192263503Y-77727001D01*
X192263505Y-77727001D01*
X192325001Y-77733058D01*
X192386497Y-77727001D01*
X197390505Y-77727001D01*
X197452001Y-77733058D01*
X197513497Y-77727001D01*
X197513499Y-77727001D01*
X197697436Y-77708885D01*
X197933439Y-77637294D01*
X198150940Y-77521037D01*
X198341582Y-77364582D01*
X198380788Y-77316809D01*
X199216814Y-76480784D01*
X199264582Y-76441582D01*
X199303784Y-76393814D01*
X199421037Y-76250941D01*
X199537294Y-76033439D01*
X199547443Y-75999981D01*
X200723000Y-75999981D01*
X200723000Y-76350019D01*
X200791289Y-76693332D01*
X200925243Y-77016725D01*
X201119714Y-77307771D01*
X201367229Y-77555286D01*
X201658275Y-77749757D01*
X201981668Y-77883711D01*
X202324981Y-77952000D01*
X202675019Y-77952000D01*
X202929975Y-77901286D01*
X202845785Y-78200432D01*
X202813142Y-78618141D01*
X202862618Y-79034192D01*
X202992311Y-79432597D01*
X203149301Y-79726303D01*
X203551208Y-79794187D01*
X204770395Y-78575000D01*
X204756253Y-78560858D01*
X204935858Y-78381253D01*
X204950000Y-78395395D01*
X204964143Y-78381253D01*
X205143748Y-78560858D01*
X205129605Y-78575000D01*
X205143748Y-78589143D01*
X204964143Y-78768748D01*
X204950000Y-78754605D01*
X203730813Y-79973792D01*
X203798697Y-80375699D01*
X204172117Y-80565708D01*
X204575432Y-80679215D01*
X204993141Y-80711858D01*
X205409192Y-80662382D01*
X205807597Y-80532689D01*
X206101303Y-80375699D01*
X206107280Y-80340313D01*
X206194116Y-80427149D01*
X206542488Y-80659923D01*
X206929577Y-80820261D01*
X207340509Y-80902000D01*
X207759491Y-80902000D01*
X208170423Y-80820261D01*
X208266679Y-80780390D01*
X208223000Y-80999981D01*
X208223000Y-81350019D01*
X208291289Y-81693332D01*
X208425243Y-82016725D01*
X208619714Y-82307771D01*
X208867229Y-82555286D01*
X209158275Y-82749757D01*
X209481668Y-82883711D01*
X209824981Y-82952000D01*
X210175019Y-82952000D01*
X210518332Y-82883711D01*
X210841725Y-82749757D01*
X211132771Y-82555286D01*
X211380286Y-82307771D01*
X211574757Y-82016725D01*
X211708711Y-81693332D01*
X211777000Y-81350019D01*
X211777000Y-80999981D01*
X211708711Y-80656668D01*
X211574757Y-80333275D01*
X211380286Y-80042229D01*
X211132771Y-79794714D01*
X210841725Y-79600243D01*
X210518332Y-79466289D01*
X210175019Y-79398000D01*
X209824981Y-79398000D01*
X209573471Y-79448028D01*
X209595261Y-79395423D01*
X209677000Y-78984491D01*
X209677000Y-78565509D01*
X209595261Y-78154577D01*
X209434923Y-77767488D01*
X209202149Y-77419116D01*
X208905884Y-77122851D01*
X208557512Y-76890077D01*
X208170423Y-76729739D01*
X207759491Y-76648000D01*
X207340509Y-76648000D01*
X206929577Y-76729739D01*
X206542488Y-76890077D01*
X206389211Y-76992493D01*
X206371055Y-76974337D01*
X206279779Y-77065613D01*
X206194116Y-77122851D01*
X206165079Y-77151888D01*
X206101303Y-76774301D01*
X205727883Y-76584292D01*
X205324568Y-76470785D01*
X204906859Y-76438142D01*
X204490808Y-76487618D01*
X204232932Y-76571565D01*
X204277000Y-76350019D01*
X204277000Y-75999981D01*
X204208711Y-75656668D01*
X204074757Y-75333275D01*
X203880286Y-75042229D01*
X203632771Y-74794714D01*
X203341725Y-74600243D01*
X203018332Y-74466289D01*
X203016306Y-74465886D01*
X213973000Y-74465886D01*
X213973000Y-74934114D01*
X214064347Y-75393345D01*
X214243530Y-75825932D01*
X214503664Y-76215249D01*
X214834751Y-76546336D01*
X215224068Y-76806470D01*
X215656655Y-76985653D01*
X216115886Y-77077000D01*
X216584114Y-77077000D01*
X217043345Y-76985653D01*
X217475932Y-76806470D01*
X217865249Y-76546336D01*
X218196336Y-76215249D01*
X218456470Y-75825932D01*
X218635653Y-75393345D01*
X218727000Y-74934114D01*
X218727000Y-74465886D01*
X218635653Y-74006655D01*
X218456470Y-73574068D01*
X218196336Y-73184751D01*
X217865249Y-72853664D01*
X217475932Y-72593530D01*
X217043345Y-72414347D01*
X216584114Y-72323000D01*
X216115886Y-72323000D01*
X215656655Y-72414347D01*
X215224068Y-72593530D01*
X214834751Y-72853664D01*
X214503664Y-73184751D01*
X214243530Y-73574068D01*
X214064347Y-74006655D01*
X213973000Y-74465886D01*
X203016306Y-74465886D01*
X202675019Y-74398000D01*
X202324981Y-74398000D01*
X201981668Y-74466289D01*
X201658275Y-74600243D01*
X201367229Y-74794714D01*
X201119714Y-75042229D01*
X200925243Y-75333275D01*
X200791289Y-75656668D01*
X200723000Y-75999981D01*
X199547443Y-75999981D01*
X199567494Y-75933883D01*
X199608885Y-75797436D01*
X199627001Y-75613499D01*
X199627001Y-75613498D01*
X199633058Y-75552002D01*
X199627001Y-75490506D01*
X199627001Y-70527000D01*
X199650396Y-70527000D01*
X199945410Y-70468319D01*
X200223306Y-70353210D01*
X200374778Y-70252000D01*
X204613504Y-70252000D01*
X204675000Y-70258057D01*
X204736496Y-70252000D01*
X204736498Y-70252000D01*
X204920435Y-70233884D01*
X205156438Y-70162293D01*
X205373939Y-70046036D01*
X205564581Y-69889581D01*
X205603787Y-69841808D01*
X205818595Y-69627000D01*
X221373000Y-69627000D01*
X221373000Y-96873000D01*
G37*
X221373000Y-96873000D02*
X185802000Y-96873000D01*
X185802000Y-76722234D01*
X186065249Y-76546336D01*
X186396336Y-76215249D01*
X186656470Y-75825932D01*
X186835653Y-75393345D01*
X186927000Y-74934114D01*
X186927000Y-74465886D01*
X186909319Y-74376999D01*
X188190681Y-74376999D01*
X188173000Y-74465886D01*
X188173000Y-74934114D01*
X188264347Y-75393345D01*
X188443530Y-75825932D01*
X188703664Y-76215249D01*
X189034751Y-76546336D01*
X189424068Y-76806470D01*
X189856655Y-76985653D01*
X190315886Y-77077000D01*
X190784114Y-77077000D01*
X191094638Y-77015233D01*
X191396214Y-77316809D01*
X191435420Y-77364582D01*
X191626062Y-77521037D01*
X191843563Y-77637294D01*
X192079566Y-77708885D01*
X192263503Y-77727001D01*
X192263505Y-77727001D01*
X192325001Y-77733058D01*
X192386497Y-77727001D01*
X197390505Y-77727001D01*
X197452001Y-77733058D01*
X197513497Y-77727001D01*
X197513499Y-77727001D01*
X197697436Y-77708885D01*
X197933439Y-77637294D01*
X198150940Y-77521037D01*
X198341582Y-77364582D01*
X198380788Y-77316809D01*
X199216814Y-76480784D01*
X199264582Y-76441582D01*
X199303784Y-76393814D01*
X199421037Y-76250941D01*
X199537294Y-76033439D01*
X199547443Y-75999981D01*
X200723000Y-75999981D01*
X200723000Y-76350019D01*
X200791289Y-76693332D01*
X200925243Y-77016725D01*
X201119714Y-77307771D01*
X201367229Y-77555286D01*
X201658275Y-77749757D01*
X201981668Y-77883711D01*
X202324981Y-77952000D01*
X202675019Y-77952000D01*
X202929975Y-77901286D01*
X202845785Y-78200432D01*
X202813142Y-78618141D01*
X202862618Y-79034192D01*
X202992311Y-79432597D01*
X203149301Y-79726303D01*
X203551208Y-79794187D01*
X204770395Y-78575000D01*
X204756253Y-78560858D01*
X204935858Y-78381253D01*
X204950000Y-78395395D01*
X204964143Y-78381253D01*
X205143748Y-78560858D01*
X205129605Y-78575000D01*
X205143748Y-78589143D01*
X204964143Y-78768748D01*
X204950000Y-78754605D01*
X203730813Y-79973792D01*
X203798697Y-80375699D01*
X204172117Y-80565708D01*
X204575432Y-80679215D01*
X204993141Y-80711858D01*
X205409192Y-80662382D01*
X205807597Y-80532689D01*
X206101303Y-80375699D01*
X206107280Y-80340313D01*
X206194116Y-80427149D01*
X206542488Y-80659923D01*
X206929577Y-80820261D01*
X207340509Y-80902000D01*
X207759491Y-80902000D01*
X208170423Y-80820261D01*
X208266679Y-80780390D01*
X208223000Y-80999981D01*
X208223000Y-81350019D01*
X208291289Y-81693332D01*
X208425243Y-82016725D01*
X208619714Y-82307771D01*
X208867229Y-82555286D01*
X209158275Y-82749757D01*
X209481668Y-82883711D01*
X209824981Y-82952000D01*
X210175019Y-82952000D01*
X210518332Y-82883711D01*
X210841725Y-82749757D01*
X211132771Y-82555286D01*
X211380286Y-82307771D01*
X211574757Y-82016725D01*
X211708711Y-81693332D01*
X211777000Y-81350019D01*
X211777000Y-80999981D01*
X211708711Y-80656668D01*
X211574757Y-80333275D01*
X211380286Y-80042229D01*
X211132771Y-79794714D01*
X210841725Y-79600243D01*
X210518332Y-79466289D01*
X210175019Y-79398000D01*
X209824981Y-79398000D01*
X209573471Y-79448028D01*
X209595261Y-79395423D01*
X209677000Y-78984491D01*
X209677000Y-78565509D01*
X209595261Y-78154577D01*
X209434923Y-77767488D01*
X209202149Y-77419116D01*
X208905884Y-77122851D01*
X208557512Y-76890077D01*
X208170423Y-76729739D01*
X207759491Y-76648000D01*
X207340509Y-76648000D01*
X206929577Y-76729739D01*
X206542488Y-76890077D01*
X206389211Y-76992493D01*
X206371055Y-76974337D01*
X206279779Y-77065613D01*
X206194116Y-77122851D01*
X206165079Y-77151888D01*
X206101303Y-76774301D01*
X205727883Y-76584292D01*
X205324568Y-76470785D01*
X204906859Y-76438142D01*
X204490808Y-76487618D01*
X204232932Y-76571565D01*
X204277000Y-76350019D01*
X204277000Y-75999981D01*
X204208711Y-75656668D01*
X204074757Y-75333275D01*
X203880286Y-75042229D01*
X203632771Y-74794714D01*
X203341725Y-74600243D01*
X203018332Y-74466289D01*
X203016306Y-74465886D01*
X213973000Y-74465886D01*
X213973000Y-74934114D01*
X214064347Y-75393345D01*
X214243530Y-75825932D01*
X214503664Y-76215249D01*
X214834751Y-76546336D01*
X215224068Y-76806470D01*
X215656655Y-76985653D01*
X216115886Y-77077000D01*
X216584114Y-77077000D01*
X217043345Y-76985653D01*
X217475932Y-76806470D01*
X217865249Y-76546336D01*
X218196336Y-76215249D01*
X218456470Y-75825932D01*
X218635653Y-75393345D01*
X218727000Y-74934114D01*
X218727000Y-74465886D01*
X218635653Y-74006655D01*
X218456470Y-73574068D01*
X218196336Y-73184751D01*
X217865249Y-72853664D01*
X217475932Y-72593530D01*
X217043345Y-72414347D01*
X216584114Y-72323000D01*
X216115886Y-72323000D01*
X215656655Y-72414347D01*
X215224068Y-72593530D01*
X214834751Y-72853664D01*
X214503664Y-73184751D01*
X214243530Y-73574068D01*
X214064347Y-74006655D01*
X213973000Y-74465886D01*
X203016306Y-74465886D01*
X202675019Y-74398000D01*
X202324981Y-74398000D01*
X201981668Y-74466289D01*
X201658275Y-74600243D01*
X201367229Y-74794714D01*
X201119714Y-75042229D01*
X200925243Y-75333275D01*
X200791289Y-75656668D01*
X200723000Y-75999981D01*
X199547443Y-75999981D01*
X199567494Y-75933883D01*
X199608885Y-75797436D01*
X199627001Y-75613499D01*
X199627001Y-75613498D01*
X199633058Y-75552002D01*
X199627001Y-75490506D01*
X199627001Y-70527000D01*
X199650396Y-70527000D01*
X199945410Y-70468319D01*
X200223306Y-70353210D01*
X200374778Y-70252000D01*
X204613504Y-70252000D01*
X204675000Y-70258057D01*
X204736496Y-70252000D01*
X204736498Y-70252000D01*
X204920435Y-70233884D01*
X205156438Y-70162293D01*
X205373939Y-70046036D01*
X205564581Y-69889581D01*
X205603787Y-69841808D01*
X205818595Y-69627000D01*
X221373000Y-69627000D01*
X221373000Y-96873000D01*
M02*
