M48
; DRILL file {KiCad 5.1.5-52549c5~84~ubuntu19.04.1} date Sat Jan 25 14:44:05 2020
; FORMAT={-:-/ absolute / inch / decimal}
; #@! TF.CreationDate,2020-01-25T14:44:05+01:00
; #@! TF.GenerationSoftware,Kicad,Pcbnew,5.1.5-52549c5~84~ubuntu19.04.1
; #@! TF.FileFunction,Plated,1,2,PTH
FMAT,2
INCH
T1C0.0157
T2C0.0197
T3C0.0276
T4C0.0300
T5C0.0315
T6C0.0354
T7C0.0394
T8C0.0400
T9C0.0402
T10C0.0512
T11C0.0551
T12C0.0591
T13C0.0610
T14C0.0906
T15C0.1063
%
G90
G05
T1
X2.9311Y-2.937
X2.9352Y-4.2429
X3.2283Y-3.5827
X3.5691Y-4.8364
X3.6186Y-4.8273
X3.622Y-4.9213
X3.6409Y-5.3748
X3.6614Y-2.8346
X3.7402Y-3.1693
X3.7598Y-5.0846
X4.0187Y-4.5305
X4.0546Y-5.7288
X4.0551Y-3.1496
X4.0551Y-4.3248
X4.0728Y-4.0699
X4.0748Y-5.5315
X4.1614Y-4.3829
X4.1644Y-4.0955
X4.1644Y-4.8031
X4.1929Y-4.8925
X4.2126Y-5.6693
X4.2164Y-2.9172
X4.2717Y-5.2559
X4.2743Y-4.0455
X4.2805Y-3.3465
X4.2913Y-3.1496
X4.3031Y-4.249
X4.311Y-4.864
X4.3307Y-4.4488
X4.3504Y-3.2874
X4.3809Y-4.4232
X4.4203Y-4.8248
X4.4488Y-4.3701
X4.4596Y-3.4193
X4.4882Y-3.2195
X4.5167Y-3.5344
X4.5276Y-2.7352
X4.5276Y-2.8337
X4.5675Y-4.2179
X4.6026Y-4.0327
X4.6171Y-3.5098
X4.623Y-4.0965
X4.626Y-4.3701
X4.6457Y-3.6811
X4.6831Y-3.2766
X4.685Y-4.8622
X4.685Y-5.1289
X4.685Y-5.1683
X4.6923Y-4.5203
X4.7146Y-2.9144
X4.7205Y-3.2087
X4.7249Y-5.0389
X4.7638Y-5.6407
X4.7736Y-3.7961
X4.7835Y-3.248
X4.8031Y-4.0354
X4.8135Y-3.9847
X4.815Y-5.4921
X4.8159Y-4.2961
X4.8169Y-3.2854
X4.8228Y-5.2362
X4.8278Y-3.9183
X4.8425Y-5.6693
X4.8661Y-5.1201
X4.8685Y-5.2264
X4.8722Y-3.8089
X4.875Y-4.2961
X4.8773Y-3.1335
X4.8819Y-3.563
X4.8819Y-5.6998
X4.9055Y-3.4744
X4.9055Y-3.6683
X4.9114Y-3.2195
X4.9213Y-5.4724
X4.9241Y-4.9745
X4.935Y-4.4213
X4.9404Y-5.6294
X4.9469Y-4.3189
X4.9606Y-5.5315
X4.9623Y-4.9982
X4.9797Y-5.3849
X4.9823Y-4.4786
X4.9921Y-2.874
X5.0Y-3.8189
X5.0021Y-3.9194
X5.0148Y-4.2067
X5.0157Y-4.5709
X5.0192Y-4.0099
X5.0197Y-4.8925
X5.0354Y-4.1358
X5.0367Y-5.3703
X5.0374Y-5.2254
X5.0384Y-4.3504
X5.0395Y-3.9762
X5.0414Y-4.0694
X5.0571Y-3.3661
X5.0591Y-3.878
X5.0787Y-3.9291
X5.0787Y-4.0925
X5.0787Y-4.2116
X5.0787Y-4.8622
X5.0902Y-3.6665
X5.1181Y-4.0157
X5.1329Y-4.2972
X5.1378Y-3.6417
X5.1437Y-4.2087
X5.1535Y-4.4685
X5.1634Y-3.1496
X5.1897Y-4.5071
X5.191Y-4.5856
X5.1969Y-3.3268
X5.1969Y-3.7598
X5.1969Y-3.9764
X5.1969Y-4.9213
X5.197Y-4.1337
X5.1989Y-5.0787
X5.2559Y-3.5236
X5.2559Y-4.0945
X5.2559Y-4.3307
X5.2588Y-4.6515
X5.2736Y-4.4469
X5.2756Y-3.8189
X5.3085Y-5.0984
X5.374Y-4.6063
X5.4099Y-4.5044
X5.4134Y-5.1575
X5.4311Y-3.9754
X5.4331Y-2.9774
X5.4331Y-3.3268
X5.4362Y-3.5056
X5.4528Y-5.0
X5.4547Y-4.6407
X5.4724Y-3.364
X5.4724Y-4.0551
X5.4921Y-5.1181
X5.505Y-4.3741
X5.5277Y-3.878
X5.5704Y-3.364
X5.5906Y-3.3071
X5.5998Y-4.239
X5.747Y-3.9291
X5.748Y-3.3268
X5.7697Y-3.248
X5.8056Y-3.218
X5.8066Y-3.2869
X5.8205Y-2.8346
X5.8263Y-2.8735
X5.8465Y-2.7953
X5.9257Y-2.8548
X5.9843Y-3.4388
X6.0972Y-5.1036
X6.122Y-3.364
X6.1225Y-2.658
X6.1269Y-2.9773
X6.1417Y-2.8012
X6.1417Y-4.2323
X6.1552Y-5.0161
X6.1614Y-3.6024
X6.1619Y-2.6186
X6.1668Y-4.03
X6.1811Y-5.315
X6.1845Y-5.0424
X6.1871Y-4.708
X6.2205Y-2.8012
X6.2402Y-3.189
X6.2402Y-3.3465
X6.2464Y-2.8606
X6.2598Y-2.6654
X6.3189Y-2.8937
X6.3189Y-3.6003
X6.3236Y-4.1849
X6.3386Y-3.1102
X6.3772Y-3.66
X6.378Y-2.8202
X6.378Y-3.364
X6.3981Y-3.1491
X6.4065Y-3.563
X6.4107Y-3.6154
X6.4212Y-4.132
X6.426Y-5.5512
X6.4291Y-2.8937
X6.4301Y-4.249
X6.437Y-2.9331
X6.437Y-4.8425
X6.4567Y-3.4449
X6.4759Y-3.2672
X6.4793Y-3.5049
X6.4961Y-4.7441
X6.5441Y-3.0165
X6.5544Y-4.6842
X6.5551Y-4.4094
X6.5738Y-5.4024
X6.5748Y-3.2874
X6.5748Y-3.3661
X6.5945Y-5.5512
X6.6142Y-4.5945
X6.6329Y-4.2411
X6.6339Y-3.7795
X6.6595Y-3.8338
X6.6841Y-5.3996
X6.6929Y-2.4213
X6.6929Y-5.3346
X6.7539Y-3.4429
X6.7717Y-3.248
X6.8898Y-3.5433
X7.0492Y-5.0226
X7.5Y-2.1732
X7.5Y-2.2835
X7.5591Y-2.6772
X7.5984Y-2.5394
X7.8543Y-2.7165
X8.0492Y-2.7933
T3
X3.2283Y-3.4205
X3.2283Y-3.7205
X5.4134Y-5.2906
X5.4134Y-5.5906
X5.0197Y-5.2906
X5.0197Y-5.5906
X4.1535Y-5.2953
X4.1535Y-5.5953
X4.252Y-3.0709
X4.552Y-3.0709
X3.6614Y-3.4205
X3.6614Y-3.7205
X4.8031Y-5.2906
X4.8031Y-5.5906
X5.0197Y-3.4205
X5.0197Y-3.7205
X4.8031Y-3.4205
X4.8031Y-3.7205
X4.6803Y-3.0709
X4.9803Y-3.0709
X5.2165Y-5.2906
X5.2165Y-5.5906
X4.1339Y-3.4205
X4.1339Y-3.7205
X4.3701Y-5.2906
X4.3701Y-5.5906
X3.9567Y-5.2906
X3.9567Y-5.5906
X4.5866Y-3.4205
X4.5866Y-3.7205
X4.3701Y-3.4205
X4.3701Y-3.7205
X3.4449Y-3.4205
X3.4449Y-3.7205
X4.5866Y-5.2906
X4.5866Y-5.5906
X3.0118Y-3.4205
X3.0118Y-3.7205
X3.8976Y-3.4205
X3.8976Y-3.7205
T4
X6.3189Y-3.6795
X6.3189Y-3.7795
X6.3189Y-3.8795
X4.8197Y-4.6425
X4.8197Y-5.0425
X4.9197Y-4.6425
X4.9197Y-5.0425
X5.0197Y-4.6425
X5.0197Y-5.0425
X5.1197Y-4.6425
X5.1197Y-5.0425
T5
X5.2362Y-2.5591
X5.2362Y-2.7559
X4.7047Y-2.6772
X4.7047Y-2.7756
X6.6339Y-2.9331
X6.6339Y-3.0315
X5.8661Y-3.0118
X5.8661Y-3.1102
X3.4811Y-5.4528
X3.5811Y-5.4528
X3.6811Y-5.4528
X4.3882Y-4.1929
X4.3882Y-4.4929
X4.4882Y-4.1929
X4.4882Y-4.4929
X4.685Y-4.4488
X4.8819Y-4.4488
X3.8976Y-2.9921
X3.9961Y-2.9921
X5.689Y-3.0118
X5.689Y-3.1102
X4.3882Y-4.6654
X4.3882Y-4.9654
X4.4882Y-4.6654
X4.4882Y-4.9654
X6.4764Y-3.0118
X6.4764Y-3.1102
X4.4094Y-3.9567
X4.6063Y-3.9567
X4.2913Y-2.6772
X4.2913Y-2.7756
T6
X3.3429Y-2.5896
X3.4429Y-2.5896
X8.185Y-2.5896
X8.285Y-2.5896
X3.8587Y-3.8878
X3.9587Y-3.8878
X3.3862Y-3.8888
X3.4862Y-3.8888
X7.9492Y-2.5896
X8.0492Y-2.5896
X4.09Y-3.8888
X4.19Y-3.8888
X3.6185Y-3.8888
X3.7185Y-3.8888
T7
X5.6693Y-2.7165
X5.7693Y-2.7165
X5.8693Y-2.7165
X6.378Y-2.7165
X6.478Y-2.7165
X6.578Y-2.7165
X6.3354Y-4.1142
X6.5354Y-4.1142
X7.5758Y-5.0699
X7.7234Y-5.0699
X7.8711Y-5.0699
X2.7362Y-2.3031
X2.7362Y-2.4031
X2.7362Y-2.5031
X2.7362Y-2.6031
X2.7362Y-2.7031
X2.7362Y-2.8031
X2.7362Y-2.9031
X2.7362Y-3.0031
X2.7362Y-3.1031
X2.7362Y-3.2031
X2.7362Y-3.4252
X2.7362Y-3.5252
X2.7362Y-3.6252
X2.7362Y-3.7252
X2.7362Y-3.8252
X2.7362Y-3.9252
X2.7362Y-4.0252
X2.7362Y-4.1252
X2.7362Y-4.2252
X2.7362Y-4.3252
X3.6864Y-4.9715
X3.688Y-4.4006
X3.7864Y-4.9715
X3.8848Y-4.4006
X3.8864Y-4.9715
X2.7362Y-4.5559
X2.7362Y-4.6559
X2.7362Y-4.7559
X2.7362Y-4.8559
X2.7362Y-4.9559
X2.7362Y-5.0559
X2.7362Y-5.1559
X2.7362Y-5.2559
X2.7362Y-5.3559
X2.7362Y-5.4559
T8
X5.6843Y-4.3303
X5.6843Y-4.4303
X5.6843Y-4.5303
X5.6843Y-4.6303
X5.6843Y-4.7303
X5.6843Y-4.8303
X5.6843Y-4.9303
X5.6843Y-5.0303
X5.6843Y-5.1303
X5.6843Y-5.2303
X5.6843Y-5.3303
X5.6843Y-5.4303
X5.6843Y-5.5303
X5.6843Y-5.6303
X5.7843Y-4.3303
X5.7843Y-5.1303
X5.7843Y-5.2303
X5.7843Y-5.3303
X5.7843Y-5.5303
X5.8843Y-4.3303
X5.8843Y-4.4303
X5.8843Y-4.5303
X5.8843Y-4.6303
X5.8843Y-4.7303
X5.8843Y-4.8303
X5.8843Y-4.9303
X5.8843Y-5.0303
X5.9843Y-4.3303
X5.9843Y-4.4303
X5.9843Y-4.5303
X5.9843Y-4.6303
X5.9843Y-4.7303
X5.9843Y-4.8303
X5.9843Y-4.9303
X5.9843Y-5.0303
X6.0843Y-4.3303
X6.1843Y-4.3303
X6.2843Y-4.3303
X6.2843Y-4.4303
X6.2843Y-4.5303
X6.2843Y-4.6303
X6.2843Y-4.7303
X6.2843Y-4.8303
X6.2843Y-4.9303
X6.2843Y-5.0303
X6.2843Y-5.1303
X6.2843Y-5.2303
X6.2843Y-5.3303
X6.2843Y-5.4303
X6.2843Y-5.5303
X6.2843Y-5.6303
T9
X4.8228Y-2.4016
X4.9409Y-2.4016
X5.0591Y-2.4016
X5.1772Y-2.4016
X5.6693Y-2.4016
X5.7874Y-2.4016
X5.9055Y-2.4016
X6.378Y-2.4016
X6.4961Y-2.4016
T10
X6.0984Y-3.1014
X6.2008Y-3.1093
X5.311Y-3.0955
X5.4134Y-3.1033
X3.3445Y-3.0955
X3.4469Y-3.1033
X8.0689Y-3.0935
X8.1713Y-3.1014
T11
X7.9724Y-2.1024
X7.9724Y-2.4646
X8.1299Y-2.1024
X8.1299Y-2.4646
X8.2874Y-2.1024
X8.2874Y-2.4646
X3.2283Y-2.1024
X3.2283Y-2.4646
X3.3858Y-2.1024
X3.3858Y-2.4646
X7.3425Y-2.1024
X7.3425Y-2.4646
X7.5Y-2.1024
X7.5Y-2.4646
X7.6575Y-2.1024
X7.6575Y-2.4646
X4.0157Y-2.1024
X4.0157Y-2.4646
X4.1732Y-2.1024
X4.1732Y-2.4646
X4.3307Y-2.1024
X4.3307Y-2.4646
X8.4646Y-2.1024
X8.4646Y-2.4646
X8.622Y-2.1024
X8.622Y-2.4646
X6.8898Y-2.1024
X6.8898Y-2.4646
X7.0472Y-2.1024
X7.0472Y-2.4646
T12
X7.0039Y-5.311
X7.0295Y-2.9409
X7.2657Y-2.9409
X7.502Y-2.9409
X7.5059Y-5.311
X7.7402Y-2.9409
X8.5177Y-2.9409
T13
X5.339Y-3.6673
X5.339Y-4.1673
X5.439Y-3.6673
X5.439Y-4.1673
X5.539Y-3.6673
X5.539Y-4.1673
X5.639Y-3.6673
X5.639Y-4.1673
X5.739Y-3.6673
X5.739Y-4.1673
X5.839Y-3.6673
X5.839Y-4.1673
X5.939Y-3.6673
X5.939Y-4.1673
X6.039Y-3.6673
X6.039Y-4.1673
T2
G00X7.6486Y-4.4951
M15
G01X7.5699Y-4.4951
M16
G05
G00X7.6486Y-4.8573
M15
G01X7.5699Y-4.8573
M16
G05
G00X7.877Y-4.4951
M15
G01X7.7982Y-4.4951
M16
G05
G00X7.877Y-4.8573
M15
G01X7.7982Y-4.8573
M16
G05
T14
G00X3.5108Y-4.6742
M15
G01X3.5108Y-4.6781
M16
G05
G00X4.062Y-4.6742
M15
G01X4.062Y-4.6781
M16
G05
T15
G00X7.4754Y-4.6821
M15
G01X7.4754Y-4.6703
M16
G05
G00X7.9715Y-4.6821
M15
G01X7.9715Y-4.6703
M16
G05
T0
M30
