G04 #@! TF.GenerationSoftware,KiCad,Pcbnew,5.1.5-52549c5~84~ubuntu19.04.1*
G04 #@! TF.CreationDate,2020-01-25T14:44:11+01:00*
G04 #@! TF.ProjectId,upuaut_2Nils,75707561-7574-45f3-924e-696c732e6b69,rev?*
G04 #@! TF.SameCoordinates,Original*
G04 #@! TF.FileFunction,Legend,Top*
G04 #@! TF.FilePolarity,Positive*
%FSLAX46Y46*%
G04 Gerber Fmt 4.6, Leading zero omitted, Abs format (unit mm)*
G04 Created by KiCad (PCBNEW 5.1.5-52549c5~84~ubuntu19.04.1) date 2020-01-25 14:44:11*
%MOMM*%
%LPD*%
G04 APERTURE LIST*
%ADD10C,0.300000*%
%ADD11C,0.200000*%
%ADD12C,0.120000*%
%ADD13C,0.381000*%
%ADD14C,0.228600*%
%ADD15C,0.150000*%
%ADD16C,0.254000*%
%ADD17C,0.190500*%
G04 APERTURE END LIST*
D10*
X175357142Y-92750000D02*
X175214285Y-92678571D01*
X175000000Y-92678571D01*
X174785714Y-92750000D01*
X174642857Y-92892857D01*
X174571428Y-93035714D01*
X174500000Y-93321428D01*
X174500000Y-93535714D01*
X174571428Y-93821428D01*
X174642857Y-93964285D01*
X174785714Y-94107142D01*
X175000000Y-94178571D01*
X175142857Y-94178571D01*
X175357142Y-94107142D01*
X175428571Y-94035714D01*
X175428571Y-93535714D01*
X175142857Y-93535714D01*
X176071428Y-94178571D02*
X176071428Y-92678571D01*
X176928571Y-94178571D01*
X176928571Y-92678571D01*
X177642857Y-94178571D02*
X177642857Y-92678571D01*
X178000000Y-92678571D01*
X178214285Y-92750000D01*
X178357142Y-92892857D01*
X178428571Y-93035714D01*
X178500000Y-93321428D01*
X178500000Y-93535714D01*
X178428571Y-93821428D01*
X178357142Y-93964285D01*
X178214285Y-94107142D01*
X178000000Y-94178571D01*
X177642857Y-94178571D01*
D11*
X224404761Y-127509523D02*
X224404761Y-127128571D01*
X224500000Y-126938095D01*
X224690476Y-126747619D01*
X225071428Y-126652380D01*
X225738095Y-126652380D01*
X226119047Y-126747619D01*
X226309523Y-126938095D01*
X226404761Y-127128571D01*
X226404761Y-127509523D01*
X226309523Y-127700000D01*
X226119047Y-127890476D01*
X225738095Y-127985714D01*
X225071428Y-127985714D01*
X224690476Y-127890476D01*
X224500000Y-127700000D01*
X224404761Y-127509523D01*
X225071428Y-125795238D02*
X227071428Y-125795238D01*
X225166666Y-125795238D02*
X225071428Y-125604761D01*
X225071428Y-125223809D01*
X225166666Y-125033333D01*
X225261904Y-124938095D01*
X225452380Y-124842857D01*
X226023809Y-124842857D01*
X226214285Y-124938095D01*
X226309523Y-125033333D01*
X226404761Y-125223809D01*
X226404761Y-125604761D01*
X226309523Y-125795238D01*
X226309523Y-123223809D02*
X226404761Y-123414285D01*
X226404761Y-123795238D01*
X226309523Y-123985714D01*
X226119047Y-124080952D01*
X225357142Y-124080952D01*
X225166666Y-123985714D01*
X225071428Y-123795238D01*
X225071428Y-123414285D01*
X225166666Y-123223809D01*
X225357142Y-123128571D01*
X225547619Y-123128571D01*
X225738095Y-124080952D01*
X225071428Y-122271428D02*
X226404761Y-122271428D01*
X225261904Y-122271428D02*
X225166666Y-122176190D01*
X225071428Y-121985714D01*
X225071428Y-121700000D01*
X225166666Y-121509523D01*
X225357142Y-121414285D01*
X226404761Y-121414285D01*
X226595238Y-120938095D02*
X226595238Y-119414285D01*
X226214285Y-117795238D02*
X226309523Y-117890476D01*
X226404761Y-118176190D01*
X226404761Y-118366666D01*
X226309523Y-118652380D01*
X226119047Y-118842857D01*
X225928571Y-118938095D01*
X225547619Y-119033333D01*
X225261904Y-119033333D01*
X224880952Y-118938095D01*
X224690476Y-118842857D01*
X224500000Y-118652380D01*
X224404761Y-118366666D01*
X224404761Y-118176190D01*
X224500000Y-117890476D01*
X224595238Y-117795238D01*
X226309523Y-116176190D02*
X226404761Y-116366666D01*
X226404761Y-116747619D01*
X226309523Y-116938095D01*
X226119047Y-117033333D01*
X225357142Y-117033333D01*
X225166666Y-116938095D01*
X225071428Y-116747619D01*
X225071428Y-116366666D01*
X225166666Y-116176190D01*
X225357142Y-116080952D01*
X225547619Y-116080952D01*
X225738095Y-117033333D01*
X226404761Y-114938095D02*
X226309523Y-115128571D01*
X226119047Y-115223809D01*
X224404761Y-115223809D01*
X226404761Y-113890476D02*
X226309523Y-114080952D01*
X226119047Y-114176190D01*
X224404761Y-114176190D01*
X225071428Y-112271428D02*
X226404761Y-112271428D01*
X225071428Y-113128571D02*
X226119047Y-113128571D01*
X226309523Y-113033333D01*
X226404761Y-112842857D01*
X226404761Y-112557142D01*
X226309523Y-112366666D01*
X226214285Y-112271428D01*
X226404761Y-111033333D02*
X226309523Y-111223809D01*
X226119047Y-111319047D01*
X224404761Y-111319047D01*
X226404761Y-109985714D02*
X226309523Y-110176190D01*
X226214285Y-110271428D01*
X226023809Y-110366666D01*
X225452380Y-110366666D01*
X225261904Y-110271428D01*
X225166666Y-110176190D01*
X225071428Y-109985714D01*
X225071428Y-109700000D01*
X225166666Y-109509523D01*
X225261904Y-109414285D01*
X225452380Y-109319047D01*
X226023809Y-109319047D01*
X226214285Y-109414285D01*
X226309523Y-109509523D01*
X226404761Y-109700000D01*
X226404761Y-109985714D01*
X226404761Y-108461904D02*
X225071428Y-108461904D01*
X224404761Y-108461904D02*
X224500000Y-108557142D01*
X224595238Y-108461904D01*
X224500000Y-108366666D01*
X224404761Y-108461904D01*
X224595238Y-108461904D01*
X226404761Y-106652380D02*
X224404761Y-106652380D01*
X226309523Y-106652380D02*
X226404761Y-106842857D01*
X226404761Y-107223809D01*
X226309523Y-107414285D01*
X226214285Y-107509523D01*
X226023809Y-107604761D01*
X225452380Y-107604761D01*
X225261904Y-107509523D01*
X225166666Y-107414285D01*
X225071428Y-107223809D01*
X225071428Y-106842857D01*
X225166666Y-106652380D01*
X226595238Y-106176190D02*
X226595238Y-104652380D01*
X224595238Y-104271428D02*
X224500000Y-104176190D01*
X224404761Y-103985714D01*
X224404761Y-103509523D01*
X224500000Y-103319047D01*
X224595238Y-103223809D01*
X224785714Y-103128571D01*
X224976190Y-103128571D01*
X225261904Y-103223809D01*
X226404761Y-104366666D01*
X226404761Y-103128571D01*
X224404761Y-101890476D02*
X224404761Y-101700000D01*
X224500000Y-101509523D01*
X224595238Y-101414285D01*
X224785714Y-101319047D01*
X225166666Y-101223809D01*
X225642857Y-101223809D01*
X226023809Y-101319047D01*
X226214285Y-101414285D01*
X226309523Y-101509523D01*
X226404761Y-101700000D01*
X226404761Y-101890476D01*
X226309523Y-102080952D01*
X226214285Y-102176190D01*
X226023809Y-102271428D01*
X225642857Y-102366666D01*
X225166666Y-102366666D01*
X224785714Y-102271428D01*
X224595238Y-102176190D01*
X224500000Y-102080952D01*
X224404761Y-101890476D01*
X224595238Y-100461904D02*
X224500000Y-100366666D01*
X224404761Y-100176190D01*
X224404761Y-99700000D01*
X224500000Y-99509523D01*
X224595238Y-99414285D01*
X224785714Y-99319047D01*
X224976190Y-99319047D01*
X225261904Y-99414285D01*
X226404761Y-100557142D01*
X226404761Y-99319047D01*
X224404761Y-98080952D02*
X224404761Y-97890476D01*
X224500000Y-97700000D01*
X224595238Y-97604761D01*
X224785714Y-97509523D01*
X225166666Y-97414285D01*
X225642857Y-97414285D01*
X226023809Y-97509523D01*
X226214285Y-97604761D01*
X226309523Y-97700000D01*
X226404761Y-97890476D01*
X226404761Y-98080952D01*
X226309523Y-98271428D01*
X226214285Y-98366666D01*
X226023809Y-98461904D01*
X225642857Y-98557142D01*
X225166666Y-98557142D01*
X224785714Y-98461904D01*
X224595238Y-98366666D01*
X224500000Y-98271428D01*
X224404761Y-98080952D01*
X224404761Y-80652380D02*
X226404761Y-79985714D01*
X224404761Y-79319047D01*
X226309523Y-77890476D02*
X226404761Y-78080952D01*
X226404761Y-78461904D01*
X226309523Y-78652380D01*
X226119047Y-78747619D01*
X225357142Y-78747619D01*
X225166666Y-78652380D01*
X225071428Y-78461904D01*
X225071428Y-78080952D01*
X225166666Y-77890476D01*
X225357142Y-77795238D01*
X225547619Y-77795238D01*
X225738095Y-78747619D01*
X226404761Y-76938095D02*
X225071428Y-76938095D01*
X225452380Y-76938095D02*
X225261904Y-76842857D01*
X225166666Y-76747619D01*
X225071428Y-76557142D01*
X225071428Y-76366666D01*
X226309523Y-75795238D02*
X226404761Y-75604761D01*
X226404761Y-75223809D01*
X226309523Y-75033333D01*
X226119047Y-74938095D01*
X226023809Y-74938095D01*
X225833333Y-75033333D01*
X225738095Y-75223809D01*
X225738095Y-75509523D01*
X225642857Y-75700000D01*
X225452380Y-75795238D01*
X225357142Y-75795238D01*
X225166666Y-75700000D01*
X225071428Y-75509523D01*
X225071428Y-75223809D01*
X225166666Y-75033333D01*
X226404761Y-74080952D02*
X225071428Y-74080952D01*
X224404761Y-74080952D02*
X224500000Y-74176190D01*
X224595238Y-74080952D01*
X224500000Y-73985714D01*
X224404761Y-74080952D01*
X224595238Y-74080952D01*
X226404761Y-72842857D02*
X226309523Y-73033333D01*
X226214285Y-73128571D01*
X226023809Y-73223809D01*
X225452380Y-73223809D01*
X225261904Y-73128571D01*
X225166666Y-73033333D01*
X225071428Y-72842857D01*
X225071428Y-72557142D01*
X225166666Y-72366666D01*
X225261904Y-72271428D01*
X225452380Y-72176190D01*
X226023809Y-72176190D01*
X226214285Y-72271428D01*
X226309523Y-72366666D01*
X226404761Y-72557142D01*
X226404761Y-72842857D01*
X225071428Y-71319047D02*
X226404761Y-71319047D01*
X225261904Y-71319047D02*
X225166666Y-71223809D01*
X225071428Y-71033333D01*
X225071428Y-70747619D01*
X225166666Y-70557142D01*
X225357142Y-70461904D01*
X226404761Y-70461904D01*
X226595238Y-69985714D02*
X226595238Y-68461904D01*
X224404761Y-68176190D02*
X224404761Y-66938095D01*
X225166666Y-67604761D01*
X225166666Y-67319047D01*
X225261904Y-67128571D01*
X225357142Y-67033333D01*
X225547619Y-66938095D01*
X226023809Y-66938095D01*
X226214285Y-67033333D01*
X226309523Y-67128571D01*
X226404761Y-67319047D01*
X226404761Y-67890476D01*
X226309523Y-68080952D01*
X226214285Y-68176190D01*
D10*
X213857142Y-128128571D02*
X216285714Y-128128571D01*
X216571428Y-127985714D01*
X216714285Y-127842857D01*
X216857142Y-127557142D01*
X216857142Y-126985714D01*
X216714285Y-126700000D01*
X216571428Y-126557142D01*
X216285714Y-126414285D01*
X213857142Y-126414285D01*
X216857142Y-124985714D02*
X213857142Y-124985714D01*
X213857142Y-123842857D01*
X214000000Y-123557142D01*
X214142857Y-123414285D01*
X214428571Y-123271428D01*
X214857142Y-123271428D01*
X215142857Y-123414285D01*
X215285714Y-123557142D01*
X215428571Y-123842857D01*
X215428571Y-124985714D01*
X213857142Y-121985714D02*
X216285714Y-121985714D01*
X216571428Y-121842857D01*
X216714285Y-121700000D01*
X216857142Y-121414285D01*
X216857142Y-120842857D01*
X216714285Y-120557142D01*
X216571428Y-120414285D01*
X216285714Y-120271428D01*
X213857142Y-120271428D01*
X216000000Y-118985714D02*
X216000000Y-117557142D01*
X216857142Y-119271428D02*
X213857142Y-118271428D01*
X216857142Y-117271428D01*
X213857142Y-116271428D02*
X216285714Y-116271428D01*
X216571428Y-116128571D01*
X216714285Y-115985714D01*
X216857142Y-115700000D01*
X216857142Y-115128571D01*
X216714285Y-114842857D01*
X216571428Y-114700000D01*
X216285714Y-114557142D01*
X213857142Y-114557142D01*
X213857142Y-113557142D02*
X213857142Y-111842857D01*
X216857142Y-112700000D02*
X213857142Y-112700000D01*
D12*
X223450000Y-142300000D02*
X170450000Y-142300000D01*
X223450000Y-67300000D02*
X170450000Y-67300000D01*
X170450000Y-67300000D02*
X170450000Y-142300000D01*
X223450000Y-67300000D02*
X223450000Y-142300000D01*
X161770000Y-101080000D02*
X161770000Y-90920000D01*
X162623499Y-91600000D02*
G75*
G03X162623499Y-91600000I-218499J0D01*
G01*
X157960000Y-90920000D02*
X163040000Y-90920000D01*
X157960000Y-101080000D02*
X157960000Y-90920000D01*
X163040000Y-101080000D02*
X157960000Y-101080000D01*
X163040000Y-90920000D02*
X163040000Y-101080000D01*
X204500000Y-52150000D02*
X204500000Y-63850000D01*
X208500000Y-52150000D02*
X204500000Y-52150000D01*
X208500000Y-63850000D02*
X208500000Y-52150000D01*
X204500000Y-63850000D02*
X208500000Y-63850000D01*
X200500000Y-63850000D02*
X204550000Y-63850000D01*
X200500000Y-52150000D02*
X200500000Y-63850000D01*
X204500000Y-52150000D02*
X200500000Y-52150000D01*
X212500000Y-52150000D02*
X208500000Y-52150000D01*
X212500000Y-63850000D02*
X212500000Y-52150000D01*
X208500000Y-63850000D02*
X212500000Y-63850000D01*
X108000000Y-63850000D02*
X112000000Y-63850000D01*
X112000000Y-63850000D02*
X112000000Y-52150000D01*
X112000000Y-52150000D02*
X108000000Y-52150000D01*
X104000000Y-52150000D02*
X100000000Y-52150000D01*
X100000000Y-52150000D02*
X100000000Y-63850000D01*
X100000000Y-63850000D02*
X104050000Y-63850000D01*
X104000000Y-63850000D02*
X108000000Y-63850000D01*
X108000000Y-63850000D02*
X108000000Y-52150000D01*
X108000000Y-52150000D02*
X104000000Y-52150000D01*
X104000000Y-52150000D02*
X104000000Y-63850000D01*
D13*
X143110000Y-144280000D02*
X160890000Y-144280000D01*
X143110000Y-108720000D02*
X143110000Y-144280000D01*
X160890000Y-108720000D02*
X143110000Y-108720000D01*
X160890000Y-144280000D02*
X160890000Y-108720000D01*
X148190000Y-145550000D02*
X148190000Y-144280000D01*
X155810000Y-145550000D02*
X148190000Y-145550000D01*
X155810000Y-144280000D02*
X155810000Y-145550000D01*
X154540000Y-114435000D02*
X154540000Y-111895000D01*
X149460000Y-114435000D02*
X154540000Y-114435000D01*
X149460000Y-111895000D02*
X149460000Y-114435000D01*
X154540000Y-111895000D02*
X149460000Y-111895000D01*
X153270000Y-113165000D02*
G75*
G03X153270000Y-113165000I-1270000J0D01*
G01*
D12*
X87500000Y-87820000D02*
X87500000Y-88770000D01*
X87500000Y-93560000D02*
X87500000Y-92610000D01*
X86580000Y-88770000D02*
X86580000Y-92610000D01*
X88420000Y-88770000D02*
X86580000Y-88770000D01*
X88420000Y-92610000D02*
X88420000Y-88770000D01*
X86580000Y-92610000D02*
X88420000Y-92610000D01*
X129151767Y-62090000D02*
X130848233Y-62090000D01*
X126151767Y-62090000D02*
X127848233Y-62090000D01*
X123510000Y-62090000D02*
X124848233Y-62090000D01*
X134935000Y-62090000D02*
X132151767Y-62090000D01*
X119065000Y-62090000D02*
X121490000Y-62090000D01*
X134935000Y-52970000D02*
X134935000Y-62090000D01*
X133935000Y-51970000D02*
X134935000Y-52970000D01*
X120065000Y-51970000D02*
X133935000Y-51970000D01*
X119065000Y-52970000D02*
X120065000Y-51970000D01*
X119065000Y-62090000D02*
X119065000Y-52970000D01*
X163010000Y-62090000D02*
X164348233Y-62090000D01*
X168435000Y-62090000D02*
X165651767Y-62090000D01*
X158565000Y-62090000D02*
X160990000Y-62090000D01*
X168435000Y-52970000D02*
X168435000Y-62090000D01*
X167435000Y-51970000D02*
X168435000Y-52970000D01*
X159565000Y-51970000D02*
X167435000Y-51970000D01*
X158565000Y-52970000D02*
X159565000Y-51970000D01*
X158565000Y-62090000D02*
X158565000Y-52970000D01*
X147651767Y-62090000D02*
X149348233Y-62090000D01*
X145010000Y-62090000D02*
X146348233Y-62090000D01*
X153435000Y-62090000D02*
X150651767Y-62090000D01*
X140565000Y-62090000D02*
X142990000Y-62090000D01*
X153435000Y-52970000D02*
X153435000Y-62090000D01*
X152435000Y-51970000D02*
X153435000Y-52970000D01*
X141565000Y-51970000D02*
X152435000Y-51970000D01*
X140565000Y-52970000D02*
X141565000Y-51970000D01*
X140565000Y-62090000D02*
X140565000Y-52970000D01*
X192500000Y-63850000D02*
X196500000Y-63850000D01*
X196500000Y-63850000D02*
X196500000Y-52150000D01*
X196500000Y-52150000D02*
X192500000Y-52150000D01*
X188500000Y-52150000D02*
X184500000Y-52150000D01*
X184500000Y-52150000D02*
X184500000Y-63850000D01*
X184500000Y-63850000D02*
X188550000Y-63850000D01*
X188500000Y-63850000D02*
X192500000Y-63850000D01*
X192500000Y-63850000D02*
X192500000Y-52150000D01*
X192500000Y-52150000D02*
X188500000Y-52150000D01*
X188500000Y-52150000D02*
X188500000Y-63850000D01*
X177000000Y-63850000D02*
X177000000Y-52150000D01*
X177000000Y-63850000D02*
X173000000Y-63850000D01*
X173000000Y-63850000D02*
X173000000Y-52150000D01*
X173000000Y-52150000D02*
X181000000Y-52150000D01*
X181000000Y-52150000D02*
X181000000Y-63850000D01*
X181000000Y-63850000D02*
X177000000Y-63850000D01*
X115330000Y-124960000D02*
X115330000Y-123310000D01*
X110130000Y-124960000D02*
X115330000Y-124960000D01*
X110130000Y-119660000D02*
X110130000Y-124960000D01*
X115330000Y-119660000D02*
X110130000Y-119660000D01*
X115330000Y-121310000D02*
X115330000Y-119660000D01*
X115330000Y-123310000D02*
G75*
G02X115330000Y-121310000I0J1000000D01*
G01*
X84000000Y-63850000D02*
X84000000Y-52150000D01*
X84000000Y-63850000D02*
X80000000Y-63850000D01*
X80000000Y-63850000D02*
X80000000Y-52150000D01*
X80000000Y-52150000D02*
X88000000Y-52150000D01*
X88000000Y-52150000D02*
X88000000Y-63850000D01*
X88000000Y-63850000D02*
X84000000Y-63850000D01*
D14*
X137134000Y-102040000D02*
G75*
G03X137134000Y-102040000I-254000J0D01*
G01*
X135864000Y-100770000D02*
G75*
G03X135864000Y-100770000I-254000J0D01*
G01*
X135864000Y-103310000D02*
G75*
G03X135864000Y-103310000I-254000J0D01*
G01*
X154660000Y-91880000D02*
X134340000Y-91880000D01*
X134340000Y-91880000D02*
X134340000Y-107120000D01*
X134340000Y-107120000D02*
X154660000Y-107120000D01*
X154660000Y-107120000D02*
X154660000Y-91880000D01*
D12*
X122525210Y-126302000D02*
G75*
G03X122525210Y-126302000I-359210J0D01*
G01*
X121404000Y-116904000D02*
X121404000Y-129350000D01*
X131056000Y-116904000D02*
X121404000Y-116904000D01*
X131056000Y-129350000D02*
X131056000Y-116904000D01*
X121404000Y-129350000D02*
X131056000Y-129350000D01*
X160600000Y-67860000D02*
X159210000Y-67860000D01*
X160600000Y-70100000D02*
X160600000Y-67860000D01*
X168480000Y-70100000D02*
X160600000Y-70100000D01*
X168480000Y-67860000D02*
X168480000Y-70100000D01*
X169880000Y-67860000D02*
X168480000Y-67860000D01*
X169880000Y-67850000D02*
X169880000Y-66080000D01*
X169880000Y-66080000D02*
X159210000Y-66080000D01*
X159210000Y-66080000D02*
X159210000Y-67860000D01*
X142600000Y-67860000D02*
X141210000Y-67860000D01*
X142600000Y-70100000D02*
X142600000Y-67860000D01*
X150480000Y-70100000D02*
X142600000Y-70100000D01*
X150480000Y-67860000D02*
X150480000Y-70100000D01*
X151880000Y-67860000D02*
X150480000Y-67860000D01*
X151880000Y-67850000D02*
X151880000Y-66080000D01*
X151880000Y-66080000D02*
X141210000Y-66080000D01*
X141210000Y-66080000D02*
X141210000Y-67860000D01*
X115330000Y-112960000D02*
X115330000Y-111310000D01*
X110130000Y-112960000D02*
X115330000Y-112960000D01*
X110130000Y-107660000D02*
X110130000Y-112960000D01*
X115330000Y-107660000D02*
X110130000Y-107660000D01*
X115330000Y-109310000D02*
X115330000Y-107660000D01*
X115330000Y-111310000D02*
G75*
G02X115330000Y-109310000I0J1000000D01*
G01*
X95845000Y-135970000D02*
X95845000Y-141040000D01*
X86075000Y-135970000D02*
X86075000Y-141040000D01*
X86075000Y-141040000D02*
X95845000Y-141040000D01*
X86075000Y-135970000D02*
X95845000Y-135970000D01*
X100500000Y-135320000D02*
X100500000Y-136270000D01*
X100500000Y-141060000D02*
X100500000Y-140110000D01*
X99580000Y-136270000D02*
X99580000Y-140110000D01*
X101420000Y-136270000D02*
X99580000Y-136270000D01*
X101420000Y-140110000D02*
X101420000Y-136270000D01*
X99580000Y-140110000D02*
X101420000Y-140110000D01*
X137500000Y-135320000D02*
X137500000Y-136270000D01*
X137500000Y-141060000D02*
X137500000Y-140110000D01*
X136580000Y-136270000D02*
X136580000Y-140110000D01*
X138420000Y-136270000D02*
X136580000Y-136270000D01*
X138420000Y-140110000D02*
X138420000Y-136270000D01*
X136580000Y-140110000D02*
X138420000Y-140110000D01*
X119820000Y-78000000D02*
X120770000Y-78000000D01*
X125560000Y-78000000D02*
X124610000Y-78000000D01*
X120770000Y-78920000D02*
X124610000Y-78920000D01*
X120770000Y-77080000D02*
X120770000Y-78920000D01*
X124610000Y-77080000D02*
X120770000Y-77080000D01*
X124610000Y-78920000D02*
X124610000Y-77080000D01*
X116500000Y-87820000D02*
X116500000Y-88770000D01*
X116500000Y-93560000D02*
X116500000Y-92610000D01*
X115580000Y-88770000D02*
X115580000Y-92610000D01*
X117420000Y-88770000D02*
X115580000Y-88770000D01*
X117420000Y-92610000D02*
X117420000Y-88770000D01*
X115580000Y-92610000D02*
X117420000Y-92610000D01*
X132500000Y-135320000D02*
X132500000Y-136270000D01*
X132500000Y-141060000D02*
X132500000Y-140110000D01*
X131580000Y-136270000D02*
X131580000Y-140110000D01*
X133420000Y-136270000D02*
X131580000Y-136270000D01*
X133420000Y-140110000D02*
X133420000Y-136270000D01*
X131580000Y-140110000D02*
X133420000Y-140110000D01*
X82000000Y-87820000D02*
X82000000Y-88770000D01*
X82000000Y-93560000D02*
X82000000Y-92610000D01*
X81080000Y-88770000D02*
X81080000Y-92610000D01*
X82920000Y-88770000D02*
X81080000Y-88770000D01*
X82920000Y-92610000D02*
X82920000Y-88770000D01*
X81080000Y-92610000D02*
X82920000Y-92610000D01*
X105000000Y-87820000D02*
X105000000Y-88770000D01*
X105000000Y-93560000D02*
X105000000Y-92610000D01*
X104080000Y-88770000D02*
X104080000Y-92610000D01*
X105920000Y-88770000D02*
X104080000Y-88770000D01*
X105920000Y-92610000D02*
X105920000Y-88770000D01*
X104080000Y-92610000D02*
X105920000Y-92610000D01*
X122000000Y-135320000D02*
X122000000Y-136270000D01*
X122000000Y-141060000D02*
X122000000Y-140110000D01*
X121080000Y-136270000D02*
X121080000Y-140110000D01*
X122920000Y-136270000D02*
X121080000Y-136270000D01*
X122920000Y-140110000D02*
X122920000Y-136270000D01*
X121080000Y-140110000D02*
X122920000Y-140110000D01*
X76500000Y-87820000D02*
X76500000Y-88770000D01*
X76500000Y-93560000D02*
X76500000Y-92610000D01*
X75580000Y-88770000D02*
X75580000Y-92610000D01*
X77420000Y-88770000D02*
X75580000Y-88770000D01*
X77420000Y-92610000D02*
X77420000Y-88770000D01*
X75580000Y-92610000D02*
X77420000Y-92610000D01*
X114680000Y-78000000D02*
X113730000Y-78000000D01*
X108940000Y-78000000D02*
X109890000Y-78000000D01*
X113730000Y-77080000D02*
X109890000Y-77080000D01*
X113730000Y-78920000D02*
X113730000Y-77080000D01*
X109890000Y-78920000D02*
X113730000Y-78920000D01*
X109890000Y-77080000D02*
X109890000Y-78920000D01*
X105500000Y-141180000D02*
X105500000Y-140230000D01*
X105500000Y-135440000D02*
X105500000Y-136390000D01*
X106420000Y-140230000D02*
X106420000Y-136390000D01*
X104580000Y-140230000D02*
X106420000Y-140230000D01*
X104580000Y-136390000D02*
X104580000Y-140230000D01*
X106420000Y-136390000D02*
X104580000Y-136390000D01*
X164700000Y-105920000D02*
X164700000Y-103080000D01*
X164460000Y-105920000D02*
X164460000Y-103080000D01*
X164580000Y-105920000D02*
X164580000Y-103080000D01*
X161740000Y-103080000D02*
X161740000Y-103260000D01*
X165180000Y-103080000D02*
X161740000Y-103080000D01*
X165180000Y-103260000D02*
X165180000Y-103080000D01*
X161740000Y-105920000D02*
X161740000Y-105740000D01*
X165180000Y-105920000D02*
X161740000Y-105920000D01*
X165180000Y-105740000D02*
X165180000Y-105920000D01*
X107275000Y-71804775D02*
X107775000Y-71804775D01*
X107525000Y-72054775D02*
X107525000Y-71554775D01*
X108716000Y-66649000D02*
X109284000Y-66649000D01*
X108482000Y-66689000D02*
X109518000Y-66689000D01*
X108323000Y-66729000D02*
X109677000Y-66729000D01*
X108195000Y-66769000D02*
X109805000Y-66769000D01*
X108085000Y-66809000D02*
X109915000Y-66809000D01*
X107989000Y-66849000D02*
X110011000Y-66849000D01*
X107902000Y-66889000D02*
X110098000Y-66889000D01*
X107822000Y-66929000D02*
X110178000Y-66929000D01*
X110040000Y-66969000D02*
X110251000Y-66969000D01*
X107749000Y-66969000D02*
X107960000Y-66969000D01*
X110040000Y-67009000D02*
X110319000Y-67009000D01*
X107681000Y-67009000D02*
X107960000Y-67009000D01*
X110040000Y-67049000D02*
X110383000Y-67049000D01*
X107617000Y-67049000D02*
X107960000Y-67049000D01*
X110040000Y-67089000D02*
X110443000Y-67089000D01*
X107557000Y-67089000D02*
X107960000Y-67089000D01*
X110040000Y-67129000D02*
X110500000Y-67129000D01*
X107500000Y-67129000D02*
X107960000Y-67129000D01*
X110040000Y-67169000D02*
X110554000Y-67169000D01*
X107446000Y-67169000D02*
X107960000Y-67169000D01*
X110040000Y-67209000D02*
X110605000Y-67209000D01*
X107395000Y-67209000D02*
X107960000Y-67209000D01*
X110040000Y-67249000D02*
X110653000Y-67249000D01*
X107347000Y-67249000D02*
X107960000Y-67249000D01*
X110040000Y-67289000D02*
X110699000Y-67289000D01*
X107301000Y-67289000D02*
X107960000Y-67289000D01*
X110040000Y-67329000D02*
X110743000Y-67329000D01*
X107257000Y-67329000D02*
X107960000Y-67329000D01*
X110040000Y-67369000D02*
X110785000Y-67369000D01*
X107215000Y-67369000D02*
X107960000Y-67369000D01*
X110040000Y-67409000D02*
X110826000Y-67409000D01*
X107174000Y-67409000D02*
X107960000Y-67409000D01*
X110040000Y-67449000D02*
X110864000Y-67449000D01*
X107136000Y-67449000D02*
X107960000Y-67449000D01*
X110040000Y-67489000D02*
X110901000Y-67489000D01*
X107099000Y-67489000D02*
X107960000Y-67489000D01*
X110040000Y-67529000D02*
X110937000Y-67529000D01*
X107063000Y-67529000D02*
X107960000Y-67529000D01*
X110040000Y-67569000D02*
X110971000Y-67569000D01*
X107029000Y-67569000D02*
X107960000Y-67569000D01*
X110040000Y-67609000D02*
X111004000Y-67609000D01*
X106996000Y-67609000D02*
X107960000Y-67609000D01*
X110040000Y-67649000D02*
X111035000Y-67649000D01*
X106965000Y-67649000D02*
X107960000Y-67649000D01*
X110040000Y-67689000D02*
X111065000Y-67689000D01*
X106935000Y-67689000D02*
X107960000Y-67689000D01*
X110040000Y-67729000D02*
X111095000Y-67729000D01*
X106905000Y-67729000D02*
X107960000Y-67729000D01*
X110040000Y-67769000D02*
X111122000Y-67769000D01*
X106878000Y-67769000D02*
X107960000Y-67769000D01*
X110040000Y-67809000D02*
X111149000Y-67809000D01*
X106851000Y-67809000D02*
X107960000Y-67809000D01*
X110040000Y-67849000D02*
X111175000Y-67849000D01*
X106825000Y-67849000D02*
X107960000Y-67849000D01*
X110040000Y-67889000D02*
X111200000Y-67889000D01*
X106800000Y-67889000D02*
X107960000Y-67889000D01*
X110040000Y-67929000D02*
X111224000Y-67929000D01*
X106776000Y-67929000D02*
X107960000Y-67929000D01*
X110040000Y-67969000D02*
X111247000Y-67969000D01*
X106753000Y-67969000D02*
X107960000Y-67969000D01*
X110040000Y-68009000D02*
X111268000Y-68009000D01*
X106732000Y-68009000D02*
X107960000Y-68009000D01*
X110040000Y-68049000D02*
X111290000Y-68049000D01*
X106710000Y-68049000D02*
X107960000Y-68049000D01*
X110040000Y-68089000D02*
X111310000Y-68089000D01*
X106690000Y-68089000D02*
X107960000Y-68089000D01*
X110040000Y-68129000D02*
X111329000Y-68129000D01*
X106671000Y-68129000D02*
X107960000Y-68129000D01*
X110040000Y-68169000D02*
X111348000Y-68169000D01*
X106652000Y-68169000D02*
X107960000Y-68169000D01*
X110040000Y-68209000D02*
X111365000Y-68209000D01*
X106635000Y-68209000D02*
X107960000Y-68209000D01*
X110040000Y-68249000D02*
X111382000Y-68249000D01*
X106618000Y-68249000D02*
X107960000Y-68249000D01*
X110040000Y-68289000D02*
X111398000Y-68289000D01*
X106602000Y-68289000D02*
X107960000Y-68289000D01*
X110040000Y-68329000D02*
X111414000Y-68329000D01*
X106586000Y-68329000D02*
X107960000Y-68329000D01*
X110040000Y-68369000D02*
X111428000Y-68369000D01*
X106572000Y-68369000D02*
X107960000Y-68369000D01*
X110040000Y-68409000D02*
X111442000Y-68409000D01*
X106558000Y-68409000D02*
X107960000Y-68409000D01*
X110040000Y-68449000D02*
X111455000Y-68449000D01*
X106545000Y-68449000D02*
X107960000Y-68449000D01*
X110040000Y-68489000D02*
X111468000Y-68489000D01*
X106532000Y-68489000D02*
X107960000Y-68489000D01*
X110040000Y-68529000D02*
X111480000Y-68529000D01*
X106520000Y-68529000D02*
X107960000Y-68529000D01*
X110040000Y-68570000D02*
X111491000Y-68570000D01*
X106509000Y-68570000D02*
X107960000Y-68570000D01*
X110040000Y-68610000D02*
X111501000Y-68610000D01*
X106499000Y-68610000D02*
X107960000Y-68610000D01*
X110040000Y-68650000D02*
X111511000Y-68650000D01*
X106489000Y-68650000D02*
X107960000Y-68650000D01*
X110040000Y-68690000D02*
X111520000Y-68690000D01*
X106480000Y-68690000D02*
X107960000Y-68690000D01*
X110040000Y-68730000D02*
X111528000Y-68730000D01*
X106472000Y-68730000D02*
X107960000Y-68730000D01*
X110040000Y-68770000D02*
X111536000Y-68770000D01*
X106464000Y-68770000D02*
X107960000Y-68770000D01*
X110040000Y-68810000D02*
X111543000Y-68810000D01*
X106457000Y-68810000D02*
X107960000Y-68810000D01*
X110040000Y-68850000D02*
X111550000Y-68850000D01*
X106450000Y-68850000D02*
X107960000Y-68850000D01*
X110040000Y-68890000D02*
X111556000Y-68890000D01*
X106444000Y-68890000D02*
X107960000Y-68890000D01*
X110040000Y-68930000D02*
X111561000Y-68930000D01*
X106439000Y-68930000D02*
X107960000Y-68930000D01*
X110040000Y-68970000D02*
X111565000Y-68970000D01*
X106435000Y-68970000D02*
X107960000Y-68970000D01*
X110040000Y-69010000D02*
X111569000Y-69010000D01*
X106431000Y-69010000D02*
X107960000Y-69010000D01*
X106427000Y-69050000D02*
X111573000Y-69050000D01*
X106424000Y-69090000D02*
X111576000Y-69090000D01*
X106422000Y-69130000D02*
X111578000Y-69130000D01*
X106421000Y-69170000D02*
X111579000Y-69170000D01*
X106420000Y-69210000D02*
X111580000Y-69210000D01*
X106420000Y-69250000D02*
X111580000Y-69250000D01*
X111620000Y-69250000D02*
G75*
G03X111620000Y-69250000I-2620000J0D01*
G01*
X121225000Y-66695225D02*
X120725000Y-66695225D01*
X120975000Y-66445225D02*
X120975000Y-66945225D01*
X119784000Y-71851000D02*
X119216000Y-71851000D01*
X120018000Y-71811000D02*
X118982000Y-71811000D01*
X120177000Y-71771000D02*
X118823000Y-71771000D01*
X120305000Y-71731000D02*
X118695000Y-71731000D01*
X120415000Y-71691000D02*
X118585000Y-71691000D01*
X120511000Y-71651000D02*
X118489000Y-71651000D01*
X120598000Y-71611000D02*
X118402000Y-71611000D01*
X120678000Y-71571000D02*
X118322000Y-71571000D01*
X118460000Y-71531000D02*
X118249000Y-71531000D01*
X120751000Y-71531000D02*
X120540000Y-71531000D01*
X118460000Y-71491000D02*
X118181000Y-71491000D01*
X120819000Y-71491000D02*
X120540000Y-71491000D01*
X118460000Y-71451000D02*
X118117000Y-71451000D01*
X120883000Y-71451000D02*
X120540000Y-71451000D01*
X118460000Y-71411000D02*
X118057000Y-71411000D01*
X120943000Y-71411000D02*
X120540000Y-71411000D01*
X118460000Y-71371000D02*
X118000000Y-71371000D01*
X121000000Y-71371000D02*
X120540000Y-71371000D01*
X118460000Y-71331000D02*
X117946000Y-71331000D01*
X121054000Y-71331000D02*
X120540000Y-71331000D01*
X118460000Y-71291000D02*
X117895000Y-71291000D01*
X121105000Y-71291000D02*
X120540000Y-71291000D01*
X118460000Y-71251000D02*
X117847000Y-71251000D01*
X121153000Y-71251000D02*
X120540000Y-71251000D01*
X118460000Y-71211000D02*
X117801000Y-71211000D01*
X121199000Y-71211000D02*
X120540000Y-71211000D01*
X118460000Y-71171000D02*
X117757000Y-71171000D01*
X121243000Y-71171000D02*
X120540000Y-71171000D01*
X118460000Y-71131000D02*
X117715000Y-71131000D01*
X121285000Y-71131000D02*
X120540000Y-71131000D01*
X118460000Y-71091000D02*
X117674000Y-71091000D01*
X121326000Y-71091000D02*
X120540000Y-71091000D01*
X118460000Y-71051000D02*
X117636000Y-71051000D01*
X121364000Y-71051000D02*
X120540000Y-71051000D01*
X118460000Y-71011000D02*
X117599000Y-71011000D01*
X121401000Y-71011000D02*
X120540000Y-71011000D01*
X118460000Y-70971000D02*
X117563000Y-70971000D01*
X121437000Y-70971000D02*
X120540000Y-70971000D01*
X118460000Y-70931000D02*
X117529000Y-70931000D01*
X121471000Y-70931000D02*
X120540000Y-70931000D01*
X118460000Y-70891000D02*
X117496000Y-70891000D01*
X121504000Y-70891000D02*
X120540000Y-70891000D01*
X118460000Y-70851000D02*
X117465000Y-70851000D01*
X121535000Y-70851000D02*
X120540000Y-70851000D01*
X118460000Y-70811000D02*
X117435000Y-70811000D01*
X121565000Y-70811000D02*
X120540000Y-70811000D01*
X118460000Y-70771000D02*
X117405000Y-70771000D01*
X121595000Y-70771000D02*
X120540000Y-70771000D01*
X118460000Y-70731000D02*
X117378000Y-70731000D01*
X121622000Y-70731000D02*
X120540000Y-70731000D01*
X118460000Y-70691000D02*
X117351000Y-70691000D01*
X121649000Y-70691000D02*
X120540000Y-70691000D01*
X118460000Y-70651000D02*
X117325000Y-70651000D01*
X121675000Y-70651000D02*
X120540000Y-70651000D01*
X118460000Y-70611000D02*
X117300000Y-70611000D01*
X121700000Y-70611000D02*
X120540000Y-70611000D01*
X118460000Y-70571000D02*
X117276000Y-70571000D01*
X121724000Y-70571000D02*
X120540000Y-70571000D01*
X118460000Y-70531000D02*
X117253000Y-70531000D01*
X121747000Y-70531000D02*
X120540000Y-70531000D01*
X118460000Y-70491000D02*
X117232000Y-70491000D01*
X121768000Y-70491000D02*
X120540000Y-70491000D01*
X118460000Y-70451000D02*
X117210000Y-70451000D01*
X121790000Y-70451000D02*
X120540000Y-70451000D01*
X118460000Y-70411000D02*
X117190000Y-70411000D01*
X121810000Y-70411000D02*
X120540000Y-70411000D01*
X118460000Y-70371000D02*
X117171000Y-70371000D01*
X121829000Y-70371000D02*
X120540000Y-70371000D01*
X118460000Y-70331000D02*
X117152000Y-70331000D01*
X121848000Y-70331000D02*
X120540000Y-70331000D01*
X118460000Y-70291000D02*
X117135000Y-70291000D01*
X121865000Y-70291000D02*
X120540000Y-70291000D01*
X118460000Y-70251000D02*
X117118000Y-70251000D01*
X121882000Y-70251000D02*
X120540000Y-70251000D01*
X118460000Y-70211000D02*
X117102000Y-70211000D01*
X121898000Y-70211000D02*
X120540000Y-70211000D01*
X118460000Y-70171000D02*
X117086000Y-70171000D01*
X121914000Y-70171000D02*
X120540000Y-70171000D01*
X118460000Y-70131000D02*
X117072000Y-70131000D01*
X121928000Y-70131000D02*
X120540000Y-70131000D01*
X118460000Y-70091000D02*
X117058000Y-70091000D01*
X121942000Y-70091000D02*
X120540000Y-70091000D01*
X118460000Y-70051000D02*
X117045000Y-70051000D01*
X121955000Y-70051000D02*
X120540000Y-70051000D01*
X118460000Y-70011000D02*
X117032000Y-70011000D01*
X121968000Y-70011000D02*
X120540000Y-70011000D01*
X118460000Y-69971000D02*
X117020000Y-69971000D01*
X121980000Y-69971000D02*
X120540000Y-69971000D01*
X118460000Y-69930000D02*
X117009000Y-69930000D01*
X121991000Y-69930000D02*
X120540000Y-69930000D01*
X118460000Y-69890000D02*
X116999000Y-69890000D01*
X122001000Y-69890000D02*
X120540000Y-69890000D01*
X118460000Y-69850000D02*
X116989000Y-69850000D01*
X122011000Y-69850000D02*
X120540000Y-69850000D01*
X118460000Y-69810000D02*
X116980000Y-69810000D01*
X122020000Y-69810000D02*
X120540000Y-69810000D01*
X118460000Y-69770000D02*
X116972000Y-69770000D01*
X122028000Y-69770000D02*
X120540000Y-69770000D01*
X118460000Y-69730000D02*
X116964000Y-69730000D01*
X122036000Y-69730000D02*
X120540000Y-69730000D01*
X118460000Y-69690000D02*
X116957000Y-69690000D01*
X122043000Y-69690000D02*
X120540000Y-69690000D01*
X118460000Y-69650000D02*
X116950000Y-69650000D01*
X122050000Y-69650000D02*
X120540000Y-69650000D01*
X118460000Y-69610000D02*
X116944000Y-69610000D01*
X122056000Y-69610000D02*
X120540000Y-69610000D01*
X118460000Y-69570000D02*
X116939000Y-69570000D01*
X122061000Y-69570000D02*
X120540000Y-69570000D01*
X118460000Y-69530000D02*
X116935000Y-69530000D01*
X122065000Y-69530000D02*
X120540000Y-69530000D01*
X118460000Y-69490000D02*
X116931000Y-69490000D01*
X122069000Y-69490000D02*
X120540000Y-69490000D01*
X122073000Y-69450000D02*
X116927000Y-69450000D01*
X122076000Y-69410000D02*
X116924000Y-69410000D01*
X122078000Y-69370000D02*
X116922000Y-69370000D01*
X122079000Y-69330000D02*
X116921000Y-69330000D01*
X122080000Y-69290000D02*
X116920000Y-69290000D01*
X122080000Y-69250000D02*
X116920000Y-69250000D01*
X122120000Y-69250000D02*
G75*
G03X122120000Y-69250000I-2620000J0D01*
G01*
X117880000Y-114120000D02*
X117880000Y-111880000D01*
X125120000Y-114120000D02*
X125120000Y-111880000D01*
X125120000Y-111880000D02*
X117880000Y-111880000D01*
X125120000Y-114120000D02*
X117880000Y-114120000D01*
X97695225Y-74275000D02*
X97695225Y-74775000D01*
X97445225Y-74525000D02*
X97945225Y-74525000D01*
X102851000Y-75716000D02*
X102851000Y-76284000D01*
X102811000Y-75482000D02*
X102811000Y-76518000D01*
X102771000Y-75323000D02*
X102771000Y-76677000D01*
X102731000Y-75195000D02*
X102731000Y-76805000D01*
X102691000Y-75085000D02*
X102691000Y-76915000D01*
X102651000Y-74989000D02*
X102651000Y-77011000D01*
X102611000Y-74902000D02*
X102611000Y-77098000D01*
X102571000Y-74822000D02*
X102571000Y-77178000D01*
X102531000Y-77040000D02*
X102531000Y-77251000D01*
X102531000Y-74749000D02*
X102531000Y-74960000D01*
X102491000Y-77040000D02*
X102491000Y-77319000D01*
X102491000Y-74681000D02*
X102491000Y-74960000D01*
X102451000Y-77040000D02*
X102451000Y-77383000D01*
X102451000Y-74617000D02*
X102451000Y-74960000D01*
X102411000Y-77040000D02*
X102411000Y-77443000D01*
X102411000Y-74557000D02*
X102411000Y-74960000D01*
X102371000Y-77040000D02*
X102371000Y-77500000D01*
X102371000Y-74500000D02*
X102371000Y-74960000D01*
X102331000Y-77040000D02*
X102331000Y-77554000D01*
X102331000Y-74446000D02*
X102331000Y-74960000D01*
X102291000Y-77040000D02*
X102291000Y-77605000D01*
X102291000Y-74395000D02*
X102291000Y-74960000D01*
X102251000Y-77040000D02*
X102251000Y-77653000D01*
X102251000Y-74347000D02*
X102251000Y-74960000D01*
X102211000Y-77040000D02*
X102211000Y-77699000D01*
X102211000Y-74301000D02*
X102211000Y-74960000D01*
X102171000Y-77040000D02*
X102171000Y-77743000D01*
X102171000Y-74257000D02*
X102171000Y-74960000D01*
X102131000Y-77040000D02*
X102131000Y-77785000D01*
X102131000Y-74215000D02*
X102131000Y-74960000D01*
X102091000Y-77040000D02*
X102091000Y-77826000D01*
X102091000Y-74174000D02*
X102091000Y-74960000D01*
X102051000Y-77040000D02*
X102051000Y-77864000D01*
X102051000Y-74136000D02*
X102051000Y-74960000D01*
X102011000Y-77040000D02*
X102011000Y-77901000D01*
X102011000Y-74099000D02*
X102011000Y-74960000D01*
X101971000Y-77040000D02*
X101971000Y-77937000D01*
X101971000Y-74063000D02*
X101971000Y-74960000D01*
X101931000Y-77040000D02*
X101931000Y-77971000D01*
X101931000Y-74029000D02*
X101931000Y-74960000D01*
X101891000Y-77040000D02*
X101891000Y-78004000D01*
X101891000Y-73996000D02*
X101891000Y-74960000D01*
X101851000Y-77040000D02*
X101851000Y-78035000D01*
X101851000Y-73965000D02*
X101851000Y-74960000D01*
X101811000Y-77040000D02*
X101811000Y-78065000D01*
X101811000Y-73935000D02*
X101811000Y-74960000D01*
X101771000Y-77040000D02*
X101771000Y-78095000D01*
X101771000Y-73905000D02*
X101771000Y-74960000D01*
X101731000Y-77040000D02*
X101731000Y-78122000D01*
X101731000Y-73878000D02*
X101731000Y-74960000D01*
X101691000Y-77040000D02*
X101691000Y-78149000D01*
X101691000Y-73851000D02*
X101691000Y-74960000D01*
X101651000Y-77040000D02*
X101651000Y-78175000D01*
X101651000Y-73825000D02*
X101651000Y-74960000D01*
X101611000Y-77040000D02*
X101611000Y-78200000D01*
X101611000Y-73800000D02*
X101611000Y-74960000D01*
X101571000Y-77040000D02*
X101571000Y-78224000D01*
X101571000Y-73776000D02*
X101571000Y-74960000D01*
X101531000Y-77040000D02*
X101531000Y-78247000D01*
X101531000Y-73753000D02*
X101531000Y-74960000D01*
X101491000Y-77040000D02*
X101491000Y-78268000D01*
X101491000Y-73732000D02*
X101491000Y-74960000D01*
X101451000Y-77040000D02*
X101451000Y-78290000D01*
X101451000Y-73710000D02*
X101451000Y-74960000D01*
X101411000Y-77040000D02*
X101411000Y-78310000D01*
X101411000Y-73690000D02*
X101411000Y-74960000D01*
X101371000Y-77040000D02*
X101371000Y-78329000D01*
X101371000Y-73671000D02*
X101371000Y-74960000D01*
X101331000Y-77040000D02*
X101331000Y-78348000D01*
X101331000Y-73652000D02*
X101331000Y-74960000D01*
X101291000Y-77040000D02*
X101291000Y-78365000D01*
X101291000Y-73635000D02*
X101291000Y-74960000D01*
X101251000Y-77040000D02*
X101251000Y-78382000D01*
X101251000Y-73618000D02*
X101251000Y-74960000D01*
X101211000Y-77040000D02*
X101211000Y-78398000D01*
X101211000Y-73602000D02*
X101211000Y-74960000D01*
X101171000Y-77040000D02*
X101171000Y-78414000D01*
X101171000Y-73586000D02*
X101171000Y-74960000D01*
X101131000Y-77040000D02*
X101131000Y-78428000D01*
X101131000Y-73572000D02*
X101131000Y-74960000D01*
X101091000Y-77040000D02*
X101091000Y-78442000D01*
X101091000Y-73558000D02*
X101091000Y-74960000D01*
X101051000Y-77040000D02*
X101051000Y-78455000D01*
X101051000Y-73545000D02*
X101051000Y-74960000D01*
X101011000Y-77040000D02*
X101011000Y-78468000D01*
X101011000Y-73532000D02*
X101011000Y-74960000D01*
X100971000Y-77040000D02*
X100971000Y-78480000D01*
X100971000Y-73520000D02*
X100971000Y-74960000D01*
X100930000Y-77040000D02*
X100930000Y-78491000D01*
X100930000Y-73509000D02*
X100930000Y-74960000D01*
X100890000Y-77040000D02*
X100890000Y-78501000D01*
X100890000Y-73499000D02*
X100890000Y-74960000D01*
X100850000Y-77040000D02*
X100850000Y-78511000D01*
X100850000Y-73489000D02*
X100850000Y-74960000D01*
X100810000Y-77040000D02*
X100810000Y-78520000D01*
X100810000Y-73480000D02*
X100810000Y-74960000D01*
X100770000Y-77040000D02*
X100770000Y-78528000D01*
X100770000Y-73472000D02*
X100770000Y-74960000D01*
X100730000Y-77040000D02*
X100730000Y-78536000D01*
X100730000Y-73464000D02*
X100730000Y-74960000D01*
X100690000Y-77040000D02*
X100690000Y-78543000D01*
X100690000Y-73457000D02*
X100690000Y-74960000D01*
X100650000Y-77040000D02*
X100650000Y-78550000D01*
X100650000Y-73450000D02*
X100650000Y-74960000D01*
X100610000Y-77040000D02*
X100610000Y-78556000D01*
X100610000Y-73444000D02*
X100610000Y-74960000D01*
X100570000Y-77040000D02*
X100570000Y-78561000D01*
X100570000Y-73439000D02*
X100570000Y-74960000D01*
X100530000Y-77040000D02*
X100530000Y-78565000D01*
X100530000Y-73435000D02*
X100530000Y-74960000D01*
X100490000Y-77040000D02*
X100490000Y-78569000D01*
X100490000Y-73431000D02*
X100490000Y-74960000D01*
X100450000Y-73427000D02*
X100450000Y-78573000D01*
X100410000Y-73424000D02*
X100410000Y-78576000D01*
X100370000Y-73422000D02*
X100370000Y-78578000D01*
X100330000Y-73421000D02*
X100330000Y-78579000D01*
X100290000Y-73420000D02*
X100290000Y-78580000D01*
X100250000Y-73420000D02*
X100250000Y-78580000D01*
X102870000Y-76000000D02*
G75*
G03X102870000Y-76000000I-2620000J0D01*
G01*
X118120000Y-98630000D02*
X118120000Y-102370000D01*
X110880000Y-98630000D02*
X110880000Y-102370000D01*
X110880000Y-102370000D02*
X118120000Y-102370000D01*
X110880000Y-98630000D02*
X118120000Y-98630000D01*
X131130000Y-63880000D02*
X134870000Y-63880000D01*
X131130000Y-71120000D02*
X134870000Y-71120000D01*
X134870000Y-71120000D02*
X134870000Y-63880000D01*
X131130000Y-71120000D02*
X131130000Y-63880000D01*
X148080000Y-78379000D02*
X148080000Y-77121000D01*
X149920000Y-78379000D02*
X149920000Y-77121000D01*
X167580000Y-76379000D02*
X167580000Y-75121000D01*
X169420000Y-76379000D02*
X169420000Y-75121000D01*
X213000000Y-63850000D02*
X217000000Y-63850000D01*
X217000000Y-63850000D02*
X217000000Y-52150000D01*
X217000000Y-52150000D02*
X213000000Y-52150000D01*
X213000000Y-52150000D02*
X213000000Y-63850000D01*
X217000000Y-52150000D02*
X217000000Y-63850000D01*
X221000000Y-52150000D02*
X217000000Y-52150000D01*
X221000000Y-63850000D02*
X221000000Y-52150000D01*
X217000000Y-63850000D02*
X221000000Y-63850000D01*
X145420000Y-78379000D02*
X145420000Y-77121000D01*
X143580000Y-78379000D02*
X143580000Y-77121000D01*
X165420000Y-78379000D02*
X165420000Y-77121000D01*
X163580000Y-78379000D02*
X163580000Y-77121000D01*
X110080000Y-140110000D02*
X111920000Y-140110000D01*
X111920000Y-140110000D02*
X111920000Y-136270000D01*
X111920000Y-136270000D02*
X110080000Y-136270000D01*
X110080000Y-136270000D02*
X110080000Y-140110000D01*
X111000000Y-141060000D02*
X111000000Y-140110000D01*
X111000000Y-135320000D02*
X111000000Y-136270000D01*
X116500000Y-135320000D02*
X116500000Y-136270000D01*
X116500000Y-141060000D02*
X116500000Y-140110000D01*
X115580000Y-136270000D02*
X115580000Y-140110000D01*
X117420000Y-136270000D02*
X115580000Y-136270000D01*
X117420000Y-140110000D02*
X117420000Y-136270000D01*
X115580000Y-140110000D02*
X117420000Y-140110000D01*
X98080000Y-92610000D02*
X99920000Y-92610000D01*
X99920000Y-92610000D02*
X99920000Y-88770000D01*
X99920000Y-88770000D02*
X98080000Y-88770000D01*
X98080000Y-88770000D02*
X98080000Y-92610000D01*
X99000000Y-93560000D02*
X99000000Y-92610000D01*
X99000000Y-87820000D02*
X99000000Y-88770000D01*
X93000000Y-87820000D02*
X93000000Y-88770000D01*
X93000000Y-93560000D02*
X93000000Y-92610000D01*
X92080000Y-88770000D02*
X92080000Y-92610000D01*
X93920000Y-88770000D02*
X92080000Y-88770000D01*
X93920000Y-92610000D02*
X93920000Y-88770000D01*
X92080000Y-92610000D02*
X93920000Y-92610000D01*
X127500000Y-135320000D02*
X127500000Y-136270000D01*
X127500000Y-141060000D02*
X127500000Y-140110000D01*
X126580000Y-136270000D02*
X126580000Y-140110000D01*
X128420000Y-136270000D02*
X126580000Y-136270000D01*
X128420000Y-140110000D02*
X128420000Y-136270000D01*
X126580000Y-140110000D02*
X128420000Y-140110000D01*
X110080000Y-92610000D02*
X111920000Y-92610000D01*
X111920000Y-92610000D02*
X111920000Y-88770000D01*
X111920000Y-88770000D02*
X110080000Y-88770000D01*
X110080000Y-88770000D02*
X110080000Y-92610000D01*
X111000000Y-93560000D02*
X111000000Y-92610000D01*
X111000000Y-87820000D02*
X111000000Y-88770000D01*
X127500000Y-87820000D02*
X127500000Y-88770000D01*
X127500000Y-93560000D02*
X127500000Y-92610000D01*
X126580000Y-88770000D02*
X126580000Y-92610000D01*
X128420000Y-88770000D02*
X126580000Y-88770000D01*
X128420000Y-92610000D02*
X128420000Y-88770000D01*
X126580000Y-92610000D02*
X128420000Y-92610000D01*
X121080000Y-92610000D02*
X122920000Y-92610000D01*
X122920000Y-92610000D02*
X122920000Y-88770000D01*
X122920000Y-88770000D02*
X121080000Y-88770000D01*
X121080000Y-88770000D02*
X121080000Y-92610000D01*
X122000000Y-93560000D02*
X122000000Y-92610000D01*
X122000000Y-87820000D02*
X122000000Y-88770000D01*
X68170000Y-139910000D02*
X70830000Y-139910000D01*
X68170000Y-116990000D02*
X68170000Y-139910000D01*
X70830000Y-116990000D02*
X70830000Y-139910000D01*
X68170000Y-116990000D02*
X70830000Y-116990000D01*
X68170000Y-115720000D02*
X68170000Y-114390000D01*
X68170000Y-114390000D02*
X69500000Y-114390000D01*
X68170000Y-85670000D02*
X69500000Y-85670000D01*
X68170000Y-87000000D02*
X68170000Y-85670000D01*
X68170000Y-88270000D02*
X70830000Y-88270000D01*
X70830000Y-88270000D02*
X70830000Y-111190000D01*
X68170000Y-88270000D02*
X68170000Y-111190000D01*
X68170000Y-111190000D02*
X70830000Y-111190000D01*
X68170000Y-82690000D02*
X70830000Y-82690000D01*
X68170000Y-59770000D02*
X68170000Y-82690000D01*
X70830000Y-59770000D02*
X70830000Y-82690000D01*
X68170000Y-59770000D02*
X70830000Y-59770000D01*
X68170000Y-58500000D02*
X68170000Y-57170000D01*
X68170000Y-57170000D02*
X69500000Y-57170000D01*
D15*
X196188095Y-92314380D02*
X196188095Y-93123904D01*
X196235714Y-93219142D01*
X196283333Y-93266761D01*
X196378571Y-93314380D01*
X196569047Y-93314380D01*
X196664285Y-93266761D01*
X196711904Y-93219142D01*
X196759523Y-93123904D01*
X196759523Y-92314380D01*
X197188095Y-92409619D02*
X197235714Y-92362000D01*
X197330952Y-92314380D01*
X197569047Y-92314380D01*
X197664285Y-92362000D01*
X197711904Y-92409619D01*
X197759523Y-92504857D01*
X197759523Y-92600095D01*
X197711904Y-92742952D01*
X197140476Y-93314380D01*
X197759523Y-93314380D01*
X191640476Y-113634380D02*
X191164285Y-113634380D01*
X191164285Y-112634380D01*
X191973809Y-113634380D02*
X191973809Y-112634380D01*
X192211904Y-112634380D01*
X192354761Y-112682000D01*
X192450000Y-112777238D01*
X192497619Y-112872476D01*
X192545238Y-113062952D01*
X192545238Y-113205809D01*
X192497619Y-113396285D01*
X192450000Y-113491523D01*
X192354761Y-113586761D01*
X192211904Y-113634380D01*
X191973809Y-113634380D01*
X192973809Y-113634380D02*
X192973809Y-112634380D01*
X192973809Y-113110571D02*
X193545238Y-113110571D01*
X193545238Y-113634380D02*
X193545238Y-112634380D01*
X194021428Y-113253428D02*
X194783333Y-113253428D01*
X195688095Y-112967714D02*
X195688095Y-113634380D01*
X195450000Y-112586761D02*
X195211904Y-113301047D01*
X195830952Y-113301047D01*
X196688095Y-112634380D02*
X196211904Y-112634380D01*
X196164285Y-113110571D01*
X196211904Y-113062952D01*
X196307142Y-113015333D01*
X196545238Y-113015333D01*
X196640476Y-113062952D01*
X196688095Y-113110571D01*
X196735714Y-113205809D01*
X196735714Y-113443904D01*
X196688095Y-113539142D01*
X196640476Y-113586761D01*
X196545238Y-113634380D01*
X196307142Y-113634380D01*
X196211904Y-113586761D01*
X196164285Y-113539142D01*
X197497619Y-113110571D02*
X197640476Y-113158190D01*
X197688095Y-113205809D01*
X197735714Y-113301047D01*
X197735714Y-113443904D01*
X197688095Y-113539142D01*
X197640476Y-113586761D01*
X197545238Y-113634380D01*
X197164285Y-113634380D01*
X197164285Y-112634380D01*
X197497619Y-112634380D01*
X197592857Y-112682000D01*
X197640476Y-112729619D01*
X197688095Y-112824857D01*
X197688095Y-112920095D01*
X197640476Y-113015333D01*
X197592857Y-113062952D01*
X197497619Y-113110571D01*
X197164285Y-113110571D01*
X198164285Y-113253428D02*
X198926190Y-113253428D01*
X199926190Y-113634380D02*
X199354761Y-113634380D01*
X199640476Y-113634380D02*
X199640476Y-112634380D01*
X199545238Y-112777238D01*
X199450000Y-112872476D01*
X199354761Y-112920095D01*
X200545238Y-112634380D02*
X200640476Y-112634380D01*
X200735714Y-112682000D01*
X200783333Y-112729619D01*
X200830952Y-112824857D01*
X200878571Y-113015333D01*
X200878571Y-113253428D01*
X200830952Y-113443904D01*
X200783333Y-113539142D01*
X200735714Y-113586761D01*
X200640476Y-113634380D01*
X200545238Y-113634380D01*
X200450000Y-113586761D01*
X200402380Y-113539142D01*
X200354761Y-113443904D01*
X200307142Y-113253428D01*
X200307142Y-113015333D01*
X200354761Y-112824857D01*
X200402380Y-112729619D01*
X200450000Y-112682000D01*
X200545238Y-112634380D01*
X201783333Y-112634380D02*
X201307142Y-112634380D01*
X201259523Y-113110571D01*
X201307142Y-113062952D01*
X201402380Y-113015333D01*
X201640476Y-113015333D01*
X201735714Y-113062952D01*
X201783333Y-113110571D01*
X201830952Y-113205809D01*
X201830952Y-113443904D01*
X201783333Y-113539142D01*
X201735714Y-113586761D01*
X201640476Y-113634380D01*
X201402380Y-113634380D01*
X201307142Y-113586761D01*
X201259523Y-113539142D01*
X202450000Y-112634380D02*
X202545238Y-112634380D01*
X202640476Y-112682000D01*
X202688095Y-112729619D01*
X202735714Y-112824857D01*
X202783333Y-113015333D01*
X202783333Y-113253428D01*
X202735714Y-113443904D01*
X202688095Y-113539142D01*
X202640476Y-113586761D01*
X202545238Y-113634380D01*
X202450000Y-113634380D01*
X202354761Y-113586761D01*
X202307142Y-113539142D01*
X202259523Y-113443904D01*
X202211904Y-113253428D01*
X202211904Y-113015333D01*
X202259523Y-112824857D01*
X202307142Y-112729619D01*
X202354761Y-112682000D01*
X202450000Y-112634380D01*
X215185714Y-70252380D02*
X215519047Y-71252380D01*
X215852380Y-70252380D01*
X216185714Y-71252380D02*
X216185714Y-70252380D01*
X216661904Y-71252380D02*
X216661904Y-70252380D01*
X217233333Y-71252380D01*
X217233333Y-70252380D01*
X217709523Y-70871428D02*
X218471428Y-70871428D01*
X218090476Y-71252380D02*
X218090476Y-70490476D01*
X188519047Y-131552380D02*
X188852380Y-132552380D01*
X189185714Y-131552380D01*
X189709523Y-131552380D02*
X189900000Y-131552380D01*
X189995238Y-131600000D01*
X190090476Y-131695238D01*
X190138095Y-131885714D01*
X190138095Y-132219047D01*
X190090476Y-132409523D01*
X189995238Y-132504761D01*
X189900000Y-132552380D01*
X189709523Y-132552380D01*
X189614285Y-132504761D01*
X189519047Y-132409523D01*
X189471428Y-132219047D01*
X189471428Y-131885714D01*
X189519047Y-131695238D01*
X189614285Y-131600000D01*
X189709523Y-131552380D01*
X190566666Y-131552380D02*
X190566666Y-132361904D01*
X190614285Y-132457142D01*
X190661904Y-132504761D01*
X190757142Y-132552380D01*
X190947619Y-132552380D01*
X191042857Y-132504761D01*
X191090476Y-132457142D01*
X191138095Y-132361904D01*
X191138095Y-131552380D01*
X191471428Y-131552380D02*
X192042857Y-131552380D01*
X191757142Y-132552380D02*
X191757142Y-131552380D01*
X192376190Y-132171428D02*
X193138095Y-132171428D01*
X192757142Y-132552380D02*
X192757142Y-131790476D01*
X150047619Y-96095238D02*
X150000000Y-96190476D01*
X149904761Y-96285714D01*
X149761904Y-96428571D01*
X149714285Y-96523809D01*
X149714285Y-96619047D01*
X149952380Y-96571428D02*
X149904761Y-96666666D01*
X149809523Y-96761904D01*
X149619047Y-96809523D01*
X149285714Y-96809523D01*
X149095238Y-96761904D01*
X149000000Y-96666666D01*
X148952380Y-96571428D01*
X148952380Y-96380952D01*
X149000000Y-96285714D01*
X149095238Y-96190476D01*
X149285714Y-96142857D01*
X149619047Y-96142857D01*
X149809523Y-96190476D01*
X149904761Y-96285714D01*
X149952380Y-96380952D01*
X149952380Y-96571428D01*
X149952380Y-95190476D02*
X149952380Y-95761904D01*
X149952380Y-95476190D02*
X148952380Y-95476190D01*
X149095238Y-95571428D01*
X149190476Y-95666666D01*
X149238095Y-95761904D01*
X205261904Y-55452380D02*
X205261904Y-56261904D01*
X205309523Y-56357142D01*
X205357142Y-56404761D01*
X205452380Y-56452380D01*
X205642857Y-56452380D01*
X205738095Y-56404761D01*
X205785714Y-56357142D01*
X205833333Y-56261904D01*
X205833333Y-55452380D01*
X206833333Y-56452380D02*
X206261904Y-56452380D01*
X206547619Y-56452380D02*
X206547619Y-55452380D01*
X206452380Y-55595238D01*
X206357142Y-55690476D01*
X206261904Y-55738095D01*
X207738095Y-55452380D02*
X207261904Y-55452380D01*
X207214285Y-55928571D01*
X207261904Y-55880952D01*
X207357142Y-55833333D01*
X207595238Y-55833333D01*
X207690476Y-55880952D01*
X207738095Y-55928571D01*
X207785714Y-56023809D01*
X207785714Y-56261904D01*
X207738095Y-56357142D01*
X207690476Y-56404761D01*
X207595238Y-56452380D01*
X207357142Y-56452380D01*
X207261904Y-56404761D01*
X207214285Y-56357142D01*
X198952380Y-63023809D02*
X197952380Y-63023809D01*
X197952380Y-62642857D01*
X198000000Y-62547619D01*
X198047619Y-62500000D01*
X198142857Y-62452380D01*
X198285714Y-62452380D01*
X198380952Y-62500000D01*
X198428571Y-62547619D01*
X198476190Y-62642857D01*
X198476190Y-63023809D01*
X198952380Y-61880952D02*
X198904761Y-61976190D01*
X198857142Y-62023809D01*
X198761904Y-62071428D01*
X198476190Y-62071428D01*
X198380952Y-62023809D01*
X198333333Y-61976190D01*
X198285714Y-61880952D01*
X198285714Y-61738095D01*
X198333333Y-61642857D01*
X198380952Y-61595238D01*
X198476190Y-61547619D01*
X198761904Y-61547619D01*
X198857142Y-61595238D01*
X198904761Y-61642857D01*
X198952380Y-61738095D01*
X198952380Y-61880952D01*
X198285714Y-61214285D02*
X198952380Y-61023809D01*
X198476190Y-60833333D01*
X198952380Y-60642857D01*
X198285714Y-60452380D01*
X198904761Y-59690476D02*
X198952380Y-59785714D01*
X198952380Y-59976190D01*
X198904761Y-60071428D01*
X198809523Y-60119047D01*
X198428571Y-60119047D01*
X198333333Y-60071428D01*
X198285714Y-59976190D01*
X198285714Y-59785714D01*
X198333333Y-59690476D01*
X198428571Y-59642857D01*
X198523809Y-59642857D01*
X198619047Y-60119047D01*
X198952380Y-59214285D02*
X198285714Y-59214285D01*
X198476190Y-59214285D02*
X198380952Y-59166666D01*
X198333333Y-59119047D01*
X198285714Y-59023809D01*
X198285714Y-58928571D01*
X198571428Y-58595238D02*
X198571428Y-57833333D01*
X198428571Y-57023809D02*
X198476190Y-56880952D01*
X198523809Y-56833333D01*
X198619047Y-56785714D01*
X198761904Y-56785714D01*
X198857142Y-56833333D01*
X198904761Y-56880952D01*
X198952380Y-56976190D01*
X198952380Y-57357142D01*
X197952380Y-57357142D01*
X197952380Y-57023809D01*
X198000000Y-56928571D01*
X198047619Y-56880952D01*
X198142857Y-56833333D01*
X198238095Y-56833333D01*
X198333333Y-56880952D01*
X198380952Y-56928571D01*
X198428571Y-57023809D01*
X198428571Y-57357142D01*
X198285714Y-55928571D02*
X198952380Y-55928571D01*
X198285714Y-56357142D02*
X198809523Y-56357142D01*
X198904761Y-56309523D01*
X198952380Y-56214285D01*
X198952380Y-56071428D01*
X198904761Y-55976190D01*
X198857142Y-55928571D01*
X198285714Y-55595238D02*
X198285714Y-55214285D01*
X197952380Y-55452380D02*
X198809523Y-55452380D01*
X198904761Y-55404761D01*
X198952380Y-55309523D01*
X198952380Y-55214285D01*
X198285714Y-55023809D02*
X198285714Y-54642857D01*
X197952380Y-54880952D02*
X198809523Y-54880952D01*
X198904761Y-54833333D01*
X198952380Y-54738095D01*
X198952380Y-54642857D01*
X198952380Y-54166666D02*
X198904761Y-54261904D01*
X198857142Y-54309523D01*
X198761904Y-54357142D01*
X198476190Y-54357142D01*
X198380952Y-54309523D01*
X198333333Y-54261904D01*
X198285714Y-54166666D01*
X198285714Y-54023809D01*
X198333333Y-53928571D01*
X198380952Y-53880952D01*
X198476190Y-53833333D01*
X198761904Y-53833333D01*
X198857142Y-53880952D01*
X198904761Y-53928571D01*
X198952380Y-54023809D01*
X198952380Y-54166666D01*
X198285714Y-53404761D02*
X198952380Y-53404761D01*
X198380952Y-53404761D02*
X198333333Y-53357142D01*
X198285714Y-53261904D01*
X198285714Y-53119047D01*
X198333333Y-53023809D01*
X198428571Y-52976190D01*
X198952380Y-52976190D01*
X100761904Y-65452380D02*
X100761904Y-66261904D01*
X100809523Y-66357142D01*
X100857142Y-66404761D01*
X100952380Y-66452380D01*
X101142857Y-66452380D01*
X101238095Y-66404761D01*
X101285714Y-66357142D01*
X101333333Y-66261904D01*
X101333333Y-65452380D01*
X102333333Y-66452380D02*
X101761904Y-66452380D01*
X102047619Y-66452380D02*
X102047619Y-65452380D01*
X101952380Y-65595238D01*
X101857142Y-65690476D01*
X101761904Y-65738095D01*
X102666666Y-65452380D02*
X103285714Y-65452380D01*
X102952380Y-65833333D01*
X103095238Y-65833333D01*
X103190476Y-65880952D01*
X103238095Y-65928571D01*
X103285714Y-66023809D01*
X103285714Y-66261904D01*
X103238095Y-66357142D01*
X103190476Y-66404761D01*
X103095238Y-66452380D01*
X102809523Y-66452380D01*
X102714285Y-66404761D01*
X102666666Y-66357142D01*
X98357142Y-67761904D02*
X98404761Y-67809523D01*
X98452380Y-67952380D01*
X98452380Y-68047619D01*
X98404761Y-68190476D01*
X98309523Y-68285714D01*
X98214285Y-68333333D01*
X98023809Y-68380952D01*
X97880952Y-68380952D01*
X97690476Y-68333333D01*
X97595238Y-68285714D01*
X97500000Y-68190476D01*
X97452380Y-68047619D01*
X97452380Y-67952380D01*
X97500000Y-67809523D01*
X97547619Y-67761904D01*
X98452380Y-67190476D02*
X98404761Y-67285714D01*
X98357142Y-67333333D01*
X98261904Y-67380952D01*
X97976190Y-67380952D01*
X97880952Y-67333333D01*
X97833333Y-67285714D01*
X97785714Y-67190476D01*
X97785714Y-67047619D01*
X97833333Y-66952380D01*
X97880952Y-66904761D01*
X97976190Y-66857142D01*
X98261904Y-66857142D01*
X98357142Y-66904761D01*
X98404761Y-66952380D01*
X98452380Y-67047619D01*
X98452380Y-67190476D01*
X97785714Y-66428571D02*
X98452380Y-66428571D01*
X97880952Y-66428571D02*
X97833333Y-66380952D01*
X97785714Y-66285714D01*
X97785714Y-66142857D01*
X97833333Y-66047619D01*
X97928571Y-66000000D01*
X98452380Y-66000000D01*
X97785714Y-65523809D02*
X98452380Y-65523809D01*
X97880952Y-65523809D02*
X97833333Y-65476190D01*
X97785714Y-65380952D01*
X97785714Y-65238095D01*
X97833333Y-65142857D01*
X97928571Y-65095238D01*
X98452380Y-65095238D01*
X98404761Y-64238095D02*
X98452380Y-64333333D01*
X98452380Y-64523809D01*
X98404761Y-64619047D01*
X98309523Y-64666666D01*
X97928571Y-64666666D01*
X97833333Y-64619047D01*
X97785714Y-64523809D01*
X97785714Y-64333333D01*
X97833333Y-64238095D01*
X97928571Y-64190476D01*
X98023809Y-64190476D01*
X98119047Y-64666666D01*
X98404761Y-63333333D02*
X98452380Y-63428571D01*
X98452380Y-63619047D01*
X98404761Y-63714285D01*
X98357142Y-63761904D01*
X98261904Y-63809523D01*
X97976190Y-63809523D01*
X97880952Y-63761904D01*
X97833333Y-63714285D01*
X97785714Y-63619047D01*
X97785714Y-63428571D01*
X97833333Y-63333333D01*
X97785714Y-63047619D02*
X97785714Y-62666666D01*
X97452380Y-62904761D02*
X98309523Y-62904761D01*
X98404761Y-62857142D01*
X98452380Y-62761904D01*
X98452380Y-62666666D01*
X98452380Y-62190476D02*
X98404761Y-62285714D01*
X98357142Y-62333333D01*
X98261904Y-62380952D01*
X97976190Y-62380952D01*
X97880952Y-62333333D01*
X97833333Y-62285714D01*
X97785714Y-62190476D01*
X97785714Y-62047619D01*
X97833333Y-61952380D01*
X97880952Y-61904761D01*
X97976190Y-61857142D01*
X98261904Y-61857142D01*
X98357142Y-61904761D01*
X98404761Y-61952380D01*
X98452380Y-62047619D01*
X98452380Y-62190476D01*
X98452380Y-61428571D02*
X97785714Y-61428571D01*
X97976190Y-61428571D02*
X97880952Y-61380952D01*
X97833333Y-61333333D01*
X97785714Y-61238095D01*
X97785714Y-61142857D01*
X98071428Y-60809523D02*
X98071428Y-60047619D01*
X98166666Y-59619047D02*
X98166666Y-59142857D01*
X98452380Y-59714285D02*
X97452380Y-59380952D01*
X98452380Y-59047619D01*
X97785714Y-58285714D02*
X98452380Y-58285714D01*
X97785714Y-58714285D02*
X98309523Y-58714285D01*
X98404761Y-58666666D01*
X98452380Y-58571428D01*
X98452380Y-58428571D01*
X98404761Y-58333333D01*
X98357142Y-58285714D01*
X98452380Y-57380952D02*
X97452380Y-57380952D01*
X98404761Y-57380952D02*
X98452380Y-57476190D01*
X98452380Y-57666666D01*
X98404761Y-57761904D01*
X98357142Y-57809523D01*
X98261904Y-57857142D01*
X97976190Y-57857142D01*
X97880952Y-57809523D01*
X97833333Y-57761904D01*
X97785714Y-57666666D01*
X97785714Y-57476190D01*
X97833333Y-57380952D01*
X98452380Y-56904761D02*
X97785714Y-56904761D01*
X97452380Y-56904761D02*
X97500000Y-56952380D01*
X97547619Y-56904761D01*
X97500000Y-56857142D01*
X97452380Y-56904761D01*
X97547619Y-56904761D01*
X98452380Y-56285714D02*
X98404761Y-56380952D01*
X98357142Y-56428571D01*
X98261904Y-56476190D01*
X97976190Y-56476190D01*
X97880952Y-56428571D01*
X97833333Y-56380952D01*
X97785714Y-56285714D01*
X97785714Y-56142857D01*
X97833333Y-56047619D01*
X97880952Y-56000000D01*
X97976190Y-55952380D01*
X98261904Y-55952380D01*
X98357142Y-56000000D01*
X98404761Y-56047619D01*
X98452380Y-56142857D01*
X98452380Y-56285714D01*
X97452380Y-55238095D02*
X98166666Y-55238095D01*
X98309523Y-55285714D01*
X98404761Y-55380952D01*
X98452380Y-55523809D01*
X98452380Y-55619047D01*
X98452380Y-54333333D02*
X97928571Y-54333333D01*
X97833333Y-54380952D01*
X97785714Y-54476190D01*
X97785714Y-54666666D01*
X97833333Y-54761904D01*
X98404761Y-54333333D02*
X98452380Y-54428571D01*
X98452380Y-54666666D01*
X98404761Y-54761904D01*
X98309523Y-54809523D01*
X98214285Y-54809523D01*
X98119047Y-54761904D01*
X98071428Y-54666666D01*
X98071428Y-54428571D01*
X98023809Y-54333333D01*
X98404761Y-53428571D02*
X98452380Y-53523809D01*
X98452380Y-53714285D01*
X98404761Y-53809523D01*
X98357142Y-53857142D01*
X98261904Y-53904761D01*
X97976190Y-53904761D01*
X97880952Y-53857142D01*
X97833333Y-53809523D01*
X97785714Y-53714285D01*
X97785714Y-53523809D01*
X97833333Y-53428571D01*
X98452380Y-53000000D02*
X97452380Y-53000000D01*
X98071428Y-52904761D02*
X98452380Y-52619047D01*
X97785714Y-52619047D02*
X98166666Y-53000000D01*
D16*
X148855238Y-130943619D02*
X149435809Y-130943619D01*
X149145523Y-131959619D02*
X149145523Y-130943619D01*
X149774476Y-131427428D02*
X150113142Y-131427428D01*
X150258285Y-131959619D02*
X149774476Y-131959619D01*
X149774476Y-130943619D01*
X150258285Y-130943619D01*
X150693714Y-131427428D02*
X151032380Y-131427428D01*
X151177523Y-131959619D02*
X150693714Y-131959619D01*
X150693714Y-130943619D01*
X151177523Y-130943619D01*
X151612952Y-131959619D02*
X151612952Y-130943619D01*
X152193523Y-131959619D01*
X152193523Y-130943619D01*
X152628952Y-131911238D02*
X152774095Y-131959619D01*
X153016000Y-131959619D01*
X153112761Y-131911238D01*
X153161142Y-131862857D01*
X153209523Y-131766095D01*
X153209523Y-131669333D01*
X153161142Y-131572571D01*
X153112761Y-131524190D01*
X153016000Y-131475809D01*
X152822476Y-131427428D01*
X152725714Y-131379047D01*
X152677333Y-131330666D01*
X152628952Y-131233904D01*
X152628952Y-131137142D01*
X152677333Y-131040380D01*
X152725714Y-130992000D01*
X152822476Y-130943619D01*
X153064380Y-130943619D01*
X153209523Y-130992000D01*
X153838476Y-131475809D02*
X153838476Y-131959619D01*
X153499809Y-130943619D02*
X153838476Y-131475809D01*
X154177142Y-130943619D01*
X155048000Y-131959619D02*
X154467428Y-131959619D01*
X154757714Y-131959619D02*
X154757714Y-130943619D01*
X154660952Y-131088761D01*
X154564190Y-131185523D01*
X154467428Y-131233904D01*
X147742476Y-142443619D02*
X148323047Y-142443619D01*
X148032761Y-143459619D02*
X148032761Y-142443619D01*
X148661714Y-142927428D02*
X149000380Y-142927428D01*
X149145523Y-143459619D02*
X148661714Y-143459619D01*
X148661714Y-142443619D01*
X149145523Y-142443619D01*
X149580952Y-142927428D02*
X149919619Y-142927428D01*
X150064761Y-143459619D02*
X149580952Y-143459619D01*
X149580952Y-142443619D01*
X150064761Y-142443619D01*
X150500190Y-143459619D02*
X150500190Y-142443619D01*
X151080761Y-143459619D01*
X151080761Y-142443619D01*
X151516190Y-143411238D02*
X151661333Y-143459619D01*
X151903238Y-143459619D01*
X152000000Y-143411238D01*
X152048380Y-143362857D01*
X152096761Y-143266095D01*
X152096761Y-143169333D01*
X152048380Y-143072571D01*
X152000000Y-143024190D01*
X151903238Y-142975809D01*
X151709714Y-142927428D01*
X151612952Y-142879047D01*
X151564571Y-142830666D01*
X151516190Y-142733904D01*
X151516190Y-142637142D01*
X151564571Y-142540380D01*
X151612952Y-142492000D01*
X151709714Y-142443619D01*
X151951619Y-142443619D01*
X152096761Y-142492000D01*
X152725714Y-142975809D02*
X152725714Y-143459619D01*
X152387047Y-142443619D02*
X152725714Y-142975809D01*
X153064380Y-142443619D01*
X153161142Y-143556380D02*
X153935238Y-143556380D01*
X154080380Y-142443619D02*
X154709333Y-142443619D01*
X154370666Y-142830666D01*
X154515809Y-142830666D01*
X154612571Y-142879047D01*
X154660952Y-142927428D01*
X154709333Y-143024190D01*
X154709333Y-143266095D01*
X154660952Y-143362857D01*
X154612571Y-143411238D01*
X154515809Y-143459619D01*
X154225523Y-143459619D01*
X154128761Y-143411238D01*
X154080380Y-143362857D01*
X155144761Y-143362857D02*
X155193142Y-143411238D01*
X155144761Y-143459619D01*
X155096380Y-143411238D01*
X155144761Y-143362857D01*
X155144761Y-143459619D01*
X155580190Y-142540380D02*
X155628571Y-142492000D01*
X155725333Y-142443619D01*
X155967238Y-142443619D01*
X156064000Y-142492000D01*
X156112380Y-142540380D01*
X156160761Y-142637142D01*
X156160761Y-142733904D01*
X156112380Y-142879047D01*
X155531809Y-143459619D01*
X156160761Y-143459619D01*
D15*
X86032380Y-90856666D02*
X85556190Y-91190000D01*
X86032380Y-91428095D02*
X85032380Y-91428095D01*
X85032380Y-91047142D01*
X85080000Y-90951904D01*
X85127619Y-90904285D01*
X85222857Y-90856666D01*
X85365714Y-90856666D01*
X85460952Y-90904285D01*
X85508571Y-90951904D01*
X85556190Y-91047142D01*
X85556190Y-91428095D01*
X85032380Y-90523333D02*
X85032380Y-89904285D01*
X85413333Y-90237619D01*
X85413333Y-90094761D01*
X85460952Y-89999523D01*
X85508571Y-89951904D01*
X85603809Y-89904285D01*
X85841904Y-89904285D01*
X85937142Y-89951904D01*
X85984761Y-89999523D01*
X86032380Y-90094761D01*
X86032380Y-90380476D01*
X85984761Y-90475714D01*
X85937142Y-90523333D01*
X121738095Y-64452380D02*
X121738095Y-65261904D01*
X121785714Y-65357142D01*
X121833333Y-65404761D01*
X121928571Y-65452380D01*
X122119047Y-65452380D01*
X122214285Y-65404761D01*
X122261904Y-65357142D01*
X122309523Y-65261904D01*
X122309523Y-64452380D01*
X123214285Y-64452380D02*
X123023809Y-64452380D01*
X122928571Y-64500000D01*
X122880952Y-64547619D01*
X122785714Y-64690476D01*
X122738095Y-64880952D01*
X122738095Y-65261904D01*
X122785714Y-65357142D01*
X122833333Y-65404761D01*
X122928571Y-65452380D01*
X123119047Y-65452380D01*
X123214285Y-65404761D01*
X123261904Y-65357142D01*
X123309523Y-65261904D01*
X123309523Y-65023809D01*
X123261904Y-64928571D01*
X123214285Y-64880952D01*
X123119047Y-64833333D01*
X122928571Y-64833333D01*
X122833333Y-64880952D01*
X122785714Y-64928571D01*
X122738095Y-65023809D01*
X117452380Y-64214285D02*
X116452380Y-64214285D01*
X117166666Y-63880952D01*
X116452380Y-63547619D01*
X117452380Y-63547619D01*
X117452380Y-62928571D02*
X117404761Y-63023809D01*
X117357142Y-63071428D01*
X117261904Y-63119047D01*
X116976190Y-63119047D01*
X116880952Y-63071428D01*
X116833333Y-63023809D01*
X116785714Y-62928571D01*
X116785714Y-62785714D01*
X116833333Y-62690476D01*
X116880952Y-62642857D01*
X116976190Y-62595238D01*
X117261904Y-62595238D01*
X117357142Y-62642857D01*
X117404761Y-62690476D01*
X117452380Y-62785714D01*
X117452380Y-62928571D01*
X116785714Y-62309523D02*
X116785714Y-61928571D01*
X116452380Y-62166666D02*
X117309523Y-62166666D01*
X117404761Y-62119047D01*
X117452380Y-62023809D01*
X117452380Y-61928571D01*
X117452380Y-61452380D02*
X117404761Y-61547619D01*
X117357142Y-61595238D01*
X117261904Y-61642857D01*
X116976190Y-61642857D01*
X116880952Y-61595238D01*
X116833333Y-61547619D01*
X116785714Y-61452380D01*
X116785714Y-61309523D01*
X116833333Y-61214285D01*
X116880952Y-61166666D01*
X116976190Y-61119047D01*
X117261904Y-61119047D01*
X117357142Y-61166666D01*
X117404761Y-61214285D01*
X117452380Y-61309523D01*
X117452380Y-61452380D01*
X117452380Y-60690476D02*
X116785714Y-60690476D01*
X116976190Y-60690476D02*
X116880952Y-60642857D01*
X116833333Y-60595238D01*
X116785714Y-60500000D01*
X116785714Y-60404761D01*
X117071428Y-60071428D02*
X117071428Y-59309523D01*
X117357142Y-58261904D02*
X117404761Y-58309523D01*
X117452380Y-58452380D01*
X117452380Y-58547619D01*
X117404761Y-58690476D01*
X117309523Y-58785714D01*
X117214285Y-58833333D01*
X117023809Y-58880952D01*
X116880952Y-58880952D01*
X116690476Y-58833333D01*
X116595238Y-58785714D01*
X116500000Y-58690476D01*
X116452380Y-58547619D01*
X116452380Y-58452380D01*
X116500000Y-58309523D01*
X116547619Y-58261904D01*
X117452380Y-57690476D02*
X117404761Y-57785714D01*
X117357142Y-57833333D01*
X117261904Y-57880952D01*
X116976190Y-57880952D01*
X116880952Y-57833333D01*
X116833333Y-57785714D01*
X116785714Y-57690476D01*
X116785714Y-57547619D01*
X116833333Y-57452380D01*
X116880952Y-57404761D01*
X116976190Y-57357142D01*
X117261904Y-57357142D01*
X117357142Y-57404761D01*
X117404761Y-57452380D01*
X117452380Y-57547619D01*
X117452380Y-57690476D01*
X116785714Y-56928571D02*
X117452380Y-56928571D01*
X116880952Y-56928571D02*
X116833333Y-56880952D01*
X116785714Y-56785714D01*
X116785714Y-56642857D01*
X116833333Y-56547619D01*
X116928571Y-56500000D01*
X117452380Y-56500000D01*
X116785714Y-56023809D02*
X117452380Y-56023809D01*
X116880952Y-56023809D02*
X116833333Y-55976190D01*
X116785714Y-55880952D01*
X116785714Y-55738095D01*
X116833333Y-55642857D01*
X116928571Y-55595238D01*
X117452380Y-55595238D01*
X117404761Y-54738095D02*
X117452380Y-54833333D01*
X117452380Y-55023809D01*
X117404761Y-55119047D01*
X117309523Y-55166666D01*
X116928571Y-55166666D01*
X116833333Y-55119047D01*
X116785714Y-55023809D01*
X116785714Y-54833333D01*
X116833333Y-54738095D01*
X116928571Y-54690476D01*
X117023809Y-54690476D01*
X117119047Y-55166666D01*
X117404761Y-53833333D02*
X117452380Y-53928571D01*
X117452380Y-54119047D01*
X117404761Y-54214285D01*
X117357142Y-54261904D01*
X117261904Y-54309523D01*
X116976190Y-54309523D01*
X116880952Y-54261904D01*
X116833333Y-54214285D01*
X116785714Y-54119047D01*
X116785714Y-53928571D01*
X116833333Y-53833333D01*
X116785714Y-53547619D02*
X116785714Y-53166666D01*
X116452380Y-53404761D02*
X117309523Y-53404761D01*
X117404761Y-53357142D01*
X117452380Y-53261904D01*
X117452380Y-53166666D01*
X117452380Y-52690476D02*
X117404761Y-52785714D01*
X117357142Y-52833333D01*
X117261904Y-52880952D01*
X116976190Y-52880952D01*
X116880952Y-52833333D01*
X116833333Y-52785714D01*
X116785714Y-52690476D01*
X116785714Y-52547619D01*
X116833333Y-52452380D01*
X116880952Y-52404761D01*
X116976190Y-52357142D01*
X117261904Y-52357142D01*
X117357142Y-52404761D01*
X117404761Y-52452380D01*
X117452380Y-52547619D01*
X117452380Y-52690476D01*
X117452380Y-51928571D02*
X116785714Y-51928571D01*
X116976190Y-51928571D02*
X116880952Y-51880952D01*
X116833333Y-51833333D01*
X116785714Y-51738095D01*
X116785714Y-51642857D01*
X161238095Y-63952380D02*
X161238095Y-64761904D01*
X161285714Y-64857142D01*
X161333333Y-64904761D01*
X161428571Y-64952380D01*
X161619047Y-64952380D01*
X161714285Y-64904761D01*
X161761904Y-64857142D01*
X161809523Y-64761904D01*
X161809523Y-63952380D01*
X162190476Y-63952380D02*
X162809523Y-63952380D01*
X162476190Y-64333333D01*
X162619047Y-64333333D01*
X162714285Y-64380952D01*
X162761904Y-64428571D01*
X162809523Y-64523809D01*
X162809523Y-64761904D01*
X162761904Y-64857142D01*
X162714285Y-64904761D01*
X162619047Y-64952380D01*
X162333333Y-64952380D01*
X162238095Y-64904761D01*
X162190476Y-64857142D01*
X156857142Y-62428571D02*
X156904761Y-62476190D01*
X156952380Y-62619047D01*
X156952380Y-62714285D01*
X156904761Y-62857142D01*
X156809523Y-62952380D01*
X156714285Y-63000000D01*
X156523809Y-63047619D01*
X156380952Y-63047619D01*
X156190476Y-63000000D01*
X156095238Y-62952380D01*
X156000000Y-62857142D01*
X155952380Y-62714285D01*
X155952380Y-62619047D01*
X156000000Y-62476190D01*
X156047619Y-62428571D01*
X156952380Y-61857142D02*
X156904761Y-61952380D01*
X156857142Y-62000000D01*
X156761904Y-62047619D01*
X156476190Y-62047619D01*
X156380952Y-62000000D01*
X156333333Y-61952380D01*
X156285714Y-61857142D01*
X156285714Y-61714285D01*
X156333333Y-61619047D01*
X156380952Y-61571428D01*
X156476190Y-61523809D01*
X156761904Y-61523809D01*
X156857142Y-61571428D01*
X156904761Y-61619047D01*
X156952380Y-61714285D01*
X156952380Y-61857142D01*
X156285714Y-61095238D02*
X156952380Y-61095238D01*
X156380952Y-61095238D02*
X156333333Y-61047619D01*
X156285714Y-60952380D01*
X156285714Y-60809523D01*
X156333333Y-60714285D01*
X156428571Y-60666666D01*
X156952380Y-60666666D01*
X156285714Y-60190476D02*
X156952380Y-60190476D01*
X156380952Y-60190476D02*
X156333333Y-60142857D01*
X156285714Y-60047619D01*
X156285714Y-59904761D01*
X156333333Y-59809523D01*
X156428571Y-59761904D01*
X156952380Y-59761904D01*
X156904761Y-58904761D02*
X156952380Y-59000000D01*
X156952380Y-59190476D01*
X156904761Y-59285714D01*
X156809523Y-59333333D01*
X156428571Y-59333333D01*
X156333333Y-59285714D01*
X156285714Y-59190476D01*
X156285714Y-59000000D01*
X156333333Y-58904761D01*
X156428571Y-58857142D01*
X156523809Y-58857142D01*
X156619047Y-59333333D01*
X156904761Y-58000000D02*
X156952380Y-58095238D01*
X156952380Y-58285714D01*
X156904761Y-58380952D01*
X156857142Y-58428571D01*
X156761904Y-58476190D01*
X156476190Y-58476190D01*
X156380952Y-58428571D01*
X156333333Y-58380952D01*
X156285714Y-58285714D01*
X156285714Y-58095238D01*
X156333333Y-58000000D01*
X156285714Y-57714285D02*
X156285714Y-57333333D01*
X155952380Y-57571428D02*
X156809523Y-57571428D01*
X156904761Y-57523809D01*
X156952380Y-57428571D01*
X156952380Y-57333333D01*
X156952380Y-56857142D02*
X156904761Y-56952380D01*
X156857142Y-57000000D01*
X156761904Y-57047619D01*
X156476190Y-57047619D01*
X156380952Y-57000000D01*
X156333333Y-56952380D01*
X156285714Y-56857142D01*
X156285714Y-56714285D01*
X156333333Y-56619047D01*
X156380952Y-56571428D01*
X156476190Y-56523809D01*
X156761904Y-56523809D01*
X156857142Y-56571428D01*
X156904761Y-56619047D01*
X156952380Y-56714285D01*
X156952380Y-56857142D01*
X156952380Y-56095238D02*
X156285714Y-56095238D01*
X156476190Y-56095238D02*
X156380952Y-56047619D01*
X156333333Y-56000000D01*
X156285714Y-55904761D01*
X156285714Y-55809523D01*
X156571428Y-55476190D02*
X156571428Y-54714285D01*
X156952380Y-53761904D02*
X156952380Y-54238095D01*
X155952380Y-54238095D01*
X156428571Y-53428571D02*
X156428571Y-53095238D01*
X156952380Y-52952380D02*
X156952380Y-53428571D01*
X155952380Y-53428571D01*
X155952380Y-52952380D01*
X156952380Y-52523809D02*
X155952380Y-52523809D01*
X155952380Y-52285714D01*
X156000000Y-52142857D01*
X156095238Y-52047619D01*
X156190476Y-52000000D01*
X156380952Y-51952380D01*
X156523809Y-51952380D01*
X156714285Y-52000000D01*
X156809523Y-52047619D01*
X156904761Y-52142857D01*
X156952380Y-52285714D01*
X156952380Y-52523809D01*
X143238095Y-63952380D02*
X143238095Y-64761904D01*
X143285714Y-64857142D01*
X143333333Y-64904761D01*
X143428571Y-64952380D01*
X143619047Y-64952380D01*
X143714285Y-64904761D01*
X143761904Y-64857142D01*
X143809523Y-64761904D01*
X143809523Y-63952380D01*
X144809523Y-64952380D02*
X144238095Y-64952380D01*
X144523809Y-64952380D02*
X144523809Y-63952380D01*
X144428571Y-64095238D01*
X144333333Y-64190476D01*
X144238095Y-64238095D01*
X138857142Y-64595238D02*
X138904761Y-64642857D01*
X138952380Y-64785714D01*
X138952380Y-64880952D01*
X138904761Y-65023809D01*
X138809523Y-65119047D01*
X138714285Y-65166666D01*
X138523809Y-65214285D01*
X138380952Y-65214285D01*
X138190476Y-65166666D01*
X138095238Y-65119047D01*
X138000000Y-65023809D01*
X137952380Y-64880952D01*
X137952380Y-64785714D01*
X138000000Y-64642857D01*
X138047619Y-64595238D01*
X138952380Y-64023809D02*
X138904761Y-64119047D01*
X138857142Y-64166666D01*
X138761904Y-64214285D01*
X138476190Y-64214285D01*
X138380952Y-64166666D01*
X138333333Y-64119047D01*
X138285714Y-64023809D01*
X138285714Y-63880952D01*
X138333333Y-63785714D01*
X138380952Y-63738095D01*
X138476190Y-63690476D01*
X138761904Y-63690476D01*
X138857142Y-63738095D01*
X138904761Y-63785714D01*
X138952380Y-63880952D01*
X138952380Y-64023809D01*
X138285714Y-63261904D02*
X138952380Y-63261904D01*
X138380952Y-63261904D02*
X138333333Y-63214285D01*
X138285714Y-63119047D01*
X138285714Y-62976190D01*
X138333333Y-62880952D01*
X138428571Y-62833333D01*
X138952380Y-62833333D01*
X138285714Y-62357142D02*
X138952380Y-62357142D01*
X138380952Y-62357142D02*
X138333333Y-62309523D01*
X138285714Y-62214285D01*
X138285714Y-62071428D01*
X138333333Y-61976190D01*
X138428571Y-61928571D01*
X138952380Y-61928571D01*
X138904761Y-61071428D02*
X138952380Y-61166666D01*
X138952380Y-61357142D01*
X138904761Y-61452380D01*
X138809523Y-61500000D01*
X138428571Y-61500000D01*
X138333333Y-61452380D01*
X138285714Y-61357142D01*
X138285714Y-61166666D01*
X138333333Y-61071428D01*
X138428571Y-61023809D01*
X138523809Y-61023809D01*
X138619047Y-61500000D01*
X138904761Y-60166666D02*
X138952380Y-60261904D01*
X138952380Y-60452380D01*
X138904761Y-60547619D01*
X138857142Y-60595238D01*
X138761904Y-60642857D01*
X138476190Y-60642857D01*
X138380952Y-60595238D01*
X138333333Y-60547619D01*
X138285714Y-60452380D01*
X138285714Y-60261904D01*
X138333333Y-60166666D01*
X138285714Y-59880952D02*
X138285714Y-59500000D01*
X137952380Y-59738095D02*
X138809523Y-59738095D01*
X138904761Y-59690476D01*
X138952380Y-59595238D01*
X138952380Y-59500000D01*
X138952380Y-59023809D02*
X138904761Y-59119047D01*
X138857142Y-59166666D01*
X138761904Y-59214285D01*
X138476190Y-59214285D01*
X138380952Y-59166666D01*
X138333333Y-59119047D01*
X138285714Y-59023809D01*
X138285714Y-58880952D01*
X138333333Y-58785714D01*
X138380952Y-58738095D01*
X138476190Y-58690476D01*
X138761904Y-58690476D01*
X138857142Y-58738095D01*
X138904761Y-58785714D01*
X138952380Y-58880952D01*
X138952380Y-59023809D01*
X138952380Y-58261904D02*
X138285714Y-58261904D01*
X138476190Y-58261904D02*
X138380952Y-58214285D01*
X138333333Y-58166666D01*
X138285714Y-58071428D01*
X138285714Y-57976190D01*
X138571428Y-57642857D02*
X138571428Y-56880952D01*
X138904761Y-56452380D02*
X138952380Y-56309523D01*
X138952380Y-56071428D01*
X138904761Y-55976190D01*
X138857142Y-55928571D01*
X138761904Y-55880952D01*
X138666666Y-55880952D01*
X138571428Y-55928571D01*
X138523809Y-55976190D01*
X138476190Y-56071428D01*
X138428571Y-56261904D01*
X138380952Y-56357142D01*
X138333333Y-56404761D01*
X138238095Y-56452380D01*
X138142857Y-56452380D01*
X138047619Y-56404761D01*
X138000000Y-56357142D01*
X137952380Y-56261904D01*
X137952380Y-56023809D01*
X138000000Y-55880952D01*
X138904761Y-55071428D02*
X138952380Y-55166666D01*
X138952380Y-55357142D01*
X138904761Y-55452380D01*
X138809523Y-55500000D01*
X138428571Y-55500000D01*
X138333333Y-55452380D01*
X138285714Y-55357142D01*
X138285714Y-55166666D01*
X138333333Y-55071428D01*
X138428571Y-55023809D01*
X138523809Y-55023809D01*
X138619047Y-55500000D01*
X138285714Y-54595238D02*
X138952380Y-54595238D01*
X138380952Y-54595238D02*
X138333333Y-54547619D01*
X138285714Y-54452380D01*
X138285714Y-54309523D01*
X138333333Y-54214285D01*
X138428571Y-54166666D01*
X138952380Y-54166666D01*
X138904761Y-53738095D02*
X138952380Y-53642857D01*
X138952380Y-53452380D01*
X138904761Y-53357142D01*
X138809523Y-53309523D01*
X138761904Y-53309523D01*
X138666666Y-53357142D01*
X138619047Y-53452380D01*
X138619047Y-53595238D01*
X138571428Y-53690476D01*
X138476190Y-53738095D01*
X138428571Y-53738095D01*
X138333333Y-53690476D01*
X138285714Y-53595238D01*
X138285714Y-53452380D01*
X138333333Y-53357142D01*
X138952380Y-52738095D02*
X138904761Y-52833333D01*
X138857142Y-52880952D01*
X138761904Y-52928571D01*
X138476190Y-52928571D01*
X138380952Y-52880952D01*
X138333333Y-52833333D01*
X138285714Y-52738095D01*
X138285714Y-52595238D01*
X138333333Y-52500000D01*
X138380952Y-52452380D01*
X138476190Y-52404761D01*
X138761904Y-52404761D01*
X138857142Y-52452380D01*
X138904761Y-52500000D01*
X138952380Y-52595238D01*
X138952380Y-52738095D01*
X138952380Y-51976190D02*
X138285714Y-51976190D01*
X138476190Y-51976190D02*
X138380952Y-51928571D01*
X138333333Y-51880952D01*
X138285714Y-51785714D01*
X138285714Y-51690476D01*
X185261904Y-65452380D02*
X185261904Y-66261904D01*
X185309523Y-66357142D01*
X185357142Y-66404761D01*
X185452380Y-66452380D01*
X185642857Y-66452380D01*
X185738095Y-66404761D01*
X185785714Y-66357142D01*
X185833333Y-66261904D01*
X185833333Y-65452380D01*
X186261904Y-65547619D02*
X186309523Y-65500000D01*
X186404761Y-65452380D01*
X186642857Y-65452380D01*
X186738095Y-65500000D01*
X186785714Y-65547619D01*
X186833333Y-65642857D01*
X186833333Y-65738095D01*
X186785714Y-65880952D01*
X186214285Y-66452380D01*
X186833333Y-66452380D01*
X187452380Y-65452380D02*
X187547619Y-65452380D01*
X187642857Y-65500000D01*
X187690476Y-65547619D01*
X187738095Y-65642857D01*
X187785714Y-65833333D01*
X187785714Y-66071428D01*
X187738095Y-66261904D01*
X187690476Y-66357142D01*
X187642857Y-66404761D01*
X187547619Y-66452380D01*
X187452380Y-66452380D01*
X187357142Y-66404761D01*
X187309523Y-66357142D01*
X187261904Y-66261904D01*
X187214285Y-66071428D01*
X187214285Y-65833333D01*
X187261904Y-65642857D01*
X187309523Y-65547619D01*
X187357142Y-65500000D01*
X187452380Y-65452380D01*
X183357142Y-66238095D02*
X183404761Y-66285714D01*
X183452380Y-66428571D01*
X183452380Y-66523809D01*
X183404761Y-66666666D01*
X183309523Y-66761904D01*
X183214285Y-66809523D01*
X183023809Y-66857142D01*
X182880952Y-66857142D01*
X182690476Y-66809523D01*
X182595238Y-66761904D01*
X182500000Y-66666666D01*
X182452380Y-66523809D01*
X182452380Y-66428571D01*
X182500000Y-66285714D01*
X182547619Y-66238095D01*
X183452380Y-65666666D02*
X183404761Y-65761904D01*
X183357142Y-65809523D01*
X183261904Y-65857142D01*
X182976190Y-65857142D01*
X182880952Y-65809523D01*
X182833333Y-65761904D01*
X182785714Y-65666666D01*
X182785714Y-65523809D01*
X182833333Y-65428571D01*
X182880952Y-65380952D01*
X182976190Y-65333333D01*
X183261904Y-65333333D01*
X183357142Y-65380952D01*
X183404761Y-65428571D01*
X183452380Y-65523809D01*
X183452380Y-65666666D01*
X182785714Y-64904761D02*
X183452380Y-64904761D01*
X182880952Y-64904761D02*
X182833333Y-64857142D01*
X182785714Y-64761904D01*
X182785714Y-64619047D01*
X182833333Y-64523809D01*
X182928571Y-64476190D01*
X183452380Y-64476190D01*
X182785714Y-64000000D02*
X183452380Y-64000000D01*
X182880952Y-64000000D02*
X182833333Y-63952380D01*
X182785714Y-63857142D01*
X182785714Y-63714285D01*
X182833333Y-63619047D01*
X182928571Y-63571428D01*
X183452380Y-63571428D01*
X183404761Y-62714285D02*
X183452380Y-62809523D01*
X183452380Y-63000000D01*
X183404761Y-63095238D01*
X183309523Y-63142857D01*
X182928571Y-63142857D01*
X182833333Y-63095238D01*
X182785714Y-63000000D01*
X182785714Y-62809523D01*
X182833333Y-62714285D01*
X182928571Y-62666666D01*
X183023809Y-62666666D01*
X183119047Y-63142857D01*
X183404761Y-61809523D02*
X183452380Y-61904761D01*
X183452380Y-62095238D01*
X183404761Y-62190476D01*
X183357142Y-62238095D01*
X183261904Y-62285714D01*
X182976190Y-62285714D01*
X182880952Y-62238095D01*
X182833333Y-62190476D01*
X182785714Y-62095238D01*
X182785714Y-61904761D01*
X182833333Y-61809523D01*
X182785714Y-61523809D02*
X182785714Y-61142857D01*
X182452380Y-61380952D02*
X183309523Y-61380952D01*
X183404761Y-61333333D01*
X183452380Y-61238095D01*
X183452380Y-61142857D01*
X183452380Y-60666666D02*
X183404761Y-60761904D01*
X183357142Y-60809523D01*
X183261904Y-60857142D01*
X182976190Y-60857142D01*
X182880952Y-60809523D01*
X182833333Y-60761904D01*
X182785714Y-60666666D01*
X182785714Y-60523809D01*
X182833333Y-60428571D01*
X182880952Y-60380952D01*
X182976190Y-60333333D01*
X183261904Y-60333333D01*
X183357142Y-60380952D01*
X183404761Y-60428571D01*
X183452380Y-60523809D01*
X183452380Y-60666666D01*
X183452380Y-59904761D02*
X182785714Y-59904761D01*
X182976190Y-59904761D02*
X182880952Y-59857142D01*
X182833333Y-59809523D01*
X182785714Y-59714285D01*
X182785714Y-59619047D01*
X183547619Y-59523809D02*
X183547619Y-58761904D01*
X182928571Y-58190476D02*
X182928571Y-58523809D01*
X183452380Y-58523809D02*
X182452380Y-58523809D01*
X182452380Y-58047619D01*
X183166666Y-57714285D02*
X183166666Y-57238095D01*
X183452380Y-57809523D02*
X182452380Y-57476190D01*
X183452380Y-57142857D01*
X183452380Y-56809523D02*
X182452380Y-56809523D01*
X183452380Y-56238095D01*
X182452380Y-56238095D01*
X183547619Y-56000000D02*
X183547619Y-55238095D01*
X183452380Y-55000000D02*
X182452380Y-55000000D01*
X182452380Y-54619047D01*
X182500000Y-54523809D01*
X182547619Y-54476190D01*
X182642857Y-54428571D01*
X182785714Y-54428571D01*
X182880952Y-54476190D01*
X182928571Y-54523809D01*
X182976190Y-54619047D01*
X182976190Y-55000000D01*
X182452380Y-54095238D02*
X183452380Y-53857142D01*
X182738095Y-53666666D01*
X183452380Y-53476190D01*
X182452380Y-53238095D01*
X183452380Y-52857142D02*
X182452380Y-52857142D01*
X183166666Y-52523809D01*
X182452380Y-52190476D01*
X183452380Y-52190476D01*
X173261904Y-65452380D02*
X173261904Y-66261904D01*
X173309523Y-66357142D01*
X173357142Y-66404761D01*
X173452380Y-66452380D01*
X173642857Y-66452380D01*
X173738095Y-66404761D01*
X173785714Y-66357142D01*
X173833333Y-66261904D01*
X173833333Y-65452380D01*
X174833333Y-66452380D02*
X174261904Y-66452380D01*
X174547619Y-66452380D02*
X174547619Y-65452380D01*
X174452380Y-65595238D01*
X174357142Y-65690476D01*
X174261904Y-65738095D01*
X175309523Y-66452380D02*
X175500000Y-66452380D01*
X175595238Y-66404761D01*
X175642857Y-66357142D01*
X175738095Y-66214285D01*
X175785714Y-66023809D01*
X175785714Y-65642857D01*
X175738095Y-65547619D01*
X175690476Y-65500000D01*
X175595238Y-65452380D01*
X175404761Y-65452380D01*
X175309523Y-65500000D01*
X175261904Y-65547619D01*
X175214285Y-65642857D01*
X175214285Y-65880952D01*
X175261904Y-65976190D01*
X175309523Y-66023809D01*
X175404761Y-66071428D01*
X175595238Y-66071428D01*
X175690476Y-66023809D01*
X175738095Y-65976190D01*
X175785714Y-65880952D01*
X171357142Y-63452380D02*
X171404761Y-63500000D01*
X171452380Y-63642857D01*
X171452380Y-63738095D01*
X171404761Y-63880952D01*
X171309523Y-63976190D01*
X171214285Y-64023809D01*
X171023809Y-64071428D01*
X170880952Y-64071428D01*
X170690476Y-64023809D01*
X170595238Y-63976190D01*
X170500000Y-63880952D01*
X170452380Y-63738095D01*
X170452380Y-63642857D01*
X170500000Y-63500000D01*
X170547619Y-63452380D01*
X171452380Y-62880952D02*
X171404761Y-62976190D01*
X171357142Y-63023809D01*
X171261904Y-63071428D01*
X170976190Y-63071428D01*
X170880952Y-63023809D01*
X170833333Y-62976190D01*
X170785714Y-62880952D01*
X170785714Y-62738095D01*
X170833333Y-62642857D01*
X170880952Y-62595238D01*
X170976190Y-62547619D01*
X171261904Y-62547619D01*
X171357142Y-62595238D01*
X171404761Y-62642857D01*
X171452380Y-62738095D01*
X171452380Y-62880952D01*
X170785714Y-62119047D02*
X171452380Y-62119047D01*
X170880952Y-62119047D02*
X170833333Y-62071428D01*
X170785714Y-61976190D01*
X170785714Y-61833333D01*
X170833333Y-61738095D01*
X170928571Y-61690476D01*
X171452380Y-61690476D01*
X170785714Y-61214285D02*
X171452380Y-61214285D01*
X170880952Y-61214285D02*
X170833333Y-61166666D01*
X170785714Y-61071428D01*
X170785714Y-60928571D01*
X170833333Y-60833333D01*
X170928571Y-60785714D01*
X171452380Y-60785714D01*
X171404761Y-59928571D02*
X171452380Y-60023809D01*
X171452380Y-60214285D01*
X171404761Y-60309523D01*
X171309523Y-60357142D01*
X170928571Y-60357142D01*
X170833333Y-60309523D01*
X170785714Y-60214285D01*
X170785714Y-60023809D01*
X170833333Y-59928571D01*
X170928571Y-59880952D01*
X171023809Y-59880952D01*
X171119047Y-60357142D01*
X171404761Y-59023809D02*
X171452380Y-59119047D01*
X171452380Y-59309523D01*
X171404761Y-59404761D01*
X171357142Y-59452380D01*
X171261904Y-59500000D01*
X170976190Y-59500000D01*
X170880952Y-59452380D01*
X170833333Y-59404761D01*
X170785714Y-59309523D01*
X170785714Y-59119047D01*
X170833333Y-59023809D01*
X170785714Y-58738095D02*
X170785714Y-58357142D01*
X170452380Y-58595238D02*
X171309523Y-58595238D01*
X171404761Y-58547619D01*
X171452380Y-58452380D01*
X171452380Y-58357142D01*
X171452380Y-57880952D02*
X171404761Y-57976190D01*
X171357142Y-58023809D01*
X171261904Y-58071428D01*
X170976190Y-58071428D01*
X170880952Y-58023809D01*
X170833333Y-57976190D01*
X170785714Y-57880952D01*
X170785714Y-57738095D01*
X170833333Y-57642857D01*
X170880952Y-57595238D01*
X170976190Y-57547619D01*
X171261904Y-57547619D01*
X171357142Y-57595238D01*
X171404761Y-57642857D01*
X171452380Y-57738095D01*
X171452380Y-57880952D01*
X171452380Y-57119047D02*
X170785714Y-57119047D01*
X170976190Y-57119047D02*
X170880952Y-57071428D01*
X170833333Y-57023809D01*
X170785714Y-56928571D01*
X170785714Y-56833333D01*
X171071428Y-56500000D02*
X171071428Y-55738095D01*
X170928571Y-54928571D02*
X170928571Y-55261904D01*
X171452380Y-55261904D02*
X170452380Y-55261904D01*
X170452380Y-54785714D01*
X171166666Y-54452380D02*
X171166666Y-53976190D01*
X171452380Y-54547619D02*
X170452380Y-54214285D01*
X171452380Y-53880952D01*
X171452380Y-53547619D02*
X170452380Y-53547619D01*
X171452380Y-52976190D01*
X170452380Y-52976190D01*
X115782380Y-123548095D02*
X116591904Y-123548095D01*
X116687142Y-123500476D01*
X116734761Y-123452857D01*
X116782380Y-123357619D01*
X116782380Y-123167142D01*
X116734761Y-123071904D01*
X116687142Y-123024285D01*
X116591904Y-122976666D01*
X115782380Y-122976666D01*
X116782380Y-121976666D02*
X116782380Y-122548095D01*
X116782380Y-122262380D02*
X115782380Y-122262380D01*
X115925238Y-122357619D01*
X116020476Y-122452857D01*
X116068095Y-122548095D01*
X116210952Y-121405238D02*
X116163333Y-121500476D01*
X116115714Y-121548095D01*
X116020476Y-121595714D01*
X115972857Y-121595714D01*
X115877619Y-121548095D01*
X115830000Y-121500476D01*
X115782380Y-121405238D01*
X115782380Y-121214761D01*
X115830000Y-121119523D01*
X115877619Y-121071904D01*
X115972857Y-121024285D01*
X116020476Y-121024285D01*
X116115714Y-121071904D01*
X116163333Y-121119523D01*
X116210952Y-121214761D01*
X116210952Y-121405238D01*
X116258571Y-121500476D01*
X116306190Y-121548095D01*
X116401428Y-121595714D01*
X116591904Y-121595714D01*
X116687142Y-121548095D01*
X116734761Y-121500476D01*
X116782380Y-121405238D01*
X116782380Y-121214761D01*
X116734761Y-121119523D01*
X116687142Y-121071904D01*
X116591904Y-121024285D01*
X116401428Y-121024285D01*
X116306190Y-121071904D01*
X116258571Y-121119523D01*
X116210952Y-121214761D01*
X80261904Y-64952380D02*
X80261904Y-65761904D01*
X80309523Y-65857142D01*
X80357142Y-65904761D01*
X80452380Y-65952380D01*
X80642857Y-65952380D01*
X80738095Y-65904761D01*
X80785714Y-65857142D01*
X80833333Y-65761904D01*
X80833333Y-64952380D01*
X81833333Y-65952380D02*
X81261904Y-65952380D01*
X81547619Y-65952380D02*
X81547619Y-64952380D01*
X81452380Y-65095238D01*
X81357142Y-65190476D01*
X81261904Y-65238095D01*
X82690476Y-65285714D02*
X82690476Y-65952380D01*
X82452380Y-64904761D02*
X82214285Y-65619047D01*
X82833333Y-65619047D01*
X78357142Y-65142857D02*
X78404761Y-65190476D01*
X78452380Y-65333333D01*
X78452380Y-65428571D01*
X78404761Y-65571428D01*
X78309523Y-65666666D01*
X78214285Y-65714285D01*
X78023809Y-65761904D01*
X77880952Y-65761904D01*
X77690476Y-65714285D01*
X77595238Y-65666666D01*
X77500000Y-65571428D01*
X77452380Y-65428571D01*
X77452380Y-65333333D01*
X77500000Y-65190476D01*
X77547619Y-65142857D01*
X78452380Y-64571428D02*
X78404761Y-64666666D01*
X78357142Y-64714285D01*
X78261904Y-64761904D01*
X77976190Y-64761904D01*
X77880952Y-64714285D01*
X77833333Y-64666666D01*
X77785714Y-64571428D01*
X77785714Y-64428571D01*
X77833333Y-64333333D01*
X77880952Y-64285714D01*
X77976190Y-64238095D01*
X78261904Y-64238095D01*
X78357142Y-64285714D01*
X78404761Y-64333333D01*
X78452380Y-64428571D01*
X78452380Y-64571428D01*
X77785714Y-63809523D02*
X78452380Y-63809523D01*
X77880952Y-63809523D02*
X77833333Y-63761904D01*
X77785714Y-63666666D01*
X77785714Y-63523809D01*
X77833333Y-63428571D01*
X77928571Y-63380952D01*
X78452380Y-63380952D01*
X77785714Y-62904761D02*
X78452380Y-62904761D01*
X77880952Y-62904761D02*
X77833333Y-62857142D01*
X77785714Y-62761904D01*
X77785714Y-62619047D01*
X77833333Y-62523809D01*
X77928571Y-62476190D01*
X78452380Y-62476190D01*
X78404761Y-61619047D02*
X78452380Y-61714285D01*
X78452380Y-61904761D01*
X78404761Y-62000000D01*
X78309523Y-62047619D01*
X77928571Y-62047619D01*
X77833333Y-62000000D01*
X77785714Y-61904761D01*
X77785714Y-61714285D01*
X77833333Y-61619047D01*
X77928571Y-61571428D01*
X78023809Y-61571428D01*
X78119047Y-62047619D01*
X78404761Y-60714285D02*
X78452380Y-60809523D01*
X78452380Y-61000000D01*
X78404761Y-61095238D01*
X78357142Y-61142857D01*
X78261904Y-61190476D01*
X77976190Y-61190476D01*
X77880952Y-61142857D01*
X77833333Y-61095238D01*
X77785714Y-61000000D01*
X77785714Y-60809523D01*
X77833333Y-60714285D01*
X77785714Y-60428571D02*
X77785714Y-60047619D01*
X77452380Y-60285714D02*
X78309523Y-60285714D01*
X78404761Y-60238095D01*
X78452380Y-60142857D01*
X78452380Y-60047619D01*
X78452380Y-59571428D02*
X78404761Y-59666666D01*
X78357142Y-59714285D01*
X78261904Y-59761904D01*
X77976190Y-59761904D01*
X77880952Y-59714285D01*
X77833333Y-59666666D01*
X77785714Y-59571428D01*
X77785714Y-59428571D01*
X77833333Y-59333333D01*
X77880952Y-59285714D01*
X77976190Y-59238095D01*
X78261904Y-59238095D01*
X78357142Y-59285714D01*
X78404761Y-59333333D01*
X78452380Y-59428571D01*
X78452380Y-59571428D01*
X78452380Y-58809523D02*
X77785714Y-58809523D01*
X77976190Y-58809523D02*
X77880952Y-58761904D01*
X77833333Y-58714285D01*
X77785714Y-58619047D01*
X77785714Y-58523809D01*
X78071428Y-58190476D02*
X78071428Y-57428571D01*
X77452380Y-57095238D02*
X77452380Y-56523809D01*
X78452380Y-56809523D02*
X77452380Y-56809523D01*
X78452380Y-56190476D02*
X77785714Y-56190476D01*
X77976190Y-56190476D02*
X77880952Y-56142857D01*
X77833333Y-56095238D01*
X77785714Y-56000000D01*
X77785714Y-55904761D01*
X78452380Y-55571428D02*
X77785714Y-55571428D01*
X77452380Y-55571428D02*
X77500000Y-55619047D01*
X77547619Y-55571428D01*
X77500000Y-55523809D01*
X77452380Y-55571428D01*
X77547619Y-55571428D01*
X77785714Y-54666666D02*
X78595238Y-54666666D01*
X78690476Y-54714285D01*
X78738095Y-54761904D01*
X78785714Y-54857142D01*
X78785714Y-55000000D01*
X78738095Y-55095238D01*
X78404761Y-54666666D02*
X78452380Y-54761904D01*
X78452380Y-54952380D01*
X78404761Y-55047619D01*
X78357142Y-55095238D01*
X78261904Y-55142857D01*
X77976190Y-55142857D01*
X77880952Y-55095238D01*
X77833333Y-55047619D01*
X77785714Y-54952380D01*
X77785714Y-54761904D01*
X77833333Y-54666666D01*
X77785714Y-53761904D02*
X78595238Y-53761904D01*
X78690476Y-53809523D01*
X78738095Y-53857142D01*
X78785714Y-53952380D01*
X78785714Y-54095238D01*
X78738095Y-54190476D01*
X78404761Y-53761904D02*
X78452380Y-53857142D01*
X78452380Y-54047619D01*
X78404761Y-54142857D01*
X78357142Y-54190476D01*
X78261904Y-54238095D01*
X77976190Y-54238095D01*
X77880952Y-54190476D01*
X77833333Y-54142857D01*
X77785714Y-54047619D01*
X77785714Y-53857142D01*
X77833333Y-53761904D01*
X78404761Y-52904761D02*
X78452380Y-53000000D01*
X78452380Y-53190476D01*
X78404761Y-53285714D01*
X78309523Y-53333333D01*
X77928571Y-53333333D01*
X77833333Y-53285714D01*
X77785714Y-53190476D01*
X77785714Y-53000000D01*
X77833333Y-52904761D01*
X77928571Y-52857142D01*
X78023809Y-52857142D01*
X78119047Y-53333333D01*
X78452380Y-52428571D02*
X77785714Y-52428571D01*
X77976190Y-52428571D02*
X77880952Y-52380952D01*
X77833333Y-52333333D01*
X77785714Y-52238095D01*
X77785714Y-52142857D01*
D16*
X155373619Y-100757904D02*
X156196095Y-100757904D01*
X156292857Y-100709523D01*
X156341238Y-100661142D01*
X156389619Y-100564380D01*
X156389619Y-100370857D01*
X156341238Y-100274095D01*
X156292857Y-100225714D01*
X156196095Y-100177333D01*
X155373619Y-100177333D01*
X156389619Y-99161333D02*
X156389619Y-99741904D01*
X156389619Y-99451619D02*
X155373619Y-99451619D01*
X155518761Y-99548380D01*
X155615523Y-99645142D01*
X155663904Y-99741904D01*
X155470380Y-98774285D02*
X155422000Y-98725904D01*
X155373619Y-98629142D01*
X155373619Y-98387238D01*
X155422000Y-98290476D01*
X155470380Y-98242095D01*
X155567142Y-98193714D01*
X155663904Y-98193714D01*
X155809047Y-98242095D01*
X156389619Y-98822666D01*
X156389619Y-98193714D01*
X152882000Y-97734095D02*
X152833619Y-97830857D01*
X152833619Y-97976000D01*
X152882000Y-98121142D01*
X152978761Y-98217904D01*
X153075523Y-98266285D01*
X153269047Y-98314666D01*
X153414190Y-98314666D01*
X153607714Y-98266285D01*
X153704476Y-98217904D01*
X153801238Y-98121142D01*
X153849619Y-97976000D01*
X153849619Y-97879238D01*
X153801238Y-97734095D01*
X153752857Y-97685714D01*
X153414190Y-97685714D01*
X153414190Y-97879238D01*
X153849619Y-97250285D02*
X152833619Y-97250285D01*
X153849619Y-96669714D01*
X152833619Y-96669714D01*
X153849619Y-96185904D02*
X152833619Y-96185904D01*
X152833619Y-95944000D01*
X152882000Y-95798857D01*
X152978761Y-95702095D01*
X153075523Y-95653714D01*
X153269047Y-95605333D01*
X153414190Y-95605333D01*
X153607714Y-95653714D01*
X153704476Y-95702095D01*
X153801238Y-95798857D01*
X153849619Y-95944000D01*
X153849619Y-96185904D01*
X150293619Y-98072761D02*
X151309619Y-97734095D01*
X150293619Y-97395428D01*
X151309619Y-97056761D02*
X150293619Y-97056761D01*
X150293619Y-96379428D02*
X150293619Y-96185904D01*
X150342000Y-96089142D01*
X150438761Y-95992380D01*
X150632285Y-95944000D01*
X150970952Y-95944000D01*
X151164476Y-95992380D01*
X151261238Y-96089142D01*
X151309619Y-96185904D01*
X151309619Y-96379428D01*
X151261238Y-96476190D01*
X151164476Y-96572952D01*
X150970952Y-96621333D01*
X150632285Y-96621333D01*
X150438761Y-96572952D01*
X150342000Y-96476190D01*
X150293619Y-96379428D01*
X148769619Y-98290476D02*
X147753619Y-98290476D01*
X148479333Y-97951809D01*
X147753619Y-97613142D01*
X148769619Y-97613142D01*
X148769619Y-96597142D02*
X148769619Y-97177714D01*
X148769619Y-96887428D02*
X147753619Y-96887428D01*
X147898761Y-96984190D01*
X147995523Y-97080952D01*
X148043904Y-97177714D01*
X148237428Y-95823047D02*
X148285809Y-95677904D01*
X148334190Y-95629523D01*
X148430952Y-95581142D01*
X148576095Y-95581142D01*
X148672857Y-95629523D01*
X148721238Y-95677904D01*
X148769619Y-95774666D01*
X148769619Y-96161714D01*
X147753619Y-96161714D01*
X147753619Y-95823047D01*
X147802000Y-95726285D01*
X147850380Y-95677904D01*
X147947142Y-95629523D01*
X148043904Y-95629523D01*
X148140666Y-95677904D01*
X148189047Y-95726285D01*
X148237428Y-95823047D01*
X148237428Y-96161714D01*
X146229619Y-98217904D02*
X145213619Y-98217904D01*
X145939333Y-97879238D01*
X145213619Y-97540571D01*
X146229619Y-97540571D01*
X146229619Y-96524571D02*
X146229619Y-97105142D01*
X146229619Y-96814857D02*
X145213619Y-96814857D01*
X145358761Y-96911619D01*
X145455523Y-97008380D01*
X145503904Y-97105142D01*
X145939333Y-96137523D02*
X145939333Y-95653714D01*
X146229619Y-96234285D02*
X145213619Y-95895619D01*
X146229619Y-95556952D01*
X143689619Y-98217904D02*
X142673619Y-98217904D01*
X143399333Y-97879238D01*
X142673619Y-97540571D01*
X143689619Y-97540571D01*
X142770380Y-97105142D02*
X142722000Y-97056761D01*
X142673619Y-96960000D01*
X142673619Y-96718095D01*
X142722000Y-96621333D01*
X142770380Y-96572952D01*
X142867142Y-96524571D01*
X142963904Y-96524571D01*
X143109047Y-96572952D01*
X143689619Y-97153523D01*
X143689619Y-96524571D01*
X143399333Y-96137523D02*
X143399333Y-95653714D01*
X143689619Y-96234285D02*
X142673619Y-95895619D01*
X143689619Y-95556952D01*
X141149619Y-98330476D02*
X140133619Y-98330476D01*
X140859333Y-97991809D01*
X140133619Y-97653142D01*
X141149619Y-97653142D01*
X140230380Y-97217714D02*
X140182000Y-97169333D01*
X140133619Y-97072571D01*
X140133619Y-96830666D01*
X140182000Y-96733904D01*
X140230380Y-96685523D01*
X140327142Y-96637142D01*
X140423904Y-96637142D01*
X140569047Y-96685523D01*
X141149619Y-97266095D01*
X141149619Y-96637142D01*
X140617428Y-95863047D02*
X140665809Y-95717904D01*
X140714190Y-95669523D01*
X140810952Y-95621142D01*
X140956095Y-95621142D01*
X141052857Y-95669523D01*
X141101238Y-95717904D01*
X141149619Y-95814666D01*
X141149619Y-96201714D01*
X140133619Y-96201714D01*
X140133619Y-95863047D01*
X140182000Y-95766285D01*
X140230380Y-95717904D01*
X140327142Y-95669523D01*
X140423904Y-95669523D01*
X140520666Y-95717904D01*
X140569047Y-95766285D01*
X140617428Y-95863047D01*
X140617428Y-96201714D01*
X137642000Y-97734095D02*
X137593619Y-97830857D01*
X137593619Y-97976000D01*
X137642000Y-98121142D01*
X137738761Y-98217904D01*
X137835523Y-98266285D01*
X138029047Y-98314666D01*
X138174190Y-98314666D01*
X138367714Y-98266285D01*
X138464476Y-98217904D01*
X138561238Y-98121142D01*
X138609619Y-97976000D01*
X138609619Y-97879238D01*
X138561238Y-97734095D01*
X138512857Y-97685714D01*
X138174190Y-97685714D01*
X138174190Y-97879238D01*
X138609619Y-97250285D02*
X137593619Y-97250285D01*
X138609619Y-96669714D01*
X137593619Y-96669714D01*
X138609619Y-96185904D02*
X137593619Y-96185904D01*
X137593619Y-95944000D01*
X137642000Y-95798857D01*
X137738761Y-95702095D01*
X137835523Y-95653714D01*
X138029047Y-95605333D01*
X138174190Y-95605333D01*
X138367714Y-95653714D01*
X138464476Y-95702095D01*
X138561238Y-95798857D01*
X138609619Y-95944000D01*
X138609619Y-96185904D01*
X135053619Y-97879238D02*
X136069619Y-97540571D01*
X135053619Y-97201904D01*
X136069619Y-96863238D02*
X135053619Y-96863238D01*
X135779333Y-96524571D01*
X135053619Y-96185904D01*
X136069619Y-96185904D01*
D17*
X135555571Y-102602428D02*
X135555571Y-102348428D01*
X135954714Y-102239571D02*
X135954714Y-102602428D01*
X135192714Y-102602428D01*
X135192714Y-102239571D01*
X135954714Y-101913000D02*
X135192714Y-101913000D01*
X135954714Y-101477571D01*
X135192714Y-101477571D01*
D16*
X138609619Y-103636571D02*
X137593619Y-103636571D01*
X138319333Y-103297904D01*
X137593619Y-102959238D01*
X138609619Y-102959238D01*
X137593619Y-102281904D02*
X137593619Y-102088380D01*
X137642000Y-101991619D01*
X137738761Y-101894857D01*
X137932285Y-101846476D01*
X138270952Y-101846476D01*
X138464476Y-101894857D01*
X138561238Y-101991619D01*
X138609619Y-102088380D01*
X138609619Y-102281904D01*
X138561238Y-102378666D01*
X138464476Y-102475428D01*
X138270952Y-102523809D01*
X137932285Y-102523809D01*
X137738761Y-102475428D01*
X137642000Y-102378666D01*
X137593619Y-102281904D01*
X138561238Y-101459428D02*
X138609619Y-101314285D01*
X138609619Y-101072380D01*
X138561238Y-100975619D01*
X138512857Y-100927238D01*
X138416095Y-100878857D01*
X138319333Y-100878857D01*
X138222571Y-100927238D01*
X138174190Y-100975619D01*
X138125809Y-101072380D01*
X138077428Y-101265904D01*
X138029047Y-101362666D01*
X137980666Y-101411047D01*
X137883904Y-101459428D01*
X137787142Y-101459428D01*
X137690380Y-101411047D01*
X137642000Y-101362666D01*
X137593619Y-101265904D01*
X137593619Y-101024000D01*
X137642000Y-100878857D01*
X138609619Y-100443428D02*
X137593619Y-100443428D01*
X141101238Y-103346285D02*
X141149619Y-103201142D01*
X141149619Y-102959238D01*
X141101238Y-102862476D01*
X141052857Y-102814095D01*
X140956095Y-102765714D01*
X140859333Y-102765714D01*
X140762571Y-102814095D01*
X140714190Y-102862476D01*
X140665809Y-102959238D01*
X140617428Y-103152761D01*
X140569047Y-103249523D01*
X140520666Y-103297904D01*
X140423904Y-103346285D01*
X140327142Y-103346285D01*
X140230380Y-103297904D01*
X140182000Y-103249523D01*
X140133619Y-103152761D01*
X140133619Y-102910857D01*
X140182000Y-102765714D01*
X141052857Y-101749714D02*
X141101238Y-101798095D01*
X141149619Y-101943238D01*
X141149619Y-102040000D01*
X141101238Y-102185142D01*
X141004476Y-102281904D01*
X140907714Y-102330285D01*
X140714190Y-102378666D01*
X140569047Y-102378666D01*
X140375523Y-102330285D01*
X140278761Y-102281904D01*
X140182000Y-102185142D01*
X140133619Y-102040000D01*
X140133619Y-101943238D01*
X140182000Y-101798095D01*
X140230380Y-101749714D01*
X141149619Y-101314285D02*
X140133619Y-101314285D01*
X141149619Y-100733714D02*
X140569047Y-101169142D01*
X140133619Y-100733714D02*
X140714190Y-101314285D01*
X143592857Y-102209333D02*
X143641238Y-102257714D01*
X143689619Y-102402857D01*
X143689619Y-102499619D01*
X143641238Y-102644761D01*
X143544476Y-102741523D01*
X143447714Y-102789904D01*
X143254190Y-102838285D01*
X143109047Y-102838285D01*
X142915523Y-102789904D01*
X142818761Y-102741523D01*
X142722000Y-102644761D01*
X142673619Y-102499619D01*
X142673619Y-102402857D01*
X142722000Y-102257714D01*
X142770380Y-102209333D01*
X143641238Y-101822285D02*
X143689619Y-101677142D01*
X143689619Y-101435238D01*
X143641238Y-101338476D01*
X143592857Y-101290095D01*
X143496095Y-101241714D01*
X143399333Y-101241714D01*
X143302571Y-101290095D01*
X143254190Y-101338476D01*
X143205809Y-101435238D01*
X143157428Y-101628761D01*
X143109047Y-101725523D01*
X143060666Y-101773904D01*
X142963904Y-101822285D01*
X142867142Y-101822285D01*
X142770380Y-101773904D01*
X142722000Y-101725523D01*
X142673619Y-101628761D01*
X142673619Y-101386857D01*
X142722000Y-101241714D01*
X146229619Y-103636571D02*
X145213619Y-103636571D01*
X145939333Y-103297904D01*
X145213619Y-102959238D01*
X146229619Y-102959238D01*
X146229619Y-102475428D02*
X145213619Y-102475428D01*
X146181238Y-102040000D02*
X146229619Y-101894857D01*
X146229619Y-101652952D01*
X146181238Y-101556190D01*
X146132857Y-101507809D01*
X146036095Y-101459428D01*
X145939333Y-101459428D01*
X145842571Y-101507809D01*
X145794190Y-101556190D01*
X145745809Y-101652952D01*
X145697428Y-101846476D01*
X145649047Y-101943238D01*
X145600666Y-101991619D01*
X145503904Y-102040000D01*
X145407142Y-102040000D01*
X145310380Y-101991619D01*
X145262000Y-101943238D01*
X145213619Y-101846476D01*
X145213619Y-101604571D01*
X145262000Y-101459428D01*
X145213619Y-100830476D02*
X145213619Y-100636952D01*
X145262000Y-100540190D01*
X145358761Y-100443428D01*
X145552285Y-100395047D01*
X145890952Y-100395047D01*
X146084476Y-100443428D01*
X146181238Y-100540190D01*
X146229619Y-100636952D01*
X146229619Y-100830476D01*
X146181238Y-100927238D01*
X146084476Y-101024000D01*
X145890952Y-101072380D01*
X145552285Y-101072380D01*
X145358761Y-101024000D01*
X145262000Y-100927238D01*
X145213619Y-100830476D01*
X148769619Y-102838285D02*
X147753619Y-102838285D01*
X148769619Y-102257714D01*
X147753619Y-102257714D01*
X148672857Y-101193333D02*
X148721238Y-101241714D01*
X148769619Y-101386857D01*
X148769619Y-101483619D01*
X148721238Y-101628761D01*
X148624476Y-101725523D01*
X148527714Y-101773904D01*
X148334190Y-101822285D01*
X148189047Y-101822285D01*
X147995523Y-101773904D01*
X147898761Y-101725523D01*
X147802000Y-101628761D01*
X147753619Y-101483619D01*
X147753619Y-101386857D01*
X147802000Y-101241714D01*
X147850380Y-101193333D01*
X151261238Y-103684952D02*
X151309619Y-103539809D01*
X151309619Y-103297904D01*
X151261238Y-103201142D01*
X151212857Y-103152761D01*
X151116095Y-103104380D01*
X151019333Y-103104380D01*
X150922571Y-103152761D01*
X150874190Y-103201142D01*
X150825809Y-103297904D01*
X150777428Y-103491428D01*
X150729047Y-103588190D01*
X150680666Y-103636571D01*
X150583904Y-103684952D01*
X150487142Y-103684952D01*
X150390380Y-103636571D01*
X150342000Y-103588190D01*
X150293619Y-103491428D01*
X150293619Y-103249523D01*
X150342000Y-103104380D01*
X150293619Y-102814095D02*
X150293619Y-102233523D01*
X151309619Y-102523809D02*
X150293619Y-102523809D01*
X150777428Y-101894857D02*
X150777428Y-101556190D01*
X151309619Y-101411047D02*
X151309619Y-101894857D01*
X150293619Y-101894857D01*
X150293619Y-101411047D01*
X151309619Y-100975619D02*
X150293619Y-100975619D01*
X150293619Y-100588571D01*
X150342000Y-100491809D01*
X150390380Y-100443428D01*
X150487142Y-100395047D01*
X150632285Y-100395047D01*
X150729047Y-100443428D01*
X150777428Y-100491809D01*
X150825809Y-100588571D01*
X150825809Y-100975619D01*
X153849619Y-103056000D02*
X152833619Y-103056000D01*
X152833619Y-102814095D01*
X152882000Y-102668952D01*
X152978761Y-102572190D01*
X153075523Y-102523809D01*
X153269047Y-102475428D01*
X153414190Y-102475428D01*
X153607714Y-102523809D01*
X153704476Y-102572190D01*
X153801238Y-102668952D01*
X153849619Y-102814095D01*
X153849619Y-103056000D01*
X153849619Y-102040000D02*
X152833619Y-102040000D01*
X153849619Y-100975619D02*
X153365809Y-101314285D01*
X153849619Y-101556190D02*
X152833619Y-101556190D01*
X152833619Y-101169142D01*
X152882000Y-101072380D01*
X152930380Y-101024000D01*
X153027142Y-100975619D01*
X153172285Y-100975619D01*
X153269047Y-101024000D01*
X153317428Y-101072380D01*
X153365809Y-101169142D01*
X153365809Y-101556190D01*
D15*
X128984380Y-123984095D02*
X129793904Y-123984095D01*
X129889142Y-123936476D01*
X129936761Y-123888857D01*
X129984380Y-123793619D01*
X129984380Y-123603142D01*
X129936761Y-123507904D01*
X129889142Y-123460285D01*
X129793904Y-123412666D01*
X128984380Y-123412666D01*
X129984380Y-122412666D02*
X129984380Y-122984095D01*
X129984380Y-122698380D02*
X128984380Y-122698380D01*
X129127238Y-122793619D01*
X129222476Y-122888857D01*
X129270095Y-122984095D01*
X129984380Y-121460285D02*
X129984380Y-122031714D01*
X129984380Y-121746000D02*
X128984380Y-121746000D01*
X129127238Y-121841238D01*
X129222476Y-121936476D01*
X129270095Y-122031714D01*
X163778095Y-70992380D02*
X163778095Y-71801904D01*
X163825714Y-71897142D01*
X163873333Y-71944761D01*
X163968571Y-71992380D01*
X164159047Y-71992380D01*
X164254285Y-71944761D01*
X164301904Y-71897142D01*
X164349523Y-71801904D01*
X164349523Y-70992380D01*
X164968571Y-71420952D02*
X164873333Y-71373333D01*
X164825714Y-71325714D01*
X164778095Y-71230476D01*
X164778095Y-71182857D01*
X164825714Y-71087619D01*
X164873333Y-71040000D01*
X164968571Y-70992380D01*
X165159047Y-70992380D01*
X165254285Y-71040000D01*
X165301904Y-71087619D01*
X165349523Y-71182857D01*
X165349523Y-71230476D01*
X165301904Y-71325714D01*
X165254285Y-71373333D01*
X165159047Y-71420952D01*
X164968571Y-71420952D01*
X164873333Y-71468571D01*
X164825714Y-71516190D01*
X164778095Y-71611428D01*
X164778095Y-71801904D01*
X164825714Y-71897142D01*
X164873333Y-71944761D01*
X164968571Y-71992380D01*
X165159047Y-71992380D01*
X165254285Y-71944761D01*
X165301904Y-71897142D01*
X165349523Y-71801904D01*
X165349523Y-71611428D01*
X165301904Y-71516190D01*
X165254285Y-71468571D01*
X165159047Y-71420952D01*
X151349523Y-72897380D02*
X151540000Y-72897380D01*
X151635238Y-72945000D01*
X151730476Y-73040238D01*
X151778095Y-73230714D01*
X151778095Y-73564047D01*
X151730476Y-73754523D01*
X151635238Y-73849761D01*
X151540000Y-73897380D01*
X151349523Y-73897380D01*
X151254285Y-73849761D01*
X151159047Y-73754523D01*
X151111428Y-73564047D01*
X151111428Y-73230714D01*
X151159047Y-73040238D01*
X151254285Y-72945000D01*
X151349523Y-72897380D01*
X152206666Y-73897380D02*
X152206666Y-72897380D01*
X152778095Y-73897380D02*
X152349523Y-73325952D01*
X152778095Y-72897380D02*
X152206666Y-73468809D01*
X153206666Y-73897380D02*
X153206666Y-72897380D01*
X153682857Y-73516428D02*
X154444761Y-73516428D01*
X154825714Y-72897380D02*
X155492380Y-72897380D01*
X155063809Y-73897380D01*
X156016190Y-73325952D02*
X155920952Y-73278333D01*
X155873333Y-73230714D01*
X155825714Y-73135476D01*
X155825714Y-73087857D01*
X155873333Y-72992619D01*
X155920952Y-72945000D01*
X156016190Y-72897380D01*
X156206666Y-72897380D01*
X156301904Y-72945000D01*
X156349523Y-72992619D01*
X156397142Y-73087857D01*
X156397142Y-73135476D01*
X156349523Y-73230714D01*
X156301904Y-73278333D01*
X156206666Y-73325952D01*
X156016190Y-73325952D01*
X155920952Y-73373571D01*
X155873333Y-73421190D01*
X155825714Y-73516428D01*
X155825714Y-73706904D01*
X155873333Y-73802142D01*
X155920952Y-73849761D01*
X156016190Y-73897380D01*
X156206666Y-73897380D01*
X156301904Y-73849761D01*
X156349523Y-73802142D01*
X156397142Y-73706904D01*
X156397142Y-73516428D01*
X156349523Y-73421190D01*
X156301904Y-73373571D01*
X156206666Y-73325952D01*
X156778095Y-73849761D02*
X156920952Y-73897380D01*
X157159047Y-73897380D01*
X157254285Y-73849761D01*
X157301904Y-73802142D01*
X157349523Y-73706904D01*
X157349523Y-73611666D01*
X157301904Y-73516428D01*
X157254285Y-73468809D01*
X157159047Y-73421190D01*
X156968571Y-73373571D01*
X156873333Y-73325952D01*
X156825714Y-73278333D01*
X156778095Y-73183095D01*
X156778095Y-73087857D01*
X156825714Y-72992619D01*
X156873333Y-72945000D01*
X156968571Y-72897380D01*
X157206666Y-72897380D01*
X157349523Y-72945000D01*
X158349523Y-73897380D02*
X158016190Y-73421190D01*
X157778095Y-73897380D02*
X157778095Y-72897380D01*
X158159047Y-72897380D01*
X158254285Y-72945000D01*
X158301904Y-72992619D01*
X158349523Y-73087857D01*
X158349523Y-73230714D01*
X158301904Y-73325952D01*
X158254285Y-73373571D01*
X158159047Y-73421190D01*
X157778095Y-73421190D01*
X158778095Y-73516428D02*
X159540000Y-73516428D01*
X160492380Y-72897380D02*
X160016190Y-72897380D01*
X159968571Y-73373571D01*
X160016190Y-73325952D01*
X160111428Y-73278333D01*
X160349523Y-73278333D01*
X160444761Y-73325952D01*
X160492380Y-73373571D01*
X160540000Y-73468809D01*
X160540000Y-73706904D01*
X160492380Y-73802142D01*
X160444761Y-73849761D01*
X160349523Y-73897380D01*
X160111428Y-73897380D01*
X160016190Y-73849761D01*
X159968571Y-73802142D01*
X160873333Y-73230714D02*
X161111428Y-73897380D01*
X161349523Y-73230714D01*
X161730476Y-73516428D02*
X162492380Y-73516428D01*
X163159047Y-72897380D02*
X163349523Y-72897380D01*
X163444761Y-72945000D01*
X163540000Y-73040238D01*
X163587619Y-73230714D01*
X163587619Y-73564047D01*
X163540000Y-73754523D01*
X163444761Y-73849761D01*
X163349523Y-73897380D01*
X163159047Y-73897380D01*
X163063809Y-73849761D01*
X162968571Y-73754523D01*
X162920952Y-73564047D01*
X162920952Y-73230714D01*
X162968571Y-73040238D01*
X163063809Y-72945000D01*
X163159047Y-72897380D01*
X164016190Y-73230714D02*
X164016190Y-74230714D01*
X164016190Y-73278333D02*
X164111428Y-73230714D01*
X164301904Y-73230714D01*
X164397142Y-73278333D01*
X164444761Y-73325952D01*
X164492380Y-73421190D01*
X164492380Y-73706904D01*
X164444761Y-73802142D01*
X164397142Y-73849761D01*
X164301904Y-73897380D01*
X164111428Y-73897380D01*
X164016190Y-73849761D01*
X165301904Y-73849761D02*
X165206666Y-73897380D01*
X165016190Y-73897380D01*
X164920952Y-73849761D01*
X164873333Y-73754523D01*
X164873333Y-73373571D01*
X164920952Y-73278333D01*
X165016190Y-73230714D01*
X165206666Y-73230714D01*
X165301904Y-73278333D01*
X165349523Y-73373571D01*
X165349523Y-73468809D01*
X164873333Y-73564047D01*
X165778095Y-73230714D02*
X165778095Y-73897380D01*
X165778095Y-73325952D02*
X165825714Y-73278333D01*
X165920952Y-73230714D01*
X166063809Y-73230714D01*
X166159047Y-73278333D01*
X166206666Y-73373571D01*
X166206666Y-73897380D01*
X166635238Y-73849761D02*
X166778095Y-73897380D01*
X167016190Y-73897380D01*
X167111428Y-73849761D01*
X167159047Y-73802142D01*
X167206666Y-73706904D01*
X167206666Y-73611666D01*
X167159047Y-73516428D01*
X167111428Y-73468809D01*
X167016190Y-73421190D01*
X166825714Y-73373571D01*
X166730476Y-73325952D01*
X166682857Y-73278333D01*
X166635238Y-73183095D01*
X166635238Y-73087857D01*
X166682857Y-72992619D01*
X166730476Y-72945000D01*
X166825714Y-72897380D01*
X167063809Y-72897380D01*
X167206666Y-72945000D01*
X167778095Y-73897380D02*
X167682857Y-73849761D01*
X167635238Y-73802142D01*
X167587619Y-73706904D01*
X167587619Y-73421190D01*
X167635238Y-73325952D01*
X167682857Y-73278333D01*
X167778095Y-73230714D01*
X167920952Y-73230714D01*
X168016190Y-73278333D01*
X168063809Y-73325952D01*
X168111428Y-73421190D01*
X168111428Y-73706904D01*
X168063809Y-73802142D01*
X168016190Y-73849761D01*
X167920952Y-73897380D01*
X167778095Y-73897380D01*
X168968571Y-73230714D02*
X168968571Y-73897380D01*
X168540000Y-73230714D02*
X168540000Y-73754523D01*
X168587619Y-73849761D01*
X168682857Y-73897380D01*
X168825714Y-73897380D01*
X168920952Y-73849761D01*
X168968571Y-73802142D01*
X169444761Y-73897380D02*
X169444761Y-73230714D01*
X169444761Y-73421190D02*
X169492380Y-73325952D01*
X169540000Y-73278333D01*
X169635238Y-73230714D01*
X169730476Y-73230714D01*
X170492380Y-73849761D02*
X170397142Y-73897380D01*
X170206666Y-73897380D01*
X170111428Y-73849761D01*
X170063809Y-73802142D01*
X170016190Y-73706904D01*
X170016190Y-73421190D01*
X170063809Y-73325952D01*
X170111428Y-73278333D01*
X170206666Y-73230714D01*
X170397142Y-73230714D01*
X170492380Y-73278333D01*
X171301904Y-73849761D02*
X171206666Y-73897380D01*
X171016190Y-73897380D01*
X170920952Y-73849761D01*
X170873333Y-73754523D01*
X170873333Y-73373571D01*
X170920952Y-73278333D01*
X171016190Y-73230714D01*
X171206666Y-73230714D01*
X171301904Y-73278333D01*
X171349523Y-73373571D01*
X171349523Y-73468809D01*
X170873333Y-73564047D01*
X172349523Y-73802142D02*
X172301904Y-73849761D01*
X172159047Y-73897380D01*
X172063809Y-73897380D01*
X171920952Y-73849761D01*
X171825714Y-73754523D01*
X171778095Y-73659285D01*
X171730476Y-73468809D01*
X171730476Y-73325952D01*
X171778095Y-73135476D01*
X171825714Y-73040238D01*
X171920952Y-72945000D01*
X172063809Y-72897380D01*
X172159047Y-72897380D01*
X172301904Y-72945000D01*
X172349523Y-72992619D01*
X173159047Y-73849761D02*
X173063809Y-73897380D01*
X172873333Y-73897380D01*
X172778095Y-73849761D01*
X172730476Y-73754523D01*
X172730476Y-73373571D01*
X172778095Y-73278333D01*
X172873333Y-73230714D01*
X173063809Y-73230714D01*
X173159047Y-73278333D01*
X173206666Y-73373571D01*
X173206666Y-73468809D01*
X172730476Y-73564047D01*
X173778095Y-73897380D02*
X173682857Y-73849761D01*
X173635238Y-73754523D01*
X173635238Y-72897380D01*
X174301904Y-73897380D02*
X174206666Y-73849761D01*
X174159047Y-73754523D01*
X174159047Y-72897380D01*
X175111428Y-73230714D02*
X175111428Y-73897380D01*
X174682857Y-73230714D02*
X174682857Y-73754523D01*
X174730476Y-73849761D01*
X174825714Y-73897380D01*
X174968571Y-73897380D01*
X175063809Y-73849761D01*
X175111428Y-73802142D01*
X175730476Y-73897380D02*
X175635238Y-73849761D01*
X175587619Y-73754523D01*
X175587619Y-72897380D01*
X176254285Y-73897380D02*
X176159047Y-73849761D01*
X176111428Y-73802142D01*
X176063809Y-73706904D01*
X176063809Y-73421190D01*
X176111428Y-73325952D01*
X176159047Y-73278333D01*
X176254285Y-73230714D01*
X176397142Y-73230714D01*
X176492380Y-73278333D01*
X176540000Y-73325952D01*
X176587619Y-73421190D01*
X176587619Y-73706904D01*
X176540000Y-73802142D01*
X176492380Y-73849761D01*
X176397142Y-73897380D01*
X176254285Y-73897380D01*
X177016190Y-73897380D02*
X177016190Y-73230714D01*
X177016190Y-72897380D02*
X176968571Y-72945000D01*
X177016190Y-72992619D01*
X177063809Y-72945000D01*
X177016190Y-72897380D01*
X177016190Y-72992619D01*
X177920952Y-73897380D02*
X177920952Y-72897380D01*
X177920952Y-73849761D02*
X177825714Y-73897380D01*
X177635238Y-73897380D01*
X177540000Y-73849761D01*
X177492380Y-73802142D01*
X177444761Y-73706904D01*
X177444761Y-73421190D01*
X177492380Y-73325952D01*
X177540000Y-73278333D01*
X177635238Y-73230714D01*
X177825714Y-73230714D01*
X177920952Y-73278333D01*
X145778095Y-70992380D02*
X145778095Y-71801904D01*
X145825714Y-71897142D01*
X145873333Y-71944761D01*
X145968571Y-71992380D01*
X146159047Y-71992380D01*
X146254285Y-71944761D01*
X146301904Y-71897142D01*
X146349523Y-71801904D01*
X146349523Y-70992380D01*
X146730476Y-70992380D02*
X147397142Y-70992380D01*
X146968571Y-71992380D01*
X141206666Y-72897380D02*
X141397142Y-72897380D01*
X141492380Y-72945000D01*
X141587619Y-73040238D01*
X141635238Y-73230714D01*
X141635238Y-73564047D01*
X141587619Y-73754523D01*
X141492380Y-73849761D01*
X141397142Y-73897380D01*
X141206666Y-73897380D01*
X141111428Y-73849761D01*
X141016190Y-73754523D01*
X140968571Y-73564047D01*
X140968571Y-73230714D01*
X141016190Y-73040238D01*
X141111428Y-72945000D01*
X141206666Y-72897380D01*
X142063809Y-73897380D02*
X142063809Y-72897380D01*
X142635238Y-73897380D02*
X142206666Y-73325952D01*
X142635238Y-72897380D02*
X142063809Y-73468809D01*
X143063809Y-73897380D02*
X143063809Y-72897380D01*
X143540000Y-73516428D02*
X144301904Y-73516428D01*
X144682857Y-72897380D02*
X145349523Y-72897380D01*
X144920952Y-73897380D01*
X145873333Y-73325952D02*
X145778095Y-73278333D01*
X145730476Y-73230714D01*
X145682857Y-73135476D01*
X145682857Y-73087857D01*
X145730476Y-72992619D01*
X145778095Y-72945000D01*
X145873333Y-72897380D01*
X146063809Y-72897380D01*
X146159047Y-72945000D01*
X146206666Y-72992619D01*
X146254285Y-73087857D01*
X146254285Y-73135476D01*
X146206666Y-73230714D01*
X146159047Y-73278333D01*
X146063809Y-73325952D01*
X145873333Y-73325952D01*
X145778095Y-73373571D01*
X145730476Y-73421190D01*
X145682857Y-73516428D01*
X145682857Y-73706904D01*
X145730476Y-73802142D01*
X145778095Y-73849761D01*
X145873333Y-73897380D01*
X146063809Y-73897380D01*
X146159047Y-73849761D01*
X146206666Y-73802142D01*
X146254285Y-73706904D01*
X146254285Y-73516428D01*
X146206666Y-73421190D01*
X146159047Y-73373571D01*
X146063809Y-73325952D01*
X146635238Y-73849761D02*
X146778095Y-73897380D01*
X147016190Y-73897380D01*
X147111428Y-73849761D01*
X147159047Y-73802142D01*
X147206666Y-73706904D01*
X147206666Y-73611666D01*
X147159047Y-73516428D01*
X147111428Y-73468809D01*
X147016190Y-73421190D01*
X146825714Y-73373571D01*
X146730476Y-73325952D01*
X146682857Y-73278333D01*
X146635238Y-73183095D01*
X146635238Y-73087857D01*
X146682857Y-72992619D01*
X146730476Y-72945000D01*
X146825714Y-72897380D01*
X147063809Y-72897380D01*
X147206666Y-72945000D01*
X148206666Y-73897380D02*
X147873333Y-73421190D01*
X147635238Y-73897380D02*
X147635238Y-72897380D01*
X148016190Y-72897380D01*
X148111428Y-72945000D01*
X148159047Y-72992619D01*
X148206666Y-73087857D01*
X148206666Y-73230714D01*
X148159047Y-73325952D01*
X148111428Y-73373571D01*
X148016190Y-73421190D01*
X147635238Y-73421190D01*
X148635238Y-73516428D02*
X149397142Y-73516428D01*
X150397142Y-73897380D02*
X149825714Y-73897380D01*
X150111428Y-73897380D02*
X150111428Y-72897380D01*
X150016190Y-73040238D01*
X149920952Y-73135476D01*
X149825714Y-73183095D01*
X150778095Y-72992619D02*
X150825714Y-72945000D01*
X150920952Y-72897380D01*
X151159047Y-72897380D01*
X151254285Y-72945000D01*
X151301904Y-72992619D01*
X151349523Y-73087857D01*
X151349523Y-73183095D01*
X151301904Y-73325952D01*
X150730476Y-73897380D01*
X151349523Y-73897380D01*
X151682857Y-73230714D02*
X151920952Y-73897380D01*
X152159047Y-73230714D01*
X115782380Y-111071904D02*
X116591904Y-111071904D01*
X116687142Y-111024285D01*
X116734761Y-110976666D01*
X116782380Y-110881428D01*
X116782380Y-110690952D01*
X116734761Y-110595714D01*
X116687142Y-110548095D01*
X116591904Y-110500476D01*
X115782380Y-110500476D01*
X116115714Y-109595714D02*
X116782380Y-109595714D01*
X115734761Y-109833809D02*
X116449047Y-110071904D01*
X116449047Y-109452857D01*
X90364761Y-135292380D02*
X90031428Y-134816190D01*
X89793333Y-135292380D02*
X89793333Y-134292380D01*
X90174285Y-134292380D01*
X90269523Y-134340000D01*
X90317142Y-134387619D01*
X90364761Y-134482857D01*
X90364761Y-134625714D01*
X90317142Y-134720952D01*
X90269523Y-134768571D01*
X90174285Y-134816190D01*
X89793333Y-134816190D01*
X90650476Y-134292380D02*
X90983809Y-135292380D01*
X91317142Y-134292380D01*
X92174285Y-135292380D02*
X91602857Y-135292380D01*
X91888571Y-135292380D02*
X91888571Y-134292380D01*
X91793333Y-134435238D01*
X91698095Y-134530476D01*
X91602857Y-134578095D01*
X99032380Y-138832857D02*
X98556190Y-139166190D01*
X99032380Y-139404285D02*
X98032380Y-139404285D01*
X98032380Y-139023333D01*
X98080000Y-138928095D01*
X98127619Y-138880476D01*
X98222857Y-138832857D01*
X98365714Y-138832857D01*
X98460952Y-138880476D01*
X98508571Y-138928095D01*
X98556190Y-139023333D01*
X98556190Y-139404285D01*
X99032380Y-137880476D02*
X99032380Y-138451904D01*
X99032380Y-138166190D02*
X98032380Y-138166190D01*
X98175238Y-138261428D01*
X98270476Y-138356666D01*
X98318095Y-138451904D01*
X98127619Y-137499523D02*
X98080000Y-137451904D01*
X98032380Y-137356666D01*
X98032380Y-137118571D01*
X98080000Y-137023333D01*
X98127619Y-136975714D01*
X98222857Y-136928095D01*
X98318095Y-136928095D01*
X98460952Y-136975714D01*
X99032380Y-137547142D01*
X99032380Y-136928095D01*
X136032380Y-138832857D02*
X135556190Y-139166190D01*
X136032380Y-139404285D02*
X135032380Y-139404285D01*
X135032380Y-139023333D01*
X135080000Y-138928095D01*
X135127619Y-138880476D01*
X135222857Y-138832857D01*
X135365714Y-138832857D01*
X135460952Y-138880476D01*
X135508571Y-138928095D01*
X135556190Y-139023333D01*
X135556190Y-139404285D01*
X136032380Y-137880476D02*
X136032380Y-138451904D01*
X136032380Y-138166190D02*
X135032380Y-138166190D01*
X135175238Y-138261428D01*
X135270476Y-138356666D01*
X135318095Y-138451904D01*
X136032380Y-136928095D02*
X136032380Y-137499523D01*
X136032380Y-137213809D02*
X135032380Y-137213809D01*
X135175238Y-137309047D01*
X135270476Y-137404285D01*
X135318095Y-137499523D01*
X122047142Y-80372380D02*
X121713809Y-79896190D01*
X121475714Y-80372380D02*
X121475714Y-79372380D01*
X121856666Y-79372380D01*
X121951904Y-79420000D01*
X121999523Y-79467619D01*
X122047142Y-79562857D01*
X122047142Y-79705714D01*
X121999523Y-79800952D01*
X121951904Y-79848571D01*
X121856666Y-79896190D01*
X121475714Y-79896190D01*
X122999523Y-80372380D02*
X122428095Y-80372380D01*
X122713809Y-80372380D02*
X122713809Y-79372380D01*
X122618571Y-79515238D01*
X122523333Y-79610476D01*
X122428095Y-79658095D01*
X123618571Y-79372380D02*
X123713809Y-79372380D01*
X123809047Y-79420000D01*
X123856666Y-79467619D01*
X123904285Y-79562857D01*
X123951904Y-79753333D01*
X123951904Y-79991428D01*
X123904285Y-80181904D01*
X123856666Y-80277142D01*
X123809047Y-80324761D01*
X123713809Y-80372380D01*
X123618571Y-80372380D01*
X123523333Y-80324761D01*
X123475714Y-80277142D01*
X123428095Y-80181904D01*
X123380476Y-79991428D01*
X123380476Y-79753333D01*
X123428095Y-79562857D01*
X123475714Y-79467619D01*
X123523333Y-79420000D01*
X123618571Y-79372380D01*
X115032380Y-90856666D02*
X114556190Y-91190000D01*
X115032380Y-91428095D02*
X114032380Y-91428095D01*
X114032380Y-91047142D01*
X114080000Y-90951904D01*
X114127619Y-90904285D01*
X114222857Y-90856666D01*
X114365714Y-90856666D01*
X114460952Y-90904285D01*
X114508571Y-90951904D01*
X114556190Y-91047142D01*
X114556190Y-91428095D01*
X115032380Y-90380476D02*
X115032380Y-90190000D01*
X114984761Y-90094761D01*
X114937142Y-90047142D01*
X114794285Y-89951904D01*
X114603809Y-89904285D01*
X114222857Y-89904285D01*
X114127619Y-89951904D01*
X114080000Y-89999523D01*
X114032380Y-90094761D01*
X114032380Y-90285238D01*
X114080000Y-90380476D01*
X114127619Y-90428095D01*
X114222857Y-90475714D01*
X114460952Y-90475714D01*
X114556190Y-90428095D01*
X114603809Y-90380476D01*
X114651428Y-90285238D01*
X114651428Y-90094761D01*
X114603809Y-89999523D01*
X114556190Y-89951904D01*
X114460952Y-89904285D01*
X131032380Y-138356666D02*
X130556190Y-138690000D01*
X131032380Y-138928095D02*
X130032380Y-138928095D01*
X130032380Y-138547142D01*
X130080000Y-138451904D01*
X130127619Y-138404285D01*
X130222857Y-138356666D01*
X130365714Y-138356666D01*
X130460952Y-138404285D01*
X130508571Y-138451904D01*
X130556190Y-138547142D01*
X130556190Y-138928095D01*
X130460952Y-137785238D02*
X130413333Y-137880476D01*
X130365714Y-137928095D01*
X130270476Y-137975714D01*
X130222857Y-137975714D01*
X130127619Y-137928095D01*
X130080000Y-137880476D01*
X130032380Y-137785238D01*
X130032380Y-137594761D01*
X130080000Y-137499523D01*
X130127619Y-137451904D01*
X130222857Y-137404285D01*
X130270476Y-137404285D01*
X130365714Y-137451904D01*
X130413333Y-137499523D01*
X130460952Y-137594761D01*
X130460952Y-137785238D01*
X130508571Y-137880476D01*
X130556190Y-137928095D01*
X130651428Y-137975714D01*
X130841904Y-137975714D01*
X130937142Y-137928095D01*
X130984761Y-137880476D01*
X131032380Y-137785238D01*
X131032380Y-137594761D01*
X130984761Y-137499523D01*
X130937142Y-137451904D01*
X130841904Y-137404285D01*
X130651428Y-137404285D01*
X130556190Y-137451904D01*
X130508571Y-137499523D01*
X130460952Y-137594761D01*
X80532380Y-90856666D02*
X80056190Y-91190000D01*
X80532380Y-91428095D02*
X79532380Y-91428095D01*
X79532380Y-91047142D01*
X79580000Y-90951904D01*
X79627619Y-90904285D01*
X79722857Y-90856666D01*
X79865714Y-90856666D01*
X79960952Y-90904285D01*
X80008571Y-90951904D01*
X80056190Y-91047142D01*
X80056190Y-91428095D01*
X79532380Y-90523333D02*
X79532380Y-89856666D01*
X80532380Y-90285238D01*
X103532380Y-90856666D02*
X103056190Y-91190000D01*
X103532380Y-91428095D02*
X102532380Y-91428095D01*
X102532380Y-91047142D01*
X102580000Y-90951904D01*
X102627619Y-90904285D01*
X102722857Y-90856666D01*
X102865714Y-90856666D01*
X102960952Y-90904285D01*
X103008571Y-90951904D01*
X103056190Y-91047142D01*
X103056190Y-91428095D01*
X102532380Y-89999523D02*
X102532380Y-90190000D01*
X102580000Y-90285238D01*
X102627619Y-90332857D01*
X102770476Y-90428095D01*
X102960952Y-90475714D01*
X103341904Y-90475714D01*
X103437142Y-90428095D01*
X103484761Y-90380476D01*
X103532380Y-90285238D01*
X103532380Y-90094761D01*
X103484761Y-89999523D01*
X103437142Y-89951904D01*
X103341904Y-89904285D01*
X103103809Y-89904285D01*
X103008571Y-89951904D01*
X102960952Y-89999523D01*
X102913333Y-90094761D01*
X102913333Y-90285238D01*
X102960952Y-90380476D01*
X103008571Y-90428095D01*
X103103809Y-90475714D01*
X120532380Y-138356666D02*
X120056190Y-138690000D01*
X120532380Y-138928095D02*
X119532380Y-138928095D01*
X119532380Y-138547142D01*
X119580000Y-138451904D01*
X119627619Y-138404285D01*
X119722857Y-138356666D01*
X119865714Y-138356666D01*
X119960952Y-138404285D01*
X120008571Y-138451904D01*
X120056190Y-138547142D01*
X120056190Y-138928095D01*
X119532380Y-137451904D02*
X119532380Y-137928095D01*
X120008571Y-137975714D01*
X119960952Y-137928095D01*
X119913333Y-137832857D01*
X119913333Y-137594761D01*
X119960952Y-137499523D01*
X120008571Y-137451904D01*
X120103809Y-137404285D01*
X120341904Y-137404285D01*
X120437142Y-137451904D01*
X120484761Y-137499523D01*
X120532380Y-137594761D01*
X120532380Y-137832857D01*
X120484761Y-137928095D01*
X120437142Y-137975714D01*
X75032380Y-90856666D02*
X74556190Y-91190000D01*
X75032380Y-91428095D02*
X74032380Y-91428095D01*
X74032380Y-91047142D01*
X74080000Y-90951904D01*
X74127619Y-90904285D01*
X74222857Y-90856666D01*
X74365714Y-90856666D01*
X74460952Y-90904285D01*
X74508571Y-90951904D01*
X74556190Y-91047142D01*
X74556190Y-91428095D01*
X74365714Y-89999523D02*
X75032380Y-89999523D01*
X73984761Y-90237619D02*
X74699047Y-90475714D01*
X74699047Y-89856666D01*
X111643333Y-76532380D02*
X111310000Y-76056190D01*
X111071904Y-76532380D02*
X111071904Y-75532380D01*
X111452857Y-75532380D01*
X111548095Y-75580000D01*
X111595714Y-75627619D01*
X111643333Y-75722857D01*
X111643333Y-75865714D01*
X111595714Y-75960952D01*
X111548095Y-76008571D01*
X111452857Y-76056190D01*
X111071904Y-76056190D01*
X112024285Y-75627619D02*
X112071904Y-75580000D01*
X112167142Y-75532380D01*
X112405238Y-75532380D01*
X112500476Y-75580000D01*
X112548095Y-75627619D01*
X112595714Y-75722857D01*
X112595714Y-75818095D01*
X112548095Y-75960952D01*
X111976666Y-76532380D01*
X112595714Y-76532380D01*
X107872380Y-138476666D02*
X107396190Y-138810000D01*
X107872380Y-139048095D02*
X106872380Y-139048095D01*
X106872380Y-138667142D01*
X106920000Y-138571904D01*
X106967619Y-138524285D01*
X107062857Y-138476666D01*
X107205714Y-138476666D01*
X107300952Y-138524285D01*
X107348571Y-138571904D01*
X107396190Y-138667142D01*
X107396190Y-139048095D01*
X107872380Y-137524285D02*
X107872380Y-138095714D01*
X107872380Y-137810000D02*
X106872380Y-137810000D01*
X107015238Y-137905238D01*
X107110476Y-138000476D01*
X107158095Y-138095714D01*
X162721904Y-107372380D02*
X162721904Y-106372380D01*
X162960000Y-106372380D01*
X163102857Y-106420000D01*
X163198095Y-106515238D01*
X163245714Y-106610476D01*
X163293333Y-106800952D01*
X163293333Y-106943809D01*
X163245714Y-107134285D01*
X163198095Y-107229523D01*
X163102857Y-107324761D01*
X162960000Y-107372380D01*
X162721904Y-107372380D01*
X164150476Y-106705714D02*
X164150476Y-107372380D01*
X163912380Y-106324761D02*
X163674285Y-107039047D01*
X164293333Y-107039047D01*
X165738095Y-106952380D02*
X165738095Y-105952380D01*
X166309523Y-106952380D02*
X165880952Y-106380952D01*
X166309523Y-105952380D02*
X165738095Y-106523809D01*
X113107142Y-69166666D02*
X113154761Y-69214285D01*
X113202380Y-69357142D01*
X113202380Y-69452380D01*
X113154761Y-69595238D01*
X113059523Y-69690476D01*
X112964285Y-69738095D01*
X112773809Y-69785714D01*
X112630952Y-69785714D01*
X112440476Y-69738095D01*
X112345238Y-69690476D01*
X112250000Y-69595238D01*
X112202380Y-69452380D01*
X112202380Y-69357142D01*
X112250000Y-69214285D01*
X112297619Y-69166666D01*
X112202380Y-68309523D02*
X112202380Y-68500000D01*
X112250000Y-68595238D01*
X112297619Y-68642857D01*
X112440476Y-68738095D01*
X112630952Y-68785714D01*
X113011904Y-68785714D01*
X113107142Y-68738095D01*
X113154761Y-68690476D01*
X113202380Y-68595238D01*
X113202380Y-68404761D01*
X113154761Y-68309523D01*
X113107142Y-68261904D01*
X113011904Y-68214285D01*
X112773809Y-68214285D01*
X112678571Y-68261904D01*
X112630952Y-68309523D01*
X112583333Y-68404761D01*
X112583333Y-68595238D01*
X112630952Y-68690476D01*
X112678571Y-68738095D01*
X112773809Y-68785714D01*
X123607142Y-69416666D02*
X123654761Y-69464285D01*
X123702380Y-69607142D01*
X123702380Y-69702380D01*
X123654761Y-69845238D01*
X123559523Y-69940476D01*
X123464285Y-69988095D01*
X123273809Y-70035714D01*
X123130952Y-70035714D01*
X122940476Y-69988095D01*
X122845238Y-69940476D01*
X122750000Y-69845238D01*
X122702380Y-69702380D01*
X122702380Y-69607142D01*
X122750000Y-69464285D01*
X122797619Y-69416666D01*
X122702380Y-68511904D02*
X122702380Y-68988095D01*
X123178571Y-69035714D01*
X123130952Y-68988095D01*
X123083333Y-68892857D01*
X123083333Y-68654761D01*
X123130952Y-68559523D01*
X123178571Y-68511904D01*
X123273809Y-68464285D01*
X123511904Y-68464285D01*
X123607142Y-68511904D01*
X123654761Y-68559523D01*
X123702380Y-68654761D01*
X123702380Y-68892857D01*
X123654761Y-68988095D01*
X123607142Y-69035714D01*
X121333333Y-115607142D02*
X121285714Y-115654761D01*
X121142857Y-115702380D01*
X121047619Y-115702380D01*
X120904761Y-115654761D01*
X120809523Y-115559523D01*
X120761904Y-115464285D01*
X120714285Y-115273809D01*
X120714285Y-115130952D01*
X120761904Y-114940476D01*
X120809523Y-114845238D01*
X120904761Y-114750000D01*
X121047619Y-114702380D01*
X121142857Y-114702380D01*
X121285714Y-114750000D01*
X121333333Y-114797619D01*
X122190476Y-115035714D02*
X122190476Y-115702380D01*
X121952380Y-114654761D02*
X121714285Y-115369047D01*
X122333333Y-115369047D01*
X100083333Y-72607142D02*
X100035714Y-72654761D01*
X99892857Y-72702380D01*
X99797619Y-72702380D01*
X99654761Y-72654761D01*
X99559523Y-72559523D01*
X99511904Y-72464285D01*
X99464285Y-72273809D01*
X99464285Y-72130952D01*
X99511904Y-71940476D01*
X99559523Y-71845238D01*
X99654761Y-71750000D01*
X99797619Y-71702380D01*
X99892857Y-71702380D01*
X100035714Y-71750000D01*
X100083333Y-71797619D01*
X100416666Y-71702380D02*
X101035714Y-71702380D01*
X100702380Y-72083333D01*
X100845238Y-72083333D01*
X100940476Y-72130952D01*
X100988095Y-72178571D01*
X101035714Y-72273809D01*
X101035714Y-72511904D01*
X100988095Y-72607142D01*
X100940476Y-72654761D01*
X100845238Y-72702380D01*
X100559523Y-72702380D01*
X100464285Y-72654761D01*
X100416666Y-72607142D01*
X114333333Y-97857142D02*
X114285714Y-97904761D01*
X114142857Y-97952380D01*
X114047619Y-97952380D01*
X113904761Y-97904761D01*
X113809523Y-97809523D01*
X113761904Y-97714285D01*
X113714285Y-97523809D01*
X113714285Y-97380952D01*
X113761904Y-97190476D01*
X113809523Y-97095238D01*
X113904761Y-97000000D01*
X114047619Y-96952380D01*
X114142857Y-96952380D01*
X114285714Y-97000000D01*
X114333333Y-97047619D01*
X114714285Y-97047619D02*
X114761904Y-97000000D01*
X114857142Y-96952380D01*
X115095238Y-96952380D01*
X115190476Y-97000000D01*
X115238095Y-97047619D01*
X115285714Y-97142857D01*
X115285714Y-97238095D01*
X115238095Y-97380952D01*
X114666666Y-97952380D01*
X115285714Y-97952380D01*
X130357142Y-67666666D02*
X130404761Y-67714285D01*
X130452380Y-67857142D01*
X130452380Y-67952380D01*
X130404761Y-68095238D01*
X130309523Y-68190476D01*
X130214285Y-68238095D01*
X130023809Y-68285714D01*
X129880952Y-68285714D01*
X129690476Y-68238095D01*
X129595238Y-68190476D01*
X129500000Y-68095238D01*
X129452380Y-67952380D01*
X129452380Y-67857142D01*
X129500000Y-67714285D01*
X129547619Y-67666666D01*
X130452380Y-66714285D02*
X130452380Y-67285714D01*
X130452380Y-67000000D02*
X129452380Y-67000000D01*
X129595238Y-67095238D01*
X129690476Y-67190476D01*
X129738095Y-67285714D01*
X146735714Y-79392857D02*
X147402380Y-79392857D01*
X146354761Y-79630952D02*
X147069047Y-79869047D01*
X147069047Y-79250000D01*
X146402380Y-78964285D02*
X146402380Y-78297619D01*
X147402380Y-78726190D01*
X146735714Y-77488095D02*
X147402380Y-77488095D01*
X146735714Y-77916666D02*
X147259523Y-77916666D01*
X147354761Y-77869047D01*
X147402380Y-77773809D01*
X147402380Y-77630952D01*
X147354761Y-77535714D01*
X147307142Y-77488095D01*
X146878571Y-76678571D02*
X146878571Y-77011904D01*
X147402380Y-77011904D02*
X146402380Y-77011904D01*
X146402380Y-76535714D01*
X147402380Y-75630952D02*
X147402380Y-76202380D01*
X147402380Y-75916666D02*
X146402380Y-75916666D01*
X146545238Y-76011904D01*
X146640476Y-76107142D01*
X146688095Y-76202380D01*
X166235714Y-77392857D02*
X166902380Y-77392857D01*
X165854761Y-77630952D02*
X166569047Y-77869047D01*
X166569047Y-77250000D01*
X165902380Y-76964285D02*
X165902380Y-76297619D01*
X166902380Y-76726190D01*
X166235714Y-75488095D02*
X166902380Y-75488095D01*
X166235714Y-75916666D02*
X166759523Y-75916666D01*
X166854761Y-75869047D01*
X166902380Y-75773809D01*
X166902380Y-75630952D01*
X166854761Y-75535714D01*
X166807142Y-75488095D01*
X166378571Y-74678571D02*
X166378571Y-75011904D01*
X166902380Y-75011904D02*
X165902380Y-75011904D01*
X165902380Y-74535714D01*
X165997619Y-74202380D02*
X165950000Y-74154761D01*
X165902380Y-74059523D01*
X165902380Y-73821428D01*
X165950000Y-73726190D01*
X165997619Y-73678571D01*
X166092857Y-73630952D01*
X166188095Y-73630952D01*
X166330952Y-73678571D01*
X166902380Y-74250000D01*
X166902380Y-73630952D01*
X214666666Y-66952380D02*
X214666666Y-67666666D01*
X214619047Y-67809523D01*
X214523809Y-67904761D01*
X214380952Y-67952380D01*
X214285714Y-67952380D01*
X215666666Y-67952380D02*
X215095238Y-67952380D01*
X215380952Y-67952380D02*
X215380952Y-66952380D01*
X215285714Y-67095238D01*
X215190476Y-67190476D01*
X215095238Y-67238095D01*
X213047619Y-66452380D02*
X213047619Y-65452380D01*
X213428571Y-65452380D01*
X213523809Y-65500000D01*
X213571428Y-65547619D01*
X213619047Y-65642857D01*
X213619047Y-65785714D01*
X213571428Y-65880952D01*
X213523809Y-65928571D01*
X213428571Y-65976190D01*
X213047619Y-65976190D01*
X214238095Y-65452380D02*
X214428571Y-65452380D01*
X214523809Y-65500000D01*
X214619047Y-65595238D01*
X214666666Y-65785714D01*
X214666666Y-66119047D01*
X214619047Y-66309523D01*
X214523809Y-66404761D01*
X214428571Y-66452380D01*
X214238095Y-66452380D01*
X214142857Y-66404761D01*
X214047619Y-66309523D01*
X214000000Y-66119047D01*
X214000000Y-65785714D01*
X214047619Y-65595238D01*
X214142857Y-65500000D01*
X214238095Y-65452380D01*
X215000000Y-65452380D02*
X215238095Y-66452380D01*
X215428571Y-65738095D01*
X215619047Y-66452380D01*
X215857142Y-65452380D01*
X216238095Y-65928571D02*
X216571428Y-65928571D01*
X216714285Y-66452380D02*
X216238095Y-66452380D01*
X216238095Y-65452380D01*
X216714285Y-65452380D01*
X217714285Y-66452380D02*
X217380952Y-65976190D01*
X217142857Y-66452380D02*
X217142857Y-65452380D01*
X217523809Y-65452380D01*
X217619047Y-65500000D01*
X217666666Y-65547619D01*
X217714285Y-65642857D01*
X217714285Y-65785714D01*
X217666666Y-65880952D01*
X217619047Y-65928571D01*
X217523809Y-65976190D01*
X217142857Y-65976190D01*
X218904761Y-66452380D02*
X218904761Y-65452380D01*
X219380952Y-66452380D02*
X219380952Y-65452380D01*
X219952380Y-66452380D01*
X219952380Y-65452380D01*
X218666666Y-66952380D02*
X218666666Y-67666666D01*
X218619047Y-67809523D01*
X218523809Y-67904761D01*
X218380952Y-67952380D01*
X218285714Y-67952380D01*
X219095238Y-67047619D02*
X219142857Y-67000000D01*
X219238095Y-66952380D01*
X219476190Y-66952380D01*
X219571428Y-67000000D01*
X219619047Y-67047619D01*
X219666666Y-67142857D01*
X219666666Y-67238095D01*
X219619047Y-67380952D01*
X219047619Y-67952380D01*
X219666666Y-67952380D01*
X142902380Y-93226190D02*
X141902380Y-93226190D01*
X142616666Y-92892857D01*
X141902380Y-92559523D01*
X142902380Y-92559523D01*
X142235714Y-91654761D02*
X142902380Y-91654761D01*
X142235714Y-92083333D02*
X142759523Y-92083333D01*
X142854761Y-92035714D01*
X142902380Y-91940476D01*
X142902380Y-91797619D01*
X142854761Y-91702380D01*
X142807142Y-91654761D01*
X142902380Y-91178571D02*
X142235714Y-91178571D01*
X142426190Y-91178571D02*
X142330952Y-91130952D01*
X142283333Y-91083333D01*
X142235714Y-90988095D01*
X142235714Y-90892857D01*
X142902380Y-90130952D02*
X142378571Y-90130952D01*
X142283333Y-90178571D01*
X142235714Y-90273809D01*
X142235714Y-90464285D01*
X142283333Y-90559523D01*
X142854761Y-90130952D02*
X142902380Y-90226190D01*
X142902380Y-90464285D01*
X142854761Y-90559523D01*
X142759523Y-90607142D01*
X142664285Y-90607142D01*
X142569047Y-90559523D01*
X142521428Y-90464285D01*
X142521428Y-90226190D01*
X142473809Y-90130952D01*
X142235714Y-89797619D02*
X142235714Y-89416666D01*
X141902380Y-89654761D02*
X142759523Y-89654761D01*
X142854761Y-89607142D01*
X142902380Y-89511904D01*
X142902380Y-89416666D01*
X142902380Y-88654761D02*
X142378571Y-88654761D01*
X142283333Y-88702380D01*
X142235714Y-88797619D01*
X142235714Y-88988095D01*
X142283333Y-89083333D01*
X142854761Y-88654761D02*
X142902380Y-88750000D01*
X142902380Y-88988095D01*
X142854761Y-89083333D01*
X142759523Y-89130952D01*
X142664285Y-89130952D01*
X142569047Y-89083333D01*
X142521428Y-88988095D01*
X142521428Y-88750000D01*
X142473809Y-88654761D01*
X142521428Y-88178571D02*
X142521428Y-87416666D01*
X142807142Y-86369047D02*
X142854761Y-86416666D01*
X142902380Y-86559523D01*
X142902380Y-86654761D01*
X142854761Y-86797619D01*
X142759523Y-86892857D01*
X142664285Y-86940476D01*
X142473809Y-86988095D01*
X142330952Y-86988095D01*
X142140476Y-86940476D01*
X142045238Y-86892857D01*
X141950000Y-86797619D01*
X141902380Y-86654761D01*
X141902380Y-86559523D01*
X141950000Y-86416666D01*
X141997619Y-86369047D01*
X142854761Y-85559523D02*
X142902380Y-85654761D01*
X142902380Y-85845238D01*
X142854761Y-85940476D01*
X142759523Y-85988095D01*
X142378571Y-85988095D01*
X142283333Y-85940476D01*
X142235714Y-85845238D01*
X142235714Y-85654761D01*
X142283333Y-85559523D01*
X142378571Y-85511904D01*
X142473809Y-85511904D01*
X142569047Y-85988095D01*
X142902380Y-85083333D02*
X142235714Y-85083333D01*
X142426190Y-85083333D02*
X142330952Y-85035714D01*
X142283333Y-84988095D01*
X142235714Y-84892857D01*
X142235714Y-84797619D01*
X142902380Y-84035714D02*
X142378571Y-84035714D01*
X142283333Y-84083333D01*
X142235714Y-84178571D01*
X142235714Y-84369047D01*
X142283333Y-84464285D01*
X142854761Y-84035714D02*
X142902380Y-84130952D01*
X142902380Y-84369047D01*
X142854761Y-84464285D01*
X142759523Y-84511904D01*
X142664285Y-84511904D01*
X142569047Y-84464285D01*
X142521428Y-84369047D01*
X142521428Y-84130952D01*
X142473809Y-84035714D01*
X142902380Y-83559523D02*
X142235714Y-83559523D01*
X142330952Y-83559523D02*
X142283333Y-83511904D01*
X142235714Y-83416666D01*
X142235714Y-83273809D01*
X142283333Y-83178571D01*
X142378571Y-83130952D01*
X142902380Y-83130952D01*
X142378571Y-83130952D02*
X142283333Y-83083333D01*
X142235714Y-82988095D01*
X142235714Y-82845238D01*
X142283333Y-82750000D01*
X142378571Y-82702380D01*
X142902380Y-82702380D01*
X142902380Y-82226190D02*
X142235714Y-82226190D01*
X141902380Y-82226190D02*
X141950000Y-82273809D01*
X141997619Y-82226190D01*
X141950000Y-82178571D01*
X141902380Y-82226190D01*
X141997619Y-82226190D01*
X142854761Y-81321428D02*
X142902380Y-81416666D01*
X142902380Y-81607142D01*
X142854761Y-81702380D01*
X142807142Y-81750000D01*
X142711904Y-81797619D01*
X142426190Y-81797619D01*
X142330952Y-81750000D01*
X142283333Y-81702380D01*
X142235714Y-81607142D01*
X142235714Y-81416666D01*
X142283333Y-81321428D01*
X142521428Y-80892857D02*
X142521428Y-80130952D01*
X142807142Y-79083333D02*
X142854761Y-79130952D01*
X142902380Y-79273809D01*
X142902380Y-79369047D01*
X142854761Y-79511904D01*
X142759523Y-79607142D01*
X142664285Y-79654761D01*
X142473809Y-79702380D01*
X142330952Y-79702380D01*
X142140476Y-79654761D01*
X142045238Y-79607142D01*
X141950000Y-79511904D01*
X141902380Y-79369047D01*
X141902380Y-79273809D01*
X141950000Y-79130952D01*
X141997619Y-79083333D01*
X142902380Y-78226190D02*
X142378571Y-78226190D01*
X142283333Y-78273809D01*
X142235714Y-78369047D01*
X142235714Y-78559523D01*
X142283333Y-78654761D01*
X142854761Y-78226190D02*
X142902380Y-78321428D01*
X142902380Y-78559523D01*
X142854761Y-78654761D01*
X142759523Y-78702380D01*
X142664285Y-78702380D01*
X142569047Y-78654761D01*
X142521428Y-78559523D01*
X142521428Y-78321428D01*
X142473809Y-78226190D01*
X142235714Y-77750000D02*
X143235714Y-77750000D01*
X142283333Y-77750000D02*
X142235714Y-77654761D01*
X142235714Y-77464285D01*
X142283333Y-77369047D01*
X142330952Y-77321428D01*
X142426190Y-77273809D01*
X142711904Y-77273809D01*
X142807142Y-77321428D01*
X142854761Y-77369047D01*
X142902380Y-77464285D01*
X142902380Y-77654761D01*
X142854761Y-77750000D01*
X142902380Y-76416666D02*
X142378571Y-76416666D01*
X142283333Y-76464285D01*
X142235714Y-76559523D01*
X142235714Y-76750000D01*
X142283333Y-76845238D01*
X142854761Y-76416666D02*
X142902380Y-76511904D01*
X142902380Y-76750000D01*
X142854761Y-76845238D01*
X142759523Y-76892857D01*
X142664285Y-76892857D01*
X142569047Y-76845238D01*
X142521428Y-76750000D01*
X142521428Y-76511904D01*
X142473809Y-76416666D01*
X142854761Y-75511904D02*
X142902380Y-75607142D01*
X142902380Y-75797619D01*
X142854761Y-75892857D01*
X142807142Y-75940476D01*
X142711904Y-75988095D01*
X142426190Y-75988095D01*
X142330952Y-75940476D01*
X142283333Y-75892857D01*
X142235714Y-75797619D01*
X142235714Y-75607142D01*
X142283333Y-75511904D01*
X142902380Y-75083333D02*
X142235714Y-75083333D01*
X141902380Y-75083333D02*
X141950000Y-75130952D01*
X141997619Y-75083333D01*
X141950000Y-75035714D01*
X141902380Y-75083333D01*
X141997619Y-75083333D01*
X142235714Y-74750000D02*
X142235714Y-74369047D01*
X141902380Y-74607142D02*
X142759523Y-74607142D01*
X142854761Y-74559523D01*
X142902380Y-74464285D01*
X142902380Y-74369047D01*
X142902380Y-73892857D02*
X142854761Y-73988095D01*
X142807142Y-74035714D01*
X142711904Y-74083333D01*
X142426190Y-74083333D01*
X142330952Y-74035714D01*
X142283333Y-73988095D01*
X142235714Y-73892857D01*
X142235714Y-73750000D01*
X142283333Y-73654761D01*
X142330952Y-73607142D01*
X142426190Y-73559523D01*
X142711904Y-73559523D01*
X142807142Y-73607142D01*
X142854761Y-73654761D01*
X142902380Y-73750000D01*
X142902380Y-73892857D01*
X142902380Y-73130952D02*
X142235714Y-73130952D01*
X142426190Y-73130952D02*
X142330952Y-73083333D01*
X142283333Y-73035714D01*
X142235714Y-72940476D01*
X142235714Y-72845238D01*
X142521428Y-72511904D02*
X142521428Y-71750000D01*
X141902380Y-70797619D02*
X141902380Y-71273809D01*
X142378571Y-71321428D01*
X142330952Y-71273809D01*
X142283333Y-71178571D01*
X142283333Y-70940476D01*
X142330952Y-70845238D01*
X142378571Y-70797619D01*
X142473809Y-70750000D01*
X142711904Y-70750000D01*
X142807142Y-70797619D01*
X142854761Y-70845238D01*
X142902380Y-70940476D01*
X142902380Y-71178571D01*
X142854761Y-71273809D01*
X142807142Y-71321428D01*
X141902380Y-70130952D02*
X141902380Y-70035714D01*
X141950000Y-69940476D01*
X141997619Y-69892857D01*
X142092857Y-69845238D01*
X142283333Y-69797619D01*
X142521428Y-69797619D01*
X142711904Y-69845238D01*
X142807142Y-69892857D01*
X142854761Y-69940476D01*
X142902380Y-70035714D01*
X142902380Y-70130952D01*
X142854761Y-70226190D01*
X142807142Y-70273809D01*
X142711904Y-70321428D01*
X142521428Y-70369047D01*
X142283333Y-70369047D01*
X142092857Y-70321428D01*
X141997619Y-70273809D01*
X141950000Y-70226190D01*
X141902380Y-70130952D01*
X142235714Y-69464285D02*
X142902380Y-69226190D01*
X142235714Y-68988095D01*
X142902380Y-68083333D02*
X142902380Y-68654761D01*
X142902380Y-68369047D02*
X141902380Y-68369047D01*
X142045238Y-68464285D01*
X142140476Y-68559523D01*
X142188095Y-68654761D01*
X142521428Y-67654761D02*
X142521428Y-66892857D01*
X141997619Y-66464285D02*
X141950000Y-66416666D01*
X141902380Y-66321428D01*
X141902380Y-66083333D01*
X141950000Y-65988095D01*
X141997619Y-65940476D01*
X142092857Y-65892857D01*
X142188095Y-65892857D01*
X142330952Y-65940476D01*
X142902380Y-66511904D01*
X142902380Y-65892857D01*
X141997619Y-65511904D02*
X141950000Y-65464285D01*
X141902380Y-65369047D01*
X141902380Y-65130952D01*
X141950000Y-65035714D01*
X141997619Y-64988095D01*
X142092857Y-64940476D01*
X142188095Y-64940476D01*
X142330952Y-64988095D01*
X142902380Y-65559523D01*
X142902380Y-64940476D01*
X142235714Y-64083333D02*
X142902380Y-64083333D01*
X142235714Y-64511904D02*
X142759523Y-64511904D01*
X142854761Y-64464285D01*
X142902380Y-64369047D01*
X142902380Y-64226190D01*
X142854761Y-64130952D01*
X142807142Y-64083333D01*
X142378571Y-63273809D02*
X142378571Y-63607142D01*
X142902380Y-63607142D02*
X141902380Y-63607142D01*
X141902380Y-63130952D01*
X142902380Y-62226190D02*
X142902380Y-62797619D01*
X142902380Y-62511904D02*
X141902380Y-62511904D01*
X142045238Y-62607142D01*
X142140476Y-62702380D01*
X142188095Y-62797619D01*
X162902380Y-93226190D02*
X161902380Y-93226190D01*
X162616666Y-92892857D01*
X161902380Y-92559523D01*
X162902380Y-92559523D01*
X162235714Y-91654761D02*
X162902380Y-91654761D01*
X162235714Y-92083333D02*
X162759523Y-92083333D01*
X162854761Y-92035714D01*
X162902380Y-91940476D01*
X162902380Y-91797619D01*
X162854761Y-91702380D01*
X162807142Y-91654761D01*
X162902380Y-91178571D02*
X162235714Y-91178571D01*
X162426190Y-91178571D02*
X162330952Y-91130952D01*
X162283333Y-91083333D01*
X162235714Y-90988095D01*
X162235714Y-90892857D01*
X162902380Y-90130952D02*
X162378571Y-90130952D01*
X162283333Y-90178571D01*
X162235714Y-90273809D01*
X162235714Y-90464285D01*
X162283333Y-90559523D01*
X162854761Y-90130952D02*
X162902380Y-90226190D01*
X162902380Y-90464285D01*
X162854761Y-90559523D01*
X162759523Y-90607142D01*
X162664285Y-90607142D01*
X162569047Y-90559523D01*
X162521428Y-90464285D01*
X162521428Y-90226190D01*
X162473809Y-90130952D01*
X162235714Y-89797619D02*
X162235714Y-89416666D01*
X161902380Y-89654761D02*
X162759523Y-89654761D01*
X162854761Y-89607142D01*
X162902380Y-89511904D01*
X162902380Y-89416666D01*
X162902380Y-88654761D02*
X162378571Y-88654761D01*
X162283333Y-88702380D01*
X162235714Y-88797619D01*
X162235714Y-88988095D01*
X162283333Y-89083333D01*
X162854761Y-88654761D02*
X162902380Y-88750000D01*
X162902380Y-88988095D01*
X162854761Y-89083333D01*
X162759523Y-89130952D01*
X162664285Y-89130952D01*
X162569047Y-89083333D01*
X162521428Y-88988095D01*
X162521428Y-88750000D01*
X162473809Y-88654761D01*
X162521428Y-88178571D02*
X162521428Y-87416666D01*
X162807142Y-86369047D02*
X162854761Y-86416666D01*
X162902380Y-86559523D01*
X162902380Y-86654761D01*
X162854761Y-86797619D01*
X162759523Y-86892857D01*
X162664285Y-86940476D01*
X162473809Y-86988095D01*
X162330952Y-86988095D01*
X162140476Y-86940476D01*
X162045238Y-86892857D01*
X161950000Y-86797619D01*
X161902380Y-86654761D01*
X161902380Y-86559523D01*
X161950000Y-86416666D01*
X161997619Y-86369047D01*
X162854761Y-85559523D02*
X162902380Y-85654761D01*
X162902380Y-85845238D01*
X162854761Y-85940476D01*
X162759523Y-85988095D01*
X162378571Y-85988095D01*
X162283333Y-85940476D01*
X162235714Y-85845238D01*
X162235714Y-85654761D01*
X162283333Y-85559523D01*
X162378571Y-85511904D01*
X162473809Y-85511904D01*
X162569047Y-85988095D01*
X162902380Y-85083333D02*
X162235714Y-85083333D01*
X162426190Y-85083333D02*
X162330952Y-85035714D01*
X162283333Y-84988095D01*
X162235714Y-84892857D01*
X162235714Y-84797619D01*
X162902380Y-84035714D02*
X162378571Y-84035714D01*
X162283333Y-84083333D01*
X162235714Y-84178571D01*
X162235714Y-84369047D01*
X162283333Y-84464285D01*
X162854761Y-84035714D02*
X162902380Y-84130952D01*
X162902380Y-84369047D01*
X162854761Y-84464285D01*
X162759523Y-84511904D01*
X162664285Y-84511904D01*
X162569047Y-84464285D01*
X162521428Y-84369047D01*
X162521428Y-84130952D01*
X162473809Y-84035714D01*
X162902380Y-83559523D02*
X162235714Y-83559523D01*
X162330952Y-83559523D02*
X162283333Y-83511904D01*
X162235714Y-83416666D01*
X162235714Y-83273809D01*
X162283333Y-83178571D01*
X162378571Y-83130952D01*
X162902380Y-83130952D01*
X162378571Y-83130952D02*
X162283333Y-83083333D01*
X162235714Y-82988095D01*
X162235714Y-82845238D01*
X162283333Y-82750000D01*
X162378571Y-82702380D01*
X162902380Y-82702380D01*
X162902380Y-82226190D02*
X162235714Y-82226190D01*
X161902380Y-82226190D02*
X161950000Y-82273809D01*
X161997619Y-82226190D01*
X161950000Y-82178571D01*
X161902380Y-82226190D01*
X161997619Y-82226190D01*
X162854761Y-81321428D02*
X162902380Y-81416666D01*
X162902380Y-81607142D01*
X162854761Y-81702380D01*
X162807142Y-81750000D01*
X162711904Y-81797619D01*
X162426190Y-81797619D01*
X162330952Y-81750000D01*
X162283333Y-81702380D01*
X162235714Y-81607142D01*
X162235714Y-81416666D01*
X162283333Y-81321428D01*
X162521428Y-80892857D02*
X162521428Y-80130952D01*
X162807142Y-79083333D02*
X162854761Y-79130952D01*
X162902380Y-79273809D01*
X162902380Y-79369047D01*
X162854761Y-79511904D01*
X162759523Y-79607142D01*
X162664285Y-79654761D01*
X162473809Y-79702380D01*
X162330952Y-79702380D01*
X162140476Y-79654761D01*
X162045238Y-79607142D01*
X161950000Y-79511904D01*
X161902380Y-79369047D01*
X161902380Y-79273809D01*
X161950000Y-79130952D01*
X161997619Y-79083333D01*
X162902380Y-78226190D02*
X162378571Y-78226190D01*
X162283333Y-78273809D01*
X162235714Y-78369047D01*
X162235714Y-78559523D01*
X162283333Y-78654761D01*
X162854761Y-78226190D02*
X162902380Y-78321428D01*
X162902380Y-78559523D01*
X162854761Y-78654761D01*
X162759523Y-78702380D01*
X162664285Y-78702380D01*
X162569047Y-78654761D01*
X162521428Y-78559523D01*
X162521428Y-78321428D01*
X162473809Y-78226190D01*
X162235714Y-77750000D02*
X163235714Y-77750000D01*
X162283333Y-77750000D02*
X162235714Y-77654761D01*
X162235714Y-77464285D01*
X162283333Y-77369047D01*
X162330952Y-77321428D01*
X162426190Y-77273809D01*
X162711904Y-77273809D01*
X162807142Y-77321428D01*
X162854761Y-77369047D01*
X162902380Y-77464285D01*
X162902380Y-77654761D01*
X162854761Y-77750000D01*
X162902380Y-76416666D02*
X162378571Y-76416666D01*
X162283333Y-76464285D01*
X162235714Y-76559523D01*
X162235714Y-76750000D01*
X162283333Y-76845238D01*
X162854761Y-76416666D02*
X162902380Y-76511904D01*
X162902380Y-76750000D01*
X162854761Y-76845238D01*
X162759523Y-76892857D01*
X162664285Y-76892857D01*
X162569047Y-76845238D01*
X162521428Y-76750000D01*
X162521428Y-76511904D01*
X162473809Y-76416666D01*
X162854761Y-75511904D02*
X162902380Y-75607142D01*
X162902380Y-75797619D01*
X162854761Y-75892857D01*
X162807142Y-75940476D01*
X162711904Y-75988095D01*
X162426190Y-75988095D01*
X162330952Y-75940476D01*
X162283333Y-75892857D01*
X162235714Y-75797619D01*
X162235714Y-75607142D01*
X162283333Y-75511904D01*
X162902380Y-75083333D02*
X162235714Y-75083333D01*
X161902380Y-75083333D02*
X161950000Y-75130952D01*
X161997619Y-75083333D01*
X161950000Y-75035714D01*
X161902380Y-75083333D01*
X161997619Y-75083333D01*
X162235714Y-74750000D02*
X162235714Y-74369047D01*
X161902380Y-74607142D02*
X162759523Y-74607142D01*
X162854761Y-74559523D01*
X162902380Y-74464285D01*
X162902380Y-74369047D01*
X162902380Y-73892857D02*
X162854761Y-73988095D01*
X162807142Y-74035714D01*
X162711904Y-74083333D01*
X162426190Y-74083333D01*
X162330952Y-74035714D01*
X162283333Y-73988095D01*
X162235714Y-73892857D01*
X162235714Y-73750000D01*
X162283333Y-73654761D01*
X162330952Y-73607142D01*
X162426190Y-73559523D01*
X162711904Y-73559523D01*
X162807142Y-73607142D01*
X162854761Y-73654761D01*
X162902380Y-73750000D01*
X162902380Y-73892857D01*
X162902380Y-73130952D02*
X162235714Y-73130952D01*
X162426190Y-73130952D02*
X162330952Y-73083333D01*
X162283333Y-73035714D01*
X162235714Y-72940476D01*
X162235714Y-72845238D01*
X162521428Y-72511904D02*
X162521428Y-71750000D01*
X161902380Y-70797619D02*
X161902380Y-71273809D01*
X162378571Y-71321428D01*
X162330952Y-71273809D01*
X162283333Y-71178571D01*
X162283333Y-70940476D01*
X162330952Y-70845238D01*
X162378571Y-70797619D01*
X162473809Y-70750000D01*
X162711904Y-70750000D01*
X162807142Y-70797619D01*
X162854761Y-70845238D01*
X162902380Y-70940476D01*
X162902380Y-71178571D01*
X162854761Y-71273809D01*
X162807142Y-71321428D01*
X161902380Y-70130952D02*
X161902380Y-70035714D01*
X161950000Y-69940476D01*
X161997619Y-69892857D01*
X162092857Y-69845238D01*
X162283333Y-69797619D01*
X162521428Y-69797619D01*
X162711904Y-69845238D01*
X162807142Y-69892857D01*
X162854761Y-69940476D01*
X162902380Y-70035714D01*
X162902380Y-70130952D01*
X162854761Y-70226190D01*
X162807142Y-70273809D01*
X162711904Y-70321428D01*
X162521428Y-70369047D01*
X162283333Y-70369047D01*
X162092857Y-70321428D01*
X161997619Y-70273809D01*
X161950000Y-70226190D01*
X161902380Y-70130952D01*
X162235714Y-69464285D02*
X162902380Y-69226190D01*
X162235714Y-68988095D01*
X162902380Y-68083333D02*
X162902380Y-68654761D01*
X162902380Y-68369047D02*
X161902380Y-68369047D01*
X162045238Y-68464285D01*
X162140476Y-68559523D01*
X162188095Y-68654761D01*
X162521428Y-67654761D02*
X162521428Y-66892857D01*
X161997619Y-66464285D02*
X161950000Y-66416666D01*
X161902380Y-66321428D01*
X161902380Y-66083333D01*
X161950000Y-65988095D01*
X161997619Y-65940476D01*
X162092857Y-65892857D01*
X162188095Y-65892857D01*
X162330952Y-65940476D01*
X162902380Y-66511904D01*
X162902380Y-65892857D01*
X161997619Y-65511904D02*
X161950000Y-65464285D01*
X161902380Y-65369047D01*
X161902380Y-65130952D01*
X161950000Y-65035714D01*
X161997619Y-64988095D01*
X162092857Y-64940476D01*
X162188095Y-64940476D01*
X162330952Y-64988095D01*
X162902380Y-65559523D01*
X162902380Y-64940476D01*
X162235714Y-64083333D02*
X162902380Y-64083333D01*
X162235714Y-64511904D02*
X162759523Y-64511904D01*
X162854761Y-64464285D01*
X162902380Y-64369047D01*
X162902380Y-64226190D01*
X162854761Y-64130952D01*
X162807142Y-64083333D01*
X162378571Y-63273809D02*
X162378571Y-63607142D01*
X162902380Y-63607142D02*
X161902380Y-63607142D01*
X161902380Y-63130952D01*
X161997619Y-62797619D02*
X161950000Y-62750000D01*
X161902380Y-62654761D01*
X161902380Y-62416666D01*
X161950000Y-62321428D01*
X161997619Y-62273809D01*
X162092857Y-62226190D01*
X162188095Y-62226190D01*
X162330952Y-62273809D01*
X162902380Y-62845238D01*
X162902380Y-62226190D01*
X109532380Y-138832857D02*
X109056190Y-139166190D01*
X109532380Y-139404285D02*
X108532380Y-139404285D01*
X108532380Y-139023333D01*
X108580000Y-138928095D01*
X108627619Y-138880476D01*
X108722857Y-138832857D01*
X108865714Y-138832857D01*
X108960952Y-138880476D01*
X109008571Y-138928095D01*
X109056190Y-139023333D01*
X109056190Y-139404285D01*
X109532380Y-137880476D02*
X109532380Y-138451904D01*
X109532380Y-138166190D02*
X108532380Y-138166190D01*
X108675238Y-138261428D01*
X108770476Y-138356666D01*
X108818095Y-138451904D01*
X108532380Y-137547142D02*
X108532380Y-136928095D01*
X108913333Y-137261428D01*
X108913333Y-137118571D01*
X108960952Y-137023333D01*
X109008571Y-136975714D01*
X109103809Y-136928095D01*
X109341904Y-136928095D01*
X109437142Y-136975714D01*
X109484761Y-137023333D01*
X109532380Y-137118571D01*
X109532380Y-137404285D01*
X109484761Y-137499523D01*
X109437142Y-137547142D01*
X115032380Y-138832857D02*
X114556190Y-139166190D01*
X115032380Y-139404285D02*
X114032380Y-139404285D01*
X114032380Y-139023333D01*
X114080000Y-138928095D01*
X114127619Y-138880476D01*
X114222857Y-138832857D01*
X114365714Y-138832857D01*
X114460952Y-138880476D01*
X114508571Y-138928095D01*
X114556190Y-139023333D01*
X114556190Y-139404285D01*
X115032380Y-137880476D02*
X115032380Y-138451904D01*
X115032380Y-138166190D02*
X114032380Y-138166190D01*
X114175238Y-138261428D01*
X114270476Y-138356666D01*
X114318095Y-138451904D01*
X114365714Y-137023333D02*
X115032380Y-137023333D01*
X113984761Y-137261428D02*
X114699047Y-137499523D01*
X114699047Y-136880476D01*
X97532380Y-91332857D02*
X97056190Y-91666190D01*
X97532380Y-91904285D02*
X96532380Y-91904285D01*
X96532380Y-91523333D01*
X96580000Y-91428095D01*
X96627619Y-91380476D01*
X96722857Y-91332857D01*
X96865714Y-91332857D01*
X96960952Y-91380476D01*
X97008571Y-91428095D01*
X97056190Y-91523333D01*
X97056190Y-91904285D01*
X97532380Y-90380476D02*
X97532380Y-90951904D01*
X97532380Y-90666190D02*
X96532380Y-90666190D01*
X96675238Y-90761428D01*
X96770476Y-90856666D01*
X96818095Y-90951904D01*
X96532380Y-89475714D02*
X96532380Y-89951904D01*
X97008571Y-89999523D01*
X96960952Y-89951904D01*
X96913333Y-89856666D01*
X96913333Y-89618571D01*
X96960952Y-89523333D01*
X97008571Y-89475714D01*
X97103809Y-89428095D01*
X97341904Y-89428095D01*
X97437142Y-89475714D01*
X97484761Y-89523333D01*
X97532380Y-89618571D01*
X97532380Y-89856666D01*
X97484761Y-89951904D01*
X97437142Y-89999523D01*
X91532380Y-91332857D02*
X91056190Y-91666190D01*
X91532380Y-91904285D02*
X90532380Y-91904285D01*
X90532380Y-91523333D01*
X90580000Y-91428095D01*
X90627619Y-91380476D01*
X90722857Y-91332857D01*
X90865714Y-91332857D01*
X90960952Y-91380476D01*
X91008571Y-91428095D01*
X91056190Y-91523333D01*
X91056190Y-91904285D01*
X91532380Y-90380476D02*
X91532380Y-90951904D01*
X91532380Y-90666190D02*
X90532380Y-90666190D01*
X90675238Y-90761428D01*
X90770476Y-90856666D01*
X90818095Y-90951904D01*
X90532380Y-89523333D02*
X90532380Y-89713809D01*
X90580000Y-89809047D01*
X90627619Y-89856666D01*
X90770476Y-89951904D01*
X90960952Y-89999523D01*
X91341904Y-89999523D01*
X91437142Y-89951904D01*
X91484761Y-89904285D01*
X91532380Y-89809047D01*
X91532380Y-89618571D01*
X91484761Y-89523333D01*
X91437142Y-89475714D01*
X91341904Y-89428095D01*
X91103809Y-89428095D01*
X91008571Y-89475714D01*
X90960952Y-89523333D01*
X90913333Y-89618571D01*
X90913333Y-89809047D01*
X90960952Y-89904285D01*
X91008571Y-89951904D01*
X91103809Y-89999523D01*
X126032380Y-138832857D02*
X125556190Y-139166190D01*
X126032380Y-139404285D02*
X125032380Y-139404285D01*
X125032380Y-139023333D01*
X125080000Y-138928095D01*
X125127619Y-138880476D01*
X125222857Y-138832857D01*
X125365714Y-138832857D01*
X125460952Y-138880476D01*
X125508571Y-138928095D01*
X125556190Y-139023333D01*
X125556190Y-139404285D01*
X126032380Y-137880476D02*
X126032380Y-138451904D01*
X126032380Y-138166190D02*
X125032380Y-138166190D01*
X125175238Y-138261428D01*
X125270476Y-138356666D01*
X125318095Y-138451904D01*
X125032380Y-137547142D02*
X125032380Y-136880476D01*
X126032380Y-137309047D01*
X109532380Y-91332857D02*
X109056190Y-91666190D01*
X109532380Y-91904285D02*
X108532380Y-91904285D01*
X108532380Y-91523333D01*
X108580000Y-91428095D01*
X108627619Y-91380476D01*
X108722857Y-91332857D01*
X108865714Y-91332857D01*
X108960952Y-91380476D01*
X109008571Y-91428095D01*
X109056190Y-91523333D01*
X109056190Y-91904285D01*
X109532380Y-90380476D02*
X109532380Y-90951904D01*
X109532380Y-90666190D02*
X108532380Y-90666190D01*
X108675238Y-90761428D01*
X108770476Y-90856666D01*
X108818095Y-90951904D01*
X108960952Y-89809047D02*
X108913333Y-89904285D01*
X108865714Y-89951904D01*
X108770476Y-89999523D01*
X108722857Y-89999523D01*
X108627619Y-89951904D01*
X108580000Y-89904285D01*
X108532380Y-89809047D01*
X108532380Y-89618571D01*
X108580000Y-89523333D01*
X108627619Y-89475714D01*
X108722857Y-89428095D01*
X108770476Y-89428095D01*
X108865714Y-89475714D01*
X108913333Y-89523333D01*
X108960952Y-89618571D01*
X108960952Y-89809047D01*
X109008571Y-89904285D01*
X109056190Y-89951904D01*
X109151428Y-89999523D01*
X109341904Y-89999523D01*
X109437142Y-89951904D01*
X109484761Y-89904285D01*
X109532380Y-89809047D01*
X109532380Y-89618571D01*
X109484761Y-89523333D01*
X109437142Y-89475714D01*
X109341904Y-89428095D01*
X109151428Y-89428095D01*
X109056190Y-89475714D01*
X109008571Y-89523333D01*
X108960952Y-89618571D01*
X126032380Y-91332857D02*
X125556190Y-91666190D01*
X126032380Y-91904285D02*
X125032380Y-91904285D01*
X125032380Y-91523333D01*
X125080000Y-91428095D01*
X125127619Y-91380476D01*
X125222857Y-91332857D01*
X125365714Y-91332857D01*
X125460952Y-91380476D01*
X125508571Y-91428095D01*
X125556190Y-91523333D01*
X125556190Y-91904285D01*
X126032380Y-90380476D02*
X126032380Y-90951904D01*
X126032380Y-90666190D02*
X125032380Y-90666190D01*
X125175238Y-90761428D01*
X125270476Y-90856666D01*
X125318095Y-90951904D01*
X126032380Y-89904285D02*
X126032380Y-89713809D01*
X125984761Y-89618571D01*
X125937142Y-89570952D01*
X125794285Y-89475714D01*
X125603809Y-89428095D01*
X125222857Y-89428095D01*
X125127619Y-89475714D01*
X125080000Y-89523333D01*
X125032380Y-89618571D01*
X125032380Y-89809047D01*
X125080000Y-89904285D01*
X125127619Y-89951904D01*
X125222857Y-89999523D01*
X125460952Y-89999523D01*
X125556190Y-89951904D01*
X125603809Y-89904285D01*
X125651428Y-89809047D01*
X125651428Y-89618571D01*
X125603809Y-89523333D01*
X125556190Y-89475714D01*
X125460952Y-89428095D01*
X120532380Y-91332857D02*
X120056190Y-91666190D01*
X120532380Y-91904285D02*
X119532380Y-91904285D01*
X119532380Y-91523333D01*
X119580000Y-91428095D01*
X119627619Y-91380476D01*
X119722857Y-91332857D01*
X119865714Y-91332857D01*
X119960952Y-91380476D01*
X120008571Y-91428095D01*
X120056190Y-91523333D01*
X120056190Y-91904285D01*
X119627619Y-90951904D02*
X119580000Y-90904285D01*
X119532380Y-90809047D01*
X119532380Y-90570952D01*
X119580000Y-90475714D01*
X119627619Y-90428095D01*
X119722857Y-90380476D01*
X119818095Y-90380476D01*
X119960952Y-90428095D01*
X120532380Y-90999523D01*
X120532380Y-90380476D01*
X119532380Y-89761428D02*
X119532380Y-89666190D01*
X119580000Y-89570952D01*
X119627619Y-89523333D01*
X119722857Y-89475714D01*
X119913333Y-89428095D01*
X120151428Y-89428095D01*
X120341904Y-89475714D01*
X120437142Y-89523333D01*
X120484761Y-89570952D01*
X120532380Y-89666190D01*
X120532380Y-89761428D01*
X120484761Y-89856666D01*
X120437142Y-89904285D01*
X120341904Y-89951904D01*
X120151428Y-89999523D01*
X119913333Y-89999523D01*
X119722857Y-89951904D01*
X119627619Y-89904285D01*
X119580000Y-89856666D01*
X119532380Y-89761428D01*
X69166666Y-112842380D02*
X69166666Y-113556666D01*
X69119047Y-113699523D01*
X69023809Y-113794761D01*
X68880952Y-113842380D01*
X68785714Y-113842380D01*
X69547619Y-112842380D02*
X70166666Y-112842380D01*
X69833333Y-113223333D01*
X69976190Y-113223333D01*
X70071428Y-113270952D01*
X70119047Y-113318571D01*
X70166666Y-113413809D01*
X70166666Y-113651904D01*
X70119047Y-113747142D01*
X70071428Y-113794761D01*
X69976190Y-113842380D01*
X69690476Y-113842380D01*
X69595238Y-113794761D01*
X69547619Y-113747142D01*
X69166666Y-84122380D02*
X69166666Y-84836666D01*
X69119047Y-84979523D01*
X69023809Y-85074761D01*
X68880952Y-85122380D01*
X68785714Y-85122380D01*
X70071428Y-84455714D02*
X70071428Y-85122380D01*
X69833333Y-84074761D02*
X69595238Y-84789047D01*
X70214285Y-84789047D01*
X69166666Y-55622380D02*
X69166666Y-56336666D01*
X69119047Y-56479523D01*
X69023809Y-56574761D01*
X68880952Y-56622380D01*
X68785714Y-56622380D01*
X70119047Y-55622380D02*
X69642857Y-55622380D01*
X69595238Y-56098571D01*
X69642857Y-56050952D01*
X69738095Y-56003333D01*
X69976190Y-56003333D01*
X70071428Y-56050952D01*
X70119047Y-56098571D01*
X70166666Y-56193809D01*
X70166666Y-56431904D01*
X70119047Y-56527142D01*
X70071428Y-56574761D01*
X69976190Y-56622380D01*
X69738095Y-56622380D01*
X69642857Y-56574761D01*
X69595238Y-56527142D01*
M02*
