G04 #@! TF.GenerationSoftware,KiCad,Pcbnew,5.1.3-ffb9f22~84~ubuntu18.10.1*
G04 #@! TF.CreationDate,2019-10-10T16:21:08+02:00*
G04 #@! TF.ProjectId,upuaut,75707561-7574-42e6-9b69-6361645f7063,rev?*
G04 #@! TF.SameCoordinates,Original*
G04 #@! TF.FileFunction,Copper,L2,Bot*
G04 #@! TF.FilePolarity,Positive*
%FSLAX46Y46*%
G04 Gerber Fmt 4.6, Leading zero omitted, Abs format (unit mm)*
G04 Created by KiCad (PCBNEW 5.1.3-ffb9f22~84~ubuntu18.10.1) date 2019-10-10 16:21:08*
%MOMM*%
%LPD*%
G04 APERTURE LIST*
%ADD10C,0.100000*%
%ADD11C,1.500000*%
%ADD12O,1.500000X2.020000*%
%ADD13R,1.800000X1.800000*%
%ADD14C,1.800000*%
%ADD15C,0.254000*%
G04 APERTURE END LIST*
D10*
G36*
X105934504Y-49791204D02*
G01*
X105958773Y-49794804D01*
X105982571Y-49800765D01*
X106005671Y-49809030D01*
X106027849Y-49819520D01*
X106048893Y-49832133D01*
X106068598Y-49846747D01*
X106086777Y-49863223D01*
X106103253Y-49881402D01*
X106117867Y-49901107D01*
X106130480Y-49922151D01*
X106140970Y-49944329D01*
X106149235Y-49967429D01*
X106155196Y-49991227D01*
X106158796Y-50015496D01*
X106160000Y-50040000D01*
X106160000Y-51560000D01*
X106158796Y-51584504D01*
X106155196Y-51608773D01*
X106149235Y-51632571D01*
X106140970Y-51655671D01*
X106130480Y-51677849D01*
X106117867Y-51698893D01*
X106103253Y-51718598D01*
X106086777Y-51736777D01*
X106068598Y-51753253D01*
X106048893Y-51767867D01*
X106027849Y-51780480D01*
X106005671Y-51790970D01*
X105982571Y-51799235D01*
X105958773Y-51805196D01*
X105934504Y-51808796D01*
X105910000Y-51810000D01*
X104910000Y-51810000D01*
X104885496Y-51808796D01*
X104861227Y-51805196D01*
X104837429Y-51799235D01*
X104814329Y-51790970D01*
X104792151Y-51780480D01*
X104771107Y-51767867D01*
X104751402Y-51753253D01*
X104733223Y-51736777D01*
X104716747Y-51718598D01*
X104702133Y-51698893D01*
X104689520Y-51677849D01*
X104679030Y-51655671D01*
X104670765Y-51632571D01*
X104664804Y-51608773D01*
X104661204Y-51584504D01*
X104660000Y-51560000D01*
X104660000Y-50040000D01*
X104661204Y-50015496D01*
X104664804Y-49991227D01*
X104670765Y-49967429D01*
X104679030Y-49944329D01*
X104689520Y-49922151D01*
X104702133Y-49901107D01*
X104716747Y-49881402D01*
X104733223Y-49863223D01*
X104751402Y-49846747D01*
X104771107Y-49832133D01*
X104792151Y-49819520D01*
X104814329Y-49809030D01*
X104837429Y-49800765D01*
X104861227Y-49794804D01*
X104885496Y-49791204D01*
X104910000Y-49790000D01*
X105910000Y-49790000D01*
X105934504Y-49791204D01*
X105934504Y-49791204D01*
G37*
D11*
X105410000Y-50800000D03*
D12*
X108410000Y-50800000D03*
X111410000Y-50800000D03*
D10*
G36*
X137684504Y-49791204D02*
G01*
X137708773Y-49794804D01*
X137732571Y-49800765D01*
X137755671Y-49809030D01*
X137777849Y-49819520D01*
X137798893Y-49832133D01*
X137818598Y-49846747D01*
X137836777Y-49863223D01*
X137853253Y-49881402D01*
X137867867Y-49901107D01*
X137880480Y-49922151D01*
X137890970Y-49944329D01*
X137899235Y-49967429D01*
X137905196Y-49991227D01*
X137908796Y-50015496D01*
X137910000Y-50040000D01*
X137910000Y-51560000D01*
X137908796Y-51584504D01*
X137905196Y-51608773D01*
X137899235Y-51632571D01*
X137890970Y-51655671D01*
X137880480Y-51677849D01*
X137867867Y-51698893D01*
X137853253Y-51718598D01*
X137836777Y-51736777D01*
X137818598Y-51753253D01*
X137798893Y-51767867D01*
X137777849Y-51780480D01*
X137755671Y-51790970D01*
X137732571Y-51799235D01*
X137708773Y-51805196D01*
X137684504Y-51808796D01*
X137660000Y-51810000D01*
X136660000Y-51810000D01*
X136635496Y-51808796D01*
X136611227Y-51805196D01*
X136587429Y-51799235D01*
X136564329Y-51790970D01*
X136542151Y-51780480D01*
X136521107Y-51767867D01*
X136501402Y-51753253D01*
X136483223Y-51736777D01*
X136466747Y-51718598D01*
X136452133Y-51698893D01*
X136439520Y-51677849D01*
X136429030Y-51655671D01*
X136420765Y-51632571D01*
X136414804Y-51608773D01*
X136411204Y-51584504D01*
X136410000Y-51560000D01*
X136410000Y-50040000D01*
X136411204Y-50015496D01*
X136414804Y-49991227D01*
X136420765Y-49967429D01*
X136429030Y-49944329D01*
X136439520Y-49922151D01*
X136452133Y-49901107D01*
X136466747Y-49881402D01*
X136483223Y-49863223D01*
X136501402Y-49846747D01*
X136521107Y-49832133D01*
X136542151Y-49819520D01*
X136564329Y-49809030D01*
X136587429Y-49800765D01*
X136611227Y-49794804D01*
X136635496Y-49791204D01*
X136660000Y-49790000D01*
X137660000Y-49790000D01*
X137684504Y-49791204D01*
X137684504Y-49791204D01*
G37*
D11*
X137160000Y-50800000D03*
D12*
X140160000Y-50800000D03*
D10*
G36*
X120254504Y-49791204D02*
G01*
X120278773Y-49794804D01*
X120302571Y-49800765D01*
X120325671Y-49809030D01*
X120347849Y-49819520D01*
X120368893Y-49832133D01*
X120388598Y-49846747D01*
X120406777Y-49863223D01*
X120423253Y-49881402D01*
X120437867Y-49901107D01*
X120450480Y-49922151D01*
X120460970Y-49944329D01*
X120469235Y-49967429D01*
X120475196Y-49991227D01*
X120478796Y-50015496D01*
X120480000Y-50040000D01*
X120480000Y-51560000D01*
X120478796Y-51584504D01*
X120475196Y-51608773D01*
X120469235Y-51632571D01*
X120460970Y-51655671D01*
X120450480Y-51677849D01*
X120437867Y-51698893D01*
X120423253Y-51718598D01*
X120406777Y-51736777D01*
X120388598Y-51753253D01*
X120368893Y-51767867D01*
X120347849Y-51780480D01*
X120325671Y-51790970D01*
X120302571Y-51799235D01*
X120278773Y-51805196D01*
X120254504Y-51808796D01*
X120230000Y-51810000D01*
X119230000Y-51810000D01*
X119205496Y-51808796D01*
X119181227Y-51805196D01*
X119157429Y-51799235D01*
X119134329Y-51790970D01*
X119112151Y-51780480D01*
X119091107Y-51767867D01*
X119071402Y-51753253D01*
X119053223Y-51736777D01*
X119036747Y-51718598D01*
X119022133Y-51698893D01*
X119009520Y-51677849D01*
X118999030Y-51655671D01*
X118990765Y-51632571D01*
X118984804Y-51608773D01*
X118981204Y-51584504D01*
X118980000Y-51560000D01*
X118980000Y-50040000D01*
X118981204Y-50015496D01*
X118984804Y-49991227D01*
X118990765Y-49967429D01*
X118999030Y-49944329D01*
X119009520Y-49922151D01*
X119022133Y-49901107D01*
X119036747Y-49881402D01*
X119053223Y-49863223D01*
X119071402Y-49846747D01*
X119091107Y-49832133D01*
X119112151Y-49819520D01*
X119134329Y-49809030D01*
X119157429Y-49800765D01*
X119181227Y-49794804D01*
X119205496Y-49791204D01*
X119230000Y-49790000D01*
X120230000Y-49790000D01*
X120254504Y-49791204D01*
X120254504Y-49791204D01*
G37*
D11*
X119730000Y-50800000D03*
D12*
X122730000Y-50800000D03*
X125730000Y-50800000D03*
X128730000Y-50800000D03*
D13*
X119380000Y-63500000D03*
D14*
X121920000Y-63500000D03*
X124460000Y-63500000D03*
D15*
G36*
X117854188Y-62475518D02*
G01*
X117841928Y-62600000D01*
X117841928Y-64400000D01*
X117854188Y-64524482D01*
X117890498Y-64644180D01*
X117949463Y-64754494D01*
X118028815Y-64851185D01*
X118125506Y-64930537D01*
X118235820Y-64989502D01*
X118355518Y-65025812D01*
X118480000Y-65038072D01*
X120280000Y-65038072D01*
X120404482Y-65025812D01*
X120524180Y-64989502D01*
X120634494Y-64930537D01*
X120731185Y-64851185D01*
X120810537Y-64754494D01*
X120869502Y-64644180D01*
X120875056Y-64625873D01*
X120941495Y-64692312D01*
X121192905Y-64860299D01*
X121472257Y-64976011D01*
X121768816Y-65035000D01*
X122071184Y-65035000D01*
X122367743Y-64976011D01*
X122647095Y-64860299D01*
X122898505Y-64692312D01*
X123112312Y-64478505D01*
X123190000Y-64362237D01*
X123267688Y-64478505D01*
X123481495Y-64692312D01*
X123732905Y-64860299D01*
X124012257Y-64976011D01*
X124308816Y-65035000D01*
X124611184Y-65035000D01*
X124907743Y-64976011D01*
X125187095Y-64860299D01*
X125438505Y-64692312D01*
X125652312Y-64478505D01*
X125820299Y-64227095D01*
X125936011Y-63947743D01*
X125995000Y-63651184D01*
X125995000Y-63348816D01*
X125936011Y-63052257D01*
X125820299Y-62772905D01*
X125652312Y-62521495D01*
X125487817Y-62357000D01*
X133223000Y-62357000D01*
X133223000Y-72263000D01*
X104267000Y-72263000D01*
X104267000Y-62357000D01*
X117890140Y-62357000D01*
X117854188Y-62475518D01*
X117854188Y-62475518D01*
G37*
X117854188Y-62475518D02*
X117841928Y-62600000D01*
X117841928Y-64400000D01*
X117854188Y-64524482D01*
X117890498Y-64644180D01*
X117949463Y-64754494D01*
X118028815Y-64851185D01*
X118125506Y-64930537D01*
X118235820Y-64989502D01*
X118355518Y-65025812D01*
X118480000Y-65038072D01*
X120280000Y-65038072D01*
X120404482Y-65025812D01*
X120524180Y-64989502D01*
X120634494Y-64930537D01*
X120731185Y-64851185D01*
X120810537Y-64754494D01*
X120869502Y-64644180D01*
X120875056Y-64625873D01*
X120941495Y-64692312D01*
X121192905Y-64860299D01*
X121472257Y-64976011D01*
X121768816Y-65035000D01*
X122071184Y-65035000D01*
X122367743Y-64976011D01*
X122647095Y-64860299D01*
X122898505Y-64692312D01*
X123112312Y-64478505D01*
X123190000Y-64362237D01*
X123267688Y-64478505D01*
X123481495Y-64692312D01*
X123732905Y-64860299D01*
X124012257Y-64976011D01*
X124308816Y-65035000D01*
X124611184Y-65035000D01*
X124907743Y-64976011D01*
X125187095Y-64860299D01*
X125438505Y-64692312D01*
X125652312Y-64478505D01*
X125820299Y-64227095D01*
X125936011Y-63947743D01*
X125995000Y-63651184D01*
X125995000Y-63348816D01*
X125936011Y-63052257D01*
X125820299Y-62772905D01*
X125652312Y-62521495D01*
X125487817Y-62357000D01*
X133223000Y-62357000D01*
X133223000Y-72263000D01*
X104267000Y-72263000D01*
X104267000Y-62357000D01*
X117890140Y-62357000D01*
X117854188Y-62475518D01*
G36*
X123267688Y-62521495D02*
G01*
X123190000Y-62637763D01*
X123112312Y-62521495D01*
X122947817Y-62357000D01*
X123432183Y-62357000D01*
X123267688Y-62521495D01*
X123267688Y-62521495D01*
G37*
X123267688Y-62521495D02*
X123190000Y-62637763D01*
X123112312Y-62521495D01*
X122947817Y-62357000D01*
X123432183Y-62357000D01*
X123267688Y-62521495D01*
G36*
X120875056Y-62374127D02*
G01*
X120869860Y-62357000D01*
X120892183Y-62357000D01*
X120875056Y-62374127D01*
X120875056Y-62374127D01*
G37*
X120875056Y-62374127D02*
X120869860Y-62357000D01*
X120892183Y-62357000D01*
X120875056Y-62374127D01*
M02*
