G04 #@! TF.GenerationSoftware,KiCad,Pcbnew,5.1.3-ffb9f22~84~ubuntu18.10.1*
G04 #@! TF.CreationDate,2019-10-10T16:21:08+02:00*
G04 #@! TF.ProjectId,upuaut,75707561-7574-42e6-9b69-6361645f7063,rev?*
G04 #@! TF.SameCoordinates,Original*
G04 #@! TF.FileFunction,Legend,Top*
G04 #@! TF.FilePolarity,Positive*
%FSLAX46Y46*%
G04 Gerber Fmt 4.6, Leading zero omitted, Abs format (unit mm)*
G04 Created by KiCad (PCBNEW 5.1.3-ffb9f22~84~ubuntu18.10.1) date 2019-10-10 16:21:08*
%MOMM*%
%LPD*%
G04 APERTURE LIST*
%ADD10C,0.120000*%
%ADD11C,0.150000*%
G04 APERTURE END LIST*
D10*
X150000000Y-40000000D02*
X150000000Y-100000000D01*
X100000000Y-40000000D02*
X150000000Y-40000000D01*
X100000000Y-100000000D02*
X150000000Y-100000000D01*
X101975000Y-51890000D02*
X101975000Y-42770000D01*
X101975000Y-42770000D02*
X102975000Y-41770000D01*
X102975000Y-41770000D02*
X113845000Y-41770000D01*
X113845000Y-41770000D02*
X114845000Y-42770000D01*
X114845000Y-42770000D02*
X114845000Y-51890000D01*
X101975000Y-51890000D02*
X104400000Y-51890000D01*
X114845000Y-51890000D02*
X112061767Y-51890000D01*
X106420000Y-51890000D02*
X107758233Y-51890000D01*
X109061767Y-51890000D02*
X110758233Y-51890000D01*
X133725000Y-51890000D02*
X133725000Y-42770000D01*
X133725000Y-42770000D02*
X134725000Y-41770000D01*
X134725000Y-41770000D02*
X142595000Y-41770000D01*
X142595000Y-41770000D02*
X143595000Y-42770000D01*
X143595000Y-42770000D02*
X143595000Y-51890000D01*
X133725000Y-51890000D02*
X136150000Y-51890000D01*
X143595000Y-51890000D02*
X140811767Y-51890000D01*
X138170000Y-51890000D02*
X139508233Y-51890000D01*
X116295000Y-51890000D02*
X116295000Y-42770000D01*
X116295000Y-42770000D02*
X117295000Y-41770000D01*
X117295000Y-41770000D02*
X131165000Y-41770000D01*
X131165000Y-41770000D02*
X132165000Y-42770000D01*
X132165000Y-42770000D02*
X132165000Y-51890000D01*
X116295000Y-51890000D02*
X118720000Y-51890000D01*
X132165000Y-51890000D02*
X129381767Y-51890000D01*
X120740000Y-51890000D02*
X122078233Y-51890000D01*
X123381767Y-51890000D02*
X125078233Y-51890000D01*
X126381767Y-51890000D02*
X128078233Y-51890000D01*
X127260000Y-62100000D02*
X116610000Y-62100000D01*
X116600000Y-62100000D02*
X116600000Y-78860000D01*
X116600000Y-78860000D02*
X127260000Y-78860000D01*
X127260000Y-78860000D02*
X127260000Y-62100000D01*
D11*
X107648095Y-40132380D02*
X107648095Y-40941904D01*
X107695714Y-41037142D01*
X107743333Y-41084761D01*
X107838571Y-41132380D01*
X108029047Y-41132380D01*
X108124285Y-41084761D01*
X108171904Y-41037142D01*
X108219523Y-40941904D01*
X108219523Y-40132380D01*
X109219523Y-41132380D02*
X108648095Y-41132380D01*
X108933809Y-41132380D02*
X108933809Y-40132380D01*
X108838571Y-40275238D01*
X108743333Y-40370476D01*
X108648095Y-40418095D01*
X137898095Y-40132380D02*
X137898095Y-40941904D01*
X137945714Y-41037142D01*
X137993333Y-41084761D01*
X138088571Y-41132380D01*
X138279047Y-41132380D01*
X138374285Y-41084761D01*
X138421904Y-41037142D01*
X138469523Y-40941904D01*
X138469523Y-40132380D01*
X138850476Y-40132380D02*
X139469523Y-40132380D01*
X139136190Y-40513333D01*
X139279047Y-40513333D01*
X139374285Y-40560952D01*
X139421904Y-40608571D01*
X139469523Y-40703809D01*
X139469523Y-40941904D01*
X139421904Y-41037142D01*
X139374285Y-41084761D01*
X139279047Y-41132380D01*
X138993333Y-41132380D01*
X138898095Y-41084761D01*
X138850476Y-41037142D01*
X123468095Y-40132380D02*
X123468095Y-40941904D01*
X123515714Y-41037142D01*
X123563333Y-41084761D01*
X123658571Y-41132380D01*
X123849047Y-41132380D01*
X123944285Y-41084761D01*
X123991904Y-41037142D01*
X124039523Y-40941904D01*
X124039523Y-40132380D01*
X124944285Y-40132380D02*
X124753809Y-40132380D01*
X124658571Y-40180000D01*
X124610952Y-40227619D01*
X124515714Y-40370476D01*
X124468095Y-40560952D01*
X124468095Y-40941904D01*
X124515714Y-41037142D01*
X124563333Y-41084761D01*
X124658571Y-41132380D01*
X124849047Y-41132380D01*
X124944285Y-41084761D01*
X124991904Y-41037142D01*
X125039523Y-40941904D01*
X125039523Y-40703809D01*
X124991904Y-40608571D01*
X124944285Y-40560952D01*
X124849047Y-40513333D01*
X124658571Y-40513333D01*
X124563333Y-40560952D01*
X124515714Y-40608571D01*
X124468095Y-40703809D01*
X118618095Y-60412380D02*
X118618095Y-61221904D01*
X118665714Y-61317142D01*
X118713333Y-61364761D01*
X118808571Y-61412380D01*
X118999047Y-61412380D01*
X119094285Y-61364761D01*
X119141904Y-61317142D01*
X119189523Y-61221904D01*
X119189523Y-60412380D01*
X119570476Y-60412380D02*
X120237142Y-60412380D01*
X119808571Y-61412380D01*
M02*
