G04 #@! TF.GenerationSoftware,KiCad,Pcbnew,(5.1.4)-1*
G04 #@! TF.CreationDate,2019-11-18T18:48:45+01:00*
G04 #@! TF.ProjectId,upuaut_2Nils,75707561-7574-45f3-924e-696c732e6b69,rev?*
G04 #@! TF.SameCoordinates,Original*
G04 #@! TF.FileFunction,Legend,Bot*
G04 #@! TF.FilePolarity,Positive*
%FSLAX46Y46*%
G04 Gerber Fmt 4.6, Leading zero omitted, Abs format (unit mm)*
G04 Created by KiCad (PCBNEW (5.1.4)-1) date 2019-11-18 18:48:45*
%MOMM*%
%LPD*%
G04 APERTURE LIST*
%ADD10C,0.120000*%
%ADD11C,0.150000*%
G04 APERTURE END LIST*
D10*
X204250000Y-93450000D02*
X226250000Y-93450000D01*
X204250000Y-109450000D02*
X204250000Y-93450000D01*
X226250000Y-109450000D02*
X204250000Y-109450000D01*
X226250000Y-93450000D02*
X226250000Y-109450000D01*
X206000000Y-60550000D02*
X224000000Y-60550000D01*
X224000000Y-60550000D02*
X224000000Y-80606000D01*
X206000000Y-60550000D02*
X206000000Y-80606000D01*
X206000000Y-80606000D02*
X224000000Y-80606000D01*
X204250000Y-118950000D02*
X226250000Y-118950000D01*
X204250000Y-134950000D02*
X204250000Y-118950000D01*
X226250000Y-134950000D02*
X204250000Y-134950000D01*
X226250000Y-118950000D02*
X226250000Y-134950000D01*
X116950000Y-131500000D02*
X63950000Y-131500000D01*
X116950000Y-56500000D02*
X63950000Y-56500000D01*
X78004000Y-94000000D02*
X79528000Y-94000000D01*
X63950000Y-56500000D02*
X63950000Y-131500000D01*
X116950000Y-56500000D02*
X116950000Y-131500000D01*
D11*
X216211904Y-114302380D02*
X216211904Y-115111904D01*
X216164285Y-115207142D01*
X216116666Y-115254761D01*
X216021428Y-115302380D01*
X215830952Y-115302380D01*
X215735714Y-115254761D01*
X215688095Y-115207142D01*
X215640476Y-115111904D01*
X215640476Y-114302380D01*
X214688095Y-114302380D02*
X215164285Y-114302380D01*
X215211904Y-114778571D01*
X215164285Y-114730952D01*
X215069047Y-114683333D01*
X214830952Y-114683333D01*
X214735714Y-114730952D01*
X214688095Y-114778571D01*
X214640476Y-114873809D01*
X214640476Y-115111904D01*
X214688095Y-115207142D01*
X214735714Y-115254761D01*
X214830952Y-115302380D01*
X215069047Y-115302380D01*
X215164285Y-115254761D01*
X215211904Y-115207142D01*
X216278095Y-82148380D02*
X216278095Y-82957904D01*
X216230476Y-83053142D01*
X216182857Y-83100761D01*
X216087619Y-83148380D01*
X215897142Y-83148380D01*
X215801904Y-83100761D01*
X215754285Y-83053142D01*
X215706666Y-82957904D01*
X215706666Y-82148380D01*
X214706666Y-83148380D02*
X215278095Y-83148380D01*
X214992380Y-83148380D02*
X214992380Y-82148380D01*
X215087619Y-82291238D01*
X215182857Y-82386476D01*
X215278095Y-82434095D01*
X214087619Y-82148380D02*
X213992380Y-82148380D01*
X213897142Y-82196000D01*
X213849523Y-82243619D01*
X213801904Y-82338857D01*
X213754285Y-82529333D01*
X213754285Y-82767428D01*
X213801904Y-82957904D01*
X213849523Y-83053142D01*
X213897142Y-83100761D01*
X213992380Y-83148380D01*
X214087619Y-83148380D01*
X214182857Y-83100761D01*
X214230476Y-83053142D01*
X214278095Y-82957904D01*
X214325714Y-82767428D01*
X214325714Y-82529333D01*
X214278095Y-82338857D01*
X214230476Y-82243619D01*
X214182857Y-82196000D01*
X214087619Y-82148380D01*
X219220952Y-76867428D02*
X218459047Y-76867428D01*
X215295714Y-77040761D02*
X215152857Y-77088380D01*
X214914761Y-77088380D01*
X214819523Y-77040761D01*
X214771904Y-76993142D01*
X214724285Y-76897904D01*
X214724285Y-76802666D01*
X214771904Y-76707428D01*
X214819523Y-76659809D01*
X214914761Y-76612190D01*
X215105238Y-76564571D01*
X215200476Y-76516952D01*
X215248095Y-76469333D01*
X215295714Y-76374095D01*
X215295714Y-76278857D01*
X215248095Y-76183619D01*
X215200476Y-76136000D01*
X215105238Y-76088380D01*
X214867142Y-76088380D01*
X214724285Y-76136000D01*
X211610952Y-76887428D02*
X210849047Y-76887428D01*
X211230000Y-77268380D02*
X211230000Y-76506476D01*
X216211904Y-139802380D02*
X216211904Y-140611904D01*
X216164285Y-140707142D01*
X216116666Y-140754761D01*
X216021428Y-140802380D01*
X215830952Y-140802380D01*
X215735714Y-140754761D01*
X215688095Y-140707142D01*
X215640476Y-140611904D01*
X215640476Y-139802380D01*
X215116666Y-140802380D02*
X214926190Y-140802380D01*
X214830952Y-140754761D01*
X214783333Y-140707142D01*
X214688095Y-140564285D01*
X214640476Y-140373809D01*
X214640476Y-139992857D01*
X214688095Y-139897619D01*
X214735714Y-139850000D01*
X214830952Y-139802380D01*
X215021428Y-139802380D01*
X215116666Y-139850000D01*
X215164285Y-139897619D01*
X215211904Y-139992857D01*
X215211904Y-140230952D01*
X215164285Y-140326190D01*
X215116666Y-140373809D01*
X215021428Y-140421428D01*
X214830952Y-140421428D01*
X214735714Y-140373809D01*
X214688095Y-140326190D01*
X214640476Y-140230952D01*
M02*
