G04 #@! TF.GenerationSoftware,KiCad,Pcbnew,5.1.3-ffb9f22~84~ubuntu18.10.1*
G04 #@! TF.CreationDate,2019-10-10T16:21:08+02:00*
G04 #@! TF.ProjectId,upuaut,75707561-7574-42e6-9b69-6361645f7063,rev?*
G04 #@! TF.SameCoordinates,Original*
G04 #@! TF.FileFunction,Soldermask,Bot*
G04 #@! TF.FilePolarity,Negative*
%FSLAX46Y46*%
G04 Gerber Fmt 4.6, Leading zero omitted, Abs format (unit mm)*
G04 Created by KiCad (PCBNEW 5.1.3-ffb9f22~84~ubuntu18.10.1) date 2019-10-10 16:21:08*
%MOMM*%
%LPD*%
G04 APERTURE LIST*
%ADD10C,0.100000*%
G04 APERTURE END LIST*
D10*
G36*
X122197395Y-62585546D02*
G01*
X122370466Y-62657234D01*
X122370467Y-62657235D01*
X122526227Y-62761310D01*
X122658690Y-62893773D01*
X122658691Y-62893775D01*
X122762766Y-63049534D01*
X122834454Y-63222605D01*
X122871000Y-63406333D01*
X122871000Y-63593667D01*
X122834454Y-63777395D01*
X122762766Y-63950466D01*
X122762765Y-63950467D01*
X122658690Y-64106227D01*
X122526227Y-64238690D01*
X122447818Y-64291081D01*
X122370466Y-64342766D01*
X122197395Y-64414454D01*
X122013667Y-64451000D01*
X121826333Y-64451000D01*
X121642605Y-64414454D01*
X121469534Y-64342766D01*
X121392182Y-64291081D01*
X121313773Y-64238690D01*
X121181310Y-64106227D01*
X121077235Y-63950467D01*
X121077234Y-63950466D01*
X121005546Y-63777395D01*
X120969000Y-63593667D01*
X120969000Y-63406333D01*
X121005546Y-63222605D01*
X121077234Y-63049534D01*
X121181309Y-62893775D01*
X121181310Y-62893773D01*
X121313773Y-62761310D01*
X121469533Y-62657235D01*
X121469534Y-62657234D01*
X121642605Y-62585546D01*
X121826333Y-62549000D01*
X122013667Y-62549000D01*
X122197395Y-62585546D01*
X122197395Y-62585546D01*
G37*
G36*
X124737395Y-62585546D02*
G01*
X124910466Y-62657234D01*
X124910467Y-62657235D01*
X125066227Y-62761310D01*
X125198690Y-62893773D01*
X125198691Y-62893775D01*
X125302766Y-63049534D01*
X125374454Y-63222605D01*
X125411000Y-63406333D01*
X125411000Y-63593667D01*
X125374454Y-63777395D01*
X125302766Y-63950466D01*
X125302765Y-63950467D01*
X125198690Y-64106227D01*
X125066227Y-64238690D01*
X124987818Y-64291081D01*
X124910466Y-64342766D01*
X124737395Y-64414454D01*
X124553667Y-64451000D01*
X124366333Y-64451000D01*
X124182605Y-64414454D01*
X124009534Y-64342766D01*
X123932182Y-64291081D01*
X123853773Y-64238690D01*
X123721310Y-64106227D01*
X123617235Y-63950467D01*
X123617234Y-63950466D01*
X123545546Y-63777395D01*
X123509000Y-63593667D01*
X123509000Y-63406333D01*
X123545546Y-63222605D01*
X123617234Y-63049534D01*
X123721309Y-62893775D01*
X123721310Y-62893773D01*
X123853773Y-62761310D01*
X124009533Y-62657235D01*
X124009534Y-62657234D01*
X124182605Y-62585546D01*
X124366333Y-62549000D01*
X124553667Y-62549000D01*
X124737395Y-62585546D01*
X124737395Y-62585546D01*
G37*
G36*
X120331000Y-64451000D02*
G01*
X118429000Y-64451000D01*
X118429000Y-62549000D01*
X120331000Y-62549000D01*
X120331000Y-64451000D01*
X120331000Y-64451000D01*
G37*
G36*
X108567022Y-49750590D02*
G01*
X108632511Y-49770456D01*
X108718012Y-49796392D01*
X108823193Y-49852613D01*
X108857164Y-49870771D01*
X108979133Y-49970867D01*
X109079229Y-50092835D01*
X109153608Y-50231987D01*
X109168875Y-50282318D01*
X109199410Y-50382977D01*
X109211000Y-50500655D01*
X109211000Y-51099345D01*
X109199410Y-51217023D01*
X109168875Y-51317682D01*
X109153608Y-51368013D01*
X109079229Y-51507165D01*
X108979133Y-51629133D01*
X108857165Y-51729229D01*
X108718013Y-51803608D01*
X108667682Y-51818875D01*
X108567023Y-51849410D01*
X108410000Y-51864875D01*
X108252978Y-51849410D01*
X108152319Y-51818875D01*
X108101988Y-51803608D01*
X107962836Y-51729229D01*
X107840868Y-51629133D01*
X107812035Y-51594000D01*
X107740772Y-51507165D01*
X107703582Y-51437588D01*
X107666392Y-51368013D01*
X107651125Y-51317682D01*
X107620590Y-51217023D01*
X107609000Y-51099345D01*
X107609000Y-50500656D01*
X107620590Y-50382978D01*
X107666392Y-50231989D01*
X107666392Y-50231988D01*
X107740771Y-50092836D01*
X107740772Y-50092835D01*
X107840867Y-49970867D01*
X107962835Y-49870771D01*
X107996806Y-49852613D01*
X108101987Y-49796392D01*
X108187488Y-49770456D01*
X108252977Y-49750590D01*
X108410000Y-49735125D01*
X108567022Y-49750590D01*
X108567022Y-49750590D01*
G37*
G36*
X128887022Y-49750590D02*
G01*
X128952511Y-49770456D01*
X129038012Y-49796392D01*
X129143193Y-49852613D01*
X129177164Y-49870771D01*
X129299133Y-49970867D01*
X129399229Y-50092835D01*
X129473608Y-50231987D01*
X129488875Y-50282318D01*
X129519410Y-50382977D01*
X129531000Y-50500655D01*
X129531000Y-51099345D01*
X129519410Y-51217023D01*
X129488875Y-51317682D01*
X129473608Y-51368013D01*
X129399229Y-51507165D01*
X129299133Y-51629133D01*
X129177165Y-51729229D01*
X129038013Y-51803608D01*
X128987682Y-51818875D01*
X128887023Y-51849410D01*
X128730000Y-51864875D01*
X128572978Y-51849410D01*
X128472319Y-51818875D01*
X128421988Y-51803608D01*
X128282836Y-51729229D01*
X128160868Y-51629133D01*
X128132035Y-51594000D01*
X128060772Y-51507165D01*
X128023582Y-51437588D01*
X127986392Y-51368013D01*
X127971125Y-51317682D01*
X127940590Y-51217023D01*
X127929000Y-51099345D01*
X127929000Y-50500656D01*
X127940590Y-50382978D01*
X127986392Y-50231989D01*
X127986392Y-50231988D01*
X128060771Y-50092836D01*
X128060772Y-50092835D01*
X128160867Y-49970867D01*
X128282835Y-49870771D01*
X128316806Y-49852613D01*
X128421987Y-49796392D01*
X128507488Y-49770456D01*
X128572977Y-49750590D01*
X128730000Y-49735125D01*
X128887022Y-49750590D01*
X128887022Y-49750590D01*
G37*
G36*
X125887022Y-49750590D02*
G01*
X125952511Y-49770456D01*
X126038012Y-49796392D01*
X126143193Y-49852613D01*
X126177164Y-49870771D01*
X126299133Y-49970867D01*
X126399229Y-50092835D01*
X126473608Y-50231987D01*
X126488875Y-50282318D01*
X126519410Y-50382977D01*
X126531000Y-50500655D01*
X126531000Y-51099345D01*
X126519410Y-51217023D01*
X126488875Y-51317682D01*
X126473608Y-51368013D01*
X126399229Y-51507165D01*
X126299133Y-51629133D01*
X126177165Y-51729229D01*
X126038013Y-51803608D01*
X125987682Y-51818875D01*
X125887023Y-51849410D01*
X125730000Y-51864875D01*
X125572978Y-51849410D01*
X125472319Y-51818875D01*
X125421988Y-51803608D01*
X125282836Y-51729229D01*
X125160868Y-51629133D01*
X125132035Y-51594000D01*
X125060772Y-51507165D01*
X125023582Y-51437588D01*
X124986392Y-51368013D01*
X124971125Y-51317682D01*
X124940590Y-51217023D01*
X124929000Y-51099345D01*
X124929000Y-50500656D01*
X124940590Y-50382978D01*
X124986392Y-50231989D01*
X124986392Y-50231988D01*
X125060771Y-50092836D01*
X125060772Y-50092835D01*
X125160867Y-49970867D01*
X125282835Y-49870771D01*
X125316806Y-49852613D01*
X125421987Y-49796392D01*
X125507488Y-49770456D01*
X125572977Y-49750590D01*
X125730000Y-49735125D01*
X125887022Y-49750590D01*
X125887022Y-49750590D01*
G37*
G36*
X122887022Y-49750590D02*
G01*
X122952511Y-49770456D01*
X123038012Y-49796392D01*
X123143193Y-49852613D01*
X123177164Y-49870771D01*
X123299133Y-49970867D01*
X123399229Y-50092835D01*
X123473608Y-50231987D01*
X123488875Y-50282318D01*
X123519410Y-50382977D01*
X123531000Y-50500655D01*
X123531000Y-51099345D01*
X123519410Y-51217023D01*
X123488875Y-51317682D01*
X123473608Y-51368013D01*
X123399229Y-51507165D01*
X123299133Y-51629133D01*
X123177165Y-51729229D01*
X123038013Y-51803608D01*
X122987682Y-51818875D01*
X122887023Y-51849410D01*
X122730000Y-51864875D01*
X122572978Y-51849410D01*
X122472319Y-51818875D01*
X122421988Y-51803608D01*
X122282836Y-51729229D01*
X122160868Y-51629133D01*
X122132035Y-51594000D01*
X122060772Y-51507165D01*
X122023582Y-51437588D01*
X121986392Y-51368013D01*
X121971125Y-51317682D01*
X121940590Y-51217023D01*
X121929000Y-51099345D01*
X121929000Y-50500656D01*
X121940590Y-50382978D01*
X121986392Y-50231989D01*
X121986392Y-50231988D01*
X122060771Y-50092836D01*
X122060772Y-50092835D01*
X122160867Y-49970867D01*
X122282835Y-49870771D01*
X122316806Y-49852613D01*
X122421987Y-49796392D01*
X122507488Y-49770456D01*
X122572977Y-49750590D01*
X122730000Y-49735125D01*
X122887022Y-49750590D01*
X122887022Y-49750590D01*
G37*
G36*
X140317022Y-49750590D02*
G01*
X140382511Y-49770456D01*
X140468012Y-49796392D01*
X140573193Y-49852613D01*
X140607164Y-49870771D01*
X140729133Y-49970867D01*
X140829229Y-50092835D01*
X140903608Y-50231987D01*
X140918875Y-50282318D01*
X140949410Y-50382977D01*
X140961000Y-50500655D01*
X140961000Y-51099345D01*
X140949410Y-51217023D01*
X140918875Y-51317682D01*
X140903608Y-51368013D01*
X140829229Y-51507165D01*
X140729133Y-51629133D01*
X140607165Y-51729229D01*
X140468013Y-51803608D01*
X140417682Y-51818875D01*
X140317023Y-51849410D01*
X140160000Y-51864875D01*
X140002978Y-51849410D01*
X139902319Y-51818875D01*
X139851988Y-51803608D01*
X139712836Y-51729229D01*
X139590868Y-51629133D01*
X139562035Y-51594000D01*
X139490772Y-51507165D01*
X139453582Y-51437588D01*
X139416392Y-51368013D01*
X139401125Y-51317682D01*
X139370590Y-51217023D01*
X139359000Y-51099345D01*
X139359000Y-50500656D01*
X139370590Y-50382978D01*
X139416392Y-50231989D01*
X139416392Y-50231988D01*
X139490771Y-50092836D01*
X139490772Y-50092835D01*
X139590867Y-49970867D01*
X139712835Y-49870771D01*
X139746806Y-49852613D01*
X139851987Y-49796392D01*
X139937488Y-49770456D01*
X140002977Y-49750590D01*
X140160000Y-49735125D01*
X140317022Y-49750590D01*
X140317022Y-49750590D01*
G37*
G36*
X111567022Y-49750590D02*
G01*
X111632511Y-49770456D01*
X111718012Y-49796392D01*
X111823193Y-49852613D01*
X111857164Y-49870771D01*
X111979133Y-49970867D01*
X112079229Y-50092835D01*
X112153608Y-50231987D01*
X112168875Y-50282318D01*
X112199410Y-50382977D01*
X112211000Y-50500655D01*
X112211000Y-51099345D01*
X112199410Y-51217023D01*
X112168875Y-51317682D01*
X112153608Y-51368013D01*
X112079229Y-51507165D01*
X111979133Y-51629133D01*
X111857165Y-51729229D01*
X111718013Y-51803608D01*
X111667682Y-51818875D01*
X111567023Y-51849410D01*
X111410000Y-51864875D01*
X111252978Y-51849410D01*
X111152319Y-51818875D01*
X111101988Y-51803608D01*
X110962836Y-51729229D01*
X110840868Y-51629133D01*
X110812035Y-51594000D01*
X110740772Y-51507165D01*
X110703582Y-51437588D01*
X110666392Y-51368013D01*
X110651125Y-51317682D01*
X110620590Y-51217023D01*
X110609000Y-51099345D01*
X110609000Y-50500656D01*
X110620590Y-50382978D01*
X110666392Y-50231989D01*
X110666392Y-50231988D01*
X110740771Y-50092836D01*
X110740772Y-50092835D01*
X110840867Y-49970867D01*
X110962835Y-49870771D01*
X110996806Y-49852613D01*
X111101987Y-49796392D01*
X111187488Y-49770456D01*
X111252977Y-49750590D01*
X111410000Y-49735125D01*
X111567022Y-49750590D01*
X111567022Y-49750590D01*
G37*
G36*
X106063048Y-49743122D02*
G01*
X106097387Y-49753539D01*
X106129036Y-49770456D01*
X106156778Y-49793222D01*
X106179544Y-49820964D01*
X106196461Y-49852613D01*
X106206878Y-49886952D01*
X106211000Y-49928807D01*
X106211000Y-51671193D01*
X106206878Y-51713048D01*
X106196461Y-51747387D01*
X106179544Y-51779036D01*
X106156778Y-51806778D01*
X106129036Y-51829544D01*
X106097387Y-51846461D01*
X106063048Y-51856878D01*
X106021193Y-51861000D01*
X104798807Y-51861000D01*
X104756952Y-51856878D01*
X104722613Y-51846461D01*
X104690964Y-51829544D01*
X104663222Y-51806778D01*
X104640456Y-51779036D01*
X104623539Y-51747387D01*
X104613122Y-51713048D01*
X104609000Y-51671193D01*
X104609000Y-49928807D01*
X104613122Y-49886952D01*
X104623539Y-49852613D01*
X104640456Y-49820964D01*
X104663222Y-49793222D01*
X104690964Y-49770456D01*
X104722613Y-49753539D01*
X104756952Y-49743122D01*
X104798807Y-49739000D01*
X106021193Y-49739000D01*
X106063048Y-49743122D01*
X106063048Y-49743122D01*
G37*
G36*
X137813048Y-49743122D02*
G01*
X137847387Y-49753539D01*
X137879036Y-49770456D01*
X137906778Y-49793222D01*
X137929544Y-49820964D01*
X137946461Y-49852613D01*
X137956878Y-49886952D01*
X137961000Y-49928807D01*
X137961000Y-51671193D01*
X137956878Y-51713048D01*
X137946461Y-51747387D01*
X137929544Y-51779036D01*
X137906778Y-51806778D01*
X137879036Y-51829544D01*
X137847387Y-51846461D01*
X137813048Y-51856878D01*
X137771193Y-51861000D01*
X136548807Y-51861000D01*
X136506952Y-51856878D01*
X136472613Y-51846461D01*
X136440964Y-51829544D01*
X136413222Y-51806778D01*
X136390456Y-51779036D01*
X136373539Y-51747387D01*
X136363122Y-51713048D01*
X136359000Y-51671193D01*
X136359000Y-49928807D01*
X136363122Y-49886952D01*
X136373539Y-49852613D01*
X136390456Y-49820964D01*
X136413222Y-49793222D01*
X136440964Y-49770456D01*
X136472613Y-49753539D01*
X136506952Y-49743122D01*
X136548807Y-49739000D01*
X137771193Y-49739000D01*
X137813048Y-49743122D01*
X137813048Y-49743122D01*
G37*
G36*
X120383048Y-49743122D02*
G01*
X120417387Y-49753539D01*
X120449036Y-49770456D01*
X120476778Y-49793222D01*
X120499544Y-49820964D01*
X120516461Y-49852613D01*
X120526878Y-49886952D01*
X120531000Y-49928807D01*
X120531000Y-51671193D01*
X120526878Y-51713048D01*
X120516461Y-51747387D01*
X120499544Y-51779036D01*
X120476778Y-51806778D01*
X120449036Y-51829544D01*
X120417387Y-51846461D01*
X120383048Y-51856878D01*
X120341193Y-51861000D01*
X119118807Y-51861000D01*
X119076952Y-51856878D01*
X119042613Y-51846461D01*
X119010964Y-51829544D01*
X118983222Y-51806778D01*
X118960456Y-51779036D01*
X118943539Y-51747387D01*
X118933122Y-51713048D01*
X118929000Y-51671193D01*
X118929000Y-49928807D01*
X118933122Y-49886952D01*
X118943539Y-49852613D01*
X118960456Y-49820964D01*
X118983222Y-49793222D01*
X119010964Y-49770456D01*
X119042613Y-49753539D01*
X119076952Y-49743122D01*
X119118807Y-49739000D01*
X120341193Y-49739000D01*
X120383048Y-49743122D01*
X120383048Y-49743122D01*
G37*
G36*
X122182585Y-44958802D02*
G01*
X122332410Y-44988604D01*
X122614674Y-45105521D01*
X122868705Y-45275259D01*
X123084741Y-45491295D01*
X123254479Y-45745326D01*
X123371396Y-46027590D01*
X123431000Y-46327240D01*
X123431000Y-46632760D01*
X123371396Y-46932410D01*
X123254479Y-47214674D01*
X123084741Y-47468705D01*
X122868705Y-47684741D01*
X122614674Y-47854479D01*
X122332410Y-47971396D01*
X122182585Y-48001198D01*
X122032761Y-48031000D01*
X121727239Y-48031000D01*
X121577415Y-48001198D01*
X121427590Y-47971396D01*
X121145326Y-47854479D01*
X120891295Y-47684741D01*
X120675259Y-47468705D01*
X120505521Y-47214674D01*
X120388604Y-46932410D01*
X120329000Y-46632760D01*
X120329000Y-46327240D01*
X120388604Y-46027590D01*
X120505521Y-45745326D01*
X120675259Y-45491295D01*
X120891295Y-45275259D01*
X121145326Y-45105521D01*
X121427590Y-44988604D01*
X121577415Y-44958802D01*
X121727239Y-44929000D01*
X122032761Y-44929000D01*
X122182585Y-44958802D01*
X122182585Y-44958802D01*
G37*
G36*
X126882585Y-44958802D02*
G01*
X127032410Y-44988604D01*
X127314674Y-45105521D01*
X127568705Y-45275259D01*
X127784741Y-45491295D01*
X127954479Y-45745326D01*
X128071396Y-46027590D01*
X128131000Y-46327240D01*
X128131000Y-46632760D01*
X128071396Y-46932410D01*
X127954479Y-47214674D01*
X127784741Y-47468705D01*
X127568705Y-47684741D01*
X127314674Y-47854479D01*
X127032410Y-47971396D01*
X126882585Y-48001198D01*
X126732761Y-48031000D01*
X126427239Y-48031000D01*
X126277415Y-48001198D01*
X126127590Y-47971396D01*
X125845326Y-47854479D01*
X125591295Y-47684741D01*
X125375259Y-47468705D01*
X125205521Y-47214674D01*
X125088604Y-46932410D01*
X125029000Y-46632760D01*
X125029000Y-46327240D01*
X125088604Y-46027590D01*
X125205521Y-45745326D01*
X125375259Y-45491295D01*
X125591295Y-45275259D01*
X125845326Y-45105521D01*
X126127590Y-44988604D01*
X126277415Y-44958802D01*
X126427239Y-44929000D01*
X126732761Y-44929000D01*
X126882585Y-44958802D01*
X126882585Y-44958802D01*
G37*
G36*
X138962585Y-44958802D02*
G01*
X139112410Y-44988604D01*
X139394674Y-45105521D01*
X139648705Y-45275259D01*
X139864741Y-45491295D01*
X140034479Y-45745326D01*
X140151396Y-46027590D01*
X140211000Y-46327240D01*
X140211000Y-46632760D01*
X140151396Y-46932410D01*
X140034479Y-47214674D01*
X139864741Y-47468705D01*
X139648705Y-47684741D01*
X139394674Y-47854479D01*
X139112410Y-47971396D01*
X138962585Y-48001198D01*
X138812761Y-48031000D01*
X138507239Y-48031000D01*
X138357415Y-48001198D01*
X138207590Y-47971396D01*
X137925326Y-47854479D01*
X137671295Y-47684741D01*
X137455259Y-47468705D01*
X137285521Y-47214674D01*
X137168604Y-46932410D01*
X137109000Y-46632760D01*
X137109000Y-46327240D01*
X137168604Y-46027590D01*
X137285521Y-45745326D01*
X137455259Y-45491295D01*
X137671295Y-45275259D01*
X137925326Y-45105521D01*
X138207590Y-44988604D01*
X138357415Y-44958802D01*
X138507239Y-44929000D01*
X138812761Y-44929000D01*
X138962585Y-44958802D01*
X138962585Y-44958802D01*
G37*
G36*
X108712585Y-44958802D02*
G01*
X108862410Y-44988604D01*
X109144674Y-45105521D01*
X109398705Y-45275259D01*
X109614741Y-45491295D01*
X109784479Y-45745326D01*
X109901396Y-46027590D01*
X109961000Y-46327240D01*
X109961000Y-46632760D01*
X109901396Y-46932410D01*
X109784479Y-47214674D01*
X109614741Y-47468705D01*
X109398705Y-47684741D01*
X109144674Y-47854479D01*
X108862410Y-47971396D01*
X108712585Y-48001198D01*
X108562761Y-48031000D01*
X108257239Y-48031000D01*
X108107415Y-48001198D01*
X107957590Y-47971396D01*
X107675326Y-47854479D01*
X107421295Y-47684741D01*
X107205259Y-47468705D01*
X107035521Y-47214674D01*
X106918604Y-46932410D01*
X106859000Y-46632760D01*
X106859000Y-46327240D01*
X106918604Y-46027590D01*
X107035521Y-45745326D01*
X107205259Y-45491295D01*
X107421295Y-45275259D01*
X107675326Y-45105521D01*
X107957590Y-44988604D01*
X108107415Y-44958802D01*
X108257239Y-44929000D01*
X108562761Y-44929000D01*
X108712585Y-44958802D01*
X108712585Y-44958802D01*
G37*
M02*
